<svg width="31" height="30" viewBox="0 0 31 30" fill="none" xmlns="http://www.w3.org/2000/svg">
<g clip-path="url(#clip0_6775_4168)">
<path d="M15.6009 0.241943C7.45029 0.241943 0.842773 6.84946 0.842773 15.0001C0.842773 21.9211 5.60788 27.7287 12.0359 29.3238V19.5102H8.99281V15.0001H12.0359V13.0567C12.0359 8.03365 14.3093 5.70541 19.2409 5.70541C20.1759 5.70541 21.7893 5.889 22.4493 6.072V10.16C22.101 10.1234 21.4959 10.1051 20.7444 10.1051C18.3247 10.1051 17.3896 11.0219 17.3896 13.405V15.0001H22.2102L21.382 19.5102H17.3896V29.6502C24.6972 28.7677 30.3597 22.5456 30.3597 15.0001C30.3591 6.84946 23.7515 0.241943 15.6009 0.241943Z" fill="#223A46"/>
</g>
<defs>
<clipPath id="clip0_6775_4168">
<rect width="29.5163" height="29.5163" fill="white" transform="translate(0.842773 0.241943)"/>
</clipPath>
</defs>
</svg>
