<svg width="892" height="404" viewBox="0 0 892 404" fill="none" xmlns="http://www.w3.org/2000/svg">
<path d="M0.908203 0V43.1926C0.908203 67.0987 20.1948 86.3853 44.1009 86.3853C68.007 86.3853 87.2935 67.0987 87.2935 43.1926V0H0.908203Z" fill="#FFD2B8"/>
<path d="M0.792969 179.467H43.9856C67.8917 179.467 87.1783 160.181 87.1783 136.275C87.1783 112.369 67.8917 93.082 43.9856 93.082H0.792969V179.467Z" fill="#FFD2B8"/>
<path d="M180.378 179.469V43.1926C180.378 19.2866 161.092 0 137.186 0C113.28 0 93.9932 19.2866 93.9932 43.1926V179.469H180.378Z" fill="#FFD2B8"/>
<path d="M237.818 0V136.276C237.818 160.182 257.105 179.469 281.011 179.469C304.917 179.469 324.204 160.182 324.204 136.276V0H237.818Z" fill="#FFD2B8"/>
<path d="M374.094 179.467C397.949 179.467 417.287 160.129 417.287 136.275C417.287 112.42 397.949 93.082 374.094 93.082C350.239 93.082 330.901 112.42 330.901 136.275C330.901 160.129 350.239 179.467 374.094 179.467Z" fill="#FFD2B8"/>
<path d="M374.094 0C350.188 0 330.901 19.402 330.901 43.1926H417.287C417.287 19.2865 398 0 374.094 0Z" fill="#FFD2B8"/>
<path d="M374.094 46.542C350.188 46.542 330.901 65.9441 330.901 89.7347H417.287C417.287 65.8286 398 46.542 374.094 46.542Z" fill="#FFD2B8"/>
<path d="M711.638 223.949V360.226C711.638 384.132 730.924 403.418 754.83 403.418C778.736 403.418 798.023 384.132 798.023 360.226V223.949H711.638Z" fill="#FFD2B8"/>
<path d="M847.913 403.418C871.768 403.418 891.106 384.08 891.106 360.225C891.106 336.37 871.768 317.032 847.913 317.032C824.059 317.032 804.721 336.37 804.721 360.225C804.721 384.08 824.059 403.418 847.913 403.418Z" fill="#FFD2B8"/>
<path d="M847.913 223.949C824.007 223.949 804.721 243.351 804.721 267.142H891.106C891.106 243.236 871.819 223.949 847.913 223.949Z" fill="#FFD2B8"/>
<path d="M847.913 270.491C824.007 270.491 804.721 289.893 804.721 313.684H891.106C891.106 289.778 871.819 270.491 847.913 270.491Z" fill="#FFD2B8"/>
<path d="M654.197 0H517.92C494.014 0 474.728 19.2865 474.728 43.1926C474.728 67.0987 494.014 86.3853 517.92 86.3853H654.197V0Z" fill="#FFD2B8"/>
<path d="M517.92 179.467C541.775 179.467 561.113 160.129 561.113 136.275C561.113 112.42 541.775 93.082 517.92 93.082C494.066 93.082 474.728 112.42 474.728 136.275C474.728 160.129 494.066 179.467 517.92 179.467Z" fill="#FFD2B8"/>
<path d="M654.196 136.275C654.196 112.369 634.794 93.082 611.003 93.082V179.467C634.909 179.467 654.196 160.181 654.196 136.275Z" fill="#FFD2B8"/>
<path d="M607.655 136.275C607.655 112.369 588.253 93.082 564.462 93.082V179.467C588.368 179.467 607.655 160.181 607.655 136.275Z" fill="#FFD2B8"/>
<path d="M180.32 223.949H44.0433C20.1372 223.949 0.850586 243.236 0.850586 267.142C0.850586 291.048 20.1372 310.335 44.0433 310.335H180.32V223.949Z" fill="#FFD2B8"/>
<path d="M93.8184 403.419H137.011C160.917 403.419 180.204 384.133 180.204 360.227C180.204 336.321 160.917 317.034 137.011 317.034H93.8184V403.419Z" fill="#FFD2B8"/>
<path d="M44.0433 403.419C67.8979 403.419 87.2358 384.081 87.2358 360.227C87.2358 336.372 67.8979 317.034 44.0433 317.034C20.1886 317.034 0.850586 336.372 0.850586 360.227C0.850586 384.081 20.1886 403.419 44.0433 403.419Z" fill="#FFD2B8"/>
<path d="M330.9 223.949V267.142C330.9 291.048 350.187 310.335 374.093 310.335C397.999 310.335 417.286 291.048 417.286 267.142V223.949H330.9Z" fill="#FFD2B8"/>
<path d="M324.204 223.949H281.011C257.105 223.949 237.818 243.236 237.818 267.142C237.818 291.048 257.105 310.335 281.011 310.335H324.204V223.949Z" fill="#FFD2B8"/>
<path d="M324.204 403.417V360.224C324.204 336.318 304.917 317.031 281.011 317.031C257.105 317.031 237.818 336.318 237.818 360.224V403.417H324.204Z" fill="#FFD2B8"/>
<path d="M330.9 403.417H374.093C397.999 403.417 417.286 384.13 417.286 360.224C417.286 336.318 397.999 317.031 374.093 317.031H330.9V403.417Z" fill="#FFD2B8"/>
<path d="M804.721 0V43.1926C804.721 67.0987 824.007 86.3853 847.913 86.3853C871.819 86.3853 891.106 67.0987 891.106 43.1926V0H804.721Z" fill="#FFD2B8"/>
<path d="M798.023 0H754.83C730.924 0 711.638 19.2865 711.638 43.1926C711.638 67.0987 730.924 86.3853 754.83 86.3853H798.023V0Z" fill="#FFD2B8"/>
<path d="M798.023 179.467V136.275C798.023 112.369 778.736 93.082 754.83 93.082C730.924 93.082 711.638 112.369 711.638 136.275V179.467H798.023Z" fill="#FFD2B8"/>
<path d="M804.721 179.467H847.913C871.819 179.467 891.106 160.181 891.106 136.275C891.106 112.369 871.819 93.082 847.913 93.082H804.721V179.467Z" fill="#FFD2B8"/>
<path d="M517.92 403.88C541.775 403.88 561.113 384.542 561.113 360.688C561.113 336.833 541.775 317.495 517.92 317.495C494.066 317.495 474.728 336.833 474.728 360.688C474.728 384.542 494.066 403.88 517.92 403.88Z" fill="#FFD2B8"/>
<path d="M517.92 310.335C541.775 310.335 561.113 290.996 561.113 267.142C561.113 243.287 541.775 223.949 517.92 223.949C494.066 223.949 474.728 243.287 474.728 267.142C474.728 290.996 494.066 310.335 517.92 310.335Z" fill="#FFD2B8"/>
<path d="M611.003 310.335C634.858 310.335 654.196 290.996 654.196 267.142C654.196 243.287 634.858 223.949 611.003 223.949C587.148 223.949 567.811 243.287 567.811 267.142C567.811 290.996 587.148 310.335 611.003 310.335Z" fill="#FFD2B8"/>
</svg>
