<svg width="562" height="178" viewBox="0 0 562 178" fill="none" xmlns="http://www.w3.org/2000/svg">
<g clip-path="url(#clip0_484_3377)">
<mask id="mask0_484_3377" style="mask-type:luminance" maskUnits="userSpaceOnUse" x="0" y="0" width="561" height="178">
<path d="M560.608 0.0371094H0.323242V177.627H560.608V0.0371094Z" fill="white"/>
</mask>
<g mask="url(#mask0_484_3377)">
<path d="M284.651 135.381C284.385 135.081 284.036 134.833 283.918 134.434C283.733 133.815 283.21 133.328 283.245 132.617C283.254 132.441 283.123 132.232 283.002 132.081C282.837 131.874 282.745 131.657 282.712 131.399C282.681 131.15 282.674 130.885 282.579 130.659C282.279 129.95 282.155 129.21 282.107 128.451C282.097 128.301 282.1 128.132 282.033 128.006C281.685 127.351 281.71 126.637 281.698 125.934C281.668 124.317 281.654 122.7 281.653 121.082C281.65 103.442 281.651 85.801 281.651 68.1608C281.651 49.1555 281.651 30.1503 281.651 11.1451C281.651 10.6392 281.663 10.1334 281.641 9.62915C281.63 9.38193 281.62 9.09453 281.495 8.90115C281.23 8.49393 281.199 8.05107 281.149 7.60062C281.137 7.50355 281.11 7.3898 281.049 7.31927C280.655 6.86579 280.318 6.34179 279.777 6.04529C278.861 5.54403 277.88 5.40374 276.852 5.60241C276.358 5.90803 275.787 5.90651 275.242 5.96642C274.384 6.06121 273.6 6.44113 272.752 6.5655C272.612 6.58598 272.469 6.67773 272.356 6.77024C272.149 6.93859 271.918 7.00837 271.661 7.0258C271.409 7.04325 271.157 7.06978 270.906 7.08951C270.6 7.11377 270.337 7.21615 270.068 7.38449C269.594 7.68024 267.374 8.48787 266.831 8.58797C266.428 8.66304 266.075 8.82912 265.705 8.9967C265.299 9.18022 264.837 9.23406 264.404 9.35767C264.313 9.38345 264.243 9.47748 264.155 9.52451C263.672 9.78461 263.193 10.0531 262.699 10.2912C262.339 10.4648 261.97 10.6567 261.585 10.7325C260.426 10.9623 259.488 11.6926 258.401 12.0778C257.896 12.5214 257.244 12.6829 256.64 12.8893C255.921 13.1349 255.226 13.4101 254.555 13.7643C254.025 14.0441 253.508 14.3634 252.953 14.5802C252.347 14.8169 251.823 15.2134 251.196 15.4038C250.715 15.5495 250.236 15.7079 249.772 15.8998C249.354 16.0719 248.959 16.2971 248.555 16.5003C248.198 16.6793 247.787 16.7984 247.5 17.0562C247.14 17.3808 246.662 17.3513 246.282 17.6273C245.806 17.9738 245.242 18.218 244.648 18.3446C244.2 18.4402 243.786 18.6177 243.385 18.839C242.947 19.0794 242.507 19.3335 242.038 19.492C241.369 19.718 240.958 20.2162 240.563 20.7364C240.299 21.0829 240.486 21.679 240.898 21.8883C241.435 22.1613 241.979 22.4237 242.52 22.6876C243.104 22.972 243.723 23.1965 244.144 23.7356C244.308 23.9456 244.546 24.029 244.788 24.1095C244.987 24.1762 245.16 24.2907 245.217 24.4993C245.327 24.9102 245.596 25.212 245.882 25.4942C246.106 25.7141 246.229 25.9773 246.366 26.2479C246.62 26.7432 246.899 27.2133 246.92 27.7957C246.928 27.9792 247.041 28.1855 247.164 28.3326C247.374 28.5843 247.439 28.8687 247.449 29.1735C247.468 29.8302 247.469 30.4878 247.488 31.1438C247.494 31.3948 247.46 31.6775 247.56 31.8899C247.904 32.6119 247.838 33.3702 247.839 34.1239C247.841 39.4315 247.842 44.7383 247.839 50.0459C247.839 50.7981 247.919 51.5595 247.55 52.273C247.464 52.4398 247.497 52.6697 247.477 52.8698C247.45 53.1208 247.428 53.3727 247.4 53.6237C247.377 53.8344 247.247 53.9824 247.116 54.1401C246.843 54.4684 246.534 54.6861 246.082 54.6678C245.731 54.6542 245.377 54.6846 245.024 54.6732C244.877 54.6686 244.705 54.6443 244.589 54.5639C244.014 54.1688 243.305 53.9884 242.827 53.4265C242.503 53.0435 242.126 52.7007 241.756 52.358C241.426 52.0516 241.11 51.6945 240.718 51.4957C240.253 51.26 239.885 50.9331 239.518 50.591C239.147 50.2483 238.792 49.8919 238.415 49.556C238.269 49.4256 238.099 49.2951 237.917 49.2382C237.618 49.1457 237.369 49.007 237.153 48.7779C236.632 48.2297 236.097 47.6951 235.324 47.5092C235.018 47.1225 234.481 47.1785 234.13 46.8911C233.711 46.5477 233.199 46.5332 232.709 46.4287C232.614 46.4081 232.519 46.3581 232.438 46.3005C232.141 46.0896 231.802 46.0101 231.457 45.9243C231.07 45.828 230.701 45.6438 230.309 45.5762C229.856 45.4982 229.427 45.4269 229.049 45.1265C228.908 45.0151 228.668 45.0044 228.472 44.9931C227.867 44.9582 227.26 44.9415 226.655 44.9256C226.153 44.9128 225.646 44.9635 225.23 44.5707C225.134 44.4797 224.948 44.4524 224.801 44.4509C223.742 44.441 222.682 44.4373 221.621 44.4532C221.43 44.4562 221.208 44.5131 221.057 44.623C220.704 44.8786 220.319 44.918 219.909 44.9241C219.354 44.9317 218.8 44.9605 218.244 44.9764C217.788 44.9893 217.354 45.0272 216.96 45.326C216.779 45.4633 216.485 45.4853 216.24 45.4989C215.434 45.5436 214.646 45.6035 213.89 45.9599C213.349 46.2155 212.754 46.3725 212.169 46.5105C211.77 46.6045 211.406 46.7274 211.056 46.9473C210.678 47.1839 210.173 47.1869 209.866 47.5684C209.359 47.6654 208.98 48.0377 208.516 48.2092C208.123 48.354 207.793 48.5436 207.509 48.8469C207.376 48.988 207.204 49.135 207.025 49.1783C206.663 49.2655 206.383 49.4414 206.131 49.7053C205.923 49.9222 205.703 50.2036 205.44 50.2771C204.757 50.4682 204.363 50.9945 203.884 51.4313C203.701 51.6004 203.509 51.8492 203.295 51.8818C202.786 51.9583 202.504 52.3329 202.186 52.6294C201.303 53.4554 200.465 54.3289 199.62 55.1934C199.484 55.3322 199.34 55.5081 199.303 55.6879C199.227 56.0632 198.995 56.3127 198.748 56.5674C198.362 56.9656 197.975 57.3645 197.595 57.7679C197.457 57.9135 197.252 58.0614 197.225 58.232C197.14 58.7848 196.692 59.0737 196.412 59.4818C196.271 59.688 196.126 59.8942 196.005 60.1135C195.692 60.6844 195.446 61.3025 195.068 61.825C194.741 62.2762 194.495 62.7547 194.226 63.2332C193.904 63.8057 193.688 64.4208 193.373 64.9902C193.054 65.5659 192.821 66.1687 192.621 66.7974C192.486 67.219 192.259 67.6202 192.122 68.0516C191.738 68.3596 191.785 68.8941 191.504 69.246C191.167 69.6698 191.196 70.1992 191.022 70.6671C190.655 71.6567 190.249 72.632 190.096 73.6875C190.082 73.7838 190.049 73.8976 189.984 73.9628C189.585 74.3602 189.608 74.8774 189.56 75.3764C189.531 75.6759 189.557 75.9989 189.363 76.2507C189.101 76.5912 189.044 76.9794 189.008 77.3866C188.982 77.6869 188.986 78.0198 188.853 78.2755C188.564 78.8366 188.582 79.4508 188.445 80.037C188.378 80.3313 188.414 80.6627 188.294 80.9281C188.054 81.4558 188.063 82.0026 188.018 82.5561C187.955 83.3093 187.831 84.0569 187.734 84.8069C187.43 85.2559 187.467 85.7678 187.461 86.272C187.437 87.9396 187.414 89.6071 187.39 91.2747C187.384 91.7789 187.337 92.2416 187.052 92.714C186.765 93.1903 186.771 93.8129 187.086 94.3042C187.324 94.6728 187.386 95.0367 187.391 95.4455C187.411 97.1639 187.44 98.8816 187.461 100.6C187.467 101.156 187.53 101.684 187.715 102.228C187.924 102.838 187.935 103.516 188.024 104.166C188.059 104.415 188.001 104.697 188.099 104.913C188.402 105.578 188.375 106.295 188.509 106.985C188.557 107.232 188.565 107.505 188.682 107.717C188.962 108.226 188.983 108.778 189.047 109.329C189.069 109.525 189.089 109.757 189.201 109.902C189.463 110.243 189.551 110.621 189.583 111.029C189.603 111.284 189.685 111.518 189.85 111.725C189.942 111.841 190.066 111.978 190.07 112.109C190.091 112.889 190.504 113.551 190.7 114.277C190.844 114.808 191.01 115.368 191.319 115.808C191.672 116.309 191.701 116.965 192.165 117.39C192.575 118.638 193.323 119.724 193.852 120.915C194.075 121.416 194.397 121.863 194.636 122.359C194.802 122.705 195.174 122.951 195.441 123.252C195.608 123.439 195.832 123.627 195.89 123.85C196.041 124.425 196.416 124.817 196.817 125.203C196.968 125.348 197.069 125.517 197.112 125.72C197.166 125.973 197.285 126.175 197.479 126.36C197.841 126.709 198.158 127.104 198.516 127.46C199.802 128.735 201.112 129.987 202.384 131.278C202.846 131.748 203.257 132.242 203.93 132.441C204.153 132.508 204.336 132.732 204.524 132.9C204.75 133.1 204.964 133.314 205.176 133.526C205.321 133.67 205.479 133.78 205.672 133.859C206.97 134.397 208.138 135.203 209.459 135.695C209.767 136.076 210.314 135.986 210.655 136.302C211.021 136.639 211.501 136.593 211.939 136.689C212.035 136.711 212.139 136.742 212.216 136.801C212.595 137.086 213.054 137.126 213.488 137.252C213.921 137.377 214.316 137.608 214.789 137.62C215.036 137.626 215.299 137.689 215.522 137.794C216.23 138.125 216.971 138.18 217.734 138.171C218.188 138.166 218.643 138.198 219.096 138.236C219.292 138.254 219.525 138.276 219.668 138.39C220.056 138.7 220.494 138.722 220.953 138.719C222.368 138.715 223.782 138.715 225.195 138.719C225.752 138.722 226.303 138.74 226.77 138.341C226.871 138.254 227.053 138.243 227.201 138.23C227.603 138.195 228.008 138.19 228.411 138.151C228.658 138.127 228.913 138.095 229.147 138.015C229.765 137.802 230.36 137.51 230.99 137.346C231.676 137.168 232.3 136.846 232.964 136.633C233.368 136.504 233.602 136.125 234.01 136.054C234.326 135.998 234.546 135.799 234.78 135.602C235.01 135.41 235.254 135.221 235.523 135.092C235.796 134.962 236.087 134.876 236.307 134.653C236.661 134.294 236.99 133.909 237.539 133.827C237.665 133.807 237.777 133.653 237.883 133.549C239 132.458 240.119 131.369 241.227 130.27C241.439 130.06 241.667 129.843 241.721 129.524C241.775 129.203 241.996 128.989 242.194 128.764C242.427 128.499 242.673 128.245 242.927 128.001C243.114 127.82 243.234 127.616 243.315 127.367C243.373 127.184 243.495 127.014 243.613 126.859C243.827 126.579 244.136 126.346 244.27 126.035C244.644 125.167 245.332 124.577 245.965 123.931C246.48 123.405 247.462 123.477 247.753 124.415C247.797 124.558 247.822 124.711 247.826 124.86C247.838 125.315 247.833 125.77 247.841 126.225C247.849 126.83 247.806 127.445 247.887 128.041C247.991 128.795 248.036 129.548 248.054 130.306C248.059 130.507 248.054 130.721 248.122 130.905C248.451 131.801 248.683 132.731 249.075 133.603C249.198 133.874 249.488 134.032 249.571 134.348C249.723 134.921 250.154 135.231 250.655 135.519C251.179 135.82 251.746 136.013 252.269 136.294C252.545 136.442 252.801 136.565 253.108 136.574C254.016 136.602 254.925 136.647 255.833 136.648C259.47 136.657 263.106 136.653 266.743 136.653C272.198 136.653 277.652 136.653 283.106 136.65C283.56 136.65 284.014 136.629 284.467 136.605C284.711 136.593 284.917 136.322 284.899 136.075C284.882 135.819 284.828 135.574 284.653 135.375L284.651 135.381ZM247.57 86.3122C247.577 87.5763 247.572 88.8397 247.572 90.1038C247.572 93.9963 247.583 97.8889 247.567 101.781C247.558 103.701 247.5 105.621 247.459 107.54C247.452 107.843 247.445 108.151 247.385 108.446C247.173 109.483 247.069 110.542 246.851 111.573C246.455 113.444 246.011 115.313 245.099 117.026C244.935 117.335 244.863 117.702 244.666 117.984C244.32 118.477 243.981 118.973 243.646 119.475C243.259 120.053 242.743 120.553 242.143 120.944C241.805 121.165 241.472 121.396 241.152 121.643C240.908 121.831 240.651 121.963 240.361 122.069C238.049 122.908 238.611 122.896 235.498 122.958C233.847 122.99 232.288 122.663 230.769 122.086C229.442 121.583 228.203 120.918 227.23 119.842C227.163 119.767 227.075 119.711 227.006 119.638C226.453 119.051 225.809 118.54 225.384 117.844C224.993 117.2 224.606 116.548 224.292 115.864C223.976 115.179 223.713 114.463 223.497 113.739C223.151 112.58 222.718 111.442 222.578 110.228C222.555 110.027 222.556 109.807 222.47 109.635C222.099 108.888 222.095 108.072 221.976 107.275C221.864 106.528 221.716 105.785 221.573 105.042C221.478 104.545 221.386 104.05 221.397 103.54C221.402 103.34 221.395 103.129 221.341 102.939C221.087 102.049 221.112 101.137 221.101 100.228C221.083 98.6616 221.082 97.0941 221.073 95.5266C221.071 95.0216 221.069 94.5203 220.933 94.0228C220.854 93.7354 220.844 93.4238 220.843 93.1227C220.834 91.5553 220.837 89.9885 220.843 88.4211C220.843 88.1694 220.838 87.9055 220.907 87.6689C221.098 87.025 221.069 86.3691 221.074 85.7131C221.082 84.7524 221.086 83.7923 221.099 82.8315C221.109 82.0739 221.108 81.3148 221.316 80.5739C221.37 80.3813 221.391 80.175 221.393 79.9741C221.407 78.7547 221.613 77.5648 221.891 76.3819C221.959 76.09 221.962 75.7821 221.984 75.4809C222.027 74.8736 222.105 74.2783 222.364 73.714C222.466 73.4889 222.53 73.2355 222.563 72.9884C222.743 71.6248 223.233 70.3493 223.663 69.0587C223.838 68.5339 224.109 68.041 224.207 67.489C224.7 67.012 224.704 66.29 225.083 65.7486C225.34 65.3785 225.54 64.9644 225.743 64.5595C225.948 64.1493 226.187 63.7716 226.515 63.4448C226.729 63.2324 226.93 62.9981 227.091 62.7441C227.754 61.7007 228.657 60.9249 229.668 60.2279C230.247 59.8291 230.843 59.4665 231.445 59.1109C232.455 58.5133 233.547 58.1319 234.718 58.0045C235.17 57.9553 235.613 57.884 236.055 57.7595C237.246 57.4236 238.442 57.4062 239.633 57.7998C239.872 57.8794 240.117 57.9439 240.364 57.9939C241.337 58.1926 242.156 58.6779 242.836 59.3801C243.395 59.9588 243.947 60.5571 244.411 61.2115C244.787 61.7401 245.09 62.3429 245.306 62.9549C245.489 63.4773 245.731 63.9771 245.897 64.5003C246.082 65.0736 246.171 65.6781 246.294 66.2711C246.396 66.7647 246.486 67.2615 246.586 67.7559C246.844 69.0413 247.134 70.3213 247.352 71.6134C247.46 72.2565 247.445 72.9216 247.472 73.5776C247.643 77.8212 247.549 82.0671 247.57 86.3122Z" fill="#F6F7F6"/>
<path d="M471.804 59.1627C471.569 58.7971 471.539 58.4119 471.527 58.0047C471.512 57.4996 471.489 56.9946 471.445 56.4911C471.428 56.2962 471.396 56.0603 471.279 55.9245C470.945 55.5416 470.955 55.0888 470.927 54.6377C470.9 54.1789 470.765 53.7739 470.547 53.3538C469.949 52.1989 469.423 51.0083 468.801 49.8624C468.658 49.5963 468.546 49.3294 468.324 49.1102C467.892 48.6863 467.503 48.2185 467.061 47.8074C466.7 47.473 466.386 47.0499 465.814 47.0232C465.607 47.0135 465.49 46.8056 465.357 46.6532C465.053 46.3051 464.686 46.0693 464.245 45.8987C463.823 45.7348 463.425 45.5219 462.957 45.4991C462.811 45.4922 462.632 45.4642 462.531 45.3754C462.029 44.9348 461.425 44.9333 460.817 44.9204C460.56 44.9152 460.312 44.8545 460.112 44.6869C459.859 44.4776 459.565 44.4442 459.259 44.4434C458.35 44.4412 457.441 44.4404 456.533 44.4404C456.175 44.4404 455.836 44.4783 455.538 44.7248C455.293 44.9288 454.973 44.9144 454.67 44.9234C453.813 44.9501 452.955 44.9758 452.097 45.0053C451.844 45.0145 451.586 45.0228 451.381 45.1996C451.099 45.4452 450.761 45.5234 450.4 45.534C449.842 45.5506 449.298 45.615 448.784 45.866C448.61 45.9511 448.39 45.9472 448.19 45.9761C447.534 46.0701 446.92 46.3066 446.331 46.5873C445.833 46.8254 445.377 47.1416 444.79 47.137C444.65 47.1363 444.479 47.2015 444.376 47.2955C444.055 47.5898 443.666 47.6467 443.263 47.6997C443.068 47.7255 442.854 47.7831 442.703 47.8977C442.456 48.0849 442.187 48.1933 441.901 48.3049C441.105 48.6158 440.394 49.1079 439.607 49.4453C439.294 49.5789 439.056 49.8822 438.779 50.0991C438.661 50.1909 438.536 50.3 438.398 50.3319C437.794 50.4699 437.317 50.8666 436.784 51.1387C436.262 51.405 435.918 51.9691 435.277 52.0981C435.109 52.1315 434.994 52.3741 434.835 52.4961C434.321 52.8912 433.932 53.4531 433.25 53.6276C433.075 53.6724 432.932 53.8665 432.787 54.0045C432.312 54.4556 431.836 54.9061 431.374 55.3702C430.846 55.9019 430.237 56.3811 430.094 57.1879C430.085 57.2334 430.049 57.2881 430.009 57.3108C429.558 57.5716 429.682 58.1555 429.359 58.4763C428.979 58.854 428.94 59.3848 428.722 59.833C428.31 60.6831 428.387 61.6029 428.633 62.5009C428.674 62.6442 428.73 62.7943 428.819 62.9111C429.309 63.5556 429.888 64.1145 430.523 64.6151C431.042 64.728 431.414 65.0663 431.78 65.4211C431.884 65.5213 432.034 65.5857 432.174 65.6342C432.839 65.8632 433.412 66.2788 434.051 66.5602C434.464 66.7421 434.845 67.0023 435.267 67.1562C435.656 67.298 435.958 67.5937 436.334 67.7159C436.776 67.8592 437.112 68.2095 437.524 68.3293C438.047 68.481 438.405 68.7979 438.757 69.1506C439.151 69.5449 439.543 69.9172 440.092 70.1122C440.363 70.2085 440.602 70.4368 440.816 70.6467C442.287 72.1005 443.752 73.5603 445.204 75.0322C445.521 75.3523 445.838 75.6889 445.951 76.156C445.974 76.2516 446.02 76.3516 446.084 76.4253C446.478 76.8803 446.943 77.2875 447.072 77.9192C447.343 78.2157 447.638 78.494 447.878 78.814C448.132 79.1522 448.006 79.6042 448.15 79.9804C448.203 80.1198 448.298 80.2427 448.362 80.3784C448.66 81.0146 448.984 81.6327 449.143 82.3357C449.285 82.9636 449.692 83.5194 449.72 84.1936C449.724 84.2869 449.778 84.3937 449.842 84.4658C450.131 84.7912 450.179 85.1855 450.206 85.595C450.256 86.3972 450.209 87.2185 450.657 87.9465C450.708 88.0284 450.733 88.1406 450.732 88.2378C450.707 89.2653 451.084 90.2132 451.299 91.1937C451.374 91.535 451.373 91.8967 451.376 92.2493C451.389 93.1593 451.381 94.0693 451.389 94.9786C451.394 95.5814 451.335 96.1903 451.643 96.7584C451.733 96.9237 451.733 97.1512 451.734 97.3498C451.741 98.9166 451.744 100.484 451.734 102.051C451.731 102.297 451.7 102.566 451.599 102.785C451.42 103.168 451.389 103.559 451.388 103.966C451.388 104.572 451.415 105.181 451.374 105.785C451.31 106.689 451.197 107.591 451.105 108.494C450.794 109.05 450.845 109.663 450.807 110.266C450.778 110.717 450.761 111.202 450.583 111.602C450.283 112.275 450.251 112.964 450.224 113.668C450.217 113.87 450.203 114.074 450.164 114.271C450.136 114.416 450.096 114.584 450.001 114.684C449.732 114.966 449.704 115.309 449.665 115.663C449.623 116.062 449.678 116.495 449.449 116.843C449.185 117.242 449.113 117.681 449.063 118.133C449.023 118.485 448.951 118.82 448.819 119.157C448.544 119.858 448.275 120.571 448.108 121.302C447.996 121.8 447.896 122.272 447.553 122.662C447.442 123.27 447 123.722 446.8 124.299C446.606 124.863 446.199 125.351 445.98 125.909C445.787 126.4 445.461 126.766 445.132 127.146C444.968 127.335 444.782 127.506 444.603 127.684C443.534 128.748 443.327 128.829 441.789 128.773C441.638 128.768 441.486 128.74 441.336 128.739C440.96 128.735 440.647 128.58 440.392 128.321C439.825 127.745 439.27 127.16 438.714 126.576C438.645 126.504 438.554 126.418 438.545 126.332C438.485 125.778 438.028 125.484 437.752 125.071C437.642 124.905 437.549 124.723 437.479 124.537C437.302 124.065 436.918 123.693 436.824 123.182C436.456 122.868 436.375 122.409 436.217 121.989C435.771 121.63 435.813 121.092 435.708 120.606C435.677 120.461 435.596 120.328 435.539 120.189C435.428 119.911 435.266 119.64 435.218 119.35C435.149 118.942 434.99 118.583 434.815 118.217C434.535 117.632 434.139 117.087 434.144 116.394C434.144 116.298 434.113 116.174 434.049 116.112C433.639 115.711 433.709 115.049 433.257 114.67C433.187 114.611 433.121 114.496 433.122 114.408C433.131 113.73 432.766 113.154 432.628 112.516C432.459 111.728 432.035 111.018 431.906 110.216C431.495 109.767 431.512 109.199 431.465 108.648C431.435 108.292 431.386 107.953 431.117 107.675C430.933 107.485 430.95 107.21 430.905 106.962C430.86 106.718 430.837 106.434 430.697 106.251C430.432 105.905 430.352 105.532 430.332 105.122C430.308 104.615 430.257 104.121 430.002 103.659C429.883 103.444 429.88 103.169 429.787 102.936C429.52 102.279 429.3 101.616 429.288 100.897C429.285 100.749 429.268 100.567 429.183 100.462C428.772 99.9516 428.767 99.3427 428.72 98.7421C428.696 98.4335 428.631 98.1468 428.411 97.9087C428.346 97.8374 428.286 97.7351 428.278 97.6418C428.21 96.8265 427.781 96.1009 427.677 95.3076C427.584 94.5948 427.264 93.9623 427.124 93.27C427.046 92.884 426.79 92.5367 426.694 92.1523C426.596 91.764 426.617 91.3476 426.55 90.9503C426.517 90.7607 426.417 90.5726 426.312 90.4074C426.171 90.1874 426.097 89.9538 426.072 89.699C426.016 89.1007 426.022 88.4933 425.602 87.9829C425.489 87.8457 425.509 87.5977 425.471 87.4005C425.432 87.2026 425.436 86.9843 425.349 86.8106C425.075 86.257 425.03 85.6457 424.859 85.0694C424.641 84.3422 424.476 83.6127 424.376 82.8627C424.356 82.7164 424.309 82.551 424.219 82.4419C423.935 82.1021 423.946 81.6926 423.901 81.2945C423.85 80.847 423.867 80.3852 423.513 80.0212C423.418 79.9249 423.39 79.7467 423.372 79.6004C423.328 79.25 423.345 78.8875 423.268 78.5455C423.181 78.1566 423.002 77.7895 422.894 77.4035C422.813 77.113 422.782 76.8097 422.727 76.5117C422.69 76.3137 422.689 76.1006 422.61 75.9217C422.34 75.3127 422.313 74.6394 422.108 74.0275C421.895 73.395 421.781 72.7633 421.694 72.1141C421.675 71.967 421.65 71.7941 421.561 71.6873C421.211 71.2633 421.186 70.7575 421.166 70.2532C421.148 69.8376 421.073 69.4608 420.788 69.1331C420.698 69.0285 420.663 68.8571 420.647 68.7108C420.604 68.3597 420.627 67.9971 420.551 67.656C420.463 67.2669 420.284 66.8998 420.169 66.5161C420.097 66.2758 420.07 66.0218 420.019 65.7753C419.968 65.5304 419.954 65.2649 419.848 65.0465C419.685 64.7174 419.639 64.3739 419.596 64.0235C419.541 63.5715 419.486 63.1279 419.221 62.7283C419.119 62.5721 419.104 62.3461 419.084 62.1489C419.044 61.747 419.022 61.3429 419.004 60.9387C418.979 60.3882 419.014 59.8406 418.63 59.3568C418.495 59.1869 418.512 58.876 418.505 58.628C418.407 55.8487 418.397 53.0694 418.497 50.2894C418.516 49.7396 418.453 49.1807 418.877 48.7159C418.999 48.5847 419.019 48.3405 419.039 48.1433C419.076 47.7839 419.187 47.4646 419.37 47.1499C419.535 46.8655 419.306 46.5402 418.955 46.5251C418.451 46.5039 417.946 46.4947 417.442 46.4947C410.876 46.4932 404.309 46.4932 397.744 46.4932C391.228 46.4932 384.712 46.4932 378.197 46.4932C377.743 46.4932 377.287 46.4917 376.833 46.5016C376.683 46.5046 376.535 46.5387 376.384 46.5623C376.221 46.588 376.089 46.9209 376.184 47.0544C376.587 47.62 377.199 48.0433 377.355 48.7811C377.372 48.8653 377.483 48.9312 377.553 49.0032C377.873 49.3347 378.087 49.7282 378.293 50.1377C378.677 50.8991 379.122 51.6293 379.417 52.4332C379.756 52.7623 379.855 53.2165 380.031 53.6291C380.507 53.9764 380.407 54.5316 380.539 55.0054C380.592 55.195 380.729 55.3596 380.797 55.5469C380.983 56.0678 381.346 56.5191 381.425 57.078C381.483 57.4852 381.638 57.8349 381.828 58.2003C382.031 58.5894 382.066 59.0641 382.189 59.4978C382.215 59.5896 382.307 59.6602 382.356 59.7473C382.429 59.8785 382.544 60.0157 382.546 60.1523C382.559 60.9857 383.024 61.6863 383.198 62.472C383.262 62.7625 383.479 63.0232 383.521 63.3123C383.642 64.1661 383.898 64.9775 384.151 65.7973C384.27 66.1847 384.395 66.5488 384.58 66.9135C384.756 67.26 384.762 67.6916 384.856 68.0821C384.879 68.1754 384.941 68.2717 385.013 68.3377C385.256 68.5659 385.286 68.8602 385.312 69.1665C385.348 69.617 385.346 70.0667 385.518 70.5057C385.901 71.49 386.233 72.4888 386.406 73.5406C386.53 74.2815 386.98 74.9382 387.032 75.7063C387.418 76.0939 387.445 76.6035 387.524 77.1001C387.546 77.2427 387.614 77.3937 387.703 77.5081C387.897 77.7569 388 78.0269 388.025 78.34C388.042 78.5402 388.052 78.7556 388.13 78.9338C388.339 79.3979 388.533 79.8718 388.572 80.3739C388.616 80.9441 388.91 81.4272 389.022 81.9664C389.106 82.3622 389.201 82.7315 389.41 83.0971C389.6 83.4307 389.591 83.8728 389.716 84.252C389.84 84.6273 390.178 84.9087 390.178 85.3523C390.178 85.7049 390.303 86.0326 390.444 86.3662C390.716 87.0131 390.971 87.6781 391.126 88.3599C391.282 89.0477 391.423 89.7287 391.662 90.3998C391.846 90.9162 391.907 91.4766 392.239 91.9399C392.333 92.5345 392.391 93.1412 392.8 93.631C392.845 94.3984 393.194 95.0855 393.382 95.8158C393.507 96.3018 393.526 96.8069 393.753 97.2778C393.947 97.6797 393.938 98.1939 394.174 98.5594C394.469 99.0211 394.395 99.5377 394.574 100.003C394.591 100.05 394.6 100.108 394.634 100.14C394.994 100.49 395.01 100.95 395.05 101.404C395.089 101.857 395.101 102.306 395.453 102.676C395.573 102.803 395.568 103.052 395.615 103.247C395.687 103.539 395.711 103.852 395.832 104.121C396.022 104.543 396.093 104.989 396.196 105.429C396.252 105.673 396.251 105.946 396.361 106.161C396.553 106.535 396.61 106.928 396.645 107.329C396.685 107.784 396.731 108.224 397.032 108.61C397.144 108.754 397.16 108.989 397.179 109.186C397.234 109.786 397.213 110.403 397.653 110.896C397.684 110.93 397.697 110.99 397.698 111.039C397.722 111.76 398.072 112.394 398.229 113.08C398.454 114.06 398.672 115.044 398.936 116.015C399.092 116.595 399.341 117.15 399.41 117.757C399.42 117.852 399.467 117.961 399.534 118.029C399.803 118.301 399.861 118.635 399.889 118.997C399.931 119.545 399.906 120.109 400.325 120.569C400.443 120.699 400.428 120.95 400.477 121.145C400.55 121.437 400.565 121.762 400.711 122.012C401.072 122.635 401.038 123.391 401.426 123.997C401.417 124.688 401.846 125.224 402.081 125.828C402.189 126.102 402.439 126.322 402.534 126.598C402.648 126.931 402.733 127.265 402.905 127.581C403.316 128.33 403.672 129.106 404.096 129.848C404.269 130.15 404.37 130.48 404.626 130.745C404.971 131.099 405.334 131.44 405.413 131.992C405.444 132.21 405.676 132.415 405.851 132.591C406.597 133.34 407.369 134.064 408.104 134.822C408.428 135.156 408.787 135.375 409.21 135.575C409.704 135.808 410.219 136.013 410.686 136.298C410.958 136.466 411.223 136.561 411.531 136.569C412.54 136.598 413.55 136.653 414.56 136.653C421.429 136.661 428.297 136.657 435.167 136.658C435.621 136.658 436.076 136.658 436.53 136.668C436.679 136.671 436.856 136.662 436.973 136.737C437.549 137.112 438.216 137.111 438.856 137.232C439.045 137.267 439.254 137.351 439.395 137.479C440.591 138.558 440.511 138.418 440.533 139.77C440.535 139.821 440.536 139.871 440.533 139.922C440.515 140.376 440.552 140.842 440.458 141.279C440.387 141.607 440.069 141.882 440.001 142.21C439.879 142.776 439.424 143.141 439.253 143.682C439.084 144.218 438.54 144.516 438.165 144.922C437.584 145.55 436.953 146.132 436.337 146.728C436.195 146.867 436.045 147.063 435.872 147.095C435.278 147.206 434.937 147.665 434.51 148.003C434.306 148.163 434.08 148.249 433.86 148.365C433.273 148.675 432.579 148.714 432.024 149.048C431.362 149.446 430.504 149.267 429.927 149.841C429.525 149.882 429.125 149.939 428.722 149.96C428.22 149.987 427.723 149.98 427.3 150.348C427.171 150.461 426.92 150.465 426.724 150.468C425.057 150.484 423.391 150.498 421.725 150.491C421.077 150.489 420.406 150.565 419.85 150.084C419.75 149.999 419.563 150.004 419.413 149.992C419.01 149.962 418.606 149.955 418.203 149.922C418.004 149.905 417.764 149.909 417.618 149.801C417.099 149.415 416.505 149.36 415.9 149.311C415.643 149.291 415.418 149.192 415.192 149.068C414.575 148.728 413.935 148.448 413.244 148.272C412.614 148.111 412.026 147.823 411.459 147.502C410.892 147.183 410.332 146.798 409.698 146.683C408.985 146.553 408.369 146.229 407.73 145.944C406.857 145.553 406.016 145.475 405.134 145.953C404.686 146.194 404.172 146.308 404.122 146.936C403.94 147.176 403.782 147.442 403.568 147.65C403.192 148.015 403.108 148.537 402.815 148.951C402.655 149.177 402.64 149.521 402.605 149.817C402.568 150.13 402.426 150.366 402.261 150.629C401.969 151.093 401.775 151.618 401.54 152.117C401.521 152.793 401.12 153.352 400.968 153.986C400.806 154.669 400.388 155.281 400.418 156.014C400.068 156.576 399.854 157.182 399.795 157.845C399.788 157.934 399.703 158.025 399.635 158.097C399.41 158.33 399.365 158.631 399.31 158.928C399.274 159.126 399.281 159.35 399.187 159.515C398.906 160.006 398.847 160.574 398.625 161.076C398.413 161.548 398.447 162.096 398.193 162.518C397.833 163.117 397.774 163.748 397.737 164.405C397.722 164.661 397.684 164.906 397.494 165.1C397.265 165.331 397.228 165.632 397.173 165.931C397.129 166.176 397.104 166.447 396.979 166.65C396.757 167.007 396.664 167.385 396.625 167.793C396.586 168.194 396.495 168.579 396.38 168.971C396.048 170.096 396.079 171.162 397.109 171.984C397.503 172.297 397.857 172.66 398.217 173.014C398.402 173.195 398.616 173.297 398.852 173.399C399.169 173.536 399.431 173.803 399.753 173.916C400.088 174.032 400.429 174.102 400.672 174.389C401.656 174.752 402.506 175.447 403.593 175.56C403.738 175.575 403.902 175.628 404.012 175.719C404.342 175.992 404.726 176.073 405.134 176.119C405.332 176.141 405.572 176.157 405.707 176.275C406.131 176.641 406.64 176.62 407.136 176.675C407.435 176.708 407.755 176.678 408.012 176.865C408.361 177.119 408.757 177.149 409.161 177.181C409.765 177.231 410.367 177.293 410.97 177.35C411.576 177.684 412.241 177.623 412.894 177.624C413.703 177.628 414.511 177.628 415.319 177.624C415.923 177.623 416.525 177.66 417.1 177.375C417.313 177.27 417.592 177.294 417.843 177.274C418.346 177.232 418.851 177.21 419.353 177.16C419.55 177.14 419.771 177.114 419.929 177.01C420.282 176.776 420.662 176.686 421.068 176.647C421.324 176.623 421.552 176.528 421.759 176.368C421.875 176.277 422.019 176.169 422.153 176.168C422.786 176.158 423.287 175.827 423.834 175.574C424.47 175.279 425.14 175.056 425.712 174.632C426.299 174.545 426.693 174.148 427.098 173.769C427.208 173.667 427.318 173.517 427.447 173.493C427.984 173.394 428.32 173.013 428.679 172.668C429.079 172.286 429.42 171.826 430.029 171.76C430.932 171.029 431.739 170.204 432.493 169.323C432.684 168.539 433.295 168.057 433.819 167.52C434.243 167.086 434.684 166.683 434.864 166.064C434.93 165.838 435.146 165.653 435.301 165.455C435.424 165.296 435.642 165.164 435.676 164.993C435.792 164.398 436.241 164.06 436.593 163.642C436.689 163.527 436.783 163.405 436.849 163.274C437.165 162.648 437.495 162.026 437.776 161.382C437.976 160.924 438.118 160.441 438.456 160.055C438.483 159.49 438.975 159.216 439.244 158.803C439.574 158.294 439.858 157.761 440.047 157.185C440.187 156.755 440.288 156.321 440.508 155.909C440.717 155.518 440.767 155.042 441.114 154.715C441.174 154.243 441.561 153.937 441.721 153.527C442.05 152.681 442.592 151.935 442.829 151.052C443.147 150.59 443.393 150.105 443.398 149.521C443.4 149.385 443.496 149.242 443.571 149.114C444.07 148.274 444.784 146.733 445.049 145.998C445.286 145.341 445.417 144.64 445.862 144.069C445.922 143.992 445.954 143.891 445.987 143.796C446.134 143.374 446.046 142.904 446.346 142.501C446.611 142.147 446.769 141.713 446.969 141.313C447.037 141.178 447.124 141.04 447.144 140.895C447.247 140.127 447.588 139.452 447.958 138.794C448.168 138.422 448.147 138.016 448.242 137.629C448.35 137.191 448.786 136.901 448.776 136.398C448.77 136.042 448.894 135.716 449.105 135.409C449.24 135.21 449.284 134.945 449.352 134.705C449.419 134.465 449.425 134.201 449.525 133.976C449.917 133.099 450.164 132.176 450.467 131.269C450.657 130.7 450.885 130.139 451.154 129.603C451.291 129.331 451.441 129.076 451.474 128.768C451.506 128.463 451.586 128.178 451.757 127.914C451.863 127.747 451.964 127.557 451.995 127.366C452.074 126.863 452.287 126.408 452.431 125.93C452.661 125.161 453.07 124.442 453.112 123.615C453.12 123.471 453.175 123.302 453.267 123.198C453.555 122.873 453.635 122.487 453.662 122.079C453.681 121.817 453.819 121.623 453.945 121.4C454.268 120.835 454.525 120.234 454.725 119.609C455.002 118.75 455.189 117.86 455.601 117.045C455.69 116.869 455.736 116.663 455.762 116.466C455.814 116.062 455.911 115.699 456.15 115.341C456.33 115.067 456.295 114.66 456.413 114.332C456.545 113.959 456.834 113.621 456.887 113.244C456.985 112.521 457.321 111.906 457.624 111.274C457.736 111.045 457.871 110.831 457.885 110.574C457.906 110.154 458.128 109.822 458.294 109.454C458.475 109.05 458.512 108.581 458.616 108.141C458.627 108.095 458.66 108.048 458.695 108.013C458.993 107.699 459.045 107.301 459.098 106.895C459.123 106.7 459.165 106.482 459.275 106.328C459.553 105.941 459.604 105.493 459.722 105.054C459.838 104.619 460.108 104.219 460.183 103.781C460.27 103.268 460.592 102.858 460.68 102.359C461.027 101.909 461.226 101.411 461.259 100.833C461.269 100.649 461.419 100.471 461.506 100.291C461.573 100.156 461.692 100.026 461.7 99.8887C461.74 99.2169 462.069 98.639 462.271 98.021C462.443 97.4946 462.655 96.979 462.787 96.4436C462.91 95.9492 463.195 95.5101 463.284 95.0225C463.385 94.4712 463.501 93.9509 463.836 93.4892C463.918 93.3777 463.925 93.1996 463.935 93.0501C463.959 92.6884 464.063 92.3654 464.268 92.0605C464.375 91.8989 464.445 91.6934 464.475 91.4993C464.535 91.0974 464.575 90.6955 464.832 90.3565C465.012 89.5208 465.483 88.7686 465.532 87.8927C465.54 87.7494 465.596 87.5826 465.686 87.4749C465.962 87.1472 466.046 86.7666 466.09 86.3571C466.11 86.163 466.153 85.9324 466.273 85.7959C466.565 85.4638 466.609 85.0763 466.647 84.6714C466.68 84.3226 466.617 83.9441 466.822 83.6377C467.052 83.2919 467.168 82.9203 467.254 82.5191C467.338 82.1279 467.553 81.7579 467.595 81.3666C467.697 80.4034 468.224 79.5526 468.281 78.5826C468.286 78.4878 468.331 78.3772 468.396 78.3081C468.734 77.9442 468.754 77.4892 468.781 77.0342C468.809 76.5784 468.854 76.1394 469.173 75.761C469.29 75.6221 469.312 75.3848 469.332 75.1877C469.397 74.5879 469.389 73.9766 469.738 73.4382C469.816 73.3176 469.839 73.1508 469.854 73.0014C469.946 72.0952 470.316 71.2519 470.451 70.3541C470.495 70.0598 470.637 69.7808 470.717 69.4903C470.784 69.2492 470.846 69.0035 470.874 68.7563C470.914 68.4051 470.922 68.0503 470.937 67.6969C470.954 67.3382 471.011 67.003 471.263 66.7141C471.435 66.5169 471.439 66.2493 471.449 65.9944C471.472 65.3886 471.51 64.7826 471.52 64.1767C471.529 63.6671 471.549 63.1779 471.877 62.739C471.984 62.5948 471.989 62.3537 471.992 62.1558C472.004 61.3974 472.011 60.6392 471.989 59.8815C471.982 59.6381 471.935 59.3605 471.808 59.1627H471.804Z" fill="#F6F7F6"/>
<path d="M380.958 134.274C380.711 134.068 380.61 133.789 380.59 133.474C380.569 133.118 380.529 132.765 380.239 132.506C379.93 131.713 379.459 130.973 379.442 130.083C379.437 129.826 379.36 129.588 379.225 129.368C379.06 129.101 379.028 128.798 379.016 128.494C379.003 128.191 378.998 127.887 378.988 127.585C378.97 127.036 379.053 126.473 378.582 126.025C378.463 125.913 378.457 125.649 378.451 125.454C378.429 124.746 378.424 124.038 378.424 123.331C378.423 116.457 378.424 109.583 378.424 102.709H378.419C378.419 99.4738 378.419 96.2396 378.419 93.0045C378.419 88.8094 378.418 84.6144 378.414 80.4193C378.414 79.8687 378.471 79.3121 378.028 78.8534C377.909 78.7304 377.899 78.4764 377.888 78.2801C377.86 77.8266 377.858 77.3707 377.855 76.9157C377.853 76.4563 377.827 76.0157 377.523 75.6236C377.408 75.475 377.353 75.2483 377.345 75.0541C377.323 74.3913 377.157 73.7718 376.957 73.1408C376.805 72.6608 376.677 72.1891 376.43 71.7402C376.292 71.4915 376.357 71.1388 376.263 70.8559C376.169 70.5762 375.968 70.335 375.856 70.059C375.782 69.8769 375.773 69.6654 375.752 69.4652C375.718 69.1573 375.595 68.8927 375.444 68.6227C374.811 67.4852 374.364 66.2515 373.672 65.1428C373.624 64.7143 373.324 64.4284 373.087 64.1061C373.057 63.6017 372.648 63.3303 372.386 62.9678C372.297 62.8457 372.17 62.7328 372.134 62.5962C371.982 62.0321 371.611 61.6279 371.217 61.2313C371.112 61.1266 370.988 60.9977 370.964 60.8635C370.886 60.4365 370.603 60.1642 370.337 59.8587C369.91 59.3703 369.387 58.9464 369.206 58.2738C369.17 58.1426 369.022 58.0394 368.921 57.9287C368.444 57.4101 367.999 56.8572 367.483 56.3824C366.341 55.3314 365.378 54.068 363.948 53.3507C363.816 53.284 363.703 53.1724 363.592 53.0709C363.074 52.6023 362.614 52.0562 361.903 51.85C361.813 51.8241 361.731 51.7431 361.665 51.6702C361.104 51.0537 360.311 50.8201 359.62 50.422C359.491 50.3478 359.321 50.3371 359.207 50.2498C358.967 50.0679 358.763 49.8245 358.442 49.7933C358.057 49.7562 357.87 49.3861 357.533 49.2755C356.671 48.9918 355.907 48.4966 355.084 48.1265C354.624 47.9188 354.202 47.664 353.679 47.6314C353.489 47.6192 353.253 47.5556 353.129 47.4266C352.823 47.1089 352.35 47.1816 352.046 46.9215C351.667 46.5977 351.214 46.5871 350.769 46.5151C350.67 46.4992 350.559 46.481 350.481 46.4256C350.134 46.1776 349.736 46.1481 349.332 46.1003C349.034 46.0647 348.712 46.0237 348.455 45.8834C347.993 45.6286 347.51 45.5581 347 45.5603C346.588 45.5619 346.213 45.4967 345.892 45.182C345.767 45.0598 345.521 45.0341 345.326 45.0174C344.975 44.987 344.621 44.9932 344.267 44.9885C343.859 44.9833 343.474 44.9613 343.16 44.6231C342.985 44.4343 342.699 44.4441 342.445 44.4426C341.587 44.4358 340.728 44.4365 339.87 44.4229C339.272 44.413 338.672 44.4783 338.145 44.0399C337.873 43.8124 337.466 43.8929 337.115 43.8921C334.892 43.889 332.67 43.889 330.447 43.8921C330.146 43.8921 329.841 43.8936 329.541 43.9292C329.294 43.9588 329.006 43.9755 328.819 44.112C328.415 44.4077 327.975 44.4236 327.52 44.4266C326.359 44.4342 325.197 44.438 324.036 44.4419C323.675 44.4434 323.353 44.5132 323.046 44.7422C322.859 44.8825 322.582 44.9506 322.342 44.9635C321.637 45.0015 320.929 44.9999 320.222 45.0053C319.857 45.0083 319.528 45.0697 319.263 45.3587C319.124 45.5095 318.909 45.5452 318.703 45.5506C318.299 45.5603 317.896 45.5756 317.492 45.5763C317.128 45.5763 316.796 45.6445 316.508 45.8917C316.264 46.1003 315.953 46.1086 315.649 46.1299C315.299 46.1541 314.931 46.0935 314.612 46.2793C314.297 46.462 313.963 46.5386 313.608 46.5796C313.411 46.6024 313.176 46.6319 313.04 46.7517C312.707 47.0452 312.317 47.074 311.914 47.121C311.719 47.1438 311.495 47.1848 311.349 47.3007C311.015 47.567 310.647 47.6693 310.235 47.7027C310.038 47.7185 309.833 47.7799 309.661 47.874C308.95 48.2593 308.226 48.602 307.426 48.7598C307.33 48.7787 307.223 48.8151 307.149 48.8765C306.715 49.2344 306.098 49.2443 305.695 49.6577C305.071 49.7728 304.634 50.1968 304.167 50.576C304.053 50.6693 303.907 50.7238 303.773 50.7929C302.925 51.2297 302.046 51.6171 301.378 52.3368C301.311 52.4081 301.216 52.4786 301.125 52.4953C300.586 52.5909 300.27 53.0087 299.908 53.3447C299.318 53.8937 298.773 54.4912 298.187 55.0455C297.673 55.5324 297.176 56.0223 296.981 56.7336C296.504 57.1074 296.535 57.7293 296.276 58.2146C296.018 58.7 296.006 59.2862 296 59.8458C295.998 60.0983 295.993 60.3508 295.993 60.6041C295.99 61.0098 295.965 61.4049 295.785 61.7856C295.56 62.2633 295.629 62.7729 295.699 63.2757C296.086 63.9249 295.989 64.6445 295.99 65.346C295.995 67.9236 295.99 70.5011 295.994 73.0794C295.994 73.5344 295.996 73.9894 296.026 74.4429C296.054 74.8538 296.186 75.2323 296.484 75.5379C297.044 76.115 297.602 76.6951 298.165 77.2692C298.234 77.339 298.326 77.4056 298.42 77.4276C299.007 77.5672 299.589 77.7757 300.205 77.6848C300.949 77.5748 301.724 77.5202 302.234 76.8331C302.291 76.758 302.395 76.689 302.486 76.6739C303.08 76.5731 303.436 76.1256 303.829 75.7464C304.553 75.0473 305.261 74.3283 305.955 73.5988C306.438 73.0916 306.948 72.6099 307.243 71.9396C307.38 71.6326 307.685 71.3967 307.925 71.1403C308.2 70.8462 308.496 70.5724 308.768 70.2759C308.937 70.0908 309.164 69.9012 309.218 69.6783C309.383 68.9828 309.933 68.5969 310.361 68.1123C310.79 67.6263 311.353 67.2441 311.517 66.5585C311.539 66.4668 311.613 66.3826 311.678 66.306C312.226 65.6592 312.905 65.1101 313.175 64.2601C313.42 64.0067 313.674 63.7618 313.908 63.4994C314.311 63.049 314.702 62.5878 315.097 62.1314C315.291 61.4655 315.81 61.0614 316.283 60.611C316.794 60.1248 317.27 59.6001 317.769 59.0996C318.833 58.0304 319.906 56.9687 320.966 55.8957C321.219 55.6408 321.472 55.4353 321.843 55.3519C322.069 55.3011 322.278 55.1116 322.463 54.9492C322.729 54.7172 322.96 54.445 323.219 54.2068C323.364 54.0749 323.524 53.9179 323.703 53.8724C324.298 53.7192 324.69 53.1619 325.319 53.0906C325.701 52.6379 326.317 52.6424 326.783 52.3383C327.29 52.0077 327.967 52.0994 328.477 51.7218C328.585 51.6414 328.768 51.649 328.918 51.6407C329.221 51.624 329.523 51.6172 329.827 51.6179C330.237 51.6194 330.616 51.583 330.938 51.257C331.059 51.1333 331.307 51.0901 331.499 51.0864C332.307 51.0704 333.114 51.0711 333.922 51.0939C334.111 51.0993 334.338 51.1674 334.476 51.2889C334.811 51.5876 335.206 51.6558 335.606 51.608C336.607 51.489 337.444 52.0865 338.389 52.1958C338.77 52.4429 339.149 52.6894 339.603 52.7941C339.691 52.8145 339.772 52.9041 339.837 52.9776C340.435 53.6442 341.258 54.1182 341.558 55.0463C341.629 55.2685 341.853 55.4482 342.025 55.6302C342.339 55.9624 342.637 56.2983 342.667 56.7859C343.023 57.297 343.045 57.9416 343.307 58.4718C343.617 59.1003 343.539 59.7525 343.659 60.3887C343.772 60.9803 343.754 61.596 344.048 62.1534C344.136 62.321 344.134 62.5462 344.139 62.7457C344.153 63.2507 344.156 63.7564 344.142 64.2616C344.136 64.4594 344.119 64.6794 344.029 64.8477C343.833 65.2186 343.776 65.6099 343.749 66.0148C343.703 66.7466 343.285 67.3426 342.993 67.9743C342.757 68.4786 342.257 68.7949 341.832 69.1482C341.759 69.2088 341.651 69.2338 341.553 69.2551C341.165 69.3393 340.76 69.331 340.438 69.6487C340.084 69.9975 339.561 69.811 339.141 69.9771C339.049 70.0135 338.959 70.0688 338.888 70.1363C338.652 70.3593 338.365 70.4267 338.054 70.4373C337.903 70.4427 337.751 70.4563 337.6 70.4556C337.188 70.4533 336.807 70.5117 336.469 70.7953C336.328 70.9143 336.098 70.9781 335.908 70.9796C335.241 70.9849 334.618 71.1381 334.007 71.3921C333.733 71.5059 333.366 71.449 333.139 71.6074C332.694 71.9183 332.221 71.9942 331.711 72.0041C331.299 72.0124 330.93 72.1186 330.58 72.3613C330.387 72.4948 330.107 72.5039 329.865 72.5614C329.67 72.6077 329.459 72.6146 329.277 72.6904C329.047 72.7852 328.848 73.0141 328.618 73.0415C327.954 73.1196 327.383 73.4738 326.746 73.6072C326.195 73.7225 325.684 73.9492 325.195 74.1949C324.701 74.4421 324.249 74.7508 323.668 74.7599C323.529 74.7622 323.38 74.8478 323.253 74.9214C322.512 75.3483 321.751 75.7221 320.908 75.9065C320.764 75.9382 320.625 76.008 320.491 76.0756C320.087 76.2795 319.683 76.4828 319.288 76.7004C318.894 76.9172 318.396 76.931 318.091 77.3185C317.576 77.395 317.236 77.8606 316.759 77.966C316.289 78.07 315.979 78.434 315.546 78.5591C315.241 78.647 315.02 78.8502 314.775 79.0247C314.492 79.2257 314.276 79.4957 313.9 79.5965C313.576 79.6837 313.313 79.9832 312.99 80.0962C312.647 80.216 312.348 80.3564 312.092 80.618C311.918 80.7953 311.712 80.9881 311.484 81.0562C310.921 81.2253 310.521 81.5825 310.155 82.0117C310.063 82.1186 309.913 82.2097 309.777 82.2347C309.412 82.3015 309.137 82.4797 308.874 82.7413C308.556 83.059 308.206 83.3464 307.756 83.4981C307.528 83.5746 307.326 83.756 307.141 83.9236C306.878 84.1609 306.632 84.3967 306.27 84.4976C306.09 84.5476 305.934 84.7091 305.784 84.8388C305.48 85.1019 305.175 85.3667 304.892 85.6517C303.184 87.3648 301.48 89.0832 299.778 90.8023C299.424 91.1602 299.074 91.5243 298.733 91.8951C298.598 92.0414 298.441 92.1969 298.381 92.3773C298.215 92.8771 297.872 93.2457 297.531 93.615C297.356 93.8046 297.214 93.9987 297.153 94.2551C297.119 94.3976 297.067 94.572 296.963 94.6554C296.304 95.1832 296.008 95.9537 295.641 96.6611C295.43 97.0676 295.251 97.5014 294.917 97.7963C294.468 98.1938 294.469 98.8012 294.124 99.241C293.979 99.4253 293.928 99.7043 293.893 99.9486C293.841 100.307 293.731 100.621 293.531 100.928C293.312 101.263 293.145 101.637 292.986 102.007C292.85 102.327 292.801 102.675 292.547 102.956C292.253 103.28 292.398 103.733 292.296 104.119C292.269 104.215 292.247 104.334 292.181 104.394C291.795 104.738 291.819 105.203 291.765 105.653C291.73 105.95 291.715 106.288 291.563 106.523C291.295 106.933 291.259 107.367 291.218 107.822C291.194 108.07 291.18 108.348 291.063 108.554C290.766 109.069 290.782 109.619 290.777 110.174C290.774 110.527 290.766 110.881 290.75 111.235C290.739 111.491 290.675 111.741 290.503 111.937C290.248 112.227 290.217 112.572 290.217 112.93C290.217 114.851 290.216 116.771 290.216 118.691C290.216 119.149 290.226 119.592 290.589 119.962C290.711 120.085 290.732 120.334 290.747 120.53C290.78 120.932 290.765 121.338 290.792 121.741C290.805 121.939 290.817 122.166 290.917 122.323C291.146 122.68 291.211 123.065 291.263 123.47C291.288 123.663 291.35 123.878 291.465 124.029C291.657 124.279 291.73 124.562 291.835 124.845C291.939 125.122 292.231 125.356 292.261 125.63C292.318 126.13 292.818 126.357 292.886 126.822C292.938 127.192 293.147 127.47 293.394 127.731C293.53 127.877 293.704 128.03 293.753 128.209C293.923 128.832 294.374 129.232 294.799 129.661C295.227 130.09 295.641 130.531 296.073 130.956C296.326 131.207 296.563 131.453 296.653 131.818C296.703 132.018 296.865 132.166 297.064 132.232C297.615 132.412 298.022 132.779 298.387 133.208C298.748 133.632 299.157 134.017 299.618 134.318C299.995 134.562 300.441 134.703 300.727 135.081C301.056 135.514 301.678 135.416 302.033 135.809C302.249 136.049 302.595 136.019 302.858 136.159C303.122 136.299 303.354 136.539 303.63 136.604C304.044 136.702 304.313 137.048 304.708 137.138C305.2 137.251 305.675 137.411 306.156 137.546C306.689 137.696 307.232 137.78 307.715 138.08C307.834 138.155 308.006 138.153 308.156 138.164C308.458 138.186 308.761 138.18 309.064 138.209C309.209 138.224 309.394 138.25 309.484 138.345C309.838 138.718 310.284 138.728 310.742 138.728C312.711 138.728 314.681 138.73 316.65 138.732C317.156 138.732 317.671 138.765 318.047 138.325C318.293 138.28 318.536 138.21 318.782 138.195C319.532 138.151 320.297 138.241 320.984 137.805C321.144 137.702 321.372 137.677 321.57 137.671C322.138 137.655 322.656 137.471 323.165 137.248C323.804 137.267 324.298 136.868 324.863 136.673C325.166 136.569 325.36 136.322 325.63 136.219C325.951 136.095 326.317 136.088 326.657 136.009C326.801 135.975 326.951 135.914 327.065 135.823C327.305 135.626 327.604 135.553 327.859 135.406C328.549 135.007 329.359 134.791 329.885 134.127C329.942 134.054 330.052 133.987 330.142 133.98C330.713 133.94 330.994 133.463 331.378 133.158C331.731 132.877 332.005 132.49 332.435 132.312C332.869 132.133 333.195 131.816 333.524 131.509C334.261 130.823 334.974 130.11 335.699 129.409C335.806 129.307 335.92 129.149 336.043 129.137C336.608 129.08 336.93 128.687 337.263 128.311C337.639 127.889 338.058 127.545 338.615 127.388C338.755 127.348 338.871 127.225 339.006 127.161C339.186 127.078 339.37 126.981 339.562 126.949C340.364 126.821 341.17 126.803 341.977 126.902C342.123 126.921 342.292 126.951 342.402 127.039C342.833 127.383 343.337 127.692 343.538 128.224C343.768 128.828 344.275 129.328 344.221 130.045C344.209 130.184 344.267 130.366 344.361 130.466C344.701 130.835 344.719 131.287 344.751 131.741C344.782 132.198 344.855 132.626 345.176 133.006C345.359 133.224 345.338 133.619 345.528 133.827C346.172 134.535 346.87 135.195 347.549 135.87C347.584 135.905 347.631 135.931 347.679 135.945C348.439 136.162 349.076 136.724 349.952 136.639C350.703 136.566 351.466 136.639 352.224 136.639C359.345 136.641 366.466 136.641 373.587 136.641C376.011 136.641 378.434 136.643 380.859 136.638C381.212 136.638 381.563 136.612 381.915 136.589C382.116 136.577 382.294 136.303 382.198 136.153C381.794 135.524 381.566 134.777 380.966 134.277L380.958 134.274ZM343.923 86.1636C343.873 89.9507 343.907 93.7378 343.907 97.5257H343.909C343.909 101.565 343.906 105.606 343.914 109.645C343.916 110.358 343.838 111.05 343.659 111.741C343.494 112.375 343.318 113.01 343.305 113.674C343.304 113.823 343.277 113.98 343.223 114.119C342.914 114.917 342.632 115.731 342.263 116.501C341.937 117.18 341.566 117.853 341.112 118.45C340.503 119.249 339.84 120.015 339.029 120.627C338.829 120.778 338.61 120.909 338.387 121.023C337.801 121.318 337.211 121.6 336.618 121.88C336.483 121.944 336.338 122 336.192 122.023C334.696 122.253 333.2 122.535 331.691 122.121C330.593 122.187 329.656 121.595 328.63 121.363C328.488 121.33 328.356 121.237 328.226 121.162C327.746 120.885 327.262 120.615 326.792 120.322C326.537 120.163 326.284 119.989 326.072 119.78C325.5 119.213 324.95 118.626 324.396 118.042C324.294 117.933 324.204 117.806 324.136 117.673C323.719 116.865 323.265 116.074 322.915 115.238C322.606 114.498 322.378 113.716 322.193 112.934C322.088 112.494 321.988 112.054 321.877 111.615C321.777 111.227 321.751 110.819 321.722 110.417C321.688 109.965 321.707 109.507 321.666 109.055C321.643 108.812 321.582 108.553 321.465 108.341C321.287 108.019 321.208 107.688 321.208 107.329C321.208 105.663 321.208 103.997 321.21 102.33C321.21 101.972 321.279 101.641 321.467 101.32C321.588 101.112 321.639 100.845 321.658 100.6C321.694 100.148 321.686 99.6922 321.693 99.2372C321.707 98.5282 321.741 97.8252 322.002 97.151C322.075 96.9661 322.116 96.7613 322.13 96.5626C322.166 96.0522 322.287 95.5685 322.492 95.1005C322.572 94.9178 322.67 94.7175 322.667 94.5264C322.657 93.8395 322.99 93.2677 323.22 92.6565C323.485 91.9528 323.898 91.3119 324.042 90.5536C324.106 90.2191 324.311 89.9007 324.497 89.6027C324.947 88.8769 325.354 88.1269 325.853 87.4262C326.345 86.7331 326.823 86.0271 327.312 85.3294C328.186 84.0805 329.209 82.9802 330.371 82.0072C331.143 81.3611 331.961 80.7636 332.859 80.3062C333.391 80.0348 333.808 79.5418 334.441 79.463C335.434 78.9261 336.542 78.7616 337.619 78.5227C339.039 78.2064 340.431 78.4331 341.741 79.0618C342.005 79.1878 342.237 79.416 342.429 79.6428C342.825 80.1061 343.126 80.6513 343.271 81.2307C343.677 82.8466 343.942 84.4778 343.921 86.1659L343.923 86.1636Z" fill="#F6F7F6"/>
<path d="M560.221 57.5772C560.022 57.1608 559.818 56.7725 559.499 56.4389C559.364 56.2963 559.192 56.1227 559.173 55.9475C559.124 55.494 558.822 55.2271 558.536 54.9503C558.069 54.4969 557.669 53.9478 557.048 53.6885C556.615 53.508 556.282 53.21 555.929 52.9263C555.775 52.802 555.619 52.6374 555.439 52.5964C555.07 52.5115 554.831 52.2605 554.554 52.0436C554.279 51.8275 553.979 51.6387 553.685 51.4476C553.135 51.0911 552.472 50.9584 551.937 50.5641C551.786 50.4527 551.559 50.4155 551.363 50.3988C550.949 50.3639 550.605 50.2342 550.257 49.9817C549.902 49.7247 549.401 49.6936 549.085 49.3341C548.633 49.2485 548.254 48.9846 547.835 48.8215C547.229 48.5864 546.597 48.4014 545.96 48.2695C545.55 48.1845 545.221 47.9638 544.851 47.8182C544.482 47.6734 544.067 47.6484 543.673 47.5665C543.626 47.5566 543.579 47.5255 543.544 47.4914C543.232 47.188 542.84 47.1213 542.431 47.1001C542.174 47.0872 541.937 47.0219 541.73 46.8536C541.484 46.6526 541.185 46.6117 540.88 46.5829C540.53 46.5503 540.132 46.586 539.843 46.4289C539.32 46.1446 538.78 46.1461 538.227 46.1264C537.821 46.112 537.403 46.0937 537.063 45.8564C536.705 45.6077 536.318 45.5751 535.91 45.5706C535.403 45.5652 534.904 45.5728 534.502 45.1535C534.387 45.0337 534.127 45.0216 533.931 45.0169C533.022 44.9957 532.113 44.9942 531.204 44.9874C530.84 44.985 530.515 44.9146 530.243 44.6325C530.059 44.4421 529.786 44.4444 529.532 44.4429C528.572 44.4384 527.612 44.4376 526.653 44.4323C525.795 44.4278 524.936 44.4209 524.078 44.4134C523.823 44.411 523.555 44.3981 523.361 44.2223C523.031 43.9226 522.637 43.8931 522.229 43.8924C520.411 43.8894 518.594 43.8909 516.775 43.8924C516.674 43.8924 516.573 43.8984 516.473 43.906C516.219 43.9265 515.966 43.9659 515.77 44.1434C515.527 44.3632 515.234 44.4095 514.927 44.4125C514.17 44.4201 513.412 44.4278 512.654 44.4315C511.796 44.436 510.939 44.436 510.079 44.4406C509.827 44.4421 509.54 44.4164 509.36 44.6036C509 44.9783 508.551 44.979 508.096 44.9882C507.439 45.0003 506.783 45.0025 506.126 45.0109C505.87 45.0139 505.617 45.0503 505.432 45.2474C505.247 45.4461 505.023 45.5318 504.762 45.5439C504.509 45.5553 504.258 45.5592 504.005 45.5675C503.455 45.585 502.883 45.5167 502.443 45.9694C502.41 46.0036 502.355 46.0293 502.308 46.0331C501.65 46.087 501.05 46.3873 500.411 46.4912C499.764 46.5957 499.101 46.5912 498.555 47.0311C498.52 47.0598 498.46 47.0705 498.411 47.0697C497.832 47.0591 497.379 47.3746 496.876 47.6014C496.336 47.8455 495.806 48.1571 495.188 48.2398C494.898 48.2785 494.635 48.4954 494.344 48.5477C493.875 48.6326 493.56 49.0581 493.129 49.1225C492.458 49.2227 491.929 49.623 491.315 49.8164C490.913 49.9431 490.673 50.3283 490.262 50.3822C489.76 50.4481 489.505 50.8607 489.141 51.1193C489.06 51.1776 488.979 51.258 488.886 51.2777C488.303 51.4005 487.954 51.851 487.539 52.2105C487.427 52.3075 487.317 52.4562 487.188 52.4781C486.644 52.5699 486.311 52.9688 485.953 53.3115C484.862 54.3588 483.788 55.4242 482.719 56.4958C482.404 56.8128 482.046 57.1161 482.008 57.6212C482.001 57.7121 481.939 57.8206 481.867 57.882C481.37 58.3188 480.918 58.7837 480.749 59.457C480.727 59.5466 480.633 59.6201 480.566 59.6951C480.225 60.0721 480.032 60.5286 479.799 60.9729C479.561 61.428 479.341 61.8572 479.3 62.3774C479.285 62.5655 479.176 62.7618 479.066 62.9242C478.712 63.4405 478.821 64.1086 478.482 64.6326C478.381 64.7888 478.384 65.021 478.367 65.2203C478.342 65.5267 478.313 65.8285 478.098 66.069C477.878 66.3131 477.842 66.6096 477.835 66.9159C477.819 67.7243 477.803 68.5327 477.793 69.3419C477.788 69.7991 477.79 70.2466 477.429 70.6098C477.335 70.7031 477.303 70.8897 477.3 71.0345C477.286 71.742 477.281 72.4495 477.301 73.1563C477.308 73.3474 477.361 73.5824 477.483 73.7166C477.747 74.0087 477.787 74.3393 477.79 74.698C477.795 75.3547 477.795 76.0122 477.818 76.6689C477.838 77.2664 477.762 77.883 478.223 78.3933C478.339 78.5222 478.316 78.7763 478.359 78.9719C478.413 79.2168 478.436 79.4739 478.531 79.7014C478.65 79.9851 478.745 80.2641 478.765 80.572C478.801 81.1354 478.98 81.6534 479.24 82.1562C479.399 82.4656 479.481 82.8037 479.726 83.0813C480.009 83.4013 479.825 83.8904 480.03 84.2332C480.312 84.708 480.438 85.2843 480.789 85.6885C481.328 86.3103 481.645 87.0459 482.016 87.7496C482.183 88.0658 482.351 88.3509 482.597 88.6111C482.973 89.0138 483.318 89.4482 483.677 89.8691C483.871 90.5312 484.383 90.9589 484.835 91.4282C485.359 91.9735 485.886 92.5179 486.43 93.0434C486.821 93.4226 487.156 93.8913 487.778 93.9527C487.901 93.9648 488.013 94.1241 488.122 94.2249C488.887 94.9378 489.508 95.8311 490.578 96.1625C490.707 96.2027 490.8 96.3619 490.908 96.4658C491.239 96.7821 491.615 97.0072 492.035 97.2044C492.758 97.5426 493.525 97.8307 494.087 98.4488C494.182 98.5535 494.338 98.6544 494.473 98.6634C494.918 98.6938 495.144 99.0919 495.519 99.2382C495.942 99.4028 496.352 99.5978 496.76 99.7956C497.21 100.015 497.628 100.305 498.162 100.31C498.303 100.311 498.473 100.375 498.578 100.468C498.934 100.787 499.466 100.748 499.797 101.038C500.224 101.412 500.736 101.358 501.21 101.492C501.352 101.532 501.475 101.635 501.613 101.698C501.794 101.783 501.975 101.9 502.165 101.927C502.917 102.03 503.64 102.187 504.348 102.49C504.799 102.683 505.293 102.817 505.772 102.957C506.247 103.096 506.766 103.056 507.179 103.423C507.31 103.539 507.558 103.54 507.756 103.559C508.108 103.593 508.462 103.606 508.815 103.615C509.176 103.623 509.503 103.69 509.792 103.942C510.031 104.149 510.357 104.127 510.658 104.159C511.007 104.196 511.399 104.169 511.693 104.322C512.304 104.641 512.945 104.684 513.602 104.707C514.006 104.722 514.41 104.716 514.814 104.747C515.062 104.766 515.331 104.783 515.546 104.892C515.925 105.083 516.314 105.119 516.72 105.123C518.185 105.135 519.649 105.15 521.114 105.16C521.524 105.163 521.912 105.186 522.236 105.501C522.423 105.684 522.701 105.677 522.953 105.677C524.974 105.679 526.994 105.677 529.015 105.68C529.38 105.68 529.708 105.607 529.994 105.359C530.24 105.148 530.558 105.166 530.861 105.164C532.477 105.148 534.093 105.134 535.71 105.121C536.165 105.118 536.609 105.102 537.037 104.889C537.252 104.782 537.522 104.76 537.768 104.747C538.324 104.718 538.881 104.741 539.434 104.701C540.285 104.641 541.15 104.678 541.954 104.296C542.128 104.214 542.346 104.201 542.545 104.199C544.867 104.175 547.191 104.153 549.513 104.145C549.967 104.143 550.434 104.142 550.869 104.248C551.248 104.34 551.578 104.613 551.949 104.755C552.511 104.972 552.81 105.352 553.019 105.925C553.262 106.592 553.549 107.233 553.545 107.955C553.541 108.56 553.523 109.168 553.483 109.772C553.47 109.966 553.418 110.193 553.299 110.335C553.054 110.627 552.96 110.959 552.945 111.312C552.929 111.697 552.736 111.955 552.487 112.224C552.186 112.55 551.792 112.827 551.73 113.329C551.719 113.421 551.654 113.523 551.584 113.589C550.901 114.23 550.476 115.175 549.446 115.41C549.354 115.432 549.262 115.504 549.198 115.577C548.549 116.304 547.566 116.58 546.901 117.287C546.807 117.386 546.627 117.401 546.489 117.462C546.309 117.544 546.106 117.603 545.958 117.726C545.711 117.929 545.441 118.03 545.132 118.057C544.882 118.08 544.627 118.087 544.409 118.243C543.654 118.783 542.803 119.043 541.884 119.126C541.643 119.148 541.39 119.242 541.181 119.365C540.91 119.524 540.634 119.611 540.323 119.621C539.971 119.632 539.618 119.649 539.264 119.656C538.903 119.665 538.574 119.731 538.295 119.999C538.104 120.183 537.83 120.175 537.577 120.176C535.81 120.18 534.041 120.183 532.274 120.182C531.724 120.182 531.17 120.219 530.707 119.796C530.58 119.681 530.327 119.679 530.131 119.671C529.424 119.644 528.716 119.648 528.01 119.615C527.763 119.604 527.464 119.594 527.287 119.456C526.845 119.111 526.349 119.124 525.847 119.094C525.446 119.071 525.018 119.133 524.66 118.922C524.244 118.677 523.801 118.646 523.346 118.645C522.932 118.645 522.548 118.582 522.227 118.279C522.125 118.184 521.959 118.119 521.818 118.109C521.314 118.071 520.824 118.056 520.426 117.65C520.311 117.532 520.047 117.522 519.853 117.522C519.231 117.522 518.652 117.414 518.168 116.991C517.621 116.894 517.19 116.471 516.604 116.455C516.368 116.448 516.132 116.292 515.901 116.196C515.717 116.119 515.545 115.99 515.354 115.957C514.853 115.87 514.361 115.777 513.97 115.419C513.562 115.347 513.213 115.156 512.907 114.881C512.299 114.765 511.836 114.338 511.271 114.119C510.713 113.904 510.231 113.48 509.665 113.299C509.081 113.111 508.664 112.623 508.05 112.519C507.914 112.496 507.773 112.384 507.679 112.275C507.003 111.499 505.911 111.311 505.234 110.541C504.677 110.493 504.374 110.045 503.994 109.728C503.797 109.564 503.616 109.399 503.367 109.326C503.067 109.24 502.837 109.046 502.608 108.842C502.422 108.677 502.223 108.447 502.004 108.41C501.474 108.323 501.195 107.801 500.672 107.725C500.123 107.644 499.899 107.098 499.468 106.847C499.295 106.747 499.103 106.68 498.926 106.585C498.44 106.323 497.934 106.087 497.477 105.78C496.979 105.448 496.567 104.982 495.938 104.877C495.248 104.36 494.439 104.074 493.673 103.704C493.495 103.618 493.302 103.524 493.109 103.508C492.647 103.471 492.218 103.396 491.859 103.061C491.761 102.971 491.579 102.944 491.434 102.938C491.031 102.921 490.624 102.909 490.223 102.939C490.032 102.953 489.844 103.056 489.663 103.136C489.435 103.236 489.21 103.346 488.992 103.467C488.773 103.588 488.531 103.693 488.36 103.865C487.504 104.719 486.674 105.597 485.826 106.458C485.607 106.68 485.457 106.919 485.362 107.22C485.195 107.743 484.745 108.13 484.626 108.683C484.065 109.153 483.897 109.873 483.5 110.443C483.287 110.749 483.343 111.174 483.077 111.394C482.684 111.719 482.788 112.271 482.45 112.583C482.068 112.938 482.149 113.418 482.029 113.845C482.001 113.941 481.96 114.035 481.914 114.124C481.505 114.932 481.083 115.735 480.886 116.631C480.876 116.678 480.851 116.727 480.821 116.766C480.562 117.105 480.523 117.506 480.471 117.909C480.446 118.102 480.407 118.345 480.279 118.466C479.89 118.837 479.924 119.396 479.605 119.805C479.281 120.218 479.362 120.77 479.309 121.27C479.299 121.369 479.294 121.484 479.24 121.561C478.857 122.122 478.857 122.811 478.615 123.418C478.522 123.649 478.419 123.896 478.413 124.137C478.384 125.349 478.381 126.562 478.376 127.776C478.376 128.088 478.508 128.35 478.693 128.606C478.954 128.967 479.387 129.224 479.413 129.735C479.703 130.078 479.939 130.487 480.424 130.593C480.736 130.662 480.958 130.85 481.183 131.06C481.551 131.404 481.949 131.685 482.455 131.84C482.928 131.984 483.351 132.287 483.802 132.508C483.979 132.596 484.167 132.692 484.359 132.713C484.77 132.761 485.11 132.916 485.471 133.127C485.799 133.321 486.266 133.263 486.629 133.416C486.991 133.57 487.279 133.879 487.715 133.899C487.962 133.911 488.254 133.937 488.438 134.075C488.875 134.403 489.368 134.454 489.87 134.489C490.281 134.518 490.644 134.654 491.026 134.8C491.823 135.106 492.705 135.106 493.505 135.432C493.593 135.469 493.704 135.458 493.805 135.466C494.51 135.512 495.208 135.565 495.856 135.912C496.066 136.025 496.345 136.026 496.594 136.044C497.096 136.079 497.594 136.069 498.016 136.439C498.148 136.554 498.395 136.558 498.591 136.578C498.944 136.614 499.298 136.629 499.65 136.64C500.008 136.651 500.337 136.723 500.656 136.914C500.861 137.038 501.13 137.088 501.375 137.109C501.979 137.158 502.587 137.162 503.191 137.202C503.49 137.222 503.817 137.217 504.079 137.339C504.557 137.566 505.049 137.589 505.555 137.599C505.958 137.608 506.362 137.619 506.766 137.632C507.024 137.641 507.273 137.692 507.469 137.868C507.713 138.087 508.003 138.137 508.311 138.141C509.069 138.15 509.827 138.155 510.583 138.163C511.29 138.172 511.998 138.18 512.704 138.193C512.958 138.198 513.227 138.208 513.414 138.398C513.69 138.68 514.029 138.719 514.387 138.719C516.256 138.719 518.125 138.719 519.993 138.719V138.722C521.862 138.722 523.731 138.722 525.6 138.722C526.006 138.722 526.395 138.706 526.722 138.383C526.847 138.26 527.087 138.216 527.279 138.205C527.885 138.171 528.492 138.183 529.096 138.148C529.343 138.133 529.629 138.11 529.817 137.977C530.262 137.662 530.75 137.587 531.256 137.621C532.238 137.687 533.096 137.092 534.069 137.13C534.165 137.134 534.269 137.097 534.36 137.057C534.499 136.998 534.627 136.915 534.764 136.851C534.899 136.788 535.036 136.701 535.18 136.683C535.682 136.618 536.186 136.57 536.569 136.179C536.865 136.125 537.174 136.107 537.453 136.009C537.78 135.892 538.08 135.703 538.391 135.55C538.436 135.528 538.49 135.517 538.539 135.52C539.233 135.54 539.797 135.173 540.375 134.875C540.736 134.689 541.074 134.484 541.494 134.464C541.804 134.448 542.071 134.314 542.323 134.126C542.723 133.83 543.294 133.827 543.62 133.396C543.954 133.292 544.282 133.217 544.578 132.981C544.882 132.738 545.275 132.599 545.637 132.435C546.236 132.164 546.807 131.864 547.302 131.412C547.55 131.186 547.927 131.11 548.215 130.918C548.508 130.726 548.758 130.471 549.034 130.252C549.112 130.191 549.212 130.151 549.307 130.123C549.712 130.007 550.007 129.737 550.295 129.448C551.432 128.305 552.578 127.17 553.711 126.023C554.098 125.631 554.552 125.262 554.744 124.739C554.947 124.188 555.4 123.853 555.704 123.396C555.731 123.355 555.75 123.304 555.758 123.255C555.816 122.828 556.069 122.527 556.372 122.243C556.553 122.073 556.749 121.874 556.828 121.649C557.131 120.789 557.697 120.063 558.012 119.204C558.199 118.694 558.578 118.259 558.565 117.668C558.563 117.53 558.635 117.363 558.728 117.256C558.973 116.973 559.058 116.646 559.108 116.287C559.143 116.042 559.187 115.768 559.322 115.575C559.573 115.219 559.608 114.831 559.641 114.427C559.676 113.975 559.726 113.524 559.77 113.072C560.131 112.421 560.07 111.707 560.081 111.002C560.09 110.497 560.1 109.992 560.117 109.487C560.146 108.73 560.217 107.974 560.206 107.217C560.185 105.854 560.118 104.492 560.062 103.129C560.055 102.93 560.056 102.7 559.96 102.54C559.683 102.078 559.686 101.578 559.666 101.073C559.646 100.517 559.642 99.9565 559.253 99.4938C559.192 99.4218 559.149 99.3088 559.151 99.2147C559.152 98.5839 558.807 98.0788 558.593 97.5206C558.376 96.9611 558.037 96.4453 557.949 95.8326C557.92 95.6408 557.794 95.4641 557.722 95.2767C557.47 94.6177 557.034 94.0452 556.819 93.3696C556.348 92.7842 556.22 91.9818 555.614 91.4775C555.465 91.354 555.345 91.1674 555.271 90.9861C555.078 90.5038 554.742 90.1368 554.392 89.772C553.973 89.3352 553.561 88.8923 553.159 88.4412C552.991 88.2546 552.831 88.0537 552.715 87.8346C552.296 87.058 551.708 86.4672 550.916 86.0699C550.694 85.9583 550.487 85.7984 550.304 85.6293C549.896 85.2539 549.503 84.8627 549.112 84.4698C548.711 84.0679 548.147 83.9201 547.722 83.5674C547.335 83.2458 546.991 82.8788 546.459 82.7825C546.328 82.759 546.201 82.63 546.103 82.5216C545.685 82.0621 545.162 81.7884 544.596 81.5525C544.087 81.3409 543.634 80.9883 543.121 80.7965C542.732 80.6516 542.439 80.3445 542.058 80.2368C541.66 80.1245 541.336 79.9205 540.99 79.7136C540.522 79.4338 540.01 79.1698 539.483 79.0645C538.774 78.9226 538.145 78.636 537.536 78.2872C537.263 78.1309 536.988 78.0528 536.684 78.0134C536.439 77.9815 536.15 77.9588 535.971 77.817C535.632 77.5462 535.263 77.4628 534.858 77.4143C534.664 77.3907 534.445 77.337 534.299 77.2202C534.053 77.0238 533.765 76.9525 533.492 76.8281C532.986 76.5961 532.467 76.4231 531.924 76.3072C531.413 75.912 530.807 75.8862 530.198 75.862C529.944 75.8521 529.687 75.8036 529.49 75.633C529.203 75.3827 528.864 75.3365 528.507 75.2993C528.31 75.2788 528.063 75.269 527.932 75.1515C527.518 74.7822 527.022 74.7503 526.519 74.7101C526.112 74.6775 525.729 74.61 525.382 74.3507C525.235 74.2391 525.006 74.2203 524.809 74.1914C524.51 74.1475 524.208 74.1193 523.905 74.1057C523.499 74.0876 523.112 74.0329 522.731 73.8592C521.948 73.5029 521.036 73.6067 520.258 73.2071C519.856 73.179 519.453 73.1433 519.05 73.1245C518.645 73.1047 518.251 73.0873 517.906 72.8143C517.759 72.6982 517.543 72.6398 517.351 72.6171C516.95 72.57 516.545 72.5557 516.141 72.5435C515.778 72.5329 515.456 72.445 515.152 72.2281C514.998 72.1182 514.78 72.065 514.589 72.0499C514.035 72.0066 513.48 71.9923 512.923 71.9725C512.567 71.9596 512.235 71.9043 511.919 71.698C511.719 71.5668 511.453 71.4978 511.209 71.4759C510.653 71.4257 510.112 71.3651 509.599 71.1126C509.429 71.0284 509.206 71.0435 509.005 71.0321C508.702 71.014 508.4 71.0088 508.096 71.0034C507.734 70.9974 507.409 70.9276 507.118 70.6758C506.979 70.5553 506.756 70.5044 506.563 70.4771C506.265 70.4338 505.957 70.4551 505.657 70.4142C505.463 70.3876 505.237 70.3482 505.096 70.2299C504.76 69.9478 504.383 69.8872 503.971 69.8758C503.515 69.8628 503.06 69.837 502.693 69.4981C502.623 69.4328 502.514 69.3746 502.423 69.3729C501.746 69.3647 501.185 68.9718 500.551 68.8231C499.809 68.6496 499.141 68.306 498.476 67.9481C498.303 67.8548 498.106 67.7501 497.919 67.7501C497.372 67.7501 496.976 67.4681 496.589 67.1359C496.322 66.9077 496.052 66.6869 495.717 66.5444C495.492 66.4481 495.287 66.2835 495.102 66.1168C494.653 65.7118 494.219 65.2901 493.785 64.8693C493.386 64.4817 493.118 64.023 492.896 63.5027C492.649 62.9333 492.469 62.3721 492.467 61.7571C492.46 60.7971 492.419 59.8332 492.477 58.8762C492.557 57.5408 492.933 56.31 493.981 55.3719C494.393 55.0026 494.769 54.5909 495.155 54.1927C495.612 53.7219 496.06 53.2486 496.746 53.1045C496.88 53.0765 496.983 52.9187 497.114 52.8467C498.007 52.3545 498.927 51.9617 499.983 52.0671C500.033 52.0724 500.084 52.0656 500.136 52.0671C500.544 52.0763 500.932 52.0285 501.296 51.8025C501.457 51.7023 501.674 51.6773 501.87 51.6501C502.069 51.622 502.273 51.628 502.475 51.6288C503.178 51.6319 503.887 51.575 504.537 51.9656C504.695 52.0611 504.927 52.0513 505.126 52.0595C505.53 52.077 505.933 52.058 506.337 52.083C506.586 52.099 506.878 52.0998 507.07 52.2271C507.602 52.5783 508.206 52.6132 508.794 52.7397C509.436 52.8786 510.007 53.2175 510.627 53.4216C510.965 53.8424 511.538 53.8105 511.948 54.1222C512.383 54.4528 512.928 54.6167 513.409 54.8912C513.805 55.1179 514.195 55.3318 514.524 55.6556C514.662 55.7898 514.85 55.9066 515.034 55.949C515.346 56.021 515.563 56.1735 515.787 56.4017C516.276 56.9022 516.73 57.4505 517.443 57.6879C517.714 57.7782 517.955 58.0109 518.167 58.2218C518.632 58.6859 519.085 59.1424 519.738 59.3585C519.962 59.4328 520.146 59.6505 520.326 59.8248C520.797 60.2806 521.253 60.7515 521.718 61.2125C522.04 61.5318 522.354 61.8632 522.817 61.9907C523.07 62.0605 523.226 62.2704 523.407 62.4464C524.388 63.392 525.373 64.3309 526.361 65.2673C526.506 65.4047 526.658 65.5965 526.832 65.6306C527.433 65.7475 527.745 66.2221 528.133 66.602C528.89 67.3406 529.627 68.102 530.403 68.8209C530.694 69.0894 531.001 69.3525 531.384 69.5171C532.073 69.8143 532.487 70.5674 533.289 70.6917C533.331 70.6986 533.372 70.7471 533.406 70.7835C533.823 71.2286 534.257 71.6336 534.877 71.7967C535.056 71.8437 535.201 72.0286 535.356 72.1576C535.624 72.3821 535.865 72.6217 536.214 72.7581C536.532 72.8841 536.82 73.1191 537.076 73.3572C537.343 73.6075 537.663 73.7151 537.975 73.8745C538.734 74.2634 539.472 74.6919 540.286 74.9604C540.586 75.25 541.011 75.3016 541.343 75.5003C541.787 75.7657 542.216 75.9621 542.731 76.0084C542.916 76.0251 543.092 76.1661 543.269 76.257C543.357 76.3026 543.434 76.3951 543.524 76.4087C543.97 76.4785 544.423 76.5202 544.871 76.5877C545.365 76.662 545.784 76.9843 546.32 76.9684C546.871 76.9525 547.427 77.0298 547.976 77.0988C548.746 77.1959 549.482 77.0048 550.221 76.8607C550.511 76.8038 550.775 76.6196 551.06 76.5248C551.492 76.3815 551.742 75.9082 552.244 75.8909C552.33 75.8877 552.42 75.7976 552.492 75.73C552.713 75.5238 552.925 75.3069 553.145 75.0998C553.365 74.8921 553.601 74.701 553.812 74.4849C554.578 73.6992 555.502 73.0433 555.894 71.9475C555.926 71.8588 556.013 71.7875 556.081 71.714C556.49 71.2749 556.966 70.8888 557.094 70.2489C557.121 70.1184 557.263 70.0009 557.372 69.8984C557.711 69.5793 557.896 69.1758 558.111 68.7701C558.346 68.3243 558.435 67.7964 558.745 67.4181C559.074 67.0154 559.08 66.4656 559.463 66.1046C559.562 66.0113 559.613 65.8346 559.629 65.6906C559.73 64.7858 560.196 63.9661 560.235 63.0462C560.241 62.8984 560.276 62.7361 560.349 62.6102C560.59 62.1947 560.594 61.7434 560.595 61.2869C560.595 60.5793 560.579 59.8711 560.606 59.1644C560.629 58.5903 560.466 58.0913 560.221 57.5772Z" fill="#F6F7F6"/>
<path d="M54.5054 36.9502C54.6964 36.8963 54.8987 36.8296 55.0548 36.7143C55.5428 36.3541 55.9489 35.9326 56.2293 35.3675C56.8984 34.023 57.4726 32.6323 58.2205 31.3256C58.4683 30.8919 58.6828 30.421 58.8101 29.9401C59.0965 28.8581 59.7155 27.9276 60.1104 26.8977C60.5187 26.6028 60.4248 26.0447 60.724 25.7056C61.0513 25.3348 61.087 24.8874 61.1575 24.44C61.1726 24.3422 61.2135 24.2466 61.2567 24.1565C61.4288 23.7924 61.5834 23.4186 61.7871 23.0728C61.9736 22.7572 62.1009 22.4236 62.0857 22.071C62.0652 21.6114 62.4282 21.3567 62.5706 20.9896C62.6244 20.8509 62.6494 20.6953 62.6608 20.546C62.688 20.1866 62.7737 19.8605 62.9957 19.5594C63.1079 19.4078 63.1563 19.1908 63.1805 18.9967C63.2556 18.3977 63.2586 17.788 63.6246 17.2594C63.7034 17.1456 63.7079 16.9682 63.7126 16.8196C63.736 16.1127 63.7443 15.4053 63.7656 14.6985C63.783 14.1077 63.5806 13.6201 63.154 13.2061C62.4312 12.5047 61.7251 11.7865 61.0104 11.076C60.652 10.7196 60.2945 10.3601 59.7572 10.2888C59.3601 9.97562 58.8502 9.85658 58.4479 9.57144C57.9046 9.18697 57.2415 9.08232 56.6953 8.72514C55.3609 8.46352 54.1645 7.7378 52.8051 7.55883C52.7096 7.54594 52.602 7.50272 52.5324 7.43902C52.2118 7.14175 51.8178 7.09322 51.4094 7.06971C50.9071 7.0409 50.4099 7.01815 49.9826 6.67158C49.8431 6.5586 49.6023 6.56467 49.4044 6.5313C49.0082 6.46457 48.5785 6.48125 48.2193 6.32958C47.7813 6.14455 47.3473 6.1036 46.8926 6.09146C45.9818 6.06795 45.0847 5.94208 44.2185 5.65543C43.8724 5.54092 43.5253 5.53486 43.173 5.53486C41.4052 5.53258 39.6382 5.52954 37.8704 5.53486C37.1188 5.53713 36.3512 5.43931 35.6473 5.82529C35.6055 5.84804 35.5495 5.8488 35.4995 5.85336C34.6471 5.93373 33.7954 6.02852 32.9407 6.08691C32.4376 6.12104 31.9587 6.16047 31.4669 6.34627C30.9608 6.53813 30.3804 6.53281 29.8347 6.62534C29.7416 6.64126 29.6499 6.70648 29.5726 6.76866C29.368 6.93322 29.1369 7.01208 28.8785 7.03255C28.5262 7.05986 28.1595 7.04469 27.8268 7.14175C27.4495 7.25172 27.107 7.47769 26.7395 7.63087C26.2295 7.8432 25.7211 8.05251 25.1876 8.21175C24.6626 8.36797 24.1231 8.56968 23.6782 8.87908C23.2585 9.17104 22.744 9.20213 22.3409 9.55325C21.9795 9.86794 21.4051 9.89297 21.0293 10.2517C20.5496 10.2994 20.2337 10.6809 19.8199 10.8492C19.3365 11.0449 18.9448 11.3376 18.5931 11.7069C18.5265 11.7774 18.4326 11.8449 18.3401 11.8646C17.759 11.989 17.3914 12.403 17.0073 12.8057C16.6588 13.1697 16.2738 13.4995 15.9328 13.8696C15.551 14.2852 15.1198 14.6097 14.5796 14.7812C14.2946 15.2438 14.1446 15.7829 13.6764 16.1416C13.3195 16.4146 13.0301 16.7786 12.714 17.1047C12.2632 17.5696 11.7184 17.9563 11.5638 18.6563C11.5259 18.8291 11.31 18.9588 11.1865 19.1173C10.9084 19.4737 10.6508 19.837 10.4234 20.2358C10.1492 20.7166 9.95973 21.2421 9.65436 21.6987C9.32097 22.1961 8.98908 22.6822 8.71176 23.2213C8.41322 23.8023 8.18665 24.4172 7.86311 24.9807C7.53274 25.5563 7.37361 26.1917 7.12054 26.79C6.90838 27.292 6.82351 27.8616 6.44768 28.2977C6.35525 28.4046 6.29842 28.5661 6.28023 28.7094C6.2143 29.2129 6.12414 29.6998 5.82559 30.132C5.74527 30.2488 5.72406 30.4186 5.71193 30.5673C5.63085 31.5782 5.22775 32.5177 5.06635 33.5105C5.05045 33.6098 5.04135 33.7182 4.99437 33.8039C4.71629 34.3096 4.67916 34.8571 4.6731 35.4175C4.66855 35.8218 4.64658 36.226 4.60718 36.6279C4.58824 36.8243 4.56399 37.0579 4.45033 37.1997C4.13739 37.5894 4.12754 38.0292 4.12224 38.4874C4.10101 40.3065 4.07071 42.125 4.04646 43.9443C4.04116 44.3507 4.03434 44.7413 3.74111 45.0841C3.62441 45.2213 3.59032 45.4586 3.58122 45.6527C3.55698 46.157 3.56455 46.6629 3.56455 47.1686C3.56455 72.186 3.56455 97.2026 3.56455 122.22C3.56455 123.432 3.56607 124.646 3.55395 125.858C3.5494 126.363 3.52136 126.868 3.48424 127.373C3.46605 127.623 3.46302 127.902 3.34784 128.109C3.11446 128.529 3.09249 128.983 3.04248 129.43C2.92882 130.442 2.56057 131.383 2.28021 132.35C2.15519 132.779 2.00668 133.239 1.73541 133.579C1.44141 133.95 1.45278 134.457 1.10044 134.768C0.737492 135.088 0.780683 135.617 0.454104 135.952C0.387424 136.019 0.310137 136.142 0.32908 136.214C0.363935 136.346 0.457893 136.555 0.545031 136.563C1.09438 136.621 1.64827 136.655 2.20141 136.655C14.4727 136.66 26.744 136.658 39.0153 136.657C39.4192 136.657 39.8231 136.66 40.2269 136.65C40.377 136.646 40.5262 136.613 40.6747 136.59C40.9014 136.555 41.093 136.277 41.0559 136.018C41.0347 135.872 41.0173 135.702 40.9346 135.59C40.7248 135.309 40.4755 135.059 40.2481 134.789C40.1527 134.676 40.014 134.557 39.9974 134.426C39.9231 133.858 39.5495 133.416 39.3995 132.878C39.1844 132.104 38.926 131.34 38.6266 130.595C38.491 130.258 38.4068 129.93 38.3842 129.576C38.3622 129.222 38.3456 128.868 38.3045 128.518C38.2819 128.32 38.2735 128.079 38.1576 127.944C37.8288 127.56 37.8143 127.114 37.8068 126.661C37.7803 124.993 37.7484 123.325 37.7476 121.658C37.7424 111.095 37.7454 100.532 37.7446 89.9695C37.7446 78.1434 37.7446 66.3172 37.7446 54.4911C37.7446 53.9861 37.7484 53.4802 37.7659 52.976C37.7803 52.5467 38.0015 52.3185 38.4152 52.301C38.8183 52.2836 39.223 52.2791 39.6268 52.2791C41.8992 52.2767 44.1716 52.2782 46.444 52.2782C47.1003 52.2782 47.7572 52.2829 48.4133 52.2745C48.6642 52.2715 48.9157 52.2435 49.1658 52.2161C49.39 52.1918 49.6288 51.9356 49.6454 51.7019C49.6628 51.4502 49.6772 51.1977 49.6779 50.9452C49.6818 50.0351 49.6749 49.1259 49.6811 48.2159C49.6924 46.4998 49.6916 46.4892 47.8943 46.493C43.8541 46.4998 39.8147 46.4953 35.7745 46.4953C34.9668 46.4953 34.1583 46.4998 33.3506 46.4907C33.0998 46.4877 32.8134 46.5173 32.6058 46.4104C32.0345 46.1161 31.4335 46.1374 30.8304 46.1449C30.0136 46.1548 29.2172 46.0911 28.4792 45.6914C28.3504 45.6217 28.192 45.5906 28.0436 45.5755C27.5873 45.5284 27.1464 45.467 26.7887 45.125C26.6925 45.0332 26.5008 44.9854 26.3621 45.0022C25.5763 45.0946 25.1482 44.3173 24.4421 44.2331C23.9685 43.6864 23.3237 43.3937 22.7091 43.0532C22.5788 42.9811 22.4659 42.8712 22.3591 42.765C21.1816 41.5904 20.0056 40.4157 18.8349 39.235C18.6939 39.0932 18.5205 38.9355 18.4757 38.7565C18.3333 38.187 17.9703 37.7767 17.571 37.393C17.3793 37.2087 17.3066 36.9797 17.1929 36.7569C16.8293 36.0455 16.5542 35.2773 15.9654 34.6972C15.8624 34.5955 15.745 34.4568 15.7313 34.3249C15.6737 33.7637 15.5396 33.2412 15.1948 32.7771C15.1138 32.6679 15.116 32.4874 15.1031 32.3372C15.0539 31.7352 15.0365 31.1345 14.628 30.6211C14.519 30.4832 14.525 30.2344 14.5205 30.0357C14.4924 28.8232 14.4766 27.6106 14.4575 26.398C14.4462 25.6852 14.4553 24.9769 14.9547 24.3899C15.0501 23.7484 15.498 23.3434 15.9184 22.9082C16.5966 22.2067 17.4226 21.7403 18.2886 21.3263C18.6045 21.1754 18.9001 20.9547 19.232 20.8728C19.6177 20.7772 20.0329 20.7796 20.4352 20.7742C21.243 20.7636 22.0507 20.7682 22.8577 20.7826C23.3593 20.7917 23.8593 20.7901 24.2852 21.1557C24.4186 21.2702 24.6641 21.2702 24.8611 21.2922C25.2119 21.3301 25.5658 21.3574 25.9189 21.3665C26.3348 21.3772 26.6856 21.5272 27.0509 21.726C27.4889 21.9641 27.9163 22.2507 28.4239 22.3478C29.5756 22.5676 30.5083 23.3018 31.5844 23.6998C32.095 24.1837 32.877 24.2656 33.3127 24.8669C33.3658 24.9397 33.484 24.9966 33.5764 25.0035C34.1129 25.0444 34.4038 25.5714 34.9146 25.6632C35.4563 25.761 35.7063 26.26 36.1019 26.5588C36.1815 26.6195 36.2655 26.6984 36.358 26.715C36.8407 26.8022 37.1241 27.1601 37.4627 27.4628C37.9037 27.8563 38.2546 28.3985 38.9411 28.4508C39.0623 28.4599 39.1782 28.6222 39.2843 28.7269C39.7147 29.1515 40.1481 29.574 40.5657 30.0107C40.8164 30.2738 41.0937 30.4597 41.4529 30.5529C41.6332 30.6 41.7999 30.7433 41.9454 30.8737C42.2084 31.108 42.4576 31.359 42.7016 31.6139C43.3002 32.2387 44.2467 32.3654 44.787 33.0759C44.8407 33.1464 44.9604 33.185 45.0558 33.201C45.3726 33.2548 45.5961 33.4414 45.8181 33.6575C46.1773 34.0063 46.5206 34.3749 47.0609 34.4734C47.2343 34.5053 47.3926 34.6903 47.5306 34.8321C47.7822 35.0908 48.0489 35.3046 48.4179 35.3744C48.5619 35.4017 48.7482 35.4449 48.824 35.548C49.1249 35.9568 49.6742 35.8725 50.0099 36.1797C50.3774 36.5164 50.8412 36.5005 51.2821 36.5893C51.4739 36.6279 51.6473 36.7492 51.8337 36.8213C52.7104 37.1602 53.6038 37.2065 54.5078 36.9509L54.5054 36.9502Z" fill="#F6F7F6"/>
<path d="M135.852 49.7559C135.358 49.2523 134.897 48.7146 134.395 48.221C133.861 47.697 133.358 47.1153 132.56 46.966C132.471 46.9492 132.402 46.8439 132.319 46.7885C131.603 46.3175 130.711 46.2076 130.027 45.6722C129.73 45.6244 129.432 45.5813 129.136 45.5274C129.038 45.51 128.918 45.4895 128.857 45.4251C128.425 44.9685 127.864 44.9966 127.311 44.986C126.95 44.9791 126.624 44.8972 126.332 44.6523C126.19 44.534 125.969 44.4741 125.778 44.4597C125.325 44.4271 124.869 44.4377 124.416 44.4308C123.912 44.4226 123.421 44.4233 122.985 44.0684C122.812 43.9281 122.51 43.9053 122.265 43.9023C121.003 43.8879 119.74 43.8947 118.477 43.8986C118.223 43.8986 117.968 43.9296 117.764 44.1003C117.476 44.3422 117.138 44.409 116.776 44.415C116.221 44.4241 115.665 44.434 115.11 44.4476C114.853 44.4536 114.612 44.5105 114.42 44.7024C114.187 44.9352 113.884 44.9564 113.579 44.9769C113.034 45.0148 112.453 44.9207 112.025 45.4046C111.966 45.4705 111.839 45.5138 111.747 45.5078C111.047 45.4615 110.498 45.8566 109.92 46.1425C109.382 46.4086 108.778 46.5474 108.31 46.9546C107.657 47.0767 107.189 47.6098 106.542 47.7547C106.407 47.7849 106.291 47.9131 106.175 48.0072C105.979 48.1656 105.815 48.4121 105.594 48.4826C104.777 48.742 104.271 49.3866 103.699 49.9424C102.833 50.7857 101.998 51.6623 101.148 52.5223C100.652 53.0243 100.154 53.5248 99.6486 54.0177C99.4645 54.1974 99.2894 54.3801 99.2508 54.6425C99.2039 54.9633 99.019 55.1695 98.7917 55.3903C98.29 55.8772 97.7255 56.3185 97.5111 57.0465C97.4445 57.2732 97.2399 57.4673 97.0739 57.6547C96.6109 58.1794 96.035 58.6193 95.8578 59.3518C95.8358 59.4412 95.7494 59.5216 95.6797 59.5929C95.0795 60.2034 94.4847 60.8184 93.8688 61.4122C93.7316 61.5442 93.53 61.645 93.3429 61.6821C92.8458 61.7806 92.3419 61.7937 91.8419 61.673C91.6819 61.6343 91.4584 61.4289 91.4433 61.2605C91.397 60.7593 91.3349 60.2565 91.3289 59.7537C91.3091 58.0862 91.3114 56.4178 91.3038 54.7495C91.3016 54.3438 91.297 53.9403 91.0235 53.5969C90.8598 53.3905 90.8325 53.135 90.8204 52.8803C90.8022 52.4761 90.7878 52.0718 90.7673 51.6684C90.7544 51.4129 90.6915 51.1785 90.5347 50.9632C90.4188 50.804 90.3233 50.6181 90.2657 50.43C89.9991 49.5557 89.5277 48.7814 89.0867 47.9943C88.8375 47.5492 88.5078 47.1784 87.9531 47.0729C87.7691 47.038 87.61 46.8788 87.4356 46.7832C86.6771 46.3653 85.8982 46.0439 84.9988 46.1296C84.5987 46.1675 84.1911 46.1326 83.7873 46.1326C74.0899 46.1326 64.3933 46.1326 54.696 46.1326C54.3422 46.1326 53.989 46.1311 53.6352 46.1417C53.4859 46.1462 53.3367 46.1774 53.1881 46.1986C53.0025 46.2251 52.898 46.5239 53.0268 46.6786C53.2837 46.988 53.5253 47.3163 53.8163 47.5901C54.1201 47.876 54.2763 48.224 54.4641 48.5834C54.721 49.0742 55.0302 49.5132 55.0317 50.1032C55.0317 50.2807 55.2068 50.4543 55.2878 50.6355C55.6364 51.4136 56.0697 52.1635 56.0198 53.0675C56.0092 53.2556 56.0766 53.4868 56.1903 53.6355C56.4554 53.9813 56.5101 54.368 56.5213 54.776C56.5403 55.4327 56.5555 56.0894 56.5752 56.7462C56.5827 56.9987 56.5767 57.2671 56.7601 57.4612C57.0685 57.7881 57.0828 58.1862 57.0843 58.5934C57.0896 60.0593 57.0987 61.5251 57.0995 62.991C57.1002 82.2488 57.1002 101.507 57.0995 120.765C57.0995 121.675 57.0942 122.585 57.0896 123.494C57.0881 123.798 57.0987 124.103 57.07 124.404C57.051 124.598 57.0268 124.841 56.9055 124.968C56.5933 125.3 56.5745 125.685 56.5683 126.093C56.56 126.65 56.5448 127.205 56.5282 127.76C56.5146 128.218 56.4744 128.654 56.1675 129.048C56.0296 129.226 56.0221 129.524 56.0023 129.77C55.9622 130.273 55.9795 130.78 55.6591 131.222C55.5765 131.336 55.5583 131.506 55.5378 131.653C55.4386 132.366 54.9544 132.929 54.7809 133.613C54.3665 134.17 54.1998 134.894 53.6125 135.335C53.5337 135.395 53.4745 135.482 53.4125 135.559C53.3813 135.598 53.3655 135.649 53.3389 135.692C53.1063 136.069 53.3404 136.59 53.767 136.608C54.2709 136.632 54.7763 136.636 55.2809 136.636C61.5435 136.637 67.8062 136.637 74.0695 136.637C80.3328 136.637 86.6961 136.637 93.0095 136.637C93.4641 136.637 93.9187 136.638 94.3727 136.622C94.5181 136.616 94.6621 136.555 94.8068 136.518C94.9311 136.487 95.0364 136.262 94.9675 136.149C94.8637 135.979 94.6969 135.833 94.6415 135.65C94.4916 135.154 94.2052 134.757 93.877 134.37C93.7202 134.185 93.552 133.937 93.5444 133.711C93.5156 132.915 92.8883 132.368 92.7427 131.63C92.3874 131.281 92.3396 130.832 92.3359 130.37C92.3329 129.963 92.3131 129.566 92.0153 129.235C91.8402 129.04 91.816 128.778 91.7956 128.523C91.7334 127.776 91.8516 127.007 91.4334 126.306C91.3167 126.111 91.3599 125.813 91.3539 125.56C91.3387 124.853 91.3304 124.146 91.3296 123.438C91.3235 111.358 91.319 99.2771 91.316 87.1969C91.316 85.8319 91.319 84.4677 91.3364 83.1026C91.3447 82.4505 91.3016 81.7892 91.6608 81.1856C91.7562 81.0256 91.7478 80.7951 91.7585 80.5948C91.7797 80.1915 91.7653 79.7858 91.7971 79.3831C91.8122 79.1881 91.8419 78.9425 91.9646 78.8188C92.2836 78.4989 92.3207 78.1174 92.357 77.7102C92.3745 77.5175 92.4238 77.2863 92.5457 77.1513C92.8435 76.8237 92.8875 76.4392 92.9352 76.0343C92.9579 75.8417 93.0179 75.6194 93.1405 75.48C93.3489 75.2426 93.4429 74.9642 93.5709 74.6913C93.7839 74.2362 93.9816 73.76 94.2771 73.3604C94.8788 72.5452 95.6728 71.9104 96.4253 71.2393C96.4616 71.2067 96.5116 71.1742 96.5579 71.171C97.0625 71.1363 97.3262 70.7184 97.6952 70.4673C97.8597 70.3551 98.0279 70.2346 98.2127 70.1678C99.9404 69.5437 100.812 69.3928 102.651 69.383C103.358 69.3791 104.065 69.389 104.772 69.3806C105.683 69.3693 106.586 69.4383 107.491 69.5385C108.159 69.6128 108.737 69.932 109.374 70.0829C109.857 70.1974 110.33 70.3938 110.771 70.6236C111.075 70.7821 111.338 71.04 111.581 71.2901C111.801 71.5161 112.037 71.6784 112.342 71.752C112.438 71.7747 112.551 71.8096 112.613 71.8787C113.269 72.6127 114.259 73.0715 114.494 74.1567C114.514 74.2461 114.616 74.3144 114.671 74.3993C115.051 74.9825 115.251 75.6801 115.804 76.1578C115.903 76.2436 115.89 76.4476 115.968 76.5719C116.261 77.039 116.461 77.5615 116.753 78.0195C117.046 78.4784 117.486 78.8439 117.87 79.242C118.08 79.4596 118.32 79.65 118.526 79.8722C118.786 80.1535 119.113 80.2483 119.477 80.2665C119.628 80.274 119.78 80.2794 119.931 80.2802C121.603 80.2862 121.362 80.3348 122.539 79.1336C122.782 78.8856 123.044 78.6148 123.171 78.3039C123.327 77.918 123.518 77.5903 123.815 77.2999C123.99 77.1286 124.1 76.8897 124.231 76.6751C124.647 75.9895 124.828 75.1827 125.326 74.5396C125.305 74.0255 125.79 73.7797 125.95 73.3535C126.144 72.8386 126.401 72.3465 126.647 71.8521C126.895 71.3569 127.241 70.8958 127.397 70.3756C127.561 69.8304 127.99 69.4512 128.135 68.9036C128.274 68.3744 128.648 67.9422 128.883 67.4454C129.161 66.8585 129.422 66.2572 129.737 65.6884C130.076 65.078 130.266 64.3879 130.73 63.8457C130.817 63.1737 131.393 62.7241 131.533 62.0764C132.045 61.212 132.331 60.2337 132.894 59.3958C132.894 58.8422 133.424 58.5616 133.569 58.0649C133.709 57.5894 134.002 57.1602 134.201 56.6992C134.696 55.551 135.375 54.4947 135.849 53.3367C136.197 52.9848 136.257 52.5328 136.262 52.0741C136.267 51.5698 136.243 51.0647 136.214 50.5612C136.197 50.2518 136.074 49.9849 135.848 49.7544L135.852 49.7559Z" fill="#F6F7F6"/>
<path d="M180.903 134.916C180.538 134.532 180.557 133.96 180.155 133.621C179.918 133.07 179.608 132.537 179.458 131.962C179.216 131.043 178.867 130.137 178.907 129.158C178.917 128.905 178.88 128.639 178.705 128.445C178.406 128.114 178.381 127.716 178.376 127.309C178.363 126.349 178.352 125.388 178.352 124.428C178.351 112.296 178.352 100.165 178.352 88.033V50.2727C178.352 49.9186 178.352 49.5653 178.352 49.2111C178.349 48.6994 178.197 48.0844 177.894 47.366C177.857 46.7828 177.454 46.3553 177.216 45.8638C176.942 45.3026 176.465 44.9318 175.772 44.9447C174.359 44.9704 172.945 44.9834 171.531 44.9963C171.166 45.0001 170.849 45.0949 170.559 45.3382C170.417 45.4573 170.195 45.5233 170.004 45.5355C169.542 45.565 169.134 45.7409 168.701 45.8736C167.794 46.1512 166.931 46.6236 165.941 46.6016C165.797 46.5986 165.598 46.6289 165.515 46.7229C165.088 47.2053 164.341 47.0551 163.931 47.5504C163.109 47.7635 162.39 48.3162 161.492 48.2935C161.347 48.2897 161.177 48.3306 161.061 48.4125C160.318 48.9441 159.395 49.1163 158.644 49.6357C158.526 49.7183 158.369 49.7782 158.225 49.7889C157.71 49.8268 157.229 49.9292 156.866 50.3379C156.468 50.4228 156.118 50.5935 155.758 50.7906C154.661 51.3913 153.486 51.8409 152.409 52.4862C151.864 52.4961 151.555 52.9867 151.064 53.1377C150.588 53.284 150.129 53.5214 149.704 53.7868C149.387 53.9848 149.067 54.0734 148.711 54.0977C148.399 54.1189 148.13 54.2289 147.9 54.4541C147.429 54.916 146.925 55.3172 146.204 55.3019C146.066 55.2989 145.92 55.396 145.787 55.4628C145.428 55.6432 145.074 55.8321 144.717 56.0178C144.272 56.2507 143.847 56.5433 143.375 56.7011C142.93 56.8497 142.624 57.2448 142.206 57.3457C141.675 57.473 141.354 57.8621 140.928 58.1124C140.714 58.2374 140.475 58.3458 140.235 58.3921C139.606 58.5136 139.137 58.8624 138.721 59.3241C138.294 59.7981 138.265 60.0347 138.683 60.4912C139.054 60.8969 139.415 61.3087 139.994 61.4649C140.324 61.5536 140.604 61.8167 140.928 61.9449C141.269 62.0791 141.538 62.2976 141.795 62.5387C142.051 62.7798 142.292 63.037 142.536 63.291C142.815 63.5814 143.068 63.868 143.195 64.2836C143.34 64.7591 143.587 65.2126 143.846 65.641C144.012 65.9163 144.086 66.1901 144.091 66.4957C144.118 67.8599 144.166 69.2241 144.166 70.5884C144.172 87.0168 144.17 103.445 144.168 119.874C144.168 121.44 144.165 123.008 144.148 124.575C144.14 125.535 144.116 126.495 144.077 127.454C144.067 127.701 144.032 127.976 143.911 128.179C143.693 128.541 143.586 128.916 143.579 129.325C143.568 130.146 143.107 130.864 143.058 131.675C143.053 131.767 142.989 131.872 142.921 131.939C142.655 132.211 142.583 132.55 142.549 132.907C142.526 133.159 142.53 133.439 142.336 133.616C141.982 133.943 142.007 134.444 141.707 134.808C141.396 135.187 141.207 135.666 140.965 136.103C140.883 136.254 141.02 136.568 141.186 136.582C141.486 136.608 141.788 136.638 142.089 136.638C154.211 136.638 166.333 136.637 178.455 136.635C179.212 136.635 179.97 136.643 180.728 136.639C180.928 136.638 181.128 136.607 181.328 136.582C181.491 136.562 181.65 136.231 181.537 136.104C181.23 135.751 181.206 135.233 180.903 134.916Z" fill="#F6F7F6"/>
<path d="M142.75 22.8273C143.094 23.3157 143.126 23.8557 143.166 24.413C143.182 24.6573 143.252 24.909 143.35 25.135C143.511 25.5036 143.732 25.8448 143.894 26.2118C144.116 26.7146 144.324 27.2235 144.651 27.6716C145.008 28.8008 145.593 29.7767 146.54 30.5131C146.709 30.6443 146.77 30.8323 146.824 31.0303C146.864 31.1736 146.9 31.3427 146.999 31.4397C147.393 31.8288 147.809 32.1935 148.218 32.5674C148.885 32.7554 149.298 33.268 149.747 33.7435C149.987 33.9976 150.266 34.2069 150.612 34.3358C151.46 34.6512 152.209 35.1851 153.067 35.4831C153.413 35.8274 153.847 35.9071 154.315 35.9268C154.508 35.9351 154.745 35.9799 154.877 36.1012C155.203 36.4022 155.582 36.4614 155.992 36.4804C156.446 36.5015 156.893 36.5501 157.305 36.7852C157.47 36.8785 157.694 36.8967 157.892 36.8967C158.801 36.899 159.707 36.9376 160.608 37.0681C160.856 37.1037 161.116 37.0953 161.364 37.0612C162.115 36.9581 162.869 36.8944 163.629 36.899C163.776 36.8997 163.945 36.8906 164.071 36.8238C164.58 36.5524 165.138 36.5493 165.688 36.4894C165.837 36.4735 166.022 36.4728 166.124 36.3864C166.621 35.9639 167.232 35.945 167.824 35.8373C167.962 35.8123 168.073 35.6705 168.208 35.6083C168.755 35.3565 169.286 35.0388 169.862 34.8908C170.425 34.746 170.89 34.511 171.295 34.1113C171.4 34.0074 171.534 33.893 171.67 33.868C172.264 33.7588 172.609 33.2947 173.003 32.9268C173.814 32.1707 174.58 31.3677 175.355 30.5738C175.773 30.1453 176.22 29.735 176.385 29.1185C176.421 28.982 176.544 28.8622 176.645 28.7515C176.99 28.3745 177.278 27.978 177.293 27.4327C177.299 27.1727 177.446 26.9596 177.617 26.7653C177.785 26.5766 177.945 26.3816 178.095 26.1799C178.182 26.0616 178.296 25.9289 178.31 25.794C178.367 25.2366 178.475 24.7126 178.804 24.2318C178.931 24.0445 178.905 23.7457 178.935 23.4962C178.99 23.0458 178.941 22.556 179.106 22.1518C179.367 21.5139 179.364 20.8732 179.367 20.2188C179.369 18.9554 179.369 17.692 179.363 16.4278C179.362 16.1253 179.422 15.7771 179.295 15.53C178.98 14.9104 179.023 14.2545 178.968 13.6053C178.934 13.1981 178.865 12.8084 178.601 12.4709C178.512 12.3571 178.437 12.1964 178.437 12.0561C178.434 11.4767 178.218 10.98 177.9 10.5159C177.913 10.0124 177.451 9.74318 177.312 9.31093C176.98 8.28187 176.404 7.40904 175.608 6.67801C175.426 6.51041 175.223 6.3542 175.148 6.09257C174.927 5.30997 174.254 4.91033 173.706 4.40529C173.146 4.35675 172.828 3.93057 172.492 3.57189C172.103 3.15784 171.726 2.76199 171.122 2.70663C170.793 2.37525 170.392 2.1796 169.942 2.07494C169.628 1.70791 169.133 1.68137 168.757 1.44477C167.832 0.863133 166.845 0.571176 165.751 0.627293C165.389 0.645492 165.064 0.53781 164.769 0.301211C164.624 0.185945 164.403 0.126037 164.211 0.11542C161.89 -0.00970417 159.568 0.0411039 157.245 0.11087C156.986 0.118454 156.748 0.187461 156.559 0.376286C156.367 0.566626 156.129 0.619709 155.871 0.637151C155.469 0.664451 155.03 0.609851 154.674 0.753934C153.881 1.07471 153.004 1.16116 152.269 1.6298C151.889 1.67 151.711 2.07873 151.369 2.15305C150.948 2.24405 150.646 2.48823 150.342 2.75744C150.154 2.92351 149.968 3.13054 149.743 3.20789C149.141 3.41491 148.729 3.85702 148.29 4.26803C147.848 4.68057 147.407 5.09689 147.001 5.54354C146.465 6.13428 145.768 6.60976 145.567 7.45605C145.557 7.50155 145.513 7.54098 145.481 7.57966C145.284 7.81094 145.058 8.02176 144.899 8.27581C144.741 8.52681 144.705 8.86352 144.523 9.08645C144.099 9.60213 143.929 10.2422 143.61 10.8071C143.288 11.3759 143.092 12.0022 143.129 12.6847C143.142 12.9259 143.038 13.1731 142.988 13.4181C142.555 13.8018 142.597 14.3212 142.587 14.8263C142.565 15.938 142.543 17.0497 142.517 18.3494C142.539 19.4755 142.557 20.7898 142.594 22.1032C142.602 22.3496 142.619 22.6409 142.75 22.8273Z" fill="#F6F7F6"/>
</g>
</g>
<defs>
<clipPath id="clip0_484_3377">
<rect width="561.535" height="177.59" fill="white" transform="translate(0 0.0371094)"/>
</clipPath>
</defs>
</svg>
