<svg width="32" height="31" viewBox="0 0 32 31" fill="none" xmlns="http://www.w3.org/2000/svg">
<path d="M16.4648 0C7.9045 0 0.964844 6.93966 0.964844 15.5C0.964844 22.7689 5.96948 28.8684 12.7207 30.5437V20.2368H9.52456V15.5H12.7207V13.459C12.7207 8.18338 15.1083 5.7381 20.2878 5.7381C21.2698 5.7381 22.9643 5.93092 23.6575 6.12312V10.4166C23.2917 10.3782 22.6562 10.359 21.8669 10.359C19.3255 10.359 18.3434 11.3218 18.3434 13.8248V15.5H23.4064L22.5365 20.2368H18.3434V30.8865C26.0184 29.9596 31.9655 23.4248 31.9655 15.5C31.9648 6.93966 25.0252 0 16.4648 0Z" fill="#4C5647"/>
</svg>
