<svg width="32" height="31" viewBox="0 0 32 31" fill="none" xmlns="http://www.w3.org/2000/svg">
<g clip-path="url(#clip0_4864_3399)">
<path d="M29.6701 0H3.25352C1.98809 0 0.964844 0.999024 0.964844 2.23418V28.7598C0.964844 29.9949 1.98809 31 3.25352 31H29.6701C30.9355 31 31.9648 29.9949 31.9648 28.7658V2.23418C31.9648 0.999024 30.9355 0 29.6701 0ZM10.1619 26.4166H5.56035V11.6189H10.1619V26.4166ZM7.86113 9.60273C6.38379 9.60273 5.19102 8.40996 5.19102 6.93867C5.19102 5.46738 6.38379 4.27461 7.86113 4.27461C9.33242 4.27461 10.5252 5.46738 10.5252 6.93867C10.5252 8.40391 9.33242 9.60273 7.86113 9.60273ZM27.3814 26.4166H22.7859V19.2236C22.7859 17.5102 22.7557 15.3002 20.3943 15.3002C18.0027 15.3002 17.6395 17.1711 17.6395 19.1025V26.4166H13.05V11.6189H17.4578V13.6412H17.5184C18.1299 12.4787 19.6314 11.2496 21.8656 11.2496C26.5217 11.2496 27.3814 14.3133 27.3814 18.2973V26.4166Z" fill="#4C5647"/>
</g>
<defs>
<clipPath id="clip0_4864_3399">
<rect width="31" height="31" fill="white" transform="translate(0.964844)"/>
</clipPath>
</defs>
</svg>
