<svg width="334" height="301" viewBox="0 0 334 301" fill="none" xmlns="http://www.w3.org/2000/svg">
<g clip-path="url(#clip0_580_13300)">
<g opacity="0.4">
<path d="M209.73 6.24158L209.73 301.972C209.73 352.489 250.697 393.455 301.214 393.455C351.73 393.455 392.697 352.489 392.697 301.972L392.697 6.24161L209.73 6.24158Z" fill="#535F4F"/>
<path d="M9.48439 292.343C9.48438 342.86 50.4507 383.826 100.968 383.826V383.826C156.32 383.826 201.192 338.954 201.192 283.602L201.192 200.86L100.968 200.86C50.4507 200.86 9.48439 241.826 9.48439 292.343Z" fill="#535F4F"/>
<path d="M7.23827 97.7247C7.23826 148.242 48.2045 189.208 98.7214 189.208L200.834 189.208L200.834 6.24161L98.7214 6.24159C48.2046 6.24158 7.23827 47.2079 7.23827 97.7247Z" fill="#535F4F"/>
</g>
</g>
<defs>
<clipPath id="clip0_580_13300">
<rect width="334" height="301" fill="white"/>
</clipPath>
</defs>
</svg>
