<svg width="30" height="30" viewBox="0 0 30 30" fill="none" xmlns="http://www.w3.org/2000/svg">
<path d="M29.8913 21.822C29.6845 21.2551 29.2861 20.9487 28.8341 20.7036C28.7499 20.6576 28.6732 20.6116 28.6043 20.581C28.4664 20.512 28.3285 20.4431 28.1906 20.3741C26.781 19.6234 25.6779 18.6888 24.9195 17.5703C24.705 17.2562 24.5135 16.9192 24.3603 16.5744C24.2913 16.3906 24.299 16.2833 24.3449 16.1837C24.3909 16.1071 24.4522 16.0458 24.5288 15.9922C24.7739 15.8313 25.0191 15.6705 25.1876 15.5632C25.4864 15.364 25.7315 15.2108 25.8847 15.1036C26.4593 14.6975 26.8653 14.2685 27.1181 13.7859C27.4782 13.1118 27.5241 12.3227 27.2483 11.6103C26.8653 10.599 25.9154 9.97853 24.7586 9.97853C24.5135 9.97853 24.276 10.0015 24.0308 10.0551C23.9696 10.0705 23.9006 10.0858 23.8393 10.1011C23.847 9.41163 23.8317 8.68386 23.7704 7.96375C23.5559 5.44337 22.6672 4.12573 21.7479 3.0762C21.1581 2.41738 20.4686 1.85815 19.6949 1.42149C18.3006 0.624769 16.7148 0.21875 14.9912 0.21875C13.2675 0.21875 11.6894 0.624769 10.2951 1.42149C9.5214 1.85815 8.83194 2.41738 8.24206 3.0762C7.32277 4.12573 6.44179 5.45103 6.21963 7.96375C6.15834 8.68386 6.14302 9.41163 6.15068 10.1011C6.08939 10.0858 6.02811 10.0705 5.95916 10.0551C5.72168 10.0015 5.47653 9.97853 5.23905 9.97853C4.08228 9.97853 3.13235 10.6067 2.74931 11.6103C2.47353 12.3227 2.51949 13.1118 2.87954 13.7859C3.13235 14.2685 3.53837 14.6975 4.11292 15.1036C4.26614 15.2108 4.50362 15.364 4.81005 15.5632C4.97093 15.6705 5.20841 15.8237 5.44589 15.9769C5.53016 16.0305 5.59911 16.0995 5.65273 16.1837C5.6987 16.2833 5.70636 16.3906 5.62975 16.5897C5.47653 16.9268 5.29268 17.2562 5.07818 17.5627C4.33508 18.6505 3.26258 19.5774 1.89897 20.3205C1.17886 20.7036 0.428109 20.9564 0.106358 21.822C-0.131124 22.4732 0.0220902 23.2086 0.627288 23.8368C0.84945 24.0666 1.10992 24.2658 1.39336 24.419C1.98324 24.7408 2.61142 24.9936 3.27024 25.1698C3.40814 25.2081 3.53071 25.2617 3.64562 25.3383C3.86778 25.5298 3.83714 25.8209 4.12825 26.2499C4.2738 26.4721 4.46532 26.6636 4.67982 26.8168C5.30034 27.2458 5.99746 27.2688 6.7329 27.2995C7.39938 27.3224 8.15013 27.3531 9.01579 27.6365C9.37585 27.7514 9.74356 27.9813 10.1726 28.2494C11.2068 28.8852 12.6163 29.7509 14.9835 29.7509C17.3507 29.7509 18.7679 28.8776 19.8098 28.2417C20.2388 27.9813 20.6065 27.7514 20.9512 27.6365C21.8092 27.3531 22.5676 27.3224 23.2341 27.2995C23.9696 27.2688 24.6667 27.2458 25.2872 26.8168C25.5477 26.633 25.7622 26.4031 25.9154 26.1274C26.1299 25.7673 26.1222 25.5145 26.3214 25.3383C26.4287 25.2617 26.5512 25.2081 26.6738 25.1774C27.3326 25.0012 27.9761 24.7484 28.5737 24.419C28.8724 24.2581 29.1482 24.0436 29.378 23.7908L29.3857 23.7832C29.9832 23.1703 30.1288 22.4502 29.8913 21.822ZM27.7923 22.9482C26.5129 23.6529 25.6549 23.5763 24.9961 24.0053C24.4292 24.3654 24.7663 25.1468 24.3603 25.4302C23.8546 25.775 22.3685 25.4073 20.4533 26.0431C18.8675 26.564 17.8639 28.0732 15.0142 28.0732C12.1644 28.0732 11.1838 26.5717 9.57503 26.0431C7.65984 25.4073 6.17366 25.7826 5.66805 25.4302C5.26203 25.1468 5.59145 24.3654 5.03221 24.0053C4.36573 23.5763 3.51539 23.6529 2.23604 22.9482C1.41634 22.4962 1.88365 22.2204 2.15177 22.0902C6.79418 19.8456 7.53727 16.3752 7.56792 16.1148C7.60622 15.8007 7.65218 15.5555 7.30745 15.2415C6.97804 14.935 5.50718 14.0234 5.0935 13.7399C4.41935 13.265 4.12058 12.7977 4.34275 12.2155C4.49596 11.8171 4.87134 11.6639 5.26203 11.6639C5.38461 11.6639 5.50718 11.6792 5.62975 11.7022C6.37284 11.8631 7.09295 12.2308 7.50663 12.338C7.56026 12.3534 7.60622 12.361 7.65985 12.361C7.88201 12.361 7.95861 12.2461 7.94329 11.9933C7.89733 11.1813 7.78242 9.60315 7.91265 8.12463C8.08885 6.09453 8.74001 5.08332 9.5214 4.19467C9.89678 3.76567 11.6511 1.91177 15.0142 1.91177C18.3772 1.91177 20.1315 3.75801 20.5069 4.18701C21.2883 5.07566 21.9395 6.08687 22.1157 8.11697C22.2459 9.59549 22.131 11.1736 22.0773 11.9856C22.062 12.2538 22.1386 12.3534 22.3608 12.3534C22.4144 12.3534 22.4604 12.3457 22.514 12.3304C22.9277 12.2308 23.6478 11.8554 24.3909 11.6945C24.5135 11.6639 24.636 11.6562 24.7586 11.6562C25.1493 11.6562 25.5247 11.8094 25.6779 12.2078C25.9001 12.79 25.6013 13.2573 24.9271 13.7323C24.5211 14.0157 23.0503 14.9274 22.7132 15.2338C22.3685 15.5479 22.4144 15.793 22.4527 16.1071C22.4834 16.3676 23.2265 19.8379 27.8689 22.0825C28.1447 22.2127 28.6043 22.4962 27.7923 22.9482Z" fill="#582022"/>
</svg>
