<svg width="30" height="30" viewBox="0 0 30 30" fill="none" xmlns="http://www.w3.org/2000/svg">
<g clip-path="url(#clip0_6775_4170)">
<path d="M14.7699 2.89956C18.7131 2.89956 19.18 2.91686 20.7308 2.98604C22.172 3.04945 22.9503 3.29158 23.4691 3.49335C24.1551 3.75853 24.6509 4.08137 25.164 4.59444C25.6828 5.11328 25.9999 5.6033 26.2651 6.28932C26.4668 6.80817 26.709 7.59219 26.7724 9.02765C26.8416 10.5842 26.8589 11.0511 26.8589 14.9886C26.8589 18.9318 26.8416 19.3987 26.7724 20.9495C26.709 22.3907 26.4668 23.169 26.2651 23.6878C25.9999 24.3738 25.6771 24.8696 25.164 25.3827C24.6451 25.9015 24.1551 26.2186 23.4691 26.4838C22.9503 26.6855 22.1662 26.9277 20.7308 26.9911C19.1742 27.0603 18.7073 27.0776 14.7699 27.0776C10.8267 27.0776 10.3597 27.0603 8.80896 26.9911C7.36773 26.9277 6.58947 26.6855 6.07063 26.4838C5.38461 26.2186 4.88882 25.8958 4.37575 25.3827C3.85691 24.8638 3.53984 24.3738 3.27465 23.6878C3.07288 23.169 2.83076 22.3849 2.76734 20.9495C2.69816 19.3929 2.68087 18.926 2.68087 14.9886C2.68087 11.0454 2.69816 10.5784 2.76734 9.02765C2.83076 7.58643 3.07288 6.80817 3.27465 6.28932C3.53984 5.6033 3.86267 5.10752 4.37575 4.59444C4.89459 4.0756 5.38461 3.75853 6.07063 3.49335C6.58947 3.29158 7.3735 3.04945 8.80896 2.98604C10.3597 2.91686 10.8267 2.89956 14.7699 2.89956ZM14.7699 0.241943C10.7633 0.241943 10.2617 0.259238 8.68789 0.328417C7.11984 0.397596 6.0418 0.651251 5.10789 1.01444C4.13362 1.39492 3.30924 1.89647 2.49063 2.72085C1.66625 3.53947 1.1647 4.36385 0.784215 5.33235C0.421027 6.27203 0.167371 7.3443 0.0981923 8.91235C0.0290135 10.4919 0.0117188 10.9935 0.0117188 15.0001C0.0117188 19.0067 0.0290135 19.5082 0.0981923 21.0821C0.167371 22.6501 0.421027 23.7281 0.784215 24.6621C1.1647 25.6363 1.66625 26.4607 2.49063 27.2793C3.30924 28.0979 4.13362 28.6053 5.10213 28.98C6.0418 29.3432 7.11408 29.5968 8.68213 29.666C10.2559 29.7352 10.7575 29.7525 14.7641 29.7525C18.7707 29.7525 19.2723 29.7352 20.8461 29.666C22.4141 29.5968 23.4922 29.3432 24.4261 28.98C25.3946 28.6053 26.219 28.0979 27.0376 27.2793C27.8562 26.4607 28.3635 25.6363 28.7382 24.6678C29.1014 23.7281 29.3551 22.6559 29.4242 21.0878C29.4934 19.514 29.5107 19.0125 29.5107 15.0059C29.5107 10.9992 29.4934 10.4977 29.4242 8.92388C29.3551 7.35583 29.1014 6.27779 28.7382 5.34388C28.375 4.36385 27.8735 3.53947 27.0491 2.72085C26.2305 1.90223 25.4061 1.39492 24.4376 1.0202C23.4979 0.657016 22.4257 0.403361 20.8576 0.334182C19.278 0.259238 18.7765 0.241943 14.7699 0.241943Z" fill="#223A46"/>
<path d="M14.7703 7.41895C10.585 7.41895 7.18945 10.8145 7.18945 14.9998C7.18945 19.1851 10.585 22.5806 14.7703 22.5806C18.9556 22.5806 22.3511 19.1851 22.3511 14.9998C22.3511 10.8145 18.9556 7.41895 14.7703 7.41895ZM14.7703 19.9172C12.055 19.9172 9.85284 17.7151 9.85284 14.9998C9.85284 12.2845 12.055 10.0823 14.7703 10.0823C17.4856 10.0823 19.6878 12.2845 19.6878 14.9998C19.6878 17.7151 17.4856 19.9172 14.7703 19.9172Z" fill="#223A46"/>
<path d="M24.4205 7.11968C24.4205 8.09971 23.625 8.88951 22.6507 8.88951C21.6707 8.88951 20.8809 8.09395 20.8809 7.11968C20.8809 6.13965 21.6764 5.34985 22.6507 5.34985C23.625 5.34985 24.4205 6.14541 24.4205 7.11968Z" fill="#223A46"/>
</g>
<defs>
<clipPath id="clip0_6775_4170">
<rect width="29.5163" height="29.5163" fill="white" transform="translate(0.0117188 0.241943)"/>
</clipPath>
</defs>
</svg>
