<svg width="144" height="49" viewBox="0 0 144 49" fill="none" xmlns="http://www.w3.org/2000/svg">
<g clip-path="url(#clip0_4157_9506)">
<path d="M132.162 0.338047H11.4416C11.0016 0.338047 10.5668 0.338047 10.1279 0.340447C9.76056 0.342847 9.39611 0.349819 9.0252 0.355687C8.21942 0.365169 7.41553 0.436058 6.62052 0.567739C5.82663 0.702286 5.05761 0.955946 4.33946 1.32014C3.6222 1.68741 2.96681 2.16465 2.39708 2.73453C1.82436 3.30281 1.34696 3.95967 0.98322 4.67984C0.61848 5.39858 0.365569 6.16877 0.23322 6.96382C0.0996131 7.75787 0.0277181 8.56107 0.01818 9.36622C0.007044 9.73414 0.005868 10.1033 0 10.4713V38.2084C0.005868 38.581 0.007044 38.9419 0.01818 39.3146C0.027721 40.1198 0.0996161 40.9229 0.23322 41.7169C0.365203 42.5124 0.61813 43.2831 0.98322 44.0021C1.34679 44.7199 1.82426 45.3741 2.39708 45.9392C2.96465 46.5117 3.62046 46.9892 4.33946 47.3537C5.0576 47.7189 5.82654 47.974 6.62052 48.1106C7.41566 48.2413 8.21947 48.3122 9.0252 48.3228C9.39611 48.331 9.76056 48.3356 10.1279 48.3356C10.5668 48.3381 11.0016 48.338 11.4416 48.338H132.162C132.593 48.338 133.031 48.3381 133.463 48.3356C133.828 48.3356 134.203 48.331 134.569 48.3228C135.373 48.3128 136.175 48.2418 136.969 48.1106C137.765 47.9731 138.537 47.718 139.259 47.3537C139.977 46.989 140.632 46.5115 141.199 45.9392C141.771 45.3719 142.249 44.7182 142.617 44.0021C142.98 43.2826 143.23 42.512 143.36 41.7169C143.494 40.9228 143.568 40.1198 143.583 39.3146C143.588 38.9419 143.588 38.581 143.588 38.2084C143.597 37.7724 143.597 37.3388 143.597 36.8958V11.7814C143.597 11.342 143.597 10.906 143.588 10.4713C143.588 10.1033 143.588 9.73414 143.583 9.36617C143.568 8.56095 143.494 7.75793 143.36 6.96378C143.23 6.16919 142.979 5.39905 142.617 4.67979C141.876 3.23628 140.702 2.06128 139.259 1.32003C138.537 0.956728 137.765 0.703135 136.969 0.567631C136.175 0.43537 135.373 0.364456 134.569 0.355519C134.203 0.349663 133.828 0.342631 133.463 0.340291C133.031 0.337891 132.593 0.338047 132.162 0.338047Z" fill="#A6A6A6"/>
<path d="M10.1338 47.2877C9.76818 47.2877 9.41139 47.283 9.04864 47.2749C8.29718 47.2651 7.54748 47.1996 6.80568 47.0791C6.11398 46.96 5.44392 46.7384 4.81759 46.4217C4.197 46.1075 3.63097 45.6956 3.14119 45.2017C2.64432 44.7137 2.23065 44.1476 1.91658 43.5259C1.59904 42.9002 1.37929 42.2296 1.26498 41.5373C1.14152 40.7934 1.07473 40.0413 1.06518 39.2873C1.05757 39.0342 1.04761 38.1916 1.04761 38.1916V10.4709C1.04761 10.4709 1.05822 9.64121 1.06524 9.39745C1.07439 8.64467 1.14079 7.89368 1.26387 7.15097C1.3784 6.4568 1.59832 5.78419 1.91602 5.15645C2.22894 4.53523 2.64031 3.96873 3.13419 3.47891C3.62751 2.98444 4.19535 2.57042 4.817 2.25195C5.44189 1.93621 6.11069 1.71617 6.80098 1.59922C7.54522 1.4775 8.29753 1.41169 9.05159 1.40235L10.1344 1.3877H133.457L134.552 1.40294C135.3 1.41181 136.045 1.47704 136.782 1.59804C137.48 1.71647 138.155 1.93803 138.788 2.25546C140.033 2.89728 141.046 3.91269 141.686 5.15938C141.998 5.78279 142.215 6.4499 142.328 7.13808C142.452 7.88688 142.522 8.64378 142.536 9.40273C142.54 9.74257 142.54 10.1076 142.54 10.4709C142.549 10.9209 142.549 11.3492 142.549 11.7811V36.8955C142.549 37.3314 142.549 37.7568 142.54 38.1857C142.54 38.5759 142.54 38.9334 142.535 39.3013C142.521 40.0467 142.453 40.7901 142.33 41.5255C142.218 42.2228 141.999 42.8987 141.682 43.5295C141.366 44.1444 140.954 44.7056 140.463 45.1924C139.973 45.6889 139.406 46.1032 138.784 46.4194C138.154 46.7386 137.479 46.961 136.782 47.0791C136.041 47.2003 135.291 47.2657 134.539 47.2749C134.188 47.283 133.82 47.2877 133.463 47.2877L132.162 47.2901L10.1338 47.2877Z" fill="black"/>
<path d="M29.7226 24.6987C29.7355 23.6971 30.0015 22.715 30.496 21.8439C30.9904 20.9727 31.6972 20.2408 32.5505 19.7162C32.0084 18.942 31.2932 18.3049 30.4619 17.8554C29.6305 17.406 28.7057 17.1565 27.7611 17.127C25.746 16.9155 23.7924 18.3328 22.7656 18.3328C21.7189 18.3328 20.1379 17.148 18.4354 17.183C17.3342 17.2186 16.261 17.5388 15.3203 18.1125C14.3797 18.6862 13.6037 19.4937 13.0679 20.4565C10.7471 24.4746 12.4782 30.3798 14.7013 33.6278C15.8136 35.2182 17.1135 36.9947 18.8145 36.9317C20.479 36.8627 21.1006 35.8703 23.1098 35.8703C25.1003 35.8703 25.6835 36.9317 27.419 36.8917C29.205 36.8627 30.3303 35.2942 31.4036 33.6887C32.2028 32.5555 32.8177 31.303 33.2257 29.9777C32.188 29.5388 31.3025 28.8042 30.6796 27.8654C30.0566 26.9267 29.7238 25.8253 29.7226 24.6987Z" fill="white"/>
<path d="M26.4447 14.9905C27.4185 13.8215 27.8983 12.3188 27.7821 10.8018C26.2943 10.958 24.92 11.6691 23.933 12.7933C23.4505 13.3425 23.0809 13.9814 22.8454 14.6735C22.6099 15.3657 22.5131 16.0974 22.5606 16.827C23.3047 16.8346 24.0409 16.6733 24.7137 16.3552C25.3865 16.0371 25.9784 15.5705 26.4447 14.9905Z" fill="white"/>
<path d="M50.7627 32.9041H45.0827L43.7186 36.9319H41.3127L46.6928 22.0303H49.1924L54.5725 36.9319H52.1256L50.7627 32.9041ZM45.6709 31.0455H50.1733L47.9538 24.5088H47.8917L45.6709 31.0455Z" fill="white"/>
<path d="M66.1915 31.5006C66.1915 34.8768 64.3845 37.046 61.6576 37.046C60.9668 37.0821 60.2798 36.923 59.6752 36.5868C59.0707 36.2506 58.573 35.751 58.2392 35.1452H58.1876V40.5264H55.9575V26.0678H58.1161V27.8749H58.1572C58.5063 27.2719 59.0124 26.7749 59.6215 26.4367C60.2307 26.0984 60.9202 25.9317 61.6165 25.9542C64.3739 25.9542 66.1915 28.1338 66.1915 31.5006ZM63.8993 31.5006C63.8993 29.301 62.7626 27.8549 61.0282 27.8549C59.3243 27.8549 58.1783 29.3315 58.1783 31.5006C58.1783 33.6897 59.3243 35.1557 61.0282 35.1557C62.7626 35.1557 63.8993 33.7202 63.8993 31.5006Z" fill="white"/>
<path d="M78.1495 31.5006C78.1495 34.8768 76.3425 37.0459 73.6156 37.0459C72.9248 37.0821 72.2378 36.923 71.6332 36.5868C71.0287 36.2506 70.531 35.751 70.1972 35.1451H70.1456V40.5264H67.9155V26.0678H70.0741V27.8748H70.1151C70.4643 27.2719 70.9704 26.7749 71.5795 26.4367C72.1887 26.0984 72.8781 25.9317 73.5745 25.9542C76.332 25.9542 78.1495 28.1338 78.1495 31.5006ZM75.8574 31.5006C75.8574 29.301 74.7206 27.8549 72.9863 27.8549C71.2824 27.8549 70.1363 29.3315 70.1363 31.5006C70.1363 33.6897 71.2824 35.1557 72.9863 35.1557C74.7206 35.1557 75.8574 33.7202 75.8574 31.5006Z" fill="white"/>
<path d="M86.0526 32.7803C86.2179 34.2581 87.6534 35.2283 89.6151 35.2283C91.4948 35.2283 92.8472 34.258 92.8472 32.9256C92.8472 31.769 92.0315 31.0764 90.1003 30.6018L88.169 30.1365C85.4327 29.4756 84.1624 28.1959 84.1624 26.1193C84.1624 23.5482 86.403 21.7822 89.5847 21.7822C92.7335 21.7822 94.8921 23.5482 94.9647 26.1193H92.7135C92.5788 24.6322 91.3495 23.7346 89.553 23.7346C87.7565 23.7346 86.5272 24.6428 86.5272 25.9647C86.5272 27.0182 87.3124 27.6381 89.2331 28.1127L90.8749 28.5158C93.9323 29.2388 95.2026 30.467 95.2026 32.6466C95.2026 35.4345 92.9819 37.1806 89.4499 37.1806C86.1452 37.1806 83.9139 35.4755 83.7698 32.7802L86.0526 32.7803Z" fill="white"/>
<path d="M100.015 23.4971V26.0682H102.081V27.8342H100.015V33.8236C100.015 34.7541 100.429 35.1877 101.337 35.1877C101.583 35.1834 101.827 35.1662 102.071 35.1361V36.8916C101.663 36.9679 101.247 37.0024 100.832 36.9947C98.6326 36.9947 97.7747 36.1685 97.7747 34.0615V27.8342H96.1951V26.0682H97.7747V23.4971H100.015Z" fill="white"/>
<path d="M103.278 31.501C103.278 28.0826 105.291 25.9346 108.431 25.9346C111.581 25.9346 113.585 28.0826 113.585 31.501C113.585 34.9287 111.591 37.0674 108.431 37.0674C105.271 37.0674 103.278 34.9287 103.278 31.501ZM111.312 31.501C111.312 29.1561 110.238 27.7721 108.431 27.7721C106.624 27.7721 105.55 29.1666 105.55 31.501C105.55 33.8553 106.624 35.2287 108.431 35.2287C110.238 35.2287 111.312 33.8553 111.312 31.501Z" fill="white"/>
<path d="M115.423 26.0677H117.55V27.9169H117.602C117.746 27.3394 118.084 26.829 118.56 26.4715C119.036 26.1141 119.62 25.9313 120.215 25.954C120.472 25.9531 120.728 25.9811 120.979 26.0372V28.1232C120.655 28.024 120.316 27.9785 119.977 27.9884C119.653 27.9753 119.33 28.0324 119.03 28.1559C118.731 28.2793 118.461 28.4662 118.24 28.7037C118.02 28.9411 117.853 29.2236 117.752 29.5316C117.65 29.8396 117.617 30.1659 117.653 30.488V36.9322H115.423L115.423 26.0677Z" fill="white"/>
<path d="M131.261 33.7416C130.961 35.7139 129.04 37.0674 126.583 37.0674C123.422 37.0674 121.461 34.9498 121.461 31.5525C121.461 28.1447 123.433 25.9346 126.489 25.9346C129.495 25.9346 131.385 27.9994 131.385 31.2936V32.0576H123.712V32.1924C123.676 32.5922 123.727 32.995 123.859 33.374C123.991 33.753 124.202 34.0996 124.479 34.3906C124.755 34.6817 125.09 34.9106 125.462 35.0622C125.834 35.2137 126.233 35.2845 126.635 35.2697C127.162 35.3191 127.69 35.197 128.142 34.9217C128.594 34.6464 128.946 34.2325 129.144 33.7416L131.261 33.7416ZM123.722 30.499H129.154C129.174 30.1395 129.12 29.7797 128.994 29.4423C128.868 29.1048 128.674 28.797 128.424 28.5381C128.174 28.2791 127.873 28.0747 127.54 27.9377C127.207 27.8006 126.849 27.7339 126.489 27.7416C126.126 27.7394 125.766 27.8092 125.43 27.9469C125.094 28.0846 124.789 28.2875 124.531 28.5438C124.274 28.8002 124.07 29.105 123.931 29.4405C123.792 29.7761 123.721 30.1359 123.722 30.499Z" fill="white"/>
<path d="M45.3915 10.8148C45.859 10.7812 46.3282 10.8518 46.7651 11.0216C47.2021 11.1913 47.5959 11.4559 47.9182 11.7962C48.2405 12.1366 48.4832 12.5442 48.6289 12.9897C48.7746 13.4353 48.8196 13.9076 48.7606 14.3726C48.7606 16.6601 47.5243 17.975 45.3915 17.975H42.8052V10.8148H45.3915ZM43.9173 16.9624H45.2673C45.6014 16.9823 45.9357 16.9276 46.2459 16.802C46.5562 16.6765 46.8345 16.4833 47.0607 16.2367C47.2869 15.99 47.4553 15.696 47.5535 15.376C47.6517 15.0561 47.6774 14.7183 47.6286 14.3872C47.6738 14.0574 47.6456 13.7216 47.5458 13.404C47.4461 13.0864 47.2774 12.7948 47.0517 12.5501C46.826 12.3054 46.549 12.1136 46.2405 11.9886C45.932 11.8635 45.5997 11.8082 45.2673 11.8266H43.9173V16.9624Z" fill="white"/>
<path d="M50.0169 15.2705C49.983 14.9153 50.0236 14.5571 50.1362 14.2186C50.2488 13.8801 50.4309 13.5689 50.6708 13.3049C50.9108 13.0409 51.2032 12.83 51.5295 12.6857C51.8557 12.5414 52.2085 12.4668 52.5652 12.4668C52.9219 12.4668 53.2747 12.5414 53.6009 12.6857C53.9271 12.83 54.2196 13.0409 54.4595 13.3049C54.6994 13.5689 54.8816 13.8801 54.9942 14.2186C55.1068 14.5571 55.1474 14.9153 55.1134 15.2705C55.148 15.6259 55.1079 15.9847 54.9956 16.3237C54.8833 16.6628 54.7013 16.9745 54.4613 17.239C54.2213 17.5035 53.9286 17.7149 53.6021 17.8595C53.2755 18.0042 52.9223 18.0789 52.5652 18.0789C52.208 18.0789 51.8548 18.0042 51.5283 17.8595C51.2017 17.7149 50.9091 17.5035 50.6691 17.239C50.4291 16.9745 50.2471 16.6628 50.1348 16.3237C50.0225 15.9847 49.9823 15.6259 50.0169 15.2705ZM54.0165 15.2705C54.0165 14.0992 53.4904 13.4142 52.5669 13.4142C51.64 13.4142 51.1185 14.0992 51.1185 15.2705C51.1185 16.4511 51.64 17.1308 52.5669 17.1308C53.4904 17.1308 54.0165 16.4464 54.0165 15.2705Z" fill="white"/>
<path d="M61.888 17.9748H60.7817L59.6649 13.9951H59.5806L58.4685 17.9748H57.3728L55.8833 12.5713H56.9649L57.9329 16.6945H58.0126L59.1235 12.5713H60.1466L61.2575 16.6945H61.3419L62.3052 12.5713H63.3716L61.888 17.9748Z" fill="white"/>
<path d="M64.6243 12.5715H65.6508V13.4299H65.7305C65.8657 13.1216 66.0937 12.8632 66.3828 12.6906C66.6718 12.518 67.0075 12.44 67.343 12.4672C67.6059 12.4475 67.8699 12.4871 68.1155 12.5832C68.361 12.6793 68.5817 12.8295 68.7613 13.0225C68.941 13.2155 69.0749 13.4464 69.1531 13.6982C69.2313 13.95 69.2519 14.2162 69.2133 14.477V17.975H68.1469V14.7448C68.1469 13.8764 67.7696 13.4446 66.9809 13.4446C66.8024 13.4363 66.6242 13.4667 66.4585 13.5336C66.2929 13.6006 66.1436 13.7027 66.0211 13.8327C65.8985 13.9628 65.8056 14.1178 65.7485 14.2872C65.6915 14.4565 65.6718 14.6362 65.6907 14.8139V17.9751H64.6243L64.6243 12.5715Z" fill="white"/>
<path d="M70.9126 10.4619H71.979V17.9748H70.9126V10.4619Z" fill="white"/>
<path d="M73.4615 15.2706C73.4275 14.9154 73.4682 14.5571 73.5808 14.2186C73.6935 13.8801 73.8756 13.5689 74.1156 13.3049C74.3555 13.0409 74.648 12.83 74.9742 12.6857C75.3005 12.5414 75.6533 12.4668 76.01 12.4668C76.3668 12.4668 76.7196 12.5414 77.0458 12.6857C77.3721 12.83 77.6645 13.0409 77.9045 13.3049C78.1445 13.5689 78.3266 13.8801 78.4392 14.2186C78.5519 14.5571 78.5925 14.9154 78.5586 15.2706C78.5931 15.626 78.553 15.9848 78.4406 16.3238C78.3283 16.6629 78.1462 16.9746 77.9062 17.2391C77.6662 17.5036 77.3735 17.715 77.0469 17.8596C76.7204 18.0042 76.3672 18.079 76.01 18.079C75.6529 18.079 75.2997 18.0042 74.9731 17.8596C74.6465 17.715 74.3538 17.5036 74.1138 17.2391C73.8738 16.9746 73.6918 16.6629 73.5794 16.3238C73.4671 15.9848 73.4269 15.626 73.4615 15.2706ZM77.4611 15.2706C77.4611 14.0993 76.9349 13.4143 76.0115 13.4143C75.0845 13.4143 74.5631 14.0993 74.5631 15.2706C74.5631 16.4512 75.0846 17.1309 76.0115 17.1309C76.9349 17.1309 77.4611 16.4465 77.4611 15.2706Z" fill="white"/>
<path d="M79.6812 16.4465C79.6812 15.4738 80.4054 14.9131 81.6909 14.8334L83.1546 14.749V14.2826C83.1546 13.7119 82.7772 13.3896 82.0483 13.3896C81.453 13.3896 81.0405 13.6082 80.9222 13.9902H79.8897C79.9987 13.0621 80.8718 12.4668 82.0976 12.4668C83.4523 12.4668 84.2163 13.1412 84.2163 14.2826V17.9746H83.1897V17.2152H83.1054C82.9341 17.4876 82.6936 17.7097 82.4085 17.8587C82.1233 18.0078 81.8037 18.0785 81.4823 18.0636C81.2555 18.0872 81.0262 18.063 80.8093 17.9926C80.5924 17.9222 80.3926 17.807 80.2229 17.6547C80.0532 17.5023 79.9174 17.3161 79.824 17.108C79.7307 16.8999 79.682 16.6745 79.6812 16.4465ZM83.1546 15.9848V15.533L81.8351 15.6174C81.0909 15.6672 80.7534 15.9203 80.7534 16.3967C80.7534 16.883 81.1753 17.166 81.7554 17.166C81.9254 17.1832 82.0971 17.166 82.2603 17.1155C82.4235 17.065 82.5749 16.9822 82.7054 16.872C82.836 16.7618 82.943 16.6264 83.0202 16.474C83.0973 16.3216 83.143 16.1552 83.1546 15.9848Z" fill="white"/>
<path d="M85.6179 15.2707C85.6179 13.5633 86.4957 12.4817 87.8609 12.4817C88.1986 12.4661 88.5337 12.547 88.8272 12.7149C89.1206 12.8827 89.3602 13.1307 89.5179 13.4297H89.5976V10.4619H90.664V17.9748H89.6421V17.1211H89.5578C89.3878 17.4181 89.1399 17.6629 88.8408 17.8291C88.5417 17.9953 88.2028 18.0765 87.8609 18.0639C86.4863 18.0639 85.6179 16.9822 85.6179 15.2707ZM86.7195 15.2707C86.7195 16.4168 87.2598 17.1065 88.1633 17.1065C89.0621 17.1065 89.6176 16.4069 89.6176 15.2754C89.6176 14.1492 89.0562 13.4397 88.1633 13.4397C87.2656 13.4397 86.7195 14.134 86.7195 15.2707Z" fill="white"/>
<path d="M95.076 15.2705C95.042 14.9153 95.0827 14.5571 95.1953 14.2186C95.3079 13.8801 95.49 13.5689 95.7299 13.3049C95.9699 13.0409 96.2623 12.83 96.5885 12.6857C96.9147 12.5414 97.2675 12.4668 97.6243 12.4668C97.981 12.4668 98.3338 12.5414 98.66 12.6857C98.9862 12.83 99.2787 13.0409 99.5186 13.3049C99.7585 13.5689 99.9406 13.8801 100.053 14.2186C100.166 14.5571 100.206 14.9153 100.173 15.2705C100.207 15.6259 100.167 15.9847 100.055 16.3237C99.9424 16.6628 99.7604 16.9745 99.5204 17.239C99.2804 17.5035 98.9877 17.7149 98.6612 17.8595C98.3346 18.0042 97.9814 18.0789 97.6243 18.0789C97.2671 18.0789 96.9139 18.0042 96.5874 17.8595C96.2608 17.7149 95.9681 17.5035 95.7281 17.239C95.4882 16.9745 95.3062 16.6628 95.1938 16.3237C95.0815 15.9847 95.0414 15.6259 95.076 15.2705ZM99.0756 15.2705C99.0756 14.0992 98.5494 13.4142 97.626 13.4142C96.6991 13.4142 96.1776 14.0992 96.1776 15.2705C96.1776 16.4511 96.6991 17.1308 97.626 17.1308C98.5495 17.1308 99.0756 16.4464 99.0756 15.2705Z" fill="white"/>
<path d="M101.604 12.5715H102.63V13.4299H102.71C102.845 13.1216 103.073 12.8632 103.362 12.6906C103.651 12.518 103.987 12.44 104.322 12.4672C104.585 12.4475 104.849 12.4871 105.095 12.5832C105.34 12.6793 105.561 12.8295 105.741 13.0225C105.92 13.2155 106.054 13.4464 106.132 13.6982C106.211 13.95 106.231 14.2162 106.193 14.477V17.975H105.126V14.7448C105.126 13.8764 104.749 13.4446 103.96 13.4446C103.782 13.4363 103.603 13.4667 103.438 13.5336C103.272 13.6006 103.123 13.7027 103 13.8327C102.878 13.9628 102.785 14.1178 102.728 14.2872C102.671 14.4565 102.651 14.6362 102.67 14.8139V17.9751H101.604V12.5715Z" fill="white"/>
<path d="M112.218 11.2256V12.5955H113.389V13.4938H112.218V16.2723C112.218 16.8383 112.452 17.0861 112.982 17.0861C113.118 17.0857 113.254 17.0775 113.389 17.0615V17.9498C113.198 17.9841 113.004 18.0023 112.809 18.0043C111.623 18.0043 111.151 17.5871 111.151 16.5453V13.4937H110.293V12.5955H111.151V11.2256H112.218Z" fill="white"/>
<path d="M114.846 10.4619H115.903V13.4397H115.987C116.129 13.1285 116.363 12.8686 116.658 12.6953C116.953 12.5221 117.294 12.444 117.635 12.4717C117.896 12.4575 118.158 12.5011 118.4 12.5996C118.643 12.698 118.861 12.8488 119.039 13.0412C119.217 13.2336 119.35 13.4629 119.429 13.7127C119.508 13.9624 119.531 14.2265 119.496 14.4861V17.9748H118.428V14.7492C118.428 13.8861 118.026 13.449 117.273 13.449C117.089 13.434 116.905 13.4592 116.733 13.5228C116.56 13.5865 116.403 13.6871 116.274 13.8176C116.144 13.9481 116.045 14.1053 115.982 14.2783C115.92 14.4512 115.896 14.6358 115.912 14.8189V17.9748H114.846L114.846 10.4619Z" fill="white"/>
<path d="M125.714 16.5157C125.569 17.0096 125.255 17.4367 124.827 17.7225C124.399 18.0083 123.884 18.1345 123.372 18.079C123.016 18.0884 122.662 18.0202 122.335 17.8792C122.008 17.7381 121.716 17.5276 121.478 17.2623C121.241 16.9969 121.064 16.683 120.96 16.3424C120.856 16.0019 120.827 15.6427 120.876 15.2899C120.829 14.9361 120.858 14.5762 120.962 14.2345C121.065 13.8929 121.241 13.5776 121.478 13.3099C121.714 13.0422 122.005 12.8284 122.331 12.683C122.657 12.5375 123.01 12.4638 123.367 12.4669C124.871 12.4669 125.778 13.4941 125.778 15.1909V15.563H121.962V15.6228C121.946 15.821 121.971 16.0206 122.036 16.2087C122.101 16.3968 122.204 16.5693 122.34 16.715C122.475 16.8608 122.639 16.9766 122.822 17.0551C123.005 17.1336 123.202 17.173 123.401 17.1708C123.657 17.2014 123.915 17.1554 124.144 17.0388C124.373 16.9221 124.562 16.7401 124.687 16.5157L125.714 16.5157ZM121.962 14.7743H124.692C124.705 14.593 124.68 14.4108 124.619 14.2395C124.558 14.0683 124.462 13.9117 124.337 13.7799C124.211 13.648 124.06 13.5439 123.892 13.4741C123.724 13.4042 123.543 13.3703 123.362 13.3745C123.177 13.3722 122.994 13.4068 122.823 13.4764C122.652 13.5459 122.497 13.6489 122.367 13.7794C122.236 13.9098 122.133 14.0651 122.064 14.2359C121.995 14.4068 121.96 14.5899 121.962 14.7743Z" fill="white"/>
</g>
<defs>
<clipPath id="clip0_4157_9506">
<rect width="143.597" height="48" fill="white" transform="translate(0 0.337891)"/>
</clipPath>
</defs>
</svg>
