<svg width="699" height="705" viewBox="0 0 699 705" fill="none" xmlns="http://www.w3.org/2000/svg">
<g clip-path="url(#clip0_540_8739)">
<g opacity="0.4">
<path d="M296.574 938.474V369.893C296.574 272.768 217.811 194.005 120.686 194.005C23.5606 194.005 -55.2025 272.768 -55.2025 369.893V938.474H296.574Z" fill="#535F4F"/>
<path d="M681.577 388.406C681.577 291.281 602.814 212.518 505.689 212.518V212.518C399.266 212.518 312.994 298.79 312.994 405.213L312.994 564.294L505.689 564.294C602.814 564.294 681.577 485.531 681.577 388.406Z" fill="#535F4F"/>
<path d="M685.897 762.585C685.897 665.46 607.134 586.697 510.009 586.697H313.685V938.474H510.009C607.134 938.474 685.897 859.711 685.897 762.585Z" fill="#535F4F"/>
</g>
<g opacity="0.4">
<g clip-path="url(#clip1_540_8739)">
<path d="M342.815 141.015C323.896 141.015 308.561 125.681 308.561 106.761C308.561 96.8392 300.489 88.7667 290.567 88.7667C280.645 88.7667 272.572 96.8392 272.572 106.761C272.572 116.683 280.645 124.756 290.567 124.756C309.486 124.756 324.82 140.09 324.82 159.009C324.82 177.929 309.486 193.263 290.567 193.263C242.863 193.274 204.054 154.465 204.054 106.761C204.054 59.0575 242.863 20.2596 290.555 20.2596C338.248 20.2596 377.057 59.0689 377.057 106.761C377.057 125.681 361.723 141.015 342.803 141.015H342.815Z" fill="#535F4F"/>
<path d="M396.453 165.339C409.722 178.608 409.722 200.123 396.453 213.393C383.183 226.663 361.668 226.663 348.398 213.393C335.128 200.123 335.128 178.608 348.398 165.339C361.668 152.069 383.183 152.069 396.453 165.339Z" fill="#535F4F"/>
</g>
</g>
</g>
<defs>
<clipPath id="clip0_540_8739">
<rect width="699" height="705" rx="16" fill="white"/>
</clipPath>
<clipPath id="clip1_540_8739">
<rect width="203.238" height="204.38" fill="white" transform="matrix(1 0 0 -1 204.053 224.86)"/>
</clipPath>
</defs>
</svg>
