<svg width="157" height="156" viewBox="0 0 157 156" fill="none" xmlns="http://www.w3.org/2000/svg">
<path d="M156.387 0.450012H38.3873C17.6873 0.450012 0.987305 17.15 0.987305 37.85C0.987305 58.55 17.6873 75.25 38.3873 75.25H156.387V0.450012Z" fill="#768372"/>
<path d="M81.4873 155.85H118.887C139.587 155.85 156.287 139.15 156.287 118.45C156.287 97.75 139.587 81.05 118.887 81.05H81.4873V155.85Z" fill="#4C5647"/>
<path d="M38.3873 155.85C59.0428 155.85 75.7872 139.105 75.7872 118.45C75.7872 97.7946 59.0428 81.05 38.3873 81.05C17.7319 81.05 0.987305 97.7946 0.987305 118.45C0.987305 139.105 17.7319 155.85 38.3873 155.85Z" fill="#E4B79F"/>
</svg>
