<svg width="618" height="618" viewBox="0 0 618 618" fill="none" xmlns="http://www.w3.org/2000/svg">
<path d="M0 0V468.965C0 551.232 66.3705 617.603 148.638 617.603C230.906 617.603 297.276 551.232 297.276 468.965V0H0Z" fill="#EFD5C7"/>
<path d="M618.001 297.276V148.638C618.001 66.3704 551.631 0 469.363 0C387.096 0 320.725 66.3704 320.725 148.638V297.276H618.001Z" fill="#EFD5C7"/>
<path d="M469.363 617.603C551.454 617.603 618.001 551.056 618.001 468.965C618.001 386.875 551.454 320.327 469.363 320.327C387.273 320.327 320.725 386.875 320.725 468.965C320.725 551.056 387.273 617.603 469.363 617.603Z" fill="#EFD5C7"/>
</svg>
