<svg width="31" height="30" viewBox="0 0 31 30" fill="none" xmlns="http://www.w3.org/2000/svg">
<path d="M30.0488 21.8217C29.8419 21.2548 29.4436 20.9484 28.9916 20.7033C28.9073 20.6573 28.8307 20.6113 28.7618 20.5807C28.6239 20.5117 28.486 20.4428 28.3481 20.3738C26.9385 19.6231 25.8354 18.6885 25.077 17.57C24.8625 17.2559 24.6709 16.9188 24.5177 16.5741C24.4488 16.3903 24.4564 16.283 24.5024 16.1834C24.5484 16.1068 24.6096 16.0455 24.6863 15.9919C24.9314 15.831 25.1765 15.6701 25.3451 15.5629C25.6438 15.3637 25.889 15.2105 26.0422 15.1033C26.6168 14.6972 27.0228 14.2682 27.2756 13.7856C27.6356 13.1115 27.6816 12.3224 27.4058 11.61C27.0228 10.5987 26.0728 9.97822 24.9161 9.97822C24.6709 9.97822 24.4335 10.0012 24.1883 10.0548C24.127 10.0702 24.0581 10.0855 23.9968 10.1008C24.0045 9.41133 23.9891 8.68356 23.9278 7.96345C23.7133 5.44307 22.8247 4.12542 21.9054 3.0759C21.3155 2.41708 20.6261 1.85784 19.8523 1.42118C18.4581 0.624464 16.8723 0.218445 15.1486 0.218445C13.425 0.218445 11.8469 0.624464 10.4526 1.42118C9.67887 1.85784 8.98941 2.41708 8.39953 3.0759C7.48024 4.12542 6.59926 5.45073 6.3771 7.96345C6.31581 8.68356 6.30049 9.41133 6.30815 10.1008C6.24686 10.0855 6.18558 10.0702 6.11663 10.0548C5.87915 10.0012 5.63401 9.97822 5.39652 9.97822C4.23975 9.97822 3.28982 10.6064 2.90678 11.61C2.631 12.3224 2.67696 13.1115 3.03702 13.7856C3.28982 14.2682 3.69584 14.6972 4.27039 15.1033C4.42361 15.2105 4.66109 15.3637 4.96752 15.5629C5.1284 15.6701 5.36588 15.8234 5.60336 15.9766C5.68763 16.0302 5.75658 16.0992 5.8102 16.1834C5.85617 16.283 5.86383 16.3903 5.78722 16.5894C5.63401 16.9265 5.45015 17.2559 5.23565 17.5624C4.49256 18.6502 3.42005 19.5771 2.05644 20.3202C1.33633 20.7033 0.58558 20.9561 0.263829 21.8217C0.0263462 22.4729 0.179561 23.2083 0.784759 23.8365C1.00692 24.0663 1.26739 24.2655 1.55083 24.4187C2.14071 24.7405 2.76889 24.9933 3.42771 25.1695C3.56561 25.2078 3.68818 25.2614 3.80309 25.338C4.02525 25.5295 3.99461 25.8206 4.28572 26.2496C4.43127 26.4718 4.62279 26.6633 4.83729 26.8165C5.45781 27.2455 6.15493 27.2685 6.89037 27.2991C7.55685 27.3221 8.3076 27.3528 9.17327 27.6362C9.53332 27.7511 9.90103 27.981 10.33 28.2491C11.3642 28.8849 12.7738 29.7506 15.141 29.7506C17.5081 29.7506 18.9254 28.8773 19.9672 28.2414C20.3962 27.981 20.764 27.7511 21.1087 27.6362C21.9667 27.3528 22.7251 27.3221 23.3916 27.2991C24.127 27.2685 24.8242 27.2455 25.4447 26.8165C25.7051 26.6327 25.9196 26.4028 26.0728 26.1271C26.2873 25.767 26.2797 25.5142 26.4789 25.338C26.5861 25.2614 26.7087 25.2078 26.8313 25.1771C27.4901 25.0009 28.1336 24.7481 28.7311 24.4187C29.0299 24.2578 29.3057 24.0433 29.5355 23.7905L29.5432 23.7829C30.1407 23.17 30.2863 22.4499 30.0488 21.8217ZM27.9497 22.9479C26.6704 23.6526 25.8124 23.576 25.1536 24.005C24.5867 24.3651 24.9237 25.1465 24.5177 25.4299C24.0121 25.7747 22.5259 25.4069 20.6107 26.0428C19.025 26.5637 18.0214 28.0729 15.1716 28.0729C12.3218 28.0729 11.3413 26.5714 9.7325 26.0428C7.81732 25.4069 6.33113 25.7823 5.82552 25.4299C5.4195 25.1465 5.74892 24.3651 5.18968 24.005C4.5232 23.576 3.67286 23.6526 2.39351 22.9479C1.57382 22.4959 2.04112 22.2201 2.30925 22.0898C6.95165 19.8453 7.69474 16.3749 7.72539 16.1145C7.76369 15.8004 7.80965 15.5552 7.46492 15.2411C7.13551 14.9347 5.66465 14.0231 5.25097 13.7396C4.57682 13.2647 4.27806 12.7974 4.50022 12.2152C4.65343 11.8168 5.02881 11.6636 5.4195 11.6636C5.54208 11.6636 5.66465 11.6789 5.78722 11.7019C6.53031 11.8628 7.25042 12.2305 7.6641 12.3377C7.71773 12.3531 7.76369 12.3607 7.81732 12.3607C8.03948 12.3607 8.11608 12.2458 8.10076 11.993C8.0548 11.181 7.93989 9.60285 8.07012 8.12432C8.24632 6.09423 8.89748 5.08301 9.67887 4.19437C10.0542 3.76537 11.8086 1.91147 15.1716 1.91147C18.5347 1.91147 20.289 3.7577 20.6644 4.18671C21.4458 5.07535 22.0969 6.08657 22.2731 8.11666C22.4034 9.59519 22.2884 11.1733 22.2348 11.9853C22.2195 12.2535 22.2961 12.3531 22.5183 12.3531C22.5719 12.3531 22.6179 12.3454 22.6715 12.3301C23.0852 12.2305 23.8053 11.8551 24.5484 11.6942C24.6709 11.6636 24.7935 11.6559 24.9161 11.6559C25.3068 11.6559 25.6822 11.8091 25.8354 12.2075C26.0575 12.7897 25.7588 13.257 25.0846 13.732C24.6786 14.0154 23.2077 14.9271 22.8707 15.2335C22.5259 15.5476 22.5719 15.7927 22.6102 16.1068C22.6408 16.3673 23.3839 19.8376 28.0263 22.0822C28.3021 22.2124 28.7618 22.4959 27.9497 22.9479Z" fill="#4C5647"/>
</svg>
