<svg width="657" height="520" viewBox="0 0 657 520" fill="none" xmlns="http://www.w3.org/2000/svg">
<g clip-path="url(#clip0_508_7384)">
<path d="M343.149 644.496V159.498C343.149 76.6506 410.334 9.46594 493.182 9.46594C576.029 9.46594 643.214 76.6506 643.214 159.498V644.496H343.149Z" fill="#F1E1D2"/>
<path d="M14.7432 170.487C14.7432 81.5717 81.9279 9.4668 164.776 9.4668V9.4668C255.554 9.46681 329.144 83.0571 329.144 173.835L329.144 331.506L164.776 331.506C81.9279 331.506 14.7432 259.401 14.7432 170.487Z" fill="#F1E1D2"/>
<path d="M11.0576 494.464C11.0576 411.616 78.2423 344.431 161.09 344.431H328.554V644.496H161.09C78.2423 644.496 11.0576 577.311 11.0576 494.464Z" fill="#F1E1D2"/>
</g>
<defs>
<clipPath id="clip0_508_7384">
<rect width="656" height="520" fill="white" transform="matrix(1 0 0 -1 0.25 520)"/>
</clipPath>
</defs>
</svg>
