<svg width="624" height="601" viewBox="0 0 624 601" fill="none" xmlns="http://www.w3.org/2000/svg">
<g clip-path="url(#clip0_2013_14231)">
<rect width="624" height="600" transform="translate(0 0.0371094)" fill="#4B5647"/>
<path d="M649.008 600.036V88.5652C649.008 -1.15894 576.622 -73.5449 486.897 -73.5449C397.173 -73.5449 324.787 -1.15894 324.787 88.5652V600.036H649.008Z" fill="#63705C"/>
<path d="M137.534 250.676C227.065 250.676 299.644 178.096 299.644 88.5652C299.644 -0.965828 227.065 -73.5449 137.534 -73.5449C48.0031 -73.5449 -24.5762 -0.965828 -24.5762 88.5652C-24.5762 178.096 48.0031 250.676 137.534 250.676Z" fill="#63705C"/>
<path d="M137.536 600.042C227.26 600.042 299.646 527.222 299.646 437.932H-25.0078C-25.0078 527.656 47.8118 600.042 137.536 600.042Z" fill="#63705C"/>
<path d="M137.536 425.362C227.26 425.362 299.646 352.543 299.646 263.252H-25.0078C-25.0078 352.976 47.8118 425.362 137.536 425.362Z" fill="#63705C"/>
</g>
<defs>
<clipPath id="clip0_2013_14231">
<rect width="624" height="600" fill="white" transform="translate(0 0.0371094)"/>
</clipPath>
</defs>
</svg>
