<svg width="641" height="498" viewBox="0 0 641 498" fill="none" xmlns="http://www.w3.org/2000/svg">
<path d="M0 20C0 8.95431 8.9543 0 20 0H621C632.046 0 641 8.9543 641 20V477.271C641 488.317 632.046 497.271 621 497.271H20C8.9543 497.271 0 488.317 0 477.271V20Z" fill="#582022"/>
<path d="M50 357.946L40.1649 357.946L40.1649 354.49C40.1649 353.797 40.2773 353.225 40.5021 352.776C40.7175 352.317 41.0173 351.975 41.4013 351.75C41.776 351.525 42.1975 351.413 42.6658 351.413C43.1716 351.413 43.5931 351.525 43.9303 351.75C44.2675 351.966 44.5251 352.251 44.7031 352.607C44.8811 352.954 44.9888 353.324 45.0262 353.717L44.8857 353.52C44.8951 353.099 45.0075 352.71 45.2229 352.354C45.4384 351.998 45.7287 351.717 46.094 351.511C46.4594 351.296 46.8668 351.188 47.3164 351.188C47.8129 351.188 48.2671 351.31 48.6793 351.553C49.0821 351.797 49.4052 352.158 49.6487 352.635C49.8829 353.104 50 353.684 50 354.377L50 357.946ZM49.0165 356.766L49.0165 354.504C49.0165 353.839 48.8619 353.324 48.5528 352.958C48.2344 352.584 47.7941 352.396 47.2321 352.396C46.6795 352.396 46.2392 352.588 45.9114 352.972C45.5742 353.347 45.4056 353.867 45.4056 354.532L45.4056 356.766L49.0165 356.766ZM44.4642 356.766L44.4642 354.574C44.4642 353.937 44.3144 353.455 44.0146 353.127C43.7149 352.79 43.3074 352.621 42.7923 352.621C42.2958 352.621 41.8977 352.79 41.598 353.127C41.2983 353.455 41.1484 353.951 41.1484 354.616L41.1484 356.766L44.4642 356.766ZM50.1686 346.375C50.1686 347.031 50.014 347.616 49.7049 348.132C49.3958 348.647 48.965 349.054 48.4123 349.354C47.8597 349.644 47.2087 349.79 46.4594 349.79C45.71 349.79 45.059 349.644 44.5064 349.354C43.9537 349.064 43.5276 348.661 43.2278 348.146C42.9187 347.621 42.7642 347.022 42.7642 346.347C42.7642 345.654 42.9187 345.064 43.2278 344.577C43.5276 344.09 43.9303 343.72 44.4361 343.467C44.9419 343.205 45.4899 343.074 46.08 343.074C46.1737 343.074 46.272 343.074 46.3751 343.074C46.4781 343.074 46.5952 343.078 46.7263 343.088L46.7263 348.904L45.813 348.904L45.813 344.24C45.1667 344.268 44.6656 344.483 44.3097 344.886C43.9444 345.279 43.7617 345.776 43.7617 346.375C43.7617 346.769 43.8507 347.139 44.0287 347.485C44.2066 347.832 44.4736 348.113 44.8295 348.328C45.1761 348.534 45.6117 348.637 46.1362 348.637L46.5296 348.637C47.1197 348.637 47.6115 348.53 48.0049 348.314C48.3889 348.099 48.6793 347.823 48.876 347.485C49.0727 347.139 49.171 346.769 49.171 346.375C49.171 345.879 49.0633 345.471 48.8479 345.153C48.6231 344.825 48.3187 344.586 47.9346 344.436L47.9346 343.27C48.3655 343.392 48.7495 343.593 49.0867 343.874C49.4146 344.155 49.6768 344.507 49.8735 344.928C50.0703 345.34 50.1686 345.823 50.1686 346.375ZM50 341.439L42.9328 341.439L42.9328 340.371L44.1551 340.301C43.7243 340.076 43.387 339.757 43.1435 339.345C42.8906 338.924 42.7642 338.446 42.7642 337.912C42.7642 337.359 42.8719 336.882 43.0873 336.479C43.3027 336.076 43.6353 335.762 44.0849 335.538C44.5251 335.313 45.0871 335.2 45.7709 335.2L50 335.2L50 336.381L45.8973 336.381C45.1948 336.381 44.6656 336.54 44.3097 336.858C43.9537 337.167 43.7758 337.608 43.7758 338.179C43.7758 338.572 43.8694 338.928 44.0568 339.247C44.2441 339.556 44.5204 339.804 44.8857 339.992C45.251 340.17 45.696 340.258 46.2205 340.258L50 340.258L50 341.439ZM50.1686 330.111C50.1686 330.776 50.014 331.375 49.7049 331.909C49.3958 332.434 48.965 332.851 48.4123 333.16C47.8503 333.459 47.204 333.609 46.4734 333.609C45.7241 333.609 45.0731 333.459 44.5204 333.16C43.9678 332.851 43.5369 332.434 43.2278 331.909C42.9187 331.375 42.7642 330.776 42.7642 330.111C42.7642 329.268 42.9843 328.565 43.4245 328.003C43.8554 327.441 44.4361 327.085 45.1667 326.936L45.1667 328.144C44.7265 328.237 44.3846 328.467 44.1411 328.832C43.8975 329.198 43.7758 329.628 43.7758 330.125C43.7758 330.528 43.8788 330.902 44.0849 331.249C44.2816 331.586 44.5813 331.862 44.9841 332.078C45.3775 332.293 45.8692 332.401 46.4594 332.401C46.8996 332.401 47.293 332.34 47.6396 332.218C47.9768 332.087 48.2625 331.919 48.4966 331.713C48.7214 331.507 48.89 331.268 49.0024 330.996C49.1148 330.715 49.171 330.425 49.171 330.125C49.171 329.788 49.1195 329.483 49.0165 329.212C48.9041 328.94 48.7448 328.711 48.5388 328.523C48.3233 328.336 48.0658 328.209 47.766 328.144L47.766 326.936C48.4779 327.085 49.0586 327.446 49.5082 328.017C49.9485 328.579 50.1686 329.277 50.1686 330.111ZM50 325.204L39.8839 325.204L39.8839 324.023L44.127 324.023C43.6962 323.78 43.3636 323.447 43.1295 323.026C42.8859 322.604 42.7642 322.136 42.7642 321.621C42.7642 321.078 42.8719 320.609 43.0873 320.216C43.3027 319.813 43.6353 319.504 44.0849 319.288C44.5345 319.064 45.1012 318.951 45.7849 318.951L50 318.951L50 320.117L45.9114 320.117C45.1995 320.117 44.6656 320.267 44.3097 320.567C43.9537 320.867 43.7758 321.302 43.7758 321.874C43.7758 322.276 43.8741 322.642 44.0708 322.97C44.2582 323.288 44.5345 323.546 44.8998 323.742C45.2651 323.93 45.7147 324.023 46.2486 324.023L50 324.023L50 325.204ZM53.091 313.263L42.9328 313.263L42.9328 312.195L44.0849 312.083C43.8507 311.933 43.6353 311.741 43.4386 311.507C43.2325 311.273 43.0686 310.992 42.9468 310.664C42.825 310.336 42.7642 309.957 42.7642 309.526C42.7642 308.842 42.9281 308.247 43.2559 307.741C43.5744 307.226 44.0146 306.828 44.5766 306.547C45.1293 306.257 45.7615 306.112 46.4734 306.112C47.1853 306.112 47.8222 306.257 48.3842 306.547C48.9369 306.828 49.3724 307.226 49.6909 307.741C50.0094 308.257 50.1686 308.856 50.1686 309.54C50.1686 310.111 50.0515 310.617 49.8173 311.057C49.5832 311.498 49.2553 311.839 48.8338 312.083L53.091 312.083L53.091 313.263ZM49.1429 309.68C49.1429 309.221 49.0352 308.814 48.8198 308.458C48.595 308.093 48.2812 307.812 47.8784 307.615C47.4756 307.409 47.0026 307.306 46.4594 307.306C45.9254 307.306 45.4571 307.409 45.0543 307.615C44.6516 307.812 44.3425 308.093 44.127 308.458C43.9022 308.814 43.7898 309.221 43.7898 309.68C43.7898 310.149 43.9022 310.561 44.127 310.917C44.3425 311.273 44.6516 311.549 45.0543 311.746C45.4571 311.942 45.9254 312.041 46.4594 312.041C47.0026 312.041 47.4756 311.942 47.8784 311.746C48.2812 311.549 48.595 311.273 48.8198 310.917C49.0352 310.561 49.1429 310.149 49.1429 309.68ZM50 304.384L42.9328 304.384L42.9328 303.316L44.2816 303.218C43.9537 303.059 43.6774 302.857 43.4526 302.614C43.2278 302.361 43.0592 302.061 42.9468 301.715C42.825 301.359 42.7642 300.961 42.7642 300.52L44.0006 300.52L44.0006 300.942C44.0006 301.242 44.038 301.527 44.113 301.799C44.1879 302.071 44.3144 302.314 44.4923 302.529C44.6703 302.736 44.9138 302.899 45.2229 303.021C45.5227 303.143 45.8973 303.204 46.347 303.204L50 303.204L50 304.384ZM50.1686 296.255C50.1686 296.911 50.014 297.496 49.7049 298.011C49.3958 298.527 48.965 298.934 48.4123 299.234C47.8597 299.524 47.2087 299.669 46.4594 299.669C45.71 299.669 45.059 299.524 44.5064 299.234C43.9537 298.943 43.5275 298.541 43.2278 298.026C42.9187 297.501 42.7642 296.902 42.7642 296.227C42.7642 295.534 42.9187 294.944 43.2278 294.457C43.5275 293.97 43.9303 293.6 44.4361 293.347C44.9419 293.085 45.4899 292.953 46.08 292.953C46.1737 292.953 46.272 292.953 46.3751 292.953C46.4781 292.953 46.5952 292.958 46.7263 292.967L46.7263 298.784L45.813 298.784L45.813 294.12C45.1667 294.148 44.6656 294.363 44.3097 294.766C43.9444 295.159 43.7617 295.656 43.7617 296.255C43.7617 296.649 43.8507 297.019 44.0287 297.365C44.2066 297.712 44.4736 297.993 44.8295 298.208C45.1761 298.414 45.6117 298.517 46.1362 298.517L46.5296 298.517C47.1197 298.517 47.6115 298.41 48.0049 298.194C48.3889 297.979 48.6793 297.702 48.876 297.365C49.0727 297.019 49.171 296.649 49.171 296.255C49.171 295.759 49.0633 295.351 48.8479 295.033C48.6231 294.705 48.3187 294.466 47.9346 294.316L47.9346 293.15C48.3655 293.272 48.7495 293.473 49.0867 293.754C49.4146 294.035 49.6768 294.387 49.8735 294.808C50.0702 295.22 50.1686 295.703 50.1686 296.255ZM50.1686 288.649C50.1686 289.22 50.0749 289.726 49.8876 290.166C49.6909 290.607 49.4146 290.958 49.0586 291.22C48.7027 291.473 48.2859 291.632 47.8082 291.698L47.8082 290.49C48.0517 290.433 48.2812 290.33 48.4966 290.18C48.7027 290.031 48.8666 289.829 48.9884 289.576C49.1102 289.314 49.171 289 49.171 288.635C49.171 288.298 49.1242 288.021 49.0305 287.806C48.9275 287.591 48.7917 287.431 48.6231 287.328C48.4545 287.225 48.2718 287.174 48.0751 287.174C47.7848 287.174 47.5646 287.244 47.4148 287.384C47.2649 287.516 47.1478 287.712 47.0635 287.975C46.9792 288.227 46.8996 288.541 46.8247 288.916C46.7685 289.225 46.6935 289.529 46.5999 289.829C46.5062 290.129 46.3844 290.396 46.2345 290.63C46.0847 290.864 45.8973 291.052 45.6725 291.192C45.4384 291.323 45.1574 291.389 44.8295 291.389C44.4268 291.389 44.0708 291.286 43.7617 291.08C43.4432 290.864 43.1997 290.569 43.0311 290.195C42.8531 289.81 42.7642 289.356 42.7642 288.832C42.7642 288.073 42.9468 287.459 43.3121 286.991C43.6774 286.523 44.202 286.251 44.8857 286.176L44.8857 287.342C44.5298 287.38 44.2535 287.53 44.0568 287.792C43.8601 288.054 43.7617 288.405 43.7617 288.846C43.7617 289.286 43.8507 289.623 44.0287 289.857C44.2066 290.082 44.4408 290.195 44.7312 290.195C44.9185 290.195 45.0871 290.134 45.237 290.012C45.3775 289.881 45.4993 289.689 45.6023 289.436C45.696 289.183 45.7756 288.878 45.8411 288.523C45.9348 288.054 46.0519 287.628 46.1924 287.244C46.3235 286.86 46.5296 286.551 46.8106 286.317C47.0822 286.073 47.471 285.956 47.9768 285.965C48.417 285.956 48.801 286.064 49.1289 286.289C49.4567 286.504 49.7143 286.813 49.9016 287.216C50.0796 287.619 50.1686 288.096 50.1686 288.649ZM50.1686 281.526C50.1686 282.098 50.0749 282.603 49.8876 283.044C49.6909 283.484 49.4146 283.835 49.0586 284.097C48.7027 284.35 48.2859 284.51 47.8082 284.575L47.8082 283.367C48.0517 283.311 48.2812 283.208 48.4966 283.058C48.7027 282.908 48.8666 282.706 48.9884 282.454C49.1102 282.191 49.171 281.877 49.171 281.512C49.171 281.175 49.1242 280.899 49.0305 280.683C48.9275 280.468 48.7917 280.309 48.6231 280.206C48.4545 280.102 48.2718 280.051 48.0751 280.051C47.7848 280.051 47.5646 280.121 47.4148 280.262C47.2649 280.393 47.1478 280.59 47.0635 280.852C46.9792 281.105 46.8996 281.418 46.8247 281.793C46.7685 282.102 46.6935 282.407 46.5999 282.706C46.5062 283.006 46.3844 283.273 46.2345 283.507C46.0847 283.741 45.8973 283.929 45.6725 284.069C45.4384 284.2 45.1574 284.266 44.8295 284.266C44.4268 284.266 44.0708 284.163 43.7617 283.957C43.4432 283.741 43.1997 283.446 43.0311 283.072C42.8531 282.688 42.7642 282.233 42.7642 281.709C42.7642 280.95 42.9468 280.337 43.3121 279.868C43.6774 279.4 44.202 279.128 44.8857 279.053L44.8857 280.22C44.5298 280.257 44.2535 280.407 44.0568 280.669C43.8601 280.931 43.7617 281.283 43.7617 281.723C43.7617 282.163 43.8507 282.5 44.0287 282.735C44.2066 282.959 44.4408 283.072 44.7312 283.072C44.9185 283.072 45.0871 283.011 45.237 282.889C45.3775 282.758 45.4993 282.566 45.6023 282.313C45.696 282.06 45.7756 281.756 45.8411 281.4C45.9348 280.931 46.0519 280.505 46.1924 280.121C46.3235 279.737 46.5296 279.428 46.8106 279.194C47.0822 278.95 47.471 278.833 47.9768 278.843C48.417 278.833 48.801 278.941 49.1289 279.166C49.4567 279.381 49.7143 279.69 49.9016 280.093C50.0796 280.496 50.1686 280.974 50.1686 281.526ZM50.1686 270.601C50.1686 271.172 50.0749 271.678 49.8876 272.119C49.6909 272.559 49.4146 272.91 49.0586 273.172C48.7027 273.425 48.2859 273.584 47.8082 273.65L47.8082 272.442C48.0517 272.385 48.2812 272.282 48.4966 272.133C48.7027 271.983 48.8666 271.781 48.9884 271.528C49.1102 271.266 49.171 270.952 49.171 270.587C49.171 270.25 49.1242 269.974 49.0305 269.758C48.9275 269.543 48.7917 269.383 48.6231 269.28C48.4545 269.177 48.2718 269.126 48.0751 269.126C47.7848 269.126 47.5646 269.196 47.4148 269.337C47.2649 269.468 47.1478 269.664 47.0635 269.927C46.9792 270.18 46.8996 270.493 46.8247 270.868C46.7685 271.177 46.6935 271.482 46.5999 271.781C46.5062 272.081 46.3844 272.348 46.2345 272.582C46.0847 272.816 45.8973 273.004 45.6725 273.144C45.4384 273.275 45.1574 273.341 44.8295 273.341C44.4268 273.341 44.0708 273.238 43.7617 273.032C43.4432 272.816 43.1997 272.521 43.0311 272.147C42.8531 271.763 42.7642 271.308 42.7642 270.784C42.7642 270.025 42.9468 269.412 43.3121 268.943C43.6774 268.475 44.202 268.203 44.8857 268.128L44.8857 269.294C44.5298 269.332 44.2535 269.482 44.0568 269.744C43.8601 270.006 43.7617 270.358 43.7617 270.798C43.7617 271.238 43.8507 271.575 44.0287 271.809C44.2066 272.034 44.4408 272.147 44.7312 272.147C44.9185 272.147 45.0871 272.086 45.237 271.964C45.3775 271.833 45.4993 271.641 45.6023 271.388C45.696 271.135 45.7756 270.831 45.8411 270.475C45.9348 270.006 46.0519 269.58 46.1924 269.196C46.3235 268.812 46.5296 268.503 46.8106 268.269C47.0822 268.025 47.471 267.908 47.9768 267.918C48.417 267.908 48.801 268.016 49.1289 268.241C49.4567 268.456 49.7143 268.765 49.9016 269.168C50.0796 269.571 50.1686 270.048 50.1686 270.601ZM50 263.682C50 264.103 49.9344 264.468 49.8033 264.777C49.6722 265.087 49.452 265.325 49.1429 265.494C48.8245 265.653 48.3983 265.733 47.8644 265.733L43.9303 265.733L43.9303 266.955L42.9328 266.955L42.9328 265.733L41.2186 265.578L41.2186 264.553L42.9328 264.553L42.9328 262.487L43.9303 262.487L43.9303 264.553L47.8644 264.553C48.3046 264.553 48.6043 264.464 48.7636 264.286C48.9134 264.108 48.9884 263.794 48.9884 263.344L48.9884 262.572L50 262.572L50 263.682ZM50 260.891L42.9328 260.891L42.9328 259.823L44.2816 259.725C43.9537 259.566 43.6774 259.364 43.4526 259.121C43.2278 258.868 43.0592 258.568 42.9468 258.222C42.825 257.866 42.7642 257.468 42.7642 257.027L44.0006 257.027L44.0006 257.449C44.0006 257.749 44.038 258.034 44.113 258.306C44.1879 258.578 44.3144 258.821 44.4923 259.036C44.6703 259.243 44.9138 259.406 45.2229 259.528C45.5227 259.65 45.8973 259.711 46.3469 259.711L50 259.711L50 260.891ZM50.1686 252.762C50.1686 253.418 50.014 254.003 49.7049 254.518C49.3958 255.034 48.965 255.441 48.4123 255.741C47.8597 256.031 47.2087 256.176 46.4594 256.176C45.71 256.176 45.059 256.031 44.5064 255.741C43.9537 255.45 43.5275 255.048 43.2278 254.533C42.9187 254.008 42.7642 253.409 42.7642 252.734C42.7642 252.041 42.9187 251.451 43.2278 250.964C43.5275 250.477 43.9303 250.107 44.4361 249.854C44.9419 249.592 45.4899 249.46 46.08 249.46C46.1737 249.46 46.272 249.46 46.375 249.46C46.4781 249.46 46.5952 249.465 46.7263 249.474L46.7263 255.291L45.813 255.291L45.813 250.627C45.1667 250.655 44.6656 250.87 44.3097 251.273C43.9444 251.666 43.7617 252.163 43.7617 252.762C43.7617 253.156 43.8507 253.526 44.0287 253.872C44.2066 254.219 44.4736 254.5 44.8295 254.715C45.1761 254.921 45.6117 255.024 46.1362 255.024L46.5296 255.024C47.1197 255.024 47.6115 254.917 48.0049 254.701C48.3889 254.486 48.6793 254.209 48.876 253.872C49.0727 253.526 49.171 253.156 49.171 252.762C49.171 252.266 49.0633 251.858 48.8479 251.54C48.6231 251.212 48.3187 250.973 47.9346 250.823L47.9346 249.657C48.3655 249.779 48.7495 249.98 49.0867 250.261C49.4146 250.542 49.6768 250.894 49.8735 251.315C50.0702 251.727 50.1686 252.21 50.1686 252.762ZM50 247.826L42.9328 247.826L42.9328 246.758L44.1551 246.687C43.7242 246.463 43.387 246.144 43.1435 245.732C42.8906 245.311 42.7642 244.833 42.7642 244.299C42.7642 243.746 42.8719 243.269 43.0873 242.866C43.3027 242.463 43.6353 242.149 44.0849 241.924C44.5251 241.7 45.0871 241.587 45.7709 241.587L50 241.587L50 242.767L45.8973 242.767C45.1948 242.767 44.6656 242.927 44.3097 243.245C43.9537 243.554 43.7758 243.995 43.7758 244.566C43.7758 244.959 43.8694 245.315 44.0568 245.634C44.2441 245.943 44.5204 246.191 44.8857 246.378C45.251 246.556 45.696 246.645 46.2205 246.645L50 246.645L50 247.826ZM53.2596 236.891C53.2596 237.528 53.1753 238.095 53.0067 238.591C52.8475 239.078 52.5993 239.458 52.2621 239.729C51.9249 240.001 51.508 240.137 51.0116 240.137C50.7962 240.137 50.5667 240.095 50.3231 240.01C50.089 239.917 49.8548 239.762 49.6206 239.547C49.3865 239.322 49.1757 239.008 48.9884 238.605L49.4661 237.79C49.6722 238.287 49.9063 238.61 50.1686 238.76C50.4309 238.91 50.6744 238.985 50.8992 238.985C51.2083 238.985 51.4659 238.896 51.672 238.718C51.878 238.54 52.0326 238.291 52.1356 237.973C52.2387 237.654 52.2902 237.294 52.2902 236.891C52.2902 236.498 52.2293 236.156 52.1075 235.865C51.9951 235.575 51.8359 235.35 51.6298 235.191C51.4331 235.022 51.1943 234.938 50.9133 234.938C50.5948 234.938 50.3231 235.06 50.0983 235.303C49.8829 235.547 49.7565 236.011 49.719 236.694C49.6815 237.247 49.63 237.711 49.5644 238.085C49.4989 238.46 49.4239 238.769 49.3396 239.013C49.246 239.256 49.1429 239.462 49.0305 239.631C48.9181 239.79 48.801 239.935 48.6793 240.066L48.3561 240.066L46.9933 238.704L47.3586 237.678L48.6371 239.083L48.1454 238.9C48.2203 238.797 48.2906 238.699 48.3561 238.605C48.4123 238.512 48.4638 238.385 48.5107 238.226C48.5575 238.067 48.6043 237.847 48.6512 237.566C48.6886 237.275 48.7261 236.896 48.7636 236.427C48.8104 235.791 48.9228 235.28 49.1008 234.896C49.2788 234.503 49.5176 234.217 49.8173 234.039C50.1171 233.861 50.4683 233.772 50.8711 233.772C51.2739 233.772 51.6532 233.884 52.0092 234.109C52.3745 234.325 52.6742 234.662 52.9084 235.121C53.1426 235.58 53.2596 236.17 53.2596 236.891ZM47.7801 236.905C47.7801 237.505 47.6723 238.01 47.4569 238.423C47.2321 238.835 46.9277 239.148 46.5437 239.364C46.1596 239.579 45.7334 239.687 45.2651 239.687C44.7967 239.687 44.3752 239.579 44.0006 239.364C43.6259 239.148 43.3262 238.835 43.1014 238.423C42.8766 238.001 42.7642 237.495 42.7642 236.905C42.7642 236.315 42.8766 235.814 43.1014 235.402C43.3262 234.99 43.6259 234.676 44.0006 234.46C44.3752 234.245 44.7967 234.137 45.2651 234.137C45.7334 234.137 46.1596 234.245 46.5437 234.46C46.9277 234.676 47.2321 234.99 47.4569 235.402C47.6723 235.814 47.7801 236.315 47.7801 236.905ZM46.8106 236.905C46.8106 236.409 46.6795 236.015 46.4172 235.725C46.1549 235.425 45.7709 235.275 45.2651 235.275C44.7686 235.275 44.394 235.425 44.1411 235.725C43.8788 236.015 43.7477 236.409 43.7477 236.905C43.7477 237.402 43.8788 237.804 44.1411 238.113C44.394 238.413 44.7686 238.563 45.2651 238.563C45.7709 238.563 46.1549 238.413 46.4172 238.113C46.6795 237.814 46.8106 237.411 46.8106 236.905ZM43.9303 235.753L42.9328 236.104L42.9328 233.21L43.8179 233.21L43.9303 235.753ZM50 229.014C50 229.436 49.9344 229.801 49.8033 230.11C49.6722 230.419 49.452 230.658 49.1429 230.827C48.8245 230.986 48.3983 231.066 47.8644 231.066L43.9303 231.066L43.9303 232.288L42.9328 232.288L42.9328 231.066L41.2186 230.911L41.2186 229.885L42.9328 229.885L42.9328 227.82L43.9303 227.82L43.9303 229.885L47.8644 229.885C48.3046 229.885 48.6043 229.796 48.7636 229.618C48.9134 229.441 48.9884 229.127 48.9884 228.677L48.9884 227.904L50 227.904L50 229.014ZM50 226.224L39.8839 226.224L39.8839 225.044L44.127 225.044C43.6961 224.8 43.3636 224.468 43.1295 224.046C42.8859 223.625 42.7642 223.156 42.7642 222.641C42.7642 222.098 42.8719 221.63 43.0873 221.236C43.3027 220.833 43.6353 220.524 44.0849 220.309C44.5345 220.084 45.1012 219.972 45.7849 219.972L50 219.972L50 221.138L45.9114 221.138C45.1995 221.138 44.6656 221.288 44.3097 221.587C43.9537 221.887 43.7758 222.323 43.7758 222.894C43.7758 223.297 43.8741 223.662 44.0708 223.99C44.2582 224.308 44.5345 224.566 44.8998 224.763C45.2651 224.95 45.7147 225.044 46.2486 225.044L50 225.044L50 226.224ZM53.2596 211.473C53.2596 212.11 53.1753 212.677 53.0067 213.174C52.8475 213.661 52.5993 214.04 52.2621 214.312C51.9249 214.583 51.508 214.719 51.0116 214.719C50.7962 214.719 50.5667 214.677 50.3231 214.593C50.089 214.499 49.8548 214.344 49.6206 214.129C49.3865 213.904 49.1757 213.59 48.9884 213.188L49.4661 212.373C49.6722 212.869 49.9063 213.192 50.1686 213.342C50.4309 213.492 50.6744 213.567 50.8992 213.567C51.2083 213.567 51.4659 213.478 51.672 213.3C51.878 213.122 52.0326 212.874 52.1356 212.555C52.2387 212.237 52.2902 211.876 52.2902 211.473C52.2902 211.08 52.2293 210.738 52.1075 210.448C51.9951 210.157 51.8359 209.933 51.6298 209.773C51.4331 209.605 51.1943 209.52 50.9133 209.52C50.5948 209.52 50.3231 209.642 50.0983 209.886C49.8829 210.129 49.7565 210.593 49.719 211.277C49.6815 211.829 49.63 212.293 49.5644 212.668C49.4989 213.042 49.4239 213.351 49.3396 213.595C49.246 213.839 49.1429 214.045 49.0305 214.213C48.9181 214.372 48.801 214.518 48.6793 214.649L48.3561 214.649L46.9933 213.286L47.3586 212.26L48.6371 213.665L48.1454 213.483C48.2203 213.38 48.2906 213.281 48.3561 213.188C48.4123 213.094 48.4638 212.967 48.5107 212.808C48.5575 212.649 48.6043 212.429 48.6512 212.148C48.6886 211.857 48.7261 211.478 48.7636 211.01C48.8104 210.373 48.9228 209.862 49.1008 209.478C49.2788 209.085 49.5176 208.799 49.8173 208.621C50.1171 208.443 50.4683 208.354 50.8711 208.354C51.2739 208.354 51.6532 208.467 52.0092 208.692C52.3745 208.907 52.6742 209.244 52.9084 209.703C53.1426 210.162 53.2596 210.752 53.2596 211.473ZM47.7801 211.487C47.7801 212.087 47.6723 212.593 47.4569 213.005C47.2321 213.417 46.9277 213.731 46.5436 213.946C46.1596 214.162 45.7334 214.269 45.2651 214.269C44.7967 214.269 44.3752 214.162 44.0006 213.946C43.6259 213.731 43.3262 213.417 43.1014 213.005C42.8766 212.583 42.7642 212.078 42.7642 211.487C42.7642 210.897 42.8766 210.396 43.1014 209.984C43.3262 209.572 43.6259 209.258 44.0006 209.043C44.3752 208.827 44.7967 208.72 45.2651 208.72C45.7334 208.72 46.1596 208.827 46.5436 209.043C46.9277 209.258 47.2321 209.572 47.4569 209.984C47.6723 210.396 47.7801 210.897 47.7801 211.487ZM46.8106 211.487C46.8106 210.991 46.6795 210.598 46.4172 210.307C46.1549 210.008 45.7709 209.858 45.2651 209.858C44.7686 209.858 44.394 210.008 44.1411 210.307C43.8788 210.598 43.7477 210.991 43.7477 211.487C43.7477 211.984 43.8788 212.387 44.1411 212.696C44.394 212.996 44.7686 213.145 45.2651 213.145C45.7709 213.145 46.1549 212.996 46.4172 212.696C46.6795 212.396 46.8106 211.993 46.8106 211.487ZM43.9303 210.335L42.9328 210.687L42.9328 207.792L43.8179 207.792L43.9303 210.335ZM50.1686 204.06C50.1686 204.632 50.0702 205.109 49.8735 205.493C49.6675 205.877 49.4005 206.163 49.0727 206.351C48.7355 206.538 48.3749 206.632 47.9908 206.632C47.5037 206.632 47.0963 206.51 46.7685 206.266C46.4406 206.013 46.1877 205.662 46.0097 205.212C45.8318 204.753 45.7428 204.22 45.7428 203.611L45.7428 201.728C45.3025 201.728 44.9372 201.798 44.6469 201.939C44.3471 202.07 44.127 202.267 43.9865 202.529C43.8366 202.782 43.7617 203.1 43.7617 203.484C43.7617 203.934 43.8741 204.323 44.0989 204.65C44.3237 204.978 44.6516 205.18 45.0824 205.255L45.0824 206.463C44.5766 206.407 44.1551 206.238 43.8179 205.957C43.4713 205.667 43.2091 205.301 43.0311 204.861C42.8531 204.421 42.7642 203.962 42.7642 203.484C42.7642 202.829 42.8859 202.285 43.1295 201.854C43.3636 201.424 43.6961 201.1 44.127 200.885C44.5485 200.66 45.045 200.548 45.6163 200.548L50 200.548L50 201.602L48.7495 201.672C48.9462 201.765 49.1336 201.887 49.3115 202.037C49.4801 202.178 49.63 202.346 49.7611 202.543C49.8829 202.73 49.9813 202.95 50.0562 203.203C50.1311 203.456 50.1686 203.742 50.1686 204.06ZM49.171 203.878C49.171 203.55 49.1055 203.255 48.9743 202.993C48.8338 202.721 48.6465 202.491 48.4123 202.304C48.1782 202.117 47.9159 201.976 47.6255 201.883C47.3258 201.78 47.0214 201.728 46.7123 201.728L46.6561 201.728L46.6561 203.512C46.6561 203.962 46.7123 204.327 46.8247 204.608C46.9371 204.889 47.0869 205.091 47.2743 205.212C47.4616 205.334 47.6817 205.395 47.9346 205.395C48.1782 205.395 48.3936 205.339 48.5809 205.227C48.7683 205.105 48.9134 204.931 49.0165 204.707C49.1195 204.482 49.171 204.206 49.171 203.878ZM50 198.539L42.9328 198.539L42.9328 197.359L50 197.359L50 198.539ZM41.4153 197.949C41.4153 198.183 41.3404 198.38 41.1905 198.539C41.0313 198.689 40.8346 198.764 40.6004 198.764C40.3663 198.764 40.1789 198.689 40.0384 198.539C39.8885 198.38 39.8136 198.183 39.8136 197.949C39.8136 197.724 39.8885 197.532 40.0384 197.373C40.1789 197.214 40.3663 197.134 40.6004 197.134C40.8346 197.134 41.0313 197.214 41.1905 197.373C41.3404 197.532 41.4153 197.724 41.4153 197.949ZM50 195.234L42.9328 195.234L42.9328 194.166L44.1551 194.096C43.7242 193.871 43.387 193.553 43.1435 193.14C42.8906 192.719 42.7642 192.241 42.7642 191.707C42.7642 191.155 42.8719 190.677 43.0873 190.274C43.3027 189.871 43.6353 189.558 44.0849 189.333C44.5251 189.108 45.0871 188.996 45.7709 188.996L50 188.996L50 190.176L45.8973 190.176C45.1948 190.176 44.6656 190.335 44.3097 190.654C43.9537 190.963 43.7758 191.403 43.7758 191.974C43.7758 192.368 43.8694 192.724 44.0568 193.042C44.2441 193.351 44.5204 193.599 44.8857 193.787C45.251 193.965 45.696 194.054 46.2205 194.054L50 194.054L50 195.234ZM50.1686 183.99C50.1686 184.646 50.014 185.232 49.7049 185.747C49.3958 186.262 48.965 186.669 48.4123 186.969C47.8597 187.259 47.2087 187.405 46.4593 187.405C45.71 187.405 45.059 187.259 44.5064 186.969C43.9537 186.679 43.5275 186.276 43.2278 185.761C42.9187 185.236 42.7641 184.637 42.7641 183.962C42.7641 183.269 42.9187 182.679 43.2278 182.192C43.5275 181.705 43.9303 181.335 44.4361 181.082C44.9419 180.82 45.4899 180.689 46.08 180.689C46.1737 180.689 46.272 180.689 46.375 180.689C46.4781 180.689 46.5952 180.693 46.7263 180.703L46.7263 186.519L45.813 186.519L45.813 181.855C45.1667 181.883 44.6656 182.098 44.3097 182.501C43.9444 182.895 43.7617 183.391 43.7617 183.99C43.7617 184.384 43.8507 184.754 44.0287 185.1C44.2066 185.447 44.4736 185.728 44.8295 185.943C45.1761 186.149 45.6117 186.253 46.1362 186.253L46.5296 186.253C47.1197 186.253 47.6115 186.145 48.0049 185.929C48.3889 185.714 48.6793 185.438 48.876 185.1C49.0727 184.754 49.171 184.384 49.171 183.99C49.171 183.494 49.0633 183.087 48.8479 182.768C48.6231 182.44 48.3187 182.201 47.9346 182.051L47.9346 180.885C48.3655 181.007 48.7495 181.208 49.0867 181.489C49.4146 181.77 49.6768 182.122 49.8735 182.543C50.0702 182.955 50.1686 183.438 50.1686 183.99ZM50.1686 175.907C50.1686 176.59 50.0094 177.194 49.6909 177.719C49.3631 178.234 48.9181 178.637 48.3561 178.927C47.7941 179.208 47.1572 179.349 46.4453 179.349C45.7334 179.349 45.1012 179.208 44.5485 178.927C43.9959 178.637 43.5603 178.234 43.2419 177.719C42.9234 177.194 42.7641 176.586 42.7641 175.892C42.7641 175.321 42.8812 174.82 43.1154 174.389C43.3496 173.949 43.6774 173.607 44.0989 173.363L39.8839 173.363L39.8839 172.183L50 172.183L50 173.251L48.8479 173.363C49.0727 173.513 49.2881 173.705 49.4942 173.939C49.6909 174.174 49.8548 174.455 49.9859 174.783C50.1077 175.101 50.1686 175.476 50.1686 175.907ZM49.1429 175.78C49.1429 175.312 49.0352 174.9 48.8198 174.544C48.595 174.188 48.2812 173.911 47.8784 173.715C47.4756 173.509 47.0026 173.406 46.4593 173.406C45.9254 173.406 45.4571 173.509 45.0543 173.715C44.6516 173.911 44.3425 174.188 44.127 174.544C43.9022 174.9 43.7898 175.312 43.7898 175.78C43.7898 176.23 43.9022 176.637 44.127 177.002C44.3425 177.358 44.6516 177.639 45.0543 177.845C45.4571 178.042 45.9254 178.14 46.4593 178.14C47.0026 178.14 47.4756 178.042 47.8784 177.845C48.2812 177.639 48.595 177.358 48.8198 177.002C49.0352 176.637 49.1429 176.23 49.1429 175.78ZM52.0373 163.857C51.5502 164.363 50.9695 164.832 50.295 165.262C49.63 165.693 48.8807 166.04 48.047 166.302C47.2134 166.555 46.3048 166.681 45.3213 166.681C44.3378 166.681 43.4292 166.555 42.5955 166.302C41.7619 166.04 41.0079 165.693 40.3335 165.262C39.6591 164.832 39.083 164.363 38.6053 163.857L38.6053 162.649L38.7177 162.649C39.2797 163.22 39.9073 163.722 40.6004 164.152C41.2936 164.574 42.0382 164.906 42.8344 165.15C43.6212 165.384 44.4502 165.501 45.3213 165.501C46.1924 165.501 47.026 165.384 47.8222 165.15C48.609 164.906 49.349 164.569 50.0421 164.138C50.7353 163.708 51.3629 163.211 51.9249 162.649L52.0373 162.649L52.0373 163.857ZM50 156.705L46.1221 160.091L42.9328 157.014L42.9328 155.567L46.5436 159.093L45.7006 159.079L50 155.201L50 156.705ZM50 161.074L39.8839 161.074L39.8839 159.894L50 159.894L50 161.074ZM53.2596 151.114C53.2596 151.751 53.1753 152.318 53.0067 152.814C52.8475 153.301 52.5993 153.681 52.2621 153.952C51.9249 154.224 51.508 154.36 51.0116 154.36C50.7962 154.36 50.5667 154.318 50.3231 154.233C50.089 154.14 49.8548 153.985 49.6206 153.77C49.3865 153.545 49.1757 153.231 48.9884 152.828L49.4661 152.013C49.6722 152.51 49.9063 152.833 50.1686 152.983C50.4309 153.133 50.6744 153.208 50.8992 153.208C51.2083 153.208 51.4659 153.119 51.672 152.941C51.878 152.763 52.0326 152.515 52.1356 152.196C52.2387 151.878 52.2902 151.517 52.2902 151.114C52.2902 150.721 52.2293 150.379 52.1075 150.089C51.9951 149.798 51.8359 149.573 51.6298 149.414C51.4331 149.246 51.1943 149.161 50.9133 149.161C50.5948 149.161 50.3231 149.283 50.0983 149.527C49.8829 149.77 49.7565 150.234 49.719 150.918C49.6815 151.47 49.63 151.934 49.5644 152.308C49.4989 152.683 49.4239 152.992 49.3396 153.236C49.246 153.479 49.1429 153.685 49.0305 153.854C48.9181 154.013 48.801 154.158 48.6793 154.29L48.3561 154.29L46.9933 152.927L47.3586 151.901L48.6371 153.306L48.1454 153.123C48.2203 153.02 48.2906 152.922 48.3561 152.828C48.4123 152.735 48.4638 152.608 48.5107 152.449C48.5575 152.29 48.6043 152.07 48.6512 151.789C48.6886 151.498 48.7261 151.119 48.7636 150.651C48.8104 150.014 48.9228 149.503 49.1008 149.119C49.2787 148.726 49.5176 148.44 49.8173 148.262C50.1171 148.084 50.4683 147.995 50.8711 147.995C51.2739 147.995 51.6532 148.107 52.0092 148.332C52.3745 148.548 52.6742 148.885 52.9084 149.344C53.1425 149.803 53.2596 150.393 53.2596 151.114ZM47.7801 151.128C47.7801 151.728 47.6723 152.234 47.4569 152.646C47.2321 153.058 46.9277 153.372 46.5436 153.587C46.1596 153.802 45.7334 153.91 45.2651 153.91C44.7967 153.91 44.3752 153.802 44.0006 153.587C43.6259 153.372 43.3262 153.058 43.1014 152.646C42.8765 152.224 42.7641 151.718 42.7641 151.128C42.7641 150.538 42.8765 150.037 43.1014 149.625C43.3262 149.213 43.6259 148.899 44.0006 148.684C44.3752 148.468 44.7967 148.36 45.2651 148.36C45.7334 148.36 46.1596 148.468 46.5436 148.684C46.9277 148.899 47.2321 149.213 47.4569 149.625C47.6723 150.037 47.7801 150.538 47.7801 151.128ZM46.8106 151.128C46.8106 150.632 46.6795 150.238 46.4172 149.948C46.1549 149.648 45.7709 149.498 45.2651 149.498C44.7686 149.498 44.394 149.648 44.1411 149.948C43.8788 150.238 43.7477 150.632 43.7477 151.128C43.7477 151.625 43.8788 152.027 44.1411 152.337C44.394 152.636 44.7686 152.786 45.2651 152.786C45.7709 152.786 46.1549 152.636 46.4172 152.337C46.6795 152.037 46.8106 151.634 46.8106 151.128ZM43.9303 149.976L42.9328 150.327L42.9328 147.433L43.8179 147.433L43.9303 149.976ZM52.0373 145.247L52.0373 146.455L51.9249 146.455C51.3629 145.884 50.7353 145.387 50.0421 144.966C49.349 144.535 48.609 144.202 47.8222 143.968C47.026 143.725 46.1924 143.603 45.3213 143.603C44.4502 143.603 43.6212 143.725 42.8344 143.968C42.0382 144.202 41.2936 144.535 40.6004 144.966C39.9073 145.387 39.2797 145.884 38.7177 146.455L38.6053 146.455L38.6053 145.247C39.083 144.731 39.6591 144.263 40.3335 143.842C41.0079 143.411 41.7619 143.069 42.5955 142.816C43.4292 142.554 44.3378 142.423 45.3213 142.423C46.3048 142.423 47.2134 142.554 48.047 142.816C48.8807 143.069 49.63 143.411 50.295 143.842C50.9695 144.263 51.5502 144.731 52.0373 145.247Z" fill="#F9E5E6"/>
<path d="M315.041 457.271L312.344 447.436H313.608L315.73 455.866L318.147 447.436H319.453L321.8 455.895L323.949 447.436H325.214L322.46 457.271H321.111L318.765 449.136L316.362 457.271H315.041ZM329.021 457.44C328.366 457.44 327.78 457.286 327.265 456.976C326.75 456.667 326.342 456.236 326.043 455.684C325.752 455.131 325.607 454.48 325.607 453.731C325.607 452.981 325.752 452.331 326.043 451.778C326.333 451.225 326.736 450.799 327.251 450.499C327.775 450.19 328.375 450.036 329.049 450.036C329.743 450.036 330.333 450.19 330.82 450.499C331.307 450.799 331.677 451.202 331.93 451.708C332.192 452.213 332.323 452.761 332.323 453.351C332.323 453.445 332.323 453.544 332.323 453.647C332.323 453.75 332.318 453.867 332.309 453.998H326.492V453.085H331.157C331.129 452.438 330.913 451.937 330.511 451.581C330.117 451.216 329.621 451.033 329.021 451.033C328.628 451.033 328.258 451.122 327.911 451.3C327.565 451.478 327.284 451.745 327.068 452.101C326.862 452.448 326.759 452.883 326.759 453.408V453.801C326.759 454.391 326.867 454.883 327.082 455.276C327.298 455.66 327.574 455.951 327.911 456.147C328.258 456.344 328.628 456.443 329.021 456.443C329.518 456.443 329.925 456.335 330.244 456.119C330.571 455.895 330.81 455.59 330.96 455.206H332.126C332.005 455.637 331.803 456.021 331.522 456.358C331.241 456.686 330.89 456.948 330.468 457.145C330.056 457.342 329.574 457.44 329.021 457.44ZM337.077 457.44C336.421 457.44 335.836 457.286 335.321 456.976C334.806 456.667 334.398 456.236 334.098 455.684C333.808 455.131 333.663 454.48 333.663 453.731C333.663 452.981 333.808 452.331 334.098 451.778C334.389 451.225 334.792 450.799 335.307 450.499C335.831 450.19 336.431 450.036 337.105 450.036C337.798 450.036 338.388 450.19 338.875 450.499C339.363 450.799 339.733 451.202 339.985 451.708C340.248 452.213 340.379 452.761 340.379 453.351C340.379 453.445 340.379 453.544 340.379 453.647C340.379 453.75 340.374 453.867 340.365 453.998H334.548V453.085H339.213C339.185 452.438 338.969 451.937 338.566 451.581C338.173 451.216 337.677 451.033 337.077 451.033C336.684 451.033 336.314 451.122 335.967 451.3C335.621 451.478 335.34 451.745 335.124 452.101C334.918 452.448 334.815 452.883 334.815 453.408V453.801C334.815 454.391 334.923 454.883 335.138 455.276C335.354 455.66 335.63 455.951 335.967 456.147C336.314 456.344 336.684 456.443 337.077 456.443C337.574 456.443 337.981 456.335 338.299 456.119C338.627 455.895 338.866 455.59 339.016 455.206H340.182C340.06 455.637 339.859 456.021 339.578 456.358C339.297 456.686 338.946 456.948 338.524 457.145C338.112 457.342 337.63 457.44 337.077 457.44ZM346.383 457.271L342.997 453.394L346.074 450.204H347.521L343.995 453.815L344.009 452.972L347.887 457.271H346.383ZM342.014 457.271V447.155H343.194V457.271H342.014ZM351.422 457.44C350.85 457.44 350.345 457.346 349.904 457.159C349.464 456.962 349.113 456.686 348.851 456.33C348.598 455.974 348.439 455.557 348.373 455.08H349.581C349.637 455.323 349.741 455.553 349.89 455.768C350.04 455.974 350.242 456.138 350.495 456.26C350.757 456.382 351.071 456.443 351.436 456.443C351.773 456.443 352.049 456.396 352.265 456.302C352.48 456.199 352.64 456.063 352.743 455.895C352.846 455.726 352.897 455.543 352.897 455.347C352.897 455.056 352.827 454.836 352.686 454.686C352.555 454.536 352.359 454.419 352.096 454.335C351.843 454.251 351.53 454.171 351.155 454.096C350.846 454.04 350.541 453.965 350.242 453.871C349.942 453.778 349.675 453.656 349.441 453.506C349.207 453.356 349.019 453.169 348.879 452.944C348.748 452.71 348.682 452.429 348.682 452.101C348.682 451.698 348.785 451.342 348.991 451.033C349.207 450.715 349.502 450.471 349.876 450.303C350.26 450.125 350.715 450.036 351.239 450.036C351.998 450.036 352.611 450.218 353.08 450.584C353.548 450.949 353.82 451.473 353.895 452.157H352.729C352.691 451.801 352.541 451.525 352.279 451.328C352.017 451.132 351.665 451.033 351.225 451.033C350.785 451.033 350.448 451.122 350.214 451.3C349.989 451.478 349.876 451.712 349.876 452.003C349.876 452.19 349.937 452.359 350.059 452.508C350.19 452.649 350.382 452.771 350.635 452.874C350.888 452.967 351.192 453.047 351.548 453.113C352.017 453.206 352.443 453.323 352.827 453.464C353.211 453.595 353.52 453.801 353.754 454.082C353.998 454.354 354.115 454.742 354.105 455.248C354.115 455.688 354.007 456.073 353.782 456.4C353.567 456.728 353.258 456.986 352.855 457.173C352.452 457.351 351.975 457.44 351.422 457.44Z" fill="#F9E5E6"/>
<g clip-path="url(#clip0_3931_2828)">
<line x1="98" y1="169.498" x2="601" y2="169.498" stroke="#8A2B2E" stroke-width="1.00358"/>
<line x1="98" y1="90.4982" x2="601" y2="90.4982" stroke="#8A2B2E" stroke-width="1.00358"/>
<line x1="98" y1="249.498" x2="601" y2="249.498" stroke="#8A2B2E" stroke-width="1.00358"/>
<line x1="98" y1="329.498" x2="601" y2="329.498" stroke="#8A2B2E" stroke-width="1.00358"/>
<path d="M98 359.5C126.686 342.167 186.676 306.8 197.153 304C207.629 301.2 264.71 277.5 291.94 266L399.824 207.5L500.847 153L600 112" stroke="#F9E5E6"/>
<path d="M98 359L194.926 366L298.186 368.5L397.646 374.5L500.907 383L601 388" stroke="#E78186"/>
<path d="M98 90L98 410L601 410" stroke="#8A2B2E" stroke-width="1.00358"/>
<circle cx="98.0143" cy="359.014" r="4.01434" fill="#F9E5E6"/>
<circle cx="191.014" cy="306.014" r="4.01434" fill="#F9E5E6"/>
<circle cx="191.014" cy="366.014" r="4.01434" fill="#E78186"/>
<circle cx="297.014" cy="368.014" r="4.01434" fill="#E78186"/>
<circle cx="402.014" cy="375.014" r="4.01434" fill="#E78186"/>
<circle cx="502.014" cy="383.014" r="4.01434" fill="#E78186"/>
<circle cx="597.014" cy="388.014" r="4.01434" fill="#E78186"/>
<circle cx="294.014" cy="265.014" r="4.01434" fill="#F9E5E6"/>
<circle cx="396.014" cy="209.014" r="4.01434" fill="#F9E5E6"/>
<circle cx="499.014" cy="154.014" r="4.01434" fill="#F9E5E6"/>
<circle cx="597.014" cy="113.014" r="4.01434" fill="#F9E5E6"/>
<path d="M80.9871 105.382V98.3126L79.4095 98.7702V97.8309L81.4327 96.9517H82.2155V105.382H80.9871ZM87.2714 105.526C86.5327 105.526 85.8985 105.346 85.3686 104.984C84.8467 104.615 84.4453 104.105 84.1643 103.455C83.8833 102.797 83.7428 102.034 83.7428 101.167C83.7428 100.3 83.8833 99.541 84.1643 98.8907C84.4453 98.2323 84.8467 97.7225 85.3686 97.3612C85.8985 96.9919 86.5287 96.8072 87.2593 96.8072C87.998 96.8072 88.6282 96.9919 89.1501 97.3612C89.672 97.7225 90.0734 98.2323 90.3544 98.8907C90.6354 99.541 90.7759 100.3 90.7759 101.167C90.7759 102.034 90.6354 102.797 90.3544 103.455C90.0734 104.105 89.672 104.615 89.1501 104.984C88.6282 105.346 88.002 105.526 87.2714 105.526ZM87.2593 104.455C87.7009 104.455 88.0943 104.322 88.4396 104.057C88.7848 103.792 89.0537 103.415 89.2464 102.925C89.4472 102.435 89.5475 101.849 89.5475 101.167C89.5475 100.476 89.4472 99.8902 89.2464 99.4085C89.0537 98.9188 88.7848 98.5454 88.4396 98.2885C88.0943 98.0236 87.7009 97.8911 87.2593 97.8911C86.8178 97.8911 86.4244 98.0236 86.0791 98.2885C85.7339 98.5454 85.4609 98.9188 85.2602 99.4085C85.0675 99.8902 84.9712 100.476 84.9712 101.167C84.9712 101.849 85.0675 102.435 85.2602 102.925C85.4609 103.415 85.7339 103.792 86.0791 104.057C86.4244 104.322 86.8178 104.455 87.2593 104.455Z" fill="#F9E5E6"/>
<path d="M86.6499 179.44L89.7931 172.046H85.3372V171.01H91.0335V171.889L87.9144 179.44H86.6499Z" fill="#F9E5E6"/>
<path d="M88.7329 253.5V251.778H84.4938V250.838L88.5402 245.07H89.9252V250.73H91.1295V251.778H89.9252V253.5H88.7329ZM85.8065 250.73H88.7931V246.395L85.8065 250.73Z" fill="#F9E5E6"/>
<path d="M88.9871 327.559V320.489L87.4095 320.947V320.008L89.4327 319.128H90.2155V327.559H88.9871Z" fill="#F9E5E6"/>
<path d="M78.8912 398.498V397.486H83.7566V398.498H78.8912ZM85.4159 401.617V400.75C85.9859 400.317 86.5238 399.879 87.0296 399.437C87.5435 398.996 87.9971 398.558 88.3905 398.125C88.7919 397.683 89.109 397.254 89.3419 396.836C89.5747 396.411 89.6911 396.005 89.6911 395.62C89.6911 395.347 89.6389 395.094 89.5346 394.861C89.4382 394.628 89.2817 394.44 89.0649 394.295C88.8561 394.142 88.5711 394.066 88.2098 394.066C87.8566 394.066 87.5635 394.142 87.3307 394.295C87.0979 394.448 86.9212 394.652 86.8008 394.909C86.6884 395.158 86.6322 395.435 86.6322 395.74H85.464C85.4721 395.162 85.5965 394.672 85.8374 394.271C86.0782 393.87 86.4074 393.564 86.8249 393.356C87.2424 393.147 87.7121 393.043 88.2339 393.043C88.7718 393.043 89.2375 393.143 89.6309 393.344C90.0243 393.536 90.3334 393.821 90.5582 394.199C90.783 394.576 90.8954 395.03 90.8954 395.56C90.8954 395.945 90.8151 396.33 90.6546 396.716C90.502 397.093 90.2933 397.462 90.0283 397.824C89.7634 398.185 89.4663 398.534 89.1371 398.871C88.816 399.201 88.4828 399.514 88.1376 399.811C87.7923 400.108 87.4632 400.377 87.1501 400.618H91.1483V401.617H85.4159Z" fill="#F9E5E6"/>
<path d="M102.107 428.145C101.368 428.145 100.734 427.964 100.204 427.603C99.682 427.233 99.2806 426.723 98.9996 426.073C98.7186 425.415 98.5781 424.652 98.5781 423.785C98.5781 422.918 98.7186 422.159 98.9996 421.509C99.2806 420.85 99.682 420.341 100.204 419.979C100.734 419.61 101.364 419.425 102.095 419.425C102.833 419.425 103.464 419.61 103.985 419.979C104.507 420.341 104.909 420.85 105.19 421.509C105.471 422.159 105.611 422.918 105.611 423.785C105.611 424.652 105.471 425.415 105.19 426.073C104.909 426.723 104.507 427.233 103.985 427.603C103.464 427.964 102.837 428.145 102.107 428.145ZM102.095 427.073C102.536 427.073 102.93 426.94 103.275 426.675C103.62 426.41 103.889 426.033 104.082 425.543C104.282 425.053 104.383 424.467 104.383 423.785C104.383 423.094 104.282 422.508 104.082 422.027C103.889 421.537 103.62 421.164 103.275 420.907C102.93 420.642 102.536 420.509 102.095 420.509C101.653 420.509 101.26 420.642 100.914 420.907C100.569 421.164 100.296 421.537 100.095 422.027C99.9028 422.508 99.8065 423.094 99.8065 423.785C99.8065 424.467 99.9028 425.053 100.095 425.543C100.296 426.033 100.569 426.41 100.914 426.675C101.26 426.94 101.653 427.073 102.095 427.073Z" fill="#F9E5E6"/>
<path d="M197.522 428V427.133C198.092 426.699 198.63 426.262 199.136 425.82C199.65 425.379 200.104 424.941 200.497 424.508C200.898 424.066 201.216 423.636 201.448 423.219C201.681 422.793 201.798 422.388 201.798 422.003C201.798 421.73 201.745 421.477 201.641 421.244C201.545 421.011 201.388 420.822 201.171 420.678C200.963 420.525 200.678 420.449 200.316 420.449C199.963 420.449 199.67 420.525 199.437 420.678C199.204 420.83 199.028 421.035 198.907 421.292C198.795 421.541 198.739 421.818 198.739 422.123H197.571C197.579 421.545 197.703 421.055 197.944 420.654C198.185 420.252 198.514 419.947 198.931 419.738C199.349 419.53 199.819 419.425 200.34 419.425C200.878 419.425 201.344 419.526 201.737 419.726C202.131 419.919 202.44 420.204 202.665 420.582C202.89 420.959 203.002 421.412 203.002 421.942C203.002 422.328 202.922 422.713 202.761 423.098C202.609 423.476 202.4 423.845 202.135 424.206C201.87 424.568 201.573 424.917 201.244 425.254C200.923 425.583 200.589 425.896 200.244 426.194C199.899 426.491 199.57 426.76 199.257 427H203.255V428H197.522Z" fill="#F9E5E6"/>
<path d="M299.333 428V426.278H295.094V425.338L299.14 419.57H300.525V425.23H301.73V426.278H300.525V428H299.333ZM296.407 425.23H299.393V420.895L296.407 425.23Z" fill="#F9E5E6"/>
<path d="M396.35 428.145C395.732 428.145 395.21 428.032 394.784 427.807C394.367 427.574 394.03 427.265 393.773 426.88C393.524 426.495 393.343 426.061 393.231 425.579C393.118 425.098 393.062 424.604 393.062 424.098C393.062 423.167 393.191 422.352 393.448 421.653C393.705 420.955 394.078 420.409 394.568 420.015C395.057 419.622 395.648 419.425 396.338 419.425C396.884 419.425 397.35 419.534 397.735 419.751C398.128 419.959 398.437 420.236 398.662 420.582C398.887 420.927 399.024 421.308 399.072 421.726H397.952C397.871 421.316 397.691 421.003 397.41 420.786C397.129 420.561 396.768 420.449 396.326 420.449C395.924 420.449 395.567 420.573 395.254 420.822C394.949 421.063 394.704 421.433 394.519 421.93C394.343 422.428 394.242 423.058 394.218 423.821C394.218 423.837 394.218 423.853 394.218 423.869C394.218 423.885 394.218 423.901 394.218 423.917C394.339 423.677 394.507 423.456 394.724 423.255C394.949 423.046 395.214 422.886 395.519 422.773C395.832 422.653 396.169 422.593 396.531 422.593C397.004 422.593 397.442 422.705 397.843 422.93C398.253 423.147 398.582 423.46 398.831 423.869C399.088 424.279 399.216 424.756 399.216 425.302C399.216 425.792 399.1 426.254 398.867 426.687C398.634 427.121 398.301 427.474 397.867 427.747C397.442 428.012 396.936 428.145 396.35 428.145ZM396.266 427.097C396.603 427.097 396.904 427.025 397.169 426.88C397.434 426.727 397.643 426.519 397.795 426.254C397.948 425.989 398.024 425.688 398.024 425.351C398.024 425.005 397.948 424.704 397.795 424.447C397.643 424.182 397.434 423.978 397.169 423.833C396.904 423.689 396.603 423.616 396.266 423.616C395.929 423.616 395.623 423.693 395.35 423.845C395.077 423.998 394.861 424.206 394.7 424.471C394.548 424.736 394.471 425.033 394.471 425.363C394.471 425.7 394.548 426.001 394.7 426.266C394.861 426.523 395.077 426.727 395.35 426.88C395.623 427.025 395.929 427.097 396.266 427.097Z" fill="#F9E5E6"/>
<path d="M493.897 428.145C493.351 428.145 492.858 428.044 492.416 427.843C491.975 427.635 491.621 427.346 491.356 426.976C491.099 426.607 490.971 426.177 490.971 425.688C490.971 425.343 491.035 425.025 491.164 424.736C491.292 424.439 491.469 424.182 491.694 423.966C491.926 423.749 492.199 423.592 492.512 423.496C492.095 423.327 491.766 423.078 491.525 422.749C491.292 422.42 491.176 422.059 491.176 421.665C491.176 421.256 491.284 420.883 491.501 420.545C491.718 420.208 492.027 419.939 492.428 419.738C492.838 419.53 493.327 419.425 493.897 419.425C494.475 419.425 494.965 419.53 495.367 419.738C495.776 419.939 496.085 420.208 496.294 420.545C496.511 420.883 496.619 421.256 496.619 421.665C496.619 422.059 496.499 422.424 496.258 422.761C496.025 423.09 495.704 423.335 495.294 423.496C495.608 423.592 495.876 423.749 496.101 423.966C496.334 424.182 496.515 424.439 496.643 424.736C496.772 425.025 496.836 425.343 496.836 425.688C496.836 426.177 496.703 426.607 496.438 426.976C496.182 427.346 495.832 427.635 495.391 427.843C494.949 428.044 494.451 428.145 493.897 428.145ZM493.897 427.109C494.475 427.109 494.909 426.972 495.198 426.699C495.495 426.418 495.644 426.053 495.644 425.603C495.644 425.098 495.483 424.712 495.162 424.447C494.849 424.182 494.427 424.05 493.897 424.05C493.376 424.05 492.954 424.182 492.633 424.447C492.32 424.712 492.163 425.098 492.163 425.603C492.163 426.053 492.308 426.418 492.597 426.699C492.894 426.972 493.327 427.109 493.897 427.109ZM493.897 423.098C494.363 423.098 494.732 422.974 495.005 422.725C495.278 422.476 495.415 422.159 495.415 421.774C495.415 421.332 495.278 420.999 495.005 420.774C494.74 420.549 494.371 420.437 493.897 420.437C493.432 420.437 493.062 420.549 492.789 420.774C492.524 420.999 492.392 421.332 492.392 421.774C492.392 422.159 492.529 422.476 492.801 422.725C493.074 422.974 493.44 423.098 493.897 423.098Z" fill="#F9E5E6"/>
<path d="M589.987 428V420.931L588.409 421.388V420.449L590.433 419.57H591.215V428H589.987ZM596.271 428.145C595.533 428.145 594.898 427.964 594.369 427.603C593.847 427.233 593.445 426.723 593.164 426.073C592.883 425.415 592.743 424.652 592.743 423.785C592.743 422.918 592.883 422.159 593.164 421.509C593.445 420.85 593.847 420.341 594.369 419.979C594.898 419.61 595.529 419.425 596.259 419.425C596.998 419.425 597.628 419.61 598.15 419.979C598.672 420.341 599.073 420.85 599.354 421.509C599.635 422.159 599.776 422.918 599.776 423.785C599.776 424.652 599.635 425.415 599.354 426.073C599.073 426.723 598.672 427.233 598.15 427.603C597.628 427.964 597.002 428.145 596.271 428.145ZM596.259 427.073C596.701 427.073 597.094 426.94 597.44 426.675C597.785 426.41 598.054 426.033 598.246 425.543C598.447 425.053 598.548 424.467 598.548 423.785C598.548 423.094 598.447 422.508 598.246 422.027C598.054 421.537 597.785 421.164 597.44 420.907C597.094 420.642 596.701 420.509 596.259 420.509C595.818 420.509 595.424 420.642 595.079 420.907C594.734 421.164 594.461 421.537 594.26 422.027C594.068 422.508 593.971 423.094 593.971 423.785C593.971 424.467 594.068 425.053 594.26 425.543C594.461 426.033 594.734 426.41 595.079 426.675C595.424 426.94 595.818 427.073 596.259 427.073Z" fill="#F9E5E6"/>
<path d="M187.723 297V296.133C188.293 295.699 188.831 295.262 189.336 294.82C189.85 294.379 190.304 293.941 190.697 293.508C191.099 293.066 191.416 292.636 191.649 292.219C191.881 291.793 191.998 291.388 191.998 291.003C191.998 290.73 191.946 290.477 191.841 290.244C191.745 290.011 191.588 289.822 191.372 289.678C191.163 289.525 190.878 289.449 190.517 289.449C190.163 289.449 189.87 289.525 189.637 289.678C189.405 289.83 189.228 290.035 189.108 290.292C188.995 290.541 188.939 290.818 188.939 291.123H187.771C187.779 290.545 187.903 290.055 188.144 289.654C188.385 289.252 188.714 288.947 189.132 288.738C189.549 288.53 190.019 288.425 190.541 288.425C191.079 288.425 191.544 288.526 191.938 288.726C192.331 288.919 192.64 289.204 192.865 289.582C193.09 289.959 193.202 290.412 193.202 290.942C193.202 291.328 193.122 291.713 192.961 292.098C192.809 292.476 192.6 292.845 192.335 293.206C192.07 293.568 191.773 293.917 191.444 294.254C191.123 294.583 190.79 294.896 190.444 295.194C190.099 295.491 189.77 295.76 189.457 296H193.455V297H187.723Z" fill="#F9E5E6"/>
<path d="M176.891 379.881V378.869H181.757V379.881H176.891ZM186.8 383.145C186.061 383.145 185.427 382.964 184.897 382.603C184.375 382.233 183.974 381.723 183.693 381.073C183.412 380.415 183.271 379.652 183.271 378.785C183.271 377.918 183.412 377.159 183.693 376.509C183.974 375.85 184.375 375.341 184.897 374.979C185.427 374.61 186.057 374.425 186.788 374.425C187.527 374.425 188.157 374.61 188.679 374.979C189.201 375.341 189.602 375.85 189.883 376.509C190.164 377.159 190.304 377.918 190.304 378.785C190.304 379.652 190.164 380.415 189.883 381.073C189.602 381.723 189.201 382.233 188.679 382.603C188.157 382.964 187.531 383.145 186.8 383.145ZM186.788 382.073C187.229 382.073 187.623 381.94 187.968 381.675C188.313 381.41 188.582 381.033 188.775 380.543C188.976 380.053 189.076 379.467 189.076 378.785C189.076 378.094 188.976 377.508 188.775 377.027C188.582 376.537 188.313 376.164 187.968 375.907C187.623 375.642 187.229 375.509 186.788 375.509C186.346 375.509 185.953 375.642 185.608 375.907C185.262 376.164 184.989 376.537 184.789 377.027C184.596 377.508 184.5 378.094 184.5 378.785C184.5 379.467 184.596 380.053 184.789 380.543C184.989 381.033 185.262 381.41 185.608 381.675C185.953 381.94 186.346 382.073 186.788 382.073ZM191.77 383.06C191.545 383.06 191.356 382.988 191.204 382.843C191.059 382.691 190.987 382.51 190.987 382.302C190.987 382.085 191.059 381.904 191.204 381.76C191.356 381.607 191.545 381.531 191.77 381.531C192.003 381.531 192.191 381.607 192.336 381.76C192.48 381.904 192.553 382.085 192.553 382.302C192.553 382.51 192.48 382.691 192.336 382.843C192.191 382.988 192.003 383.06 191.77 383.06ZM193.874 383V382.133C194.444 381.699 194.982 381.262 195.488 380.82C196.002 380.379 196.455 379.941 196.849 379.508C197.25 379.066 197.567 378.636 197.8 378.219C198.033 377.793 198.149 377.388 198.149 377.003C198.149 376.73 198.097 376.477 197.993 376.244C197.896 376.011 197.74 375.822 197.523 375.678C197.314 375.525 197.029 375.449 196.668 375.449C196.315 375.449 196.022 375.525 195.789 375.678C195.556 375.83 195.379 376.035 195.259 376.292C195.147 376.541 195.09 376.818 195.09 377.123H193.922C193.93 376.545 194.055 376.055 194.295 375.654C194.536 375.252 194.866 374.947 195.283 374.738C195.701 374.53 196.17 374.425 196.692 374.425C197.23 374.425 197.696 374.526 198.089 374.726C198.482 374.919 198.792 375.204 199.016 375.582C199.241 375.959 199.354 376.412 199.354 376.942C199.354 377.328 199.273 377.713 199.113 378.098C198.96 378.476 198.751 378.845 198.486 379.206C198.222 379.568 197.924 379.917 197.595 380.254C197.274 380.583 196.941 380.896 196.596 381.194C196.25 381.491 195.921 381.76 195.608 382H199.606V383H193.874Z" fill="#E78186"/>
<path d="M282.891 381.881V380.869H287.757V381.881H282.891ZM292.8 385.145C292.061 385.145 291.427 384.964 290.897 384.603C290.375 384.233 289.974 383.723 289.693 383.073C289.412 382.415 289.271 381.652 289.271 380.785C289.271 379.918 289.412 379.159 289.693 378.509C289.974 377.85 290.375 377.341 290.897 376.979C291.427 376.61 292.057 376.425 292.788 376.425C293.527 376.425 294.157 376.61 294.679 376.979C295.201 377.341 295.602 377.85 295.883 378.509C296.164 379.159 296.304 379.918 296.304 380.785C296.304 381.652 296.164 382.415 295.883 383.073C295.602 383.723 295.201 384.233 294.679 384.603C294.157 384.964 293.531 385.145 292.8 385.145ZM292.788 384.073C293.229 384.073 293.623 383.94 293.968 383.675C294.313 383.41 294.582 383.033 294.775 382.543C294.976 382.053 295.076 381.467 295.076 380.785C295.076 380.094 294.976 379.508 294.775 379.027C294.582 378.537 294.313 378.164 293.968 377.907C293.623 377.642 293.229 377.509 292.788 377.509C292.346 377.509 291.953 377.642 291.608 377.907C291.262 378.164 290.989 378.537 290.789 379.027C290.596 379.508 290.5 380.094 290.5 380.785C290.5 381.467 290.596 382.053 290.789 382.543C290.989 383.033 291.262 383.41 291.608 383.675C291.953 383.94 292.346 384.073 292.788 384.073ZM297.77 385.06C297.545 385.06 297.356 384.988 297.204 384.843C297.059 384.691 296.987 384.51 296.987 384.302C296.987 384.085 297.059 383.904 297.204 383.76C297.356 383.607 297.545 383.531 297.77 383.531C298.003 383.531 298.191 383.607 298.336 383.76C298.48 383.904 298.553 384.085 298.553 384.302C298.553 384.51 298.48 384.691 298.336 384.843C298.191 384.988 298.003 385.06 297.77 385.06ZM302.728 385.145C302.19 385.145 301.696 385.048 301.247 384.855C300.805 384.655 300.452 384.358 300.187 383.964C299.93 383.563 299.794 383.061 299.778 382.459H300.982C300.99 382.764 301.062 383.041 301.199 383.29C301.335 383.539 301.532 383.739 301.789 383.892C302.054 384.037 302.367 384.109 302.728 384.109C303.089 384.109 303.391 384.041 303.631 383.904C303.88 383.768 304.065 383.583 304.185 383.35C304.314 383.117 304.378 382.856 304.378 382.567C304.378 382.214 304.29 381.925 304.113 381.7C303.945 381.475 303.712 381.307 303.415 381.194C303.126 381.082 302.8 381.026 302.439 381.026H301.813V380.026H302.439C302.953 380.026 303.362 379.91 303.668 379.677C303.973 379.436 304.125 379.103 304.125 378.677C304.125 378.324 304.005 378.035 303.764 377.81C303.531 377.577 303.186 377.461 302.728 377.461C302.271 377.461 301.909 377.59 301.644 377.846C301.379 378.103 301.231 378.429 301.199 378.822H299.994C300.019 378.348 300.147 377.931 300.38 377.569C300.613 377.2 300.93 376.919 301.331 376.726C301.733 376.526 302.198 376.425 302.728 376.425C303.298 376.425 303.772 376.526 304.149 376.726C304.535 376.919 304.824 377.18 305.016 377.509C305.217 377.838 305.317 378.2 305.317 378.593C305.317 378.89 305.261 379.171 305.149 379.436C305.036 379.693 304.876 379.914 304.667 380.098C304.458 380.283 304.201 380.416 303.896 380.496C304.218 380.552 304.503 380.677 304.751 380.869C305.008 381.054 305.209 381.291 305.354 381.58C305.506 381.869 305.582 382.202 305.582 382.579C305.582 383.037 305.474 383.463 305.257 383.856C305.04 384.241 304.719 384.554 304.294 384.795C303.876 385.028 303.354 385.145 302.728 385.145Z" fill="#E78186"/>
<path d="M387.891 388.881V387.869H392.757V388.881H387.891ZM397.8 392.145C397.061 392.145 396.427 391.964 395.897 391.603C395.375 391.233 394.974 390.723 394.693 390.073C394.412 389.415 394.271 388.652 394.271 387.785C394.271 386.918 394.412 386.159 394.693 385.509C394.974 384.85 395.375 384.341 395.897 383.979C396.427 383.61 397.057 383.425 397.788 383.425C398.527 383.425 399.157 383.61 399.679 383.979C400.201 384.341 400.602 384.85 400.883 385.509C401.164 386.159 401.304 386.918 401.304 387.785C401.304 388.652 401.164 389.415 400.883 390.073C400.602 390.723 400.201 391.233 399.679 391.603C399.157 391.964 398.531 392.145 397.8 392.145ZM397.788 391.073C398.229 391.073 398.623 390.94 398.968 390.675C399.313 390.41 399.582 390.033 399.775 389.543C399.976 389.053 400.076 388.467 400.076 387.785C400.076 387.094 399.976 386.508 399.775 386.027C399.582 385.537 399.313 385.164 398.968 384.907C398.623 384.642 398.229 384.509 397.788 384.509C397.346 384.509 396.953 384.642 396.608 384.907C396.262 385.164 395.989 385.537 395.789 386.027C395.596 386.508 395.5 387.094 395.5 387.785C395.5 388.467 395.596 389.053 395.789 389.543C395.989 390.033 396.262 390.41 396.608 390.675C396.953 390.94 397.346 391.073 397.788 391.073ZM402.77 392.06C402.545 392.06 402.356 391.988 402.204 391.843C402.059 391.691 401.987 391.51 401.987 391.302C401.987 391.085 402.059 390.904 402.204 390.76C402.356 390.607 402.545 390.531 402.77 390.531C403.003 390.531 403.191 390.607 403.336 390.76C403.48 390.904 403.553 391.085 403.553 391.302C403.553 391.51 403.48 391.691 403.336 391.843C403.191 391.988 403.003 392.06 402.77 392.06ZM407.921 392.145C407.335 392.145 406.829 392.04 406.403 391.831C405.978 391.623 405.641 391.342 405.392 390.988C405.151 390.627 405.006 390.218 404.958 389.76H406.126C406.215 390.153 406.411 390.479 406.717 390.735C407.03 390.992 407.435 391.121 407.933 391.121C408.294 391.121 408.603 391.037 408.86 390.868C409.125 390.691 409.326 390.454 409.462 390.157C409.607 389.86 409.679 389.531 409.679 389.17C409.679 388.793 409.607 388.463 409.462 388.182C409.326 387.893 409.129 387.673 408.872 387.52C408.615 387.359 408.314 387.279 407.969 387.279C407.552 387.279 407.194 387.367 406.897 387.544C406.608 387.721 406.391 387.946 406.247 388.218H405.079L405.753 383.57H410.317V384.618H406.668L406.247 387.002C406.44 386.785 406.696 386.609 407.018 386.472C407.347 386.336 407.72 386.268 408.138 386.268C408.563 386.268 408.941 386.344 409.27 386.496C409.607 386.649 409.892 386.858 410.125 387.123C410.358 387.379 410.534 387.685 410.655 388.038C410.783 388.383 410.847 388.752 410.847 389.146C410.847 389.563 410.779 389.957 410.643 390.326C410.506 390.687 410.309 391.004 410.052 391.277C409.804 391.55 409.499 391.763 409.137 391.916C408.776 392.068 408.37 392.145 407.921 392.145Z" fill="#E78186"/>
<path d="M487.891 396.881V395.869H492.757V396.881H487.891ZM497.8 400.145C497.061 400.145 496.427 399.964 495.897 399.603C495.375 399.233 494.974 398.723 494.693 398.073C494.412 397.415 494.271 396.652 494.271 395.785C494.271 394.918 494.412 394.159 494.693 393.509C494.974 392.85 495.375 392.341 495.897 391.979C496.427 391.61 497.057 391.425 497.788 391.425C498.527 391.425 499.157 391.61 499.679 391.979C500.201 392.341 500.602 392.85 500.883 393.509C501.164 394.159 501.304 394.918 501.304 395.785C501.304 396.652 501.164 397.415 500.883 398.073C500.602 398.723 500.201 399.233 499.679 399.603C499.157 399.964 498.531 400.145 497.8 400.145ZM497.788 399.073C498.229 399.073 498.623 398.94 498.968 398.675C499.313 398.41 499.582 398.033 499.775 397.543C499.976 397.053 500.076 396.467 500.076 395.785C500.076 395.094 499.976 394.508 499.775 394.027C499.582 393.537 499.313 393.164 498.968 392.907C498.623 392.642 498.229 392.509 497.788 392.509C497.346 392.509 496.953 392.642 496.608 392.907C496.262 393.164 495.989 393.537 495.789 394.027C495.596 394.508 495.5 395.094 495.5 395.785C495.5 396.467 495.596 397.053 495.789 397.543C495.989 398.033 496.262 398.41 496.608 398.675C496.953 398.94 497.346 399.073 497.788 399.073ZM502.77 400.06C502.545 400.06 502.356 399.988 502.204 399.843C502.059 399.691 501.987 399.51 501.987 399.302C501.987 399.085 502.059 398.904 502.204 398.76C502.356 398.607 502.545 398.531 502.77 398.531C503.003 398.531 503.191 398.607 503.336 398.76C503.48 398.904 503.553 399.085 503.553 399.302C503.553 399.51 503.48 399.691 503.336 399.843C503.191 399.988 503.003 400.06 502.77 400.06ZM507.849 400.145C507.303 400.145 506.809 400.044 506.367 399.843C505.926 399.635 505.572 399.346 505.308 398.976C505.051 398.607 504.922 398.177 504.922 397.688C504.922 397.343 504.986 397.025 505.115 396.736C505.243 396.439 505.42 396.182 505.645 395.966C505.878 395.749 506.151 395.592 506.464 395.496C506.046 395.327 505.717 395.078 505.476 394.749C505.243 394.42 505.127 394.059 505.127 393.665C505.127 393.256 505.235 392.883 505.452 392.545C505.669 392.208 505.978 391.939 506.379 391.738C506.789 391.53 507.279 391.425 507.849 391.425C508.427 391.425 508.916 391.53 509.318 391.738C509.727 391.939 510.036 392.208 510.245 392.545C510.462 392.883 510.57 393.256 510.57 393.665C510.57 394.059 510.45 394.424 510.209 394.761C509.976 395.09 509.655 395.335 509.246 395.496C509.559 395.592 509.828 395.749 510.052 395.966C510.285 396.182 510.466 396.439 510.594 396.736C510.723 397.025 510.787 397.343 510.787 397.688C510.787 398.177 510.655 398.607 510.39 398.976C510.133 399.346 509.784 399.635 509.342 399.843C508.9 400.044 508.403 400.145 507.849 400.145ZM507.849 399.109C508.427 399.109 508.86 398.972 509.149 398.699C509.446 398.418 509.595 398.053 509.595 397.603C509.595 397.098 509.434 396.712 509.113 396.447C508.8 396.182 508.379 396.05 507.849 396.05C507.327 396.05 506.905 396.182 506.584 396.447C506.271 396.712 506.114 397.098 506.114 397.603C506.114 398.053 506.259 398.418 506.548 398.699C506.845 398.972 507.279 399.109 507.849 399.109ZM507.849 395.098C508.314 395.098 508.684 394.974 508.957 394.725C509.23 394.476 509.366 394.159 509.366 393.774C509.366 393.332 509.23 392.999 508.957 392.774C508.692 392.549 508.322 392.437 507.849 392.437C507.383 392.437 507.014 392.549 506.741 392.774C506.476 392.999 506.343 393.332 506.343 393.774C506.343 394.159 506.48 394.476 506.753 394.725C507.026 394.974 507.391 395.098 507.849 395.098Z" fill="#E78186"/>
<path d="M589.891 401.881V400.869H594.757V401.881H589.891ZM597.68 405V397.931L596.103 398.388V397.449L598.126 396.57H598.909V405H597.68Z" fill="#E78186"/>
<path d="M288.577 256.145C288.039 256.145 287.545 256.048 287.095 255.855C286.654 255.655 286.301 255.358 286.036 254.964C285.779 254.563 285.642 254.061 285.626 253.459H286.831C286.839 253.764 286.911 254.041 287.047 254.29C287.184 254.539 287.381 254.739 287.637 254.892C287.902 255.037 288.215 255.109 288.577 255.109C288.938 255.109 289.239 255.041 289.48 254.904C289.729 254.768 289.914 254.583 290.034 254.35C290.162 254.117 290.227 253.856 290.227 253.567C290.227 253.214 290.138 252.925 289.962 252.7C289.793 252.475 289.56 252.307 289.263 252.194C288.974 252.082 288.649 252.026 288.288 252.026H287.662V251.026H288.288C288.802 251.026 289.211 250.91 289.516 250.677C289.821 250.436 289.974 250.103 289.974 249.677C289.974 249.324 289.853 249.035 289.612 248.81C289.38 248.577 289.034 248.461 288.577 248.461C288.119 248.461 287.758 248.59 287.493 248.846C287.228 249.103 287.079 249.429 287.047 249.822H285.843C285.867 249.348 285.996 248.931 286.228 248.569C286.461 248.2 286.778 247.919 287.18 247.726C287.581 247.526 288.047 247.425 288.577 247.425C289.147 247.425 289.621 247.526 289.998 247.726C290.383 247.919 290.672 248.18 290.865 248.509C291.066 248.838 291.166 249.2 291.166 249.593C291.166 249.89 291.11 250.171 290.997 250.436C290.885 250.693 290.724 250.914 290.516 251.098C290.307 251.283 290.05 251.416 289.745 251.496C290.066 251.552 290.351 251.677 290.6 251.869C290.857 252.054 291.058 252.291 291.202 252.58C291.355 252.869 291.431 253.202 291.431 253.579C291.431 254.037 291.323 254.463 291.106 254.856C290.889 255.241 290.568 255.554 290.142 255.795C289.725 256.028 289.203 256.145 288.577 256.145ZM293.583 256.06C293.358 256.06 293.169 255.988 293.017 255.843C292.872 255.691 292.8 255.51 292.8 255.302C292.8 255.085 292.872 254.904 293.017 254.76C293.169 254.607 293.358 254.531 293.583 254.531C293.815 254.531 294.004 254.607 294.149 254.76C294.293 254.904 294.365 255.085 294.365 255.302C294.365 255.51 294.293 255.691 294.149 255.843C294.004 255.988 293.815 256.06 293.583 256.06ZM298.734 256.145C298.148 256.145 297.642 256.04 297.216 255.831C296.791 255.623 296.453 255.342 296.205 254.988C295.964 254.627 295.819 254.218 295.771 253.76H296.939C297.028 254.153 297.224 254.479 297.529 254.735C297.842 254.992 298.248 255.121 298.746 255.121C299.107 255.121 299.416 255.037 299.673 254.868C299.938 254.691 300.139 254.454 300.275 254.157C300.42 253.86 300.492 253.531 300.492 253.17C300.492 252.793 300.42 252.463 300.275 252.182C300.139 251.893 299.942 251.673 299.685 251.52C299.428 251.359 299.127 251.279 298.782 251.279C298.364 251.279 298.007 251.367 297.71 251.544C297.421 251.721 297.204 251.946 297.06 252.218H295.891L296.566 247.57H301.13V248.618H297.481L297.06 251.002C297.252 250.785 297.509 250.609 297.83 250.472C298.16 250.336 298.533 250.268 298.95 250.268C299.376 250.268 299.753 250.344 300.082 250.496C300.42 250.649 300.705 250.858 300.938 251.123C301.17 251.379 301.347 251.685 301.467 252.038C301.596 252.383 301.66 252.752 301.66 253.146C301.66 253.563 301.592 253.957 301.455 254.326C301.319 254.687 301.122 255.004 300.865 255.277C300.616 255.55 300.311 255.763 299.95 255.916C299.589 256.068 299.183 256.145 298.734 256.145Z" fill="#F9E5E6"/>
<path d="M390.769 200.145C390.183 200.145 389.678 200.04 389.252 199.831C388.827 199.623 388.489 199.342 388.24 198.988C388 198.627 387.855 198.218 387.807 197.76H388.975C389.063 198.153 389.26 198.479 389.565 198.735C389.878 198.992 390.284 199.121 390.782 199.121C391.143 199.121 391.452 199.037 391.709 198.868C391.974 198.691 392.174 198.454 392.311 198.157C392.455 197.86 392.528 197.531 392.528 197.17C392.528 196.793 392.455 196.463 392.311 196.182C392.174 195.893 391.978 195.673 391.721 195.52C391.464 195.359 391.163 195.279 390.818 195.279C390.4 195.279 390.043 195.367 389.746 195.544C389.457 195.721 389.24 195.946 389.095 196.218H387.927L388.602 191.57H393.166V192.618H389.517L389.095 195.002C389.288 194.785 389.545 194.609 389.866 194.472C390.195 194.336 390.569 194.268 390.986 194.268C391.412 194.268 391.789 194.344 392.118 194.496C392.455 194.649 392.741 194.858 392.973 195.123C393.206 195.379 393.383 195.685 393.503 196.038C393.632 196.383 393.696 196.752 393.696 197.146C393.696 197.563 393.628 197.957 393.491 198.326C393.355 198.687 393.158 199.004 392.901 199.277C392.652 199.55 392.347 199.763 391.986 199.916C391.625 200.068 391.219 200.145 390.769 200.145ZM395.771 200.06C395.546 200.06 395.357 199.988 395.205 199.843C395.06 199.691 394.988 199.51 394.988 199.302C394.988 199.085 395.06 198.904 395.205 198.76C395.357 198.607 395.546 198.531 395.771 198.531C396.004 198.531 396.192 198.607 396.337 198.76C396.481 198.904 396.553 199.085 396.553 199.302C396.553 199.51 396.481 199.691 396.337 199.843C396.192 199.988 396.004 200.06 395.771 200.06ZM400.922 200.145C400.336 200.145 399.83 200.04 399.404 199.831C398.979 199.623 398.642 199.342 398.393 198.988C398.152 198.627 398.007 198.218 397.959 197.76H399.127C399.216 198.153 399.412 198.479 399.718 198.735C400.031 198.992 400.436 199.121 400.934 199.121C401.295 199.121 401.604 199.037 401.861 198.868C402.126 198.691 402.327 198.454 402.463 198.157C402.608 197.86 402.68 197.531 402.68 197.17C402.68 196.793 402.608 196.463 402.463 196.182C402.327 195.893 402.13 195.673 401.873 195.52C401.616 195.359 401.315 195.279 400.97 195.279C400.552 195.279 400.195 195.367 399.898 195.544C399.609 195.721 399.392 195.946 399.248 196.218H398.08L398.754 191.57H403.318V192.618H399.669L399.248 195.002C399.441 194.785 399.697 194.609 400.019 194.472C400.348 194.336 400.721 194.268 401.139 194.268C401.564 194.268 401.941 194.344 402.271 194.496C402.608 194.649 402.893 194.858 403.126 195.123C403.359 195.379 403.535 195.685 403.656 196.038C403.784 196.383 403.848 196.752 403.848 197.146C403.848 197.563 403.78 197.957 403.644 198.326C403.507 198.687 403.31 199.004 403.053 199.277C402.805 199.55 402.499 199.763 402.138 199.916C401.777 200.068 401.371 200.145 400.922 200.145Z" fill="#F9E5E6"/>
<path d="M491.65 145L494.793 137.606H490.337V136.57H496.034V137.449L492.914 145H491.65ZM497.136 145.06C496.911 145.06 496.722 144.988 496.57 144.843C496.425 144.691 496.353 144.51 496.353 144.302C496.353 144.085 496.425 143.904 496.57 143.76C496.722 143.607 496.911 143.531 497.136 143.531C497.369 143.531 497.557 143.607 497.702 143.76C497.846 143.904 497.919 144.085 497.919 144.302C497.919 144.51 497.846 144.691 497.702 144.843C497.557 144.988 497.369 145.06 497.136 145.06ZM502.287 145.145C501.701 145.145 501.195 145.04 500.77 144.831C500.344 144.623 500.007 144.342 499.758 143.988C499.517 143.627 499.373 143.218 499.324 142.76H500.493C500.581 143.153 500.778 143.479 501.083 143.735C501.396 143.992 501.801 144.121 502.299 144.121C502.66 144.121 502.97 144.037 503.226 143.868C503.491 143.691 503.692 143.454 503.829 143.157C503.973 142.86 504.045 142.531 504.045 142.17C504.045 141.793 503.973 141.463 503.829 141.182C503.692 140.893 503.495 140.673 503.238 140.52C502.982 140.359 502.68 140.279 502.335 140.279C501.918 140.279 501.56 140.367 501.263 140.544C500.974 140.721 500.758 140.946 500.613 141.218H499.445L500.119 136.57H504.684V137.618H501.035L500.613 140.002C500.806 139.785 501.063 139.609 501.384 139.472C501.713 139.336 502.086 139.268 502.504 139.268C502.929 139.268 503.307 139.344 503.636 139.496C503.973 139.649 504.258 139.858 504.491 140.123C504.724 140.379 504.9 140.685 505.021 141.038C505.149 141.383 505.214 141.752 505.214 142.146C505.214 142.563 505.145 142.957 505.009 143.326C504.872 143.687 504.676 144.004 504.419 144.277C504.17 144.55 503.865 144.763 503.503 144.916C503.142 145.068 502.737 145.145 502.287 145.145Z" fill="#F9E5E6"/>
<path d="M596.649 104.145C596.103 104.145 595.633 104.04 595.24 103.831C594.855 103.615 594.55 103.334 594.325 102.988C594.108 102.635 593.971 102.254 593.915 101.844H595.035C595.116 102.254 595.296 102.571 595.577 102.796C595.866 103.012 596.228 103.121 596.661 103.121C597.063 103.121 597.412 103.004 597.709 102.772C598.014 102.531 598.255 102.169 598.431 101.688C598.616 101.198 598.724 100.584 598.757 99.8452C598.757 99.813 598.757 99.7809 598.757 99.7488C598.757 99.7167 598.757 99.6846 598.757 99.6525C598.636 99.8933 598.464 100.118 598.239 100.327C598.022 100.528 597.761 100.688 597.456 100.809C597.151 100.921 596.818 100.977 596.456 100.977C595.991 100.977 595.549 100.869 595.132 100.652C594.722 100.427 594.389 100.11 594.132 99.7006C593.883 99.2912 593.759 98.8135 593.759 98.2675C593.759 97.7778 593.875 97.3161 594.108 96.8826C594.349 96.449 594.682 96.0998 595.108 95.8348C595.541 95.5619 596.051 95.4254 596.637 95.4254C597.247 95.4254 597.761 95.5418 598.178 95.7746C598.604 95.9994 598.941 96.3045 599.19 96.6899C599.447 97.0753 599.632 97.5088 599.744 97.9905C599.856 98.4723 599.913 98.966 599.913 99.4718C599.913 100.395 599.784 101.21 599.527 101.917C599.27 102.615 598.897 103.161 598.407 103.554C597.926 103.948 597.339 104.145 596.649 104.145ZM596.721 99.9535C597.058 99.9535 597.364 99.8773 597.637 99.7247C597.91 99.5722 598.122 99.3634 598.275 99.0985C598.435 98.8335 598.516 98.5365 598.516 98.2073C598.516 97.8701 598.435 97.569 598.275 97.3041C598.122 97.0391 597.91 96.8344 597.637 96.6899C597.364 96.5454 597.054 96.4731 596.709 96.4731C596.38 96.4731 596.079 96.5494 595.806 96.7019C595.541 96.8465 595.332 97.0512 595.18 97.3161C595.027 97.573 594.951 97.8741 594.951 98.2194C594.951 98.5646 595.027 98.8697 595.18 99.1346C595.332 99.3915 595.541 99.5923 595.806 99.7368C596.079 99.8813 596.384 99.9535 596.721 99.9535Z" fill="#F9E5E6"/>
</g>
<circle cx="244.486" cy="44.9997" r="4.01434" fill="#F9E5E6"/>
<path d="M256.3 50V41.1343H253.364V40.1649H260.417V41.1343H257.48V50H256.3ZM263.729 50.1686C263.073 50.1686 262.487 50.0141 261.972 49.7049C261.457 49.3958 261.05 48.965 260.75 48.4123C260.46 47.8597 260.314 47.2087 260.314 46.4594C260.314 45.71 260.46 45.059 260.75 44.5064C261.04 43.9537 261.443 43.5276 261.958 43.2278C262.483 42.9187 263.082 42.7642 263.757 42.7642C264.45 42.7642 265.04 42.9187 265.527 43.2278C266.014 43.5276 266.384 43.9303 266.637 44.4361C266.899 44.9419 267.03 45.4899 267.03 46.08C267.03 46.1737 267.03 46.272 267.03 46.3751C267.03 46.4781 267.026 46.5952 267.016 46.7263H261.2V45.813H265.864C265.836 45.1667 265.621 44.6656 265.218 44.3097C264.824 43.9444 264.328 43.7617 263.729 43.7617C263.335 43.7617 262.965 43.8507 262.619 44.0287C262.272 44.2066 261.991 44.4736 261.776 44.8295C261.569 45.1761 261.466 45.6117 261.466 46.1362V46.5296C261.466 47.1197 261.574 47.6115 261.79 48.0049C262.005 48.3889 262.281 48.6793 262.619 48.876C262.965 49.0727 263.335 49.171 263.729 49.171C264.225 49.171 264.632 49.0633 264.951 48.8479C265.279 48.6231 265.518 48.3187 265.667 47.9346H266.834C266.712 48.3655 266.51 48.7495 266.229 49.0867C265.948 49.4146 265.597 49.6768 265.176 49.8735C264.764 50.0703 264.281 50.1686 263.729 50.1686ZM271.335 50.1686C270.763 50.1686 270.258 50.0749 269.817 49.8876C269.377 49.6909 269.026 49.4146 268.764 49.0586C268.511 48.7027 268.351 48.2859 268.286 47.8082H269.494C269.55 48.0517 269.653 48.2812 269.803 48.4966C269.953 48.7027 270.155 48.8666 270.407 48.9884C270.67 49.1102 270.983 49.171 271.349 49.171C271.686 49.171 271.962 49.1242 272.178 49.0305C272.393 48.9275 272.552 48.7917 272.655 48.6231C272.758 48.4545 272.81 48.2718 272.81 48.0751C272.81 47.7848 272.74 47.5646 272.599 47.4148C272.468 47.2649 272.271 47.1478 272.009 47.0635C271.756 46.9792 271.442 46.8996 271.068 46.8247C270.759 46.7685 270.454 46.6935 270.155 46.5999C269.855 46.5062 269.588 46.3844 269.354 46.2346C269.119 46.0847 268.932 45.8973 268.792 45.6725C268.661 45.4384 268.595 45.1574 268.595 44.8295C268.595 44.4268 268.698 44.0708 268.904 43.7617C269.119 43.4432 269.415 43.1997 269.789 43.0311C270.173 42.8531 270.628 42.7642 271.152 42.7642C271.911 42.7642 272.524 42.9468 272.993 43.3121C273.461 43.6774 273.733 44.202 273.808 44.8857H272.641C272.604 44.5298 272.454 44.2535 272.192 44.0568C271.93 43.8601 271.578 43.7617 271.138 43.7617C270.698 43.7617 270.361 43.8507 270.126 44.0287C269.902 44.2066 269.789 44.4408 269.789 44.7312C269.789 44.9185 269.85 45.0871 269.972 45.237C270.103 45.3775 270.295 45.4993 270.548 45.6023C270.801 45.696 271.105 45.7756 271.461 45.8411C271.93 45.9348 272.356 46.0519 272.74 46.1924C273.124 46.3235 273.433 46.5296 273.667 46.8106C273.911 47.0822 274.028 47.471 274.018 47.9768C274.028 48.417 273.92 48.8011 273.695 49.1289C273.48 49.4567 273.171 49.7143 272.768 49.9016C272.365 50.0796 271.887 50.1686 271.335 50.1686ZM278.254 50C277.833 50 277.468 49.9344 277.158 49.8033C276.849 49.6722 276.61 49.452 276.442 49.1429C276.283 48.8245 276.203 48.3983 276.203 47.8644V43.9303L274.981 43.9303V42.9328L276.203 42.9328L276.358 41.2186H277.383V42.9328H279.449V43.9303H277.383V47.8644C277.383 48.3046 277.472 48.6043 277.65 48.7636C277.828 48.9135 278.142 48.9884 278.592 48.9884H279.364V50H278.254ZM284.028 50.1686C283.372 50.1686 282.782 50.0187 282.258 49.719C281.733 49.4099 281.316 48.979 281.007 48.4264C280.707 47.8644 280.558 47.2134 280.558 46.4734C280.558 45.7147 280.712 45.059 281.021 44.5064C281.33 43.9537 281.747 43.5276 282.272 43.2278C282.806 42.9187 283.4 42.7642 284.056 42.7642C284.721 42.7642 285.316 42.9187 285.84 43.2278C286.365 43.5276 286.777 43.9537 287.077 44.5064C287.377 45.059 287.526 45.71 287.526 46.4594C287.526 47.2087 287.372 47.8644 287.063 48.4264C286.763 48.979 286.346 49.4099 285.812 49.719C285.288 50.0187 284.693 50.1686 284.028 50.1686ZM284.042 49.157C284.445 49.157 284.819 49.0586 285.166 48.8619C285.513 48.6559 285.789 48.3514 285.995 47.9487C286.21 47.5459 286.318 47.0495 286.318 46.4594C286.318 45.8599 286.215 45.3634 286.009 44.97C285.803 44.5673 285.527 44.2675 285.18 44.0708C284.834 43.8741 284.459 43.7758 284.056 43.7758C283.663 43.7758 283.288 43.8741 282.932 44.0708C282.585 44.2675 282.304 44.5673 282.089 44.97C281.874 45.3634 281.766 45.8599 281.766 46.4594C281.766 47.0588 281.874 47.56 282.089 47.9627C282.304 48.3561 282.581 48.6559 282.918 48.8619C283.265 49.0586 283.639 49.157 284.042 49.157ZM291.921 50.1686C291.35 50.1686 290.844 50.0749 290.404 49.8876C289.963 49.6909 289.612 49.4146 289.35 49.0586C289.097 48.7027 288.938 48.2859 288.872 47.8082H290.08C290.137 48.0517 290.24 48.2812 290.39 48.4966C290.539 48.7027 290.741 48.8666 290.994 48.9884C291.256 49.1102 291.57 49.171 291.935 49.171C292.272 49.171 292.549 49.1242 292.764 49.0305C292.979 48.9275 293.139 48.7917 293.242 48.6231C293.345 48.4545 293.396 48.2718 293.396 48.0751C293.396 47.7848 293.326 47.5646 293.186 47.4148C293.054 47.2649 292.858 47.1478 292.595 47.0635C292.342 46.9792 292.029 46.8996 291.654 46.8247C291.345 46.7685 291.041 46.6935 290.741 46.5999C290.441 46.5062 290.174 46.3844 289.94 46.2346C289.706 46.0847 289.518 45.8973 289.378 45.6725C289.247 45.4384 289.181 45.1574 289.181 44.8295C289.181 44.4268 289.284 44.0708 289.49 43.7617C289.706 43.4432 290.001 43.1997 290.375 43.0311C290.76 42.8531 291.214 42.7642 291.738 42.7642C292.497 42.7642 293.111 42.9468 293.579 43.3121C294.047 43.6774 294.319 44.202 294.394 44.8857H293.228C293.19 44.5298 293.04 44.2535 292.778 44.0568C292.516 43.8601 292.165 43.7617 291.724 43.7617C291.284 43.7617 290.947 43.8507 290.713 44.0287C290.488 44.2066 290.375 44.4408 290.375 44.7312C290.375 44.9185 290.436 45.0871 290.558 45.237C290.689 45.3775 290.881 45.4993 291.134 45.6023C291.387 45.696 291.692 45.7756 292.047 45.8411C292.516 45.9348 292.942 46.0519 293.326 46.1924C293.71 46.3235 294.019 46.5296 294.253 46.8106C294.497 47.0822 294.614 47.471 294.605 47.9768C294.614 48.417 294.506 48.8011 294.281 49.1289C294.066 49.4567 293.757 49.7143 293.354 49.9016C292.951 50.0796 292.474 50.1686 291.921 50.1686ZM298.841 50C298.419 50 298.054 49.9344 297.745 49.8033C297.436 49.6722 297.197 49.452 297.028 49.1429C296.869 48.8245 296.789 48.3983 296.789 47.8644V43.9303H295.567V42.9328H296.789L296.944 41.2186H297.969V42.9328H300.035V43.9303H297.969V47.8644C297.969 48.3046 298.058 48.6043 298.236 48.7636C298.414 48.9135 298.728 48.9884 299.178 48.9884H299.951V50H298.841ZM304.558 50.1686C303.902 50.1686 303.317 50.0141 302.802 49.7049C302.287 49.3958 301.879 48.965 301.579 48.4123C301.289 47.8597 301.144 47.2087 301.144 46.4594C301.144 45.71 301.289 45.059 301.579 44.5064C301.87 43.9537 302.273 43.5276 302.788 43.2278C303.312 42.9187 303.912 42.7642 304.586 42.7642C305.279 42.7642 305.869 42.9187 306.356 43.2278C306.844 43.5276 307.214 43.9303 307.466 44.4361C307.729 44.9419 307.86 45.4899 307.86 46.08C307.86 46.1737 307.86 46.272 307.86 46.3751C307.86 46.4781 307.855 46.5952 307.846 46.7263H302.029V45.813H306.694C306.666 45.1667 306.45 44.6656 306.047 44.3097C305.654 43.9444 305.158 43.7617 304.558 43.7617C304.165 43.7617 303.795 43.8507 303.448 44.0287C303.101 44.2066 302.82 44.4736 302.605 44.8295C302.399 45.1761 302.296 45.6117 302.296 46.1362V46.5296C302.296 47.1197 302.404 47.6115 302.619 48.0049C302.835 48.3889 303.111 48.6793 303.448 48.876C303.795 49.0727 304.165 49.171 304.558 49.171C305.054 49.171 305.462 49.0633 305.78 48.8479C306.108 48.6231 306.347 48.3187 306.497 47.9346H307.663C307.541 48.3655 307.34 48.7495 307.059 49.0867C306.778 49.4146 306.427 49.6768 306.005 49.8735C305.593 50.0703 305.111 50.1686 304.558 50.1686ZM309.495 50V42.9328H310.563L310.661 44.2816C310.82 43.9537 311.021 43.6774 311.265 43.4526C311.518 43.2278 311.818 43.0592 312.164 42.9468C312.52 42.825 312.918 42.7642 313.358 42.7642V44.0006H312.937C312.637 44.0006 312.352 44.038 312.08 44.113C311.808 44.1879 311.565 44.3144 311.349 44.4923C311.143 44.6703 310.979 44.9138 310.858 45.2229C310.736 45.5227 310.675 45.8973 310.675 46.347V50H309.495ZM317.68 50.1686C317.024 50.1686 316.434 50.0187 315.909 49.719C315.385 49.4099 314.968 48.979 314.659 48.4264C314.359 47.8644 314.209 47.2134 314.209 46.4734C314.209 45.7147 314.364 45.059 314.673 44.5064C314.982 43.9537 315.399 43.5276 315.924 43.2278C316.457 42.9187 317.052 42.7642 317.708 42.7642C318.373 42.7642 318.968 42.9187 319.492 43.2278C320.017 43.5276 320.429 43.9537 320.729 44.5064C321.028 45.059 321.178 45.71 321.178 46.4594C321.178 47.2087 321.024 47.8644 320.715 48.4264C320.415 48.979 319.998 49.4099 319.464 49.719C318.94 50.0187 318.345 50.1686 317.68 50.1686ZM317.694 49.157C318.097 49.157 318.471 49.0586 318.818 48.8619C319.164 48.6559 319.441 48.3514 319.647 47.9487C319.862 47.5459 319.97 47.0495 319.97 46.4594C319.97 45.8599 319.867 45.3634 319.661 44.97C319.455 44.5673 319.178 44.2675 318.832 44.0708C318.485 43.8741 318.111 43.7758 317.708 43.7758C317.314 43.7758 316.94 43.8741 316.584 44.0708C316.237 44.2675 315.956 44.5673 315.741 44.97C315.525 45.3634 315.418 45.8599 315.418 46.4594C315.418 47.0588 315.525 47.56 315.741 47.9627C315.956 48.3561 316.233 48.6559 316.57 48.8619C316.916 49.0586 317.291 49.157 317.694 49.157ZM322.903 50V42.9328H323.971L324.041 44.1551C324.266 43.7243 324.585 43.387 324.997 43.1435C325.418 42.8906 325.896 42.7642 326.43 42.7642C326.983 42.7642 327.46 42.8719 327.863 43.0873C328.266 43.3027 328.58 43.6353 328.804 44.0849C329.029 44.5251 329.142 45.0871 329.142 45.7709V50H327.961V45.8973C327.961 45.1948 327.802 44.6656 327.484 44.3097C327.175 43.9537 326.734 43.7758 326.163 43.7758C325.77 43.7758 325.414 43.8694 325.095 44.0568C324.786 44.2441 324.538 44.5204 324.35 44.8857C324.172 45.251 324.083 45.696 324.083 46.2205V50H322.903ZM334.147 50.1686C333.491 50.1686 332.906 50.0141 332.391 49.7049C331.875 49.3958 331.468 48.965 331.168 48.4123C330.878 47.8597 330.733 47.2087 330.733 46.4594C330.733 45.71 330.878 45.059 331.168 44.5064C331.459 43.9537 331.861 43.5276 332.376 43.2278C332.901 42.9187 333.501 42.7642 334.175 42.7642C334.868 42.7642 335.458 42.9187 335.945 43.2278C336.432 43.5276 336.802 43.9303 337.055 44.4361C337.317 44.9419 337.449 45.4899 337.449 46.08C337.449 46.1737 337.449 46.272 337.449 46.3751C337.449 46.4781 337.444 46.5952 337.435 46.7263H331.618V45.813H336.282C336.254 45.1667 336.039 44.6656 335.636 44.3097C335.243 43.9444 334.746 43.7617 334.147 43.7617C333.753 43.7617 333.383 43.8507 333.037 44.0287C332.69 44.2066 332.409 44.4736 332.194 44.8295C331.988 45.1761 331.885 45.6117 331.885 46.1362V46.5296C331.885 47.1197 331.992 47.6115 332.208 48.0049C332.423 48.3889 332.7 48.6793 333.037 48.876C333.383 49.0727 333.753 49.171 334.147 49.171C334.643 49.171 335.051 49.0633 335.369 48.8479C335.697 48.6231 335.936 48.3187 336.086 47.9346H337.252C337.13 48.3655 336.929 48.7495 336.648 49.0867C336.367 49.4146 336.015 49.6768 335.594 49.8735C335.182 50.0703 334.699 50.1686 334.147 50.1686Z" fill="#F9E5E6"/>
<circle cx="362.514" cy="44.9997" r="4.01434" fill="#E78186"/>
<path d="M371.83 50V40.1649H375.047C375.815 40.1649 376.447 40.296 376.944 40.5583C377.45 40.8112 377.82 41.1531 378.054 41.5839C378.297 42.0148 378.419 42.5066 378.419 43.0592C378.419 43.5931 378.297 44.0802 378.054 44.5204C377.82 44.9513 377.454 45.2979 376.958 45.5601C376.461 45.813 375.825 45.9395 375.047 45.9395H373.01V50H371.83ZM373.01 44.9419H375.019C375.806 44.9419 376.368 44.7733 376.705 44.4361C377.042 44.0896 377.211 43.6306 377.211 43.0592C377.211 42.4504 377.042 41.982 376.705 41.6542C376.368 41.317 375.806 41.1484 375.019 41.1484H373.01V44.9419ZM379.966 50V39.8839H381.146V50H379.966ZM385.483 50.1686C384.911 50.1686 384.434 50.0703 384.05 49.8735C383.665 49.6675 383.38 49.4005 383.192 49.0727C383.005 48.7355 382.911 48.3749 382.911 47.9908C382.911 47.5038 383.033 47.0963 383.277 46.7685C383.53 46.4406 383.881 46.1877 384.331 46.0097C384.789 45.8318 385.323 45.7428 385.932 45.7428H387.815C387.815 45.3026 387.745 44.9373 387.604 44.6469C387.473 44.3471 387.276 44.127 387.014 43.9865C386.761 43.8367 386.443 43.7617 386.059 43.7617C385.609 43.7617 385.22 43.8741 384.893 44.0989C384.565 44.3237 384.363 44.6516 384.288 45.0824H383.08C383.136 44.5766 383.305 44.1551 383.586 43.8179C383.876 43.4713 384.242 43.2091 384.682 43.0311C385.122 42.8531 385.581 42.7642 386.059 42.7642C386.714 42.7642 387.258 42.8859 387.689 43.1295C388.119 43.3636 388.443 43.6962 388.658 44.127C388.883 44.5485 388.995 45.045 388.995 45.6163V50H387.941L387.871 48.7495C387.777 48.9462 387.656 49.1336 387.506 49.3115C387.365 49.4801 387.197 49.63 387 49.7611C386.813 49.8829 386.593 49.9813 386.34 50.0562C386.087 50.1311 385.801 50.1686 385.483 50.1686ZM385.665 49.171C385.993 49.171 386.288 49.1055 386.55 48.9743C386.822 48.8338 387.052 48.6465 387.239 48.4123C387.426 48.1782 387.567 47.9159 387.66 47.6255C387.763 47.3258 387.815 47.0214 387.815 46.7123V46.6561H386.031C385.581 46.6561 385.216 46.7123 384.935 46.8247C384.654 46.9371 384.452 47.0869 384.331 47.2743C384.209 47.4616 384.148 47.6817 384.148 47.9346C384.148 48.1782 384.204 48.3936 384.316 48.5809C384.438 48.7683 384.612 48.9135 384.836 49.0165C385.061 49.1195 385.337 49.171 385.665 49.171ZM394.081 50.1686C393.416 50.1686 392.816 50.0141 392.282 49.7049C391.758 49.3958 391.341 48.965 391.032 48.4123C390.732 47.8503 390.582 47.204 390.582 46.4734C390.582 45.7241 390.732 45.0731 391.032 44.5204C391.341 43.9678 391.758 43.5369 392.282 43.2278C392.816 42.9187 393.416 42.7642 394.081 42.7642C394.924 42.7642 395.626 42.9843 396.188 43.4245C396.75 43.8554 397.106 44.4361 397.256 45.1667H396.048C395.954 44.7265 395.724 44.3846 395.359 44.1411C394.994 43.8975 394.563 43.7758 394.067 43.7758C393.664 43.7758 393.289 43.8788 392.943 44.0849C392.605 44.2816 392.329 44.5813 392.114 44.9841C391.898 45.3775 391.79 45.8692 391.79 46.4594C391.79 46.8996 391.851 47.293 391.973 47.6396C392.104 47.9768 392.273 48.2625 392.479 48.4966C392.685 48.7214 392.924 48.89 393.195 49.0024C393.476 49.1148 393.767 49.171 394.067 49.171C394.404 49.171 394.708 49.1195 394.98 49.0165C395.251 48.9041 395.481 48.7449 395.668 48.5388C395.856 48.3233 395.982 48.0658 396.048 47.766H397.256C397.106 48.4779 396.745 49.0586 396.174 49.5082C395.612 49.9485 394.914 50.1686 394.081 50.1686ZM402.107 50.1686C401.451 50.1686 400.866 50.0141 400.351 49.7049C399.836 49.3958 399.428 48.965 399.128 48.4123C398.838 47.8597 398.693 47.2087 398.693 46.4594C398.693 45.71 398.838 45.059 399.128 44.5064C399.419 43.9537 399.821 43.5276 400.337 43.2278C400.861 42.9187 401.461 42.7642 402.135 42.7642C402.828 42.7642 403.418 42.9187 403.905 43.2278C404.392 43.5276 404.762 43.9303 405.015 44.4361C405.278 44.9419 405.409 45.4899 405.409 46.08C405.409 46.1737 405.409 46.272 405.409 46.3751C405.409 46.4781 405.404 46.5952 405.395 46.7263H399.578V45.813H404.243C404.214 45.1667 403.999 44.6656 403.596 44.3097C403.203 43.9444 402.706 43.7617 402.107 43.7617C401.714 43.7617 401.344 43.8507 400.997 44.0287C400.65 44.2066 400.369 44.4736 400.154 44.8295C399.948 45.1761 399.845 45.6117 399.845 46.1362V46.5296C399.845 47.1197 399.953 47.6115 400.168 48.0049C400.383 48.3889 400.66 48.6793 400.997 48.876C401.344 49.0727 401.714 49.171 402.107 49.171C402.603 49.171 403.011 49.0633 403.329 48.8479C403.657 48.6231 403.896 48.3187 404.046 47.9346H405.212C405.09 48.3655 404.889 48.7495 404.608 49.0867C404.327 49.4146 403.976 49.6768 403.554 49.8735C403.142 50.0703 402.66 50.1686 402.107 50.1686ZM410.767 50.1686C410.364 50.1686 409.999 50.1124 409.671 50C409.353 49.8876 409.072 49.733 408.828 49.5363C408.584 49.3303 408.383 49.0961 408.224 48.8338L408.111 50H407.044V39.8839H408.224V44.0849C408.449 43.7196 408.772 43.4105 409.193 43.1576C409.624 42.8953 410.149 42.7642 410.767 42.7642C411.46 42.7642 412.06 42.9234 412.565 43.2419C413.081 43.5603 413.479 44.0006 413.76 44.5626C414.05 45.1152 414.195 45.7522 414.195 46.4734C414.195 47.1853 414.05 47.8222 413.76 48.3842C413.479 48.9369 413.081 49.3724 412.565 49.6909C412.05 50.0094 411.451 50.1686 410.767 50.1686ZM410.626 49.1429C411.095 49.1429 411.507 49.0352 411.863 48.8198C412.219 48.595 412.495 48.2812 412.692 47.8784C412.898 47.4757 413.001 47.0026 413.001 46.4594C413.001 45.9254 412.898 45.4571 412.692 45.0543C412.495 44.6516 412.219 44.3425 411.863 44.127C411.507 43.9022 411.095 43.7898 410.626 43.7898C410.158 43.7898 409.746 43.9022 409.39 44.127C409.034 44.3425 408.758 44.6516 408.561 45.0543C408.364 45.4571 408.266 45.9254 408.266 46.4594C408.266 47.0026 408.364 47.4757 408.561 47.8784C408.758 48.2812 409.034 48.595 409.39 48.8198C409.746 49.0352 410.158 49.1429 410.626 49.1429ZM419.098 50.1686C418.442 50.1686 417.852 50.0187 417.328 49.719C416.803 49.4099 416.386 48.979 416.077 48.4264C415.777 47.8644 415.628 47.2134 415.628 46.4734C415.628 45.7147 415.782 45.059 416.091 44.5064C416.4 43.9537 416.817 43.5276 417.342 43.2278C417.876 42.9187 418.47 42.7642 419.126 42.7642C419.791 42.7642 420.386 42.9187 420.91 43.2278C421.435 43.5276 421.847 43.9537 422.147 44.5064C422.447 45.059 422.597 45.71 422.597 46.4594C422.597 47.2087 422.442 47.8644 422.133 48.4264C421.833 48.979 421.416 49.4099 420.882 49.719C420.358 50.0187 419.763 50.1686 419.098 50.1686ZM419.112 49.157C419.515 49.157 419.89 49.0586 420.236 48.8619C420.583 48.6559 420.859 48.3514 421.065 47.9487C421.28 47.5459 421.388 47.0495 421.388 46.4594C421.388 45.8599 421.285 45.3634 421.079 44.97C420.873 44.5673 420.597 44.2675 420.25 44.0708C419.904 43.8741 419.529 43.7758 419.126 43.7758C418.733 43.7758 418.358 43.8741 418.002 44.0708C417.656 44.2675 417.375 44.5673 417.159 44.97C416.944 45.3634 416.836 45.8599 416.836 46.4594C416.836 47.0588 416.944 47.56 417.159 47.9627C417.375 48.3561 417.651 48.6559 417.988 48.8619C418.335 49.0586 418.709 49.157 419.112 49.157Z" fill="#F9E5E6"/>
<defs>
<clipPath id="clip0_3931_2828">
<rect width="535" height="381" fill="white" transform="translate(66 62)"/>
</clipPath>
</defs>
</svg>
