<svg width="24" height="25" viewBox="0 0 24 25" fill="none" xmlns="http://www.w3.org/2000/svg">
<path d="M1.46831 12.905C1.17617 13.1987 1.17739 13.6735 1.47103 13.9657C1.76467 14.2578 2.23955 14.2566 2.53169 13.963L2 13.434L1.46831 12.905ZM11.4299 2.58436L11.6314 1.86194V1.86194L11.4299 2.58436ZM13.8166 3.25014L14.0181 2.52772V2.52772L13.8166 3.25014ZM14.8468 3.93407L14.2641 4.40636V4.40636L14.8468 3.93407ZM20.5981 12.8209L19.9155 13.1316V13.1316L20.5981 12.8209ZM8.64297 4.04775L8.09137 3.53958L8.64297 4.04775ZM10.8808 7.23838L10.7586 6.49839L10.7586 6.49839L10.8808 7.23838ZM13.7348 8.55688L14.3297 8.10016L14.3297 8.10016L13.7348 8.55688ZM14.7126 12.1339L13.9672 12.2164V12.2164L14.7126 12.1339ZM15.4636 14.0688L15.0426 14.6894C15.3578 14.9032 15.7832 14.8469 16.0318 14.5583C16.2804 14.2698 16.2733 13.8407 16.0152 13.5606L15.4636 14.0688ZM7.62537 14.7281C7.36867 15.0532 7.4241 15.5248 7.74918 15.7815C8.07426 16.0382 8.54588 15.9828 8.80259 15.6577L8.21398 15.1929L7.62537 14.7281ZM7.60716 5.86638L6.86831 5.99522L7.60716 5.86638ZM21.7782 18.1039L22.4748 18.3818L21.7782 18.1039ZM17.5363 20.7457L17.7709 21.4581L17.5363 20.7457ZM12.461 7.12413L12.7466 6.43062L12.7466 6.43062L12.461 7.12413ZM10.2045 20.8993L10.7429 21.4213L10.7429 21.4213L10.2045 20.8993ZM2.55161 20.3056C2.27096 20.0009 1.79648 19.9815 1.49184 20.2621C1.18719 20.5428 1.16774 21.0173 1.44839 21.3219L2 20.8137L2.55161 20.3056ZM10.3796 20.6545L10.6527 19.956C10.3103 19.8222 9.92146 19.9561 9.7342 20.2724L10.3796 20.6545ZM10.3452 20.7125L9.69988 20.3304L9.69987 20.3304L10.3452 20.7125ZM10.7805 13.3284L11.0097 14.0425L10.7805 13.3284ZM11.4299 2.58436L11.2284 3.30678L13.6151 3.97256L13.8166 3.25014L14.0181 2.52772L11.6314 1.86194L11.4299 2.58436ZM14.8468 3.93407L14.2641 4.40636C16.8503 7.59666 18.5072 10.0375 19.9155 13.1316L20.5981 12.8209L21.2807 12.5103C19.8007 9.25839 18.0602 6.70721 15.4294 3.46179L14.8468 3.93407ZM14.7126 12.1339L13.9672 12.2164C14.0531 12.9918 14.3039 13.9168 14.912 14.5769L15.4636 14.0688L16.0152 13.5606C15.7219 13.2422 15.529 12.692 15.4581 12.0513L14.7126 12.1339ZM13.7348 8.55688L13.1399 9.01361C13.3363 9.26936 13.4727 9.44715 13.5683 9.58001C13.6747 9.7278 13.6855 9.75996 13.6769 9.7383L14.3739 9.46137L15.0709 9.18443C15.0029 9.01332 14.8874 8.84491 14.7857 8.70367C14.6733 8.54748 14.5198 8.34775 14.3297 8.10016L13.7348 8.55688ZM14.7126 12.1339L15.4581 12.0513C15.3652 11.2125 15.2948 10.5762 15.2401 10.1314C15.2128 9.90954 15.1885 9.72743 15.1664 9.58807C15.1495 9.48153 15.1222 9.31369 15.0709 9.18443L14.3739 9.46137L13.6769 9.7383C13.6552 9.68377 13.6618 9.6771 13.6849 9.82285C13.7028 9.93579 13.7246 10.0971 13.7513 10.3144C13.8046 10.748 13.8738 11.3732 13.9672 12.2164L14.7126 12.1339ZM8.64297 4.04775L8.09137 3.53958C7.73115 3.93058 7.39067 4.29597 7.1692 4.64504C6.92063 5.03682 6.77731 5.47334 6.86831 5.99522L7.60716 5.86638L8.34602 5.73754C8.33522 5.67561 8.3306 5.61442 8.43578 5.44864C8.56805 5.24015 8.79638 4.98814 9.19456 4.55593L8.64297 4.04775ZM20.5981 12.8209L19.9155 13.1316C20.5098 14.4374 20.9156 15.3347 21.1163 16.0818C21.3058 16.7871 21.2935 17.2947 21.0816 17.8259L21.7782 18.1039L22.4748 18.3818C22.8348 17.4796 22.8165 16.6288 22.565 15.6926C22.3247 14.7982 21.8545 13.7708 21.2807 12.5103L20.5981 12.8209ZM17.5363 20.7457L17.7709 21.4581C18.9672 21.0642 19.9651 20.7389 20.7252 20.3155C21.534 19.8649 22.115 19.2834 22.4748 18.3818L21.7782 18.1039L21.0816 17.8259C20.8693 18.3578 20.5528 18.6945 19.9952 19.0051C19.3891 19.3428 18.5521 19.6216 17.3018 20.0333L17.5363 20.7457ZM10.8808 7.23838L11.0029 7.97836C11.4565 7.90347 11.7565 7.85442 11.9762 7.83408C12.214 7.81206 12.2291 7.83972 12.1755 7.81765L12.461 7.12413L12.7466 6.43062C12.4387 6.30387 12.1057 6.31568 11.8379 6.34047C11.552 6.36693 11.189 6.42734 10.7586 6.49839L10.8808 7.23838ZM10.2045 20.8993L9.66601 20.3772C8.78632 21.2845 7.45789 21.7625 6.08976 21.7498C4.72178 21.7371 3.40767 21.2348 2.55161 20.3056L2 20.8137L1.44839 21.3219C2.63705 22.6122 4.37689 23.2339 6.07583 23.2497C7.77461 23.2655 9.52605 22.6764 10.7429 21.4213L10.2045 20.8993ZM17.5363 20.7457L17.3018 20.0333C14.9701 20.801 12.9937 20.8713 10.6527 19.956L10.3796 20.6545L10.1065 21.353C12.8231 22.4152 15.1635 22.3166 17.7709 21.4581L17.5363 20.7457ZM10.3452 20.7125L10.9906 21.0946L11.0249 21.0366L10.3796 20.6545L9.7342 20.2724L9.69988 20.3304L10.3452 20.7125ZM10.2045 20.8993L10.7429 21.4213C10.8447 21.3164 10.9258 21.204 10.9906 21.0946L10.3452 20.7125L9.69987 20.3304C9.68498 20.3556 9.67301 20.37 9.66601 20.3772L10.2045 20.8993ZM15.4636 14.0688L15.8847 13.4481C14.8287 12.7317 12.7229 11.9173 10.5513 12.6143L10.7805 13.3284L11.0097 14.0425C12.5961 13.5333 14.2204 14.1316 15.0426 14.6894L15.4636 14.0688ZM10.7805 13.3284L10.5513 12.6143C9.51721 12.9462 8.50761 13.6109 7.62537 14.7281L8.21398 15.1929L8.80259 15.6577C9.51089 14.7607 10.2756 14.2782 11.0097 14.0425L10.7805 13.3284ZM10.7805 13.3284L11.2951 12.7828C9.99592 11.5575 8.14444 10.9901 6.35636 11.0093C4.5684 11.0284 2.73135 11.6355 1.46831 12.905L2 13.434L2.53169 13.963C3.4553 13.0346 4.8807 12.5252 6.37243 12.5092C7.86404 12.4932 9.30947 12.972 10.2659 13.874L10.7805 13.3284ZM12.461 7.12413L12.1755 7.81765C12.2532 7.84966 12.3814 7.95173 12.5717 8.20374C12.6604 8.32108 12.7461 8.44782 12.8411 8.58885C12.9311 8.72226 13.0344 8.87607 13.1399 9.01361L13.7348 8.55688L14.3297 8.10016C14.2578 8.00649 14.1816 7.89379 14.085 7.75044C13.9935 7.61471 13.8856 7.45445 13.7686 7.29959C13.5477 7.0072 13.2165 6.6241 12.7466 6.43062L12.461 7.12413ZM13.8166 3.25014L13.6151 3.97256C13.7743 4.01696 13.8637 4.04254 13.9292 4.06547C13.9586 4.07573 13.9747 4.08263 13.9831 4.08658C13.9871 4.08846 13.9893 4.08965 13.9902 4.09014C13.9906 4.0904 13.9909 4.09055 13.991 4.09061C13.991 4.09064 13.991 4.09065 13.9911 4.09066C13.9911 4.09067 13.9911 4.09067 13.9911 4.09067C13.9911 4.09068 13.9911 4.09069 13.9911 4.09071C13.9912 4.09074 13.9912 4.09078 13.9913 4.09085C13.9915 4.09099 13.9919 4.09127 13.9925 4.09175C13.9937 4.09268 13.9962 4.09467 14.0001 4.09822C14.0084 4.10563 14.0225 4.11923 14.0451 4.14391C14.0949 4.19839 14.157 4.27426 14.2641 4.40636L14.8468 3.93407L15.4294 3.46179C15.2523 3.24335 15.0687 3.0058 14.8214 2.84143C14.5703 2.67456 14.2815 2.60119 14.0181 2.52772L13.8166 3.25014ZM11.4299 2.58436L11.6314 1.86194C10.7227 1.60844 10.0004 1.80859 9.4067 2.22867C8.89478 2.59088 8.43994 3.16123 8.09137 3.53958L8.64297 4.04775L9.19456 4.55593C9.66748 4.0426 9.93331 3.69357 10.2731 3.45316C10.5311 3.27063 10.7915 3.18492 11.2284 3.30678L11.4299 2.58436ZM7.60716 5.86638L6.86831 5.99522C7.05234 7.05053 7.99714 7.56432 8.73589 7.79409C9.51379 8.03604 10.3962 8.07853 11.0029 7.97836L10.8808 7.23838L10.7586 6.49839C10.3882 6.55954 9.74193 6.53612 9.18137 6.36177C8.58167 6.17525 8.37825 5.92238 8.34602 5.73754L7.60716 5.86638Z" fill="#E78186"/>
</svg>
