<svg width="164" height="49" viewBox="0 0 164 49" fill="none" xmlns="http://www.w3.org/2000/svg">
<g clip-path="url(#clip0_4157_9541)">
<path d="M157.155 0.337891H7.15503C3.84132 0.337891 1.15503 3.02418 1.15503 6.33789V42.3379C1.15503 45.6516 3.84132 48.3379 7.15503 48.3379H157.155C160.469 48.3379 163.155 45.6516 163.155 42.3379V6.33789C163.155 3.02418 160.469 0.337891 157.155 0.337891Z" fill="black"/>
<path d="M157.155 1.29789C159.939 1.29789 162.195 3.55389 162.195 6.33789V42.3379C162.195 45.1219 159.939 47.3779 157.155 47.3779H7.15503C4.37103 47.3779 2.11503 45.1219 2.11503 42.3379V6.33789C2.11503 3.55389 4.37103 1.29789 7.15503 1.29789H157.155ZM157.155 0.337891H7.15503C3.85503 0.337891 1.15503 3.03789 1.15503 6.33789V42.3379C1.15503 45.6379 3.85503 48.3379 7.15503 48.3379H157.155C160.455 48.3379 163.155 45.6379 163.155 42.3379V6.33789C163.155 3.03789 160.455 0.337891 157.155 0.337891Z" fill="#A6A6A6"/>
<path d="M58.0591 12.626C58.0591 13.634 57.7591 14.438 57.1591 15.026C56.4871 15.734 55.5991 16.094 54.5191 16.094C53.4391 16.094 52.5991 15.734 51.8671 15.014C51.1351 14.294 50.7751 13.394 50.7751 12.338C50.7751 11.282 51.1351 10.382 51.8671 9.66203C52.5991 8.94203 53.4751 8.58203 54.5191 8.58203C55.0351 8.58203 55.5271 8.67803 55.9951 8.88203C56.4631 9.08603 56.8351 9.35003 57.1231 9.68603L56.4871 10.322C56.0071 9.75803 55.3591 9.47003 54.5191 9.47003C53.7631 9.47003 53.1032 9.73403 52.5512 10.274C51.9992 10.802 51.7231 11.498 51.7231 12.35C51.7231 13.202 51.9992 13.898 52.5512 14.426C53.1032 14.954 53.7631 15.23 54.5191 15.23C55.3231 15.23 55.9951 14.966 56.5351 14.426C56.8831 14.078 57.0871 13.586 57.1351 12.962H54.5191V12.098H58.0111C58.0471 12.29 58.0591 12.47 58.0591 12.638V12.626Z" fill="white" stroke="white" stroke-width="0.2" stroke-miterlimit="10"/>
<path d="M63.5911 9.62628H60.3151V11.9063H63.2671V12.7703H60.3151V15.0503H63.5911V15.9383H59.3911V8.73828H63.5911V9.62628Z" fill="white" stroke="white" stroke-width="0.2" stroke-miterlimit="10"/>
<path d="M67.4913 15.9383H66.5673V9.62628H64.5513V8.73828H69.4953V9.62628H67.4793V15.9383H67.4913Z" fill="white" stroke="white" stroke-width="0.2" stroke-miterlimit="10"/>
<path d="M73.0833 15.9383V8.73828H74.0072V15.9383H73.0833Z" fill="white" stroke="white" stroke-width="0.2" stroke-miterlimit="10"/>
<path d="M78.1111 15.9383H77.1871V9.62628H75.1711V8.73828H80.1151V9.62628H78.0991V15.9383H78.1111Z" fill="white" stroke="white" stroke-width="0.2" stroke-miterlimit="10"/>
<path d="M89.4871 15.002C88.7791 15.734 87.9031 16.094 86.8471 16.094C85.7911 16.094 84.9151 15.734 84.2071 15.002C83.4991 14.27 83.1511 13.382 83.1511 12.338C83.1511 11.294 83.4991 10.394 84.2071 9.67403C84.9151 8.94203 85.7911 8.58203 86.8471 8.58203C87.9031 8.58203 88.7671 8.94203 89.4871 9.67403C90.1951 10.406 90.5551 11.294 90.5551 12.338C90.5551 13.382 90.1951 14.282 89.4991 15.002H89.4871ZM84.8911 14.402C85.4191 14.942 86.0791 15.206 86.8471 15.206C87.6151 15.206 88.2751 14.942 88.8031 14.402C89.3311 13.862 89.6071 13.178 89.6071 12.338C89.6071 11.498 89.3431 10.814 88.8031 10.274C88.2751 9.73403 87.6151 9.47003 86.8471 9.47003C86.0791 9.47003 85.4191 9.73403 84.8911 10.274C84.3631 10.814 84.0871 11.498 84.0871 12.338C84.0871 13.178 84.3511 13.862 84.8911 14.402Z" fill="white" stroke="white" stroke-width="0.2" stroke-miterlimit="10"/>
<path d="M91.8511 15.9383V8.73828H92.9791L96.4831 14.3423H96.5191L96.4831 12.9503V8.73828H97.4071V15.9383H96.4471L92.7871 10.0703H92.7511L92.7871 11.4623V15.9503H91.8631L91.8511 15.9383Z" fill="white" stroke="white" stroke-width="0.2" stroke-miterlimit="10"/>
<path d="M82.9231 26.4379C80.1031 26.4379 77.7991 28.5859 77.7991 31.5379C77.7991 34.4899 80.1031 36.6379 82.9231 36.6379C85.7431 36.6379 88.0471 34.4779 88.0471 31.5379C88.0471 28.5979 85.7431 26.4379 82.9231 26.4379ZM82.9231 34.6339C81.3751 34.6339 80.0431 33.3619 80.0431 31.5379C80.0431 29.7139 81.3751 28.4419 82.9231 28.4419C84.4711 28.4419 85.8031 29.7019 85.8031 31.5379C85.8031 33.3739 84.4711 34.6339 82.9231 34.6339ZM71.7391 26.4379C68.9191 26.4379 66.6151 28.5859 66.6151 31.5379C66.6151 34.4899 68.9191 36.6379 71.7391 36.6379C74.5591 36.6379 76.8631 34.4779 76.8631 31.5379C76.8631 28.5979 74.5591 26.4379 71.7391 26.4379ZM71.7391 34.6339C70.1911 34.6339 68.8591 33.3619 68.8591 31.5379C68.8591 29.7139 70.1911 28.4419 71.7391 28.4419C73.2871 28.4419 74.6191 29.7019 74.6191 31.5379C74.6191 33.3739 73.2871 34.6339 71.7391 34.6339ZM58.4431 28.0099V30.1699H63.6271C63.4711 31.3939 63.0631 32.2819 62.4511 32.8939C61.6951 33.6499 60.5191 34.4779 58.4551 34.4779C55.2631 34.4779 52.7671 31.9099 52.7671 28.7179C52.7671 25.5259 55.2631 22.9579 58.4551 22.9579C60.1711 22.9579 61.4311 23.6299 62.3551 24.5059L63.8791 22.9819C62.5831 21.7459 60.8671 20.7979 58.4431 20.7979C54.0751 20.7979 50.4031 24.3499 50.4031 28.7299C50.4031 33.1099 54.0751 36.6619 58.4431 36.6619C60.8071 36.6619 62.5831 35.8939 63.9751 34.4419C65.4031 33.0139 65.8471 30.9979 65.8471 29.3779C65.8471 28.8739 65.8111 28.4059 65.7271 28.0219H58.4431V28.0099ZM112.815 29.6899C112.395 28.5499 111.099 26.4379 108.447 26.4379C105.795 26.4379 103.635 28.5019 103.635 31.5379C103.635 34.3939 105.795 36.6379 108.699 36.6379C111.039 36.6379 112.395 35.2099 112.947 34.3819L111.207 33.2179C110.631 34.0699 109.839 34.6339 108.699 34.6339C107.559 34.6339 106.743 34.1059 106.227 33.0859L113.055 30.2659L112.827 29.6899H112.815ZM105.855 31.3939C105.795 29.4259 107.379 28.4179 108.519 28.4179C109.407 28.4179 110.163 28.8619 110.415 29.4979L105.855 31.3939ZM100.311 36.3379H102.555V21.3379H100.311V36.3379ZM96.6391 27.5779H96.5671C96.0631 26.9779 95.1031 26.4379 93.8791 26.4379C91.3231 26.4379 88.9831 28.6819 88.9831 31.5619C88.9831 34.4419 91.3231 36.6499 93.8791 36.6499C95.1031 36.6499 96.0631 36.1099 96.5671 35.4859H96.6391V36.2179C96.6391 38.1739 95.5951 39.2179 93.9151 39.2179C92.5471 39.2179 91.6951 38.2339 91.3471 37.4059L89.3911 38.2219C89.9551 39.5779 91.4431 41.2339 93.9151 41.2339C96.5431 41.2339 98.7631 39.6859 98.7631 35.9179V26.7499H96.6391V27.5779ZM94.0591 34.6339C92.5111 34.6339 91.2151 33.3379 91.2151 31.5619C91.2151 29.7859 92.5111 28.4539 94.0591 28.4539C95.6071 28.4539 96.7831 29.7739 96.7831 31.5619C96.7831 33.3499 95.5831 34.6339 94.0591 34.6339ZM123.327 21.3379H117.963V36.3379H120.207V30.6499H123.339C125.823 30.6499 128.259 28.8499 128.259 25.9939C128.259 23.1379 125.823 21.3379 123.339 21.3379H123.327ZM123.375 28.5619H120.195V23.4139H123.375C125.055 23.4139 126.003 24.8059 126.003 25.9819C126.003 27.1579 125.055 28.5499 123.375 28.5499V28.5619ZM137.223 26.4139C135.603 26.4139 133.923 27.1339 133.227 28.7059L135.219 29.5339C135.639 28.7059 136.431 28.4299 137.259 28.4299C138.411 28.4299 139.599 29.1259 139.611 30.3619V30.5179C139.203 30.2899 138.339 29.9419 137.271 29.9419C135.123 29.9419 132.951 31.1179 132.951 33.3139C132.951 35.3179 134.703 36.6139 136.671 36.6139C138.171 36.6139 139.011 35.9419 139.527 35.1499H139.599V36.3139H141.759V30.5659C141.759 27.9019 139.767 26.4139 137.199 26.4139H137.223ZM136.947 34.6339C136.215 34.6339 135.195 34.2619 135.195 33.3619C135.195 32.2099 136.467 31.7659 137.571 31.7659C138.555 31.7659 139.023 31.9819 139.611 32.2699C139.443 33.6619 138.243 34.6459 136.947 34.6459V34.6339ZM149.643 26.7379L147.075 33.2419H147.003L144.339 26.7379H141.927L145.923 35.8339L143.643 40.8859H145.983L152.139 26.7379H149.655H149.643ZM129.483 36.3379H131.727V21.3379H129.483V36.3379Z" fill="white"/>
<path d="M26.0193 23.6419L13.2393 37.2019C13.6353 38.6779 14.9793 39.7579 16.5753 39.7579C17.2113 39.7579 17.8113 39.5899 18.3273 39.2779L18.3633 39.2539L32.7393 30.9619L26.0073 23.6299L26.0193 23.6419Z" fill="#EA4335"/>
<path d="M38.9432 21.3386H38.9312L32.7272 17.7266L25.7312 23.9546L32.7512 30.9746L38.9312 27.4106C40.0112 26.8226 40.7432 25.6826 40.7432 24.3746C40.7432 23.0666 40.0232 21.9266 38.9432 21.3506V21.3386Z" fill="#FBBC04"/>
<path d="M13.2391 11.4746C13.1671 11.7626 13.1191 12.0506 13.1191 12.3626V36.3266C13.1191 36.6386 13.1551 36.9266 13.2391 37.2146L26.4511 24.0026L13.2391 11.4746Z" fill="#4285F4"/>
<path d="M26.1153 24.3383L32.7273 17.7263L18.3633 9.39825C17.8473 9.08625 17.2353 8.90625 16.5753 8.90625C14.9793 8.90625 13.6353 9.99825 13.2393 11.4623L26.1153 24.3263V24.3383Z" fill="#34A853"/>
</g>
<defs>
<clipPath id="clip0_4157_9541">
<rect width="163.2" height="48" fill="white" transform="translate(0.596924 0.337891)"/>
</clipPath>
</defs>
</svg>
