<svg width="30" height="30" viewBox="0 0 30 30" fill="none" xmlns="http://www.w3.org/2000/svg">
<path d="M29.8915 21.8218C29.6847 21.2549 29.2863 20.9485 28.8344 20.7033C28.7501 20.6574 28.6735 20.6114 28.6045 20.5807C28.4667 20.5118 28.3288 20.4429 28.1909 20.3739C26.7813 19.6232 25.6781 18.6885 24.9197 17.5701C24.7052 17.256 24.5137 16.9189 24.3605 16.5742C24.2915 16.3903 24.2992 16.2831 24.3452 16.1835C24.3911 16.1069 24.4524 16.0456 24.529 15.992C24.7742 15.8311 25.0193 15.6702 25.1879 15.563C25.4866 15.3638 25.7318 15.2106 25.885 15.1033C26.4595 14.6973 26.8656 14.2683 27.1184 13.7857C27.4784 13.1115 27.5244 12.3225 27.2486 11.61C26.8656 10.5988 25.9156 9.97828 24.7589 9.97828C24.5137 9.97828 24.2762 10.0013 24.0311 10.0549C23.9698 10.0702 23.9009 10.0855 23.8396 10.1009C23.8472 9.41139 23.8319 8.68362 23.7706 7.96351C23.5561 5.44313 22.6675 4.12548 21.7482 3.07596C21.1583 2.41714 20.4688 1.8579 19.6951 1.42124C18.3009 0.624525 16.7151 0.218506 14.9914 0.218506C13.2677 0.218506 11.6896 0.624525 10.2954 1.42124C9.52165 1.8579 8.83218 2.41714 8.2423 3.07596C7.32302 4.12548 6.44203 5.45079 6.21987 7.96351C6.15858 8.68362 6.14326 9.41139 6.15092 10.1009C6.08964 10.0855 6.02835 10.0702 5.9594 10.0549C5.72192 10.0013 5.47678 9.97828 5.2393 9.97828C4.08252 9.97828 3.13259 10.6065 2.74956 11.61C2.47377 12.3225 2.51973 13.1115 2.87979 13.7857C3.13259 14.2683 3.53861 14.6973 4.11317 15.1033C4.26638 15.2106 4.50387 15.3638 4.8103 15.563C4.97117 15.6702 5.20865 15.8234 5.44614 15.9766C5.5304 16.0303 5.59935 16.0992 5.65298 16.1835C5.69894 16.2831 5.7066 16.3903 5.62999 16.5895C5.47678 16.9266 5.29292 17.256 5.07842 17.5624C4.33533 18.6502 3.26283 19.5772 1.89921 20.3203C1.17911 20.7033 0.428353 20.9561 0.106603 21.8218C-0.13088 22.4729 0.0223344 23.2084 0.627533 23.8366C0.849694 24.0664 1.11016 24.2656 1.39361 24.4188C1.98348 24.7405 2.61166 24.9933 3.27049 25.1695C3.40838 25.2078 3.53095 25.2615 3.64586 25.3381C3.86802 25.5296 3.83738 25.8207 4.12849 26.2497C4.27404 26.4718 4.46556 26.6634 4.68006 26.8166C5.30058 27.2456 5.99771 27.2686 6.73314 27.2992C7.39962 27.3222 8.15038 27.3528 9.01604 27.6363C9.37609 27.7512 9.74381 27.981 10.1728 28.2491C11.207 28.885 12.6166 29.7506 14.9838 29.7506C17.3509 29.7506 18.7682 28.8773 19.81 28.2415C20.239 27.981 20.6067 27.7512 20.9515 27.6363C21.8095 27.3528 22.5679 27.3222 23.2344 27.2992C23.9698 27.2686 24.6669 27.2456 25.2874 26.8166C25.5479 26.6327 25.7624 26.4029 25.9156 26.1271C26.1301 25.7671 26.1225 25.5143 26.3216 25.3381C26.4289 25.2615 26.5515 25.2078 26.674 25.1772C27.3329 25.001 27.9764 24.7482 28.5739 24.4188C28.8727 24.2579 29.1485 24.0434 29.3783 23.7906L29.3859 23.7829C29.9835 23.1701 30.129 22.45 29.8915 21.8218ZM27.7925 22.9479C26.5132 23.6527 25.6552 23.5761 24.9963 24.0051C24.4294 24.3651 24.7665 25.1465 24.3605 25.43C23.8549 25.7747 22.3687 25.407 20.4535 26.0428C18.8677 26.5638 17.8642 28.0729 15.0144 28.0729C12.1646 28.0729 11.184 26.5714 9.57527 26.0428C7.66009 25.407 6.17391 25.7824 5.6683 25.43C5.26228 25.1465 5.59169 24.3651 5.03246 24.0051C4.36597 23.5761 3.51563 23.6527 2.23629 22.9479C1.41659 22.4959 1.88389 22.2201 2.15202 22.0899C6.79443 19.8453 7.53752 16.375 7.56816 16.1145C7.60646 15.8004 7.65243 15.5553 7.30769 15.2412C6.97828 14.9348 5.50742 14.0232 5.09374 13.7397C4.4196 13.2647 4.12083 12.7974 4.34299 12.2152C4.4962 11.8169 4.87158 11.6636 5.26228 11.6636C5.38485 11.6636 5.50742 11.679 5.62999 11.7019C6.37308 11.8628 7.09319 12.2305 7.50687 12.3378C7.5605 12.3531 7.60646 12.3608 7.66009 12.3608C7.88225 12.3608 7.95886 12.2459 7.94354 11.9931C7.89757 11.181 7.78266 9.60291 7.91289 8.12438C8.08909 6.09429 8.74025 5.08307 9.52165 4.19443C9.89702 3.76543 11.6513 1.91153 15.0144 1.91153C18.3775 1.91153 20.1318 3.75777 20.5071 4.18677C21.2885 5.07541 21.9397 6.08663 22.1159 8.11672C22.2461 9.59525 22.1312 11.1734 22.0776 11.9854C22.0623 12.2535 22.1389 12.3531 22.361 12.3531C22.4147 12.3531 22.4606 12.3455 22.5143 12.3301C22.9279 12.2305 23.648 11.8552 24.3911 11.6943C24.5137 11.6636 24.6363 11.656 24.7589 11.656C25.1495 11.656 25.5249 11.8092 25.6781 12.2076C25.9003 12.7898 25.6015 13.2571 24.9274 13.732C24.5214 14.0155 23.0505 14.9271 22.7134 15.2335C22.3687 15.5476 22.4147 15.7928 22.453 16.1069C22.4836 16.3673 23.2267 19.8377 27.8691 22.0823C28.1449 22.2125 28.6045 22.4959 27.7925 22.9479Z" fill="#223A46"/>
</svg>
