<svg width="272" height="186" viewBox="0 0 272 186" fill="none" xmlns="http://www.w3.org/2000/svg">
<rect width="272" height="186" rx="4" fill="#4B5647"/>
<g opacity="0.7">
<path d="M71.1348 157.831H169.468C186.718 157.831 200.635 143.915 200.635 126.665C200.635 109.415 186.718 95.498 169.468 95.498H71.1348V157.831Z" fill="#8C9A87"/>
<path d="M169.467 90.6649C186.68 90.6649 200.634 76.7111 200.634 59.4982C200.634 42.2853 186.68 28.3315 169.467 28.3315C152.255 28.3315 138.301 42.2853 138.301 59.4982C138.301 76.7111 152.255 90.6649 169.467 90.6649Z" fill="#FFD2B8"/>
<path d="M71.1348 59.4982C71.1348 76.7482 85.1348 90.6649 102.301 90.6649V28.3315C85.0514 28.3315 71.1348 42.2482 71.1348 59.4982Z" fill="#8C9A87"/>
<path d="M104.719 59.4982C104.719 76.7482 118.719 90.6649 135.885 90.6649V28.3315C118.635 28.3315 104.719 42.2482 104.719 59.4982Z" fill="#8C9A87"/>
</g>
</svg>
