<svg width="1312" height="210" viewBox="0 0 1312 210" fill="none" xmlns="http://www.w3.org/2000/svg">
<line x1="40.5" y1="110" x2="40.5" y2="210" stroke="#606D5B"/>
<line x1="117.562" y1="110" x2="117.562" y2="210" stroke="#606D5B"/>
<line x1="194.625" y1="1.83588e-08" x2="194.625" y2="210" stroke="#606D5B"/>
<line x1="271.688" y1="110" x2="271.688" y2="210" stroke="#606D5B"/>
<line x1="348.75" y1="110" x2="348.75" y2="210" stroke="#606D5B"/>
<line x1="425.812" y1="110" x2="425.812" y2="210" stroke="#606D5B"/>
<line x1="502.875" y1="110" x2="502.875" y2="210" stroke="#606D5B"/>
<line x1="579.938" y1="110" x2="579.938" y2="210" stroke="#606D5B"/>
<line x1="657" y1="1.83588e-08" x2="657" y2="210" stroke="#606D5B"/>
<line x1="734.062" y1="110" x2="734.062" y2="210" stroke="#606D5B"/>
<line x1="811.125" y1="110" x2="811.125" y2="210" stroke="#606D5B"/>
<line x1="888.188" y1="110" x2="888.188" y2="210" stroke="#606D5B"/>
<line x1="965.25" y1="110" x2="965.25" y2="210" stroke="#606D5B"/>
<line x1="1042.31" y1="110" x2="1042.31" y2="210" stroke="#606D5B"/>
<line x1="1119.38" y1="1.83588e-08" x2="1119.38" y2="210" stroke="#606D5B"/>
<line x1="1196.44" y1="110" x2="1196.44" y2="210" stroke="#606D5B"/>
<line x1="1273.5" y1="110" x2="1273.5" y2="210" stroke="#606D5B"/>
<circle cx="271.187" cy="110" r="9.34204" fill="#4B5647"/>
<circle cx="40.0002" cy="160" r="9.34204" fill="#FFD2B8"/>
<circle cx="502.375" cy="160" r="9.34204" fill="#E3B79E"/>
<circle cx="887.688" cy="110" r="9.34204" fill="#8B7B6C"/>
<circle cx="1273" cy="200.658" r="9.34204" fill="#FFD2B8"/>
</svg>
