<svg width="137" height="42" viewBox="0 0 137 42" fill="none" xmlns="http://www.w3.org/2000/svg">
<path d="M92.6878 11.8199C92.5106 11.2886 92.0974 10.9344 91.7432 10.5211H102.606C102.37 11.0524 102.311 11.879 102.311 12.4693C102.311 15.7163 105.558 25.9887 105.794 26.6381C106.148 27.5827 106.62 28.9996 107.27 29.767C108.155 30.8297 108.864 29.767 109.454 27.9369C110.399 24.867 110.989 20.3212 109.041 17.6055C108.332 16.72 107.27 15.8344 106.325 15.4802C105.735 15.185 104.849 14.8898 104.849 14.2404C104.849 11.3476 112.17 8.51388 114.177 11.2296C115.535 13.0597 115.476 15.0669 114.59 17.6645L108.864 33.7815C106.857 38.4454 105.735 41.7515 101.189 41.8695C100.067 41.8695 96.9384 41.2792 96.8203 40.0394C96.8203 39.6261 97.8239 36.143 98.3553 35.0803C98.8866 33.6044 99.2408 33.9586 100.835 34.6671C102.547 35.5526 104.967 35.4936 106.325 34.4309C107.447 33.5454 108.096 32.1875 106.266 32.1285H101.012C98.8275 32.1285 98.4143 30.0032 98.0601 28.9405C97.6468 27.7598 92.6878 11.8199 92.6878 11.8199Z" fill="#223A46"/>
<path d="M72.3201 22.9779C72.9695 21.6791 73.9141 20.5574 75.0358 19.7309C77.9876 17.4284 81.4708 16.6019 83.0057 16.1887C84.5997 15.7754 85.2491 13.0007 82.7696 11.9971C80.8804 11.1706 78.637 12.4103 77.5153 14.0043C76.6298 15.067 75.6852 16.4838 74.7406 17.4284C74.3274 17.8417 73.9141 18.0778 73.5599 18.0778C73.2057 18.0778 72.5563 17.6055 72.6153 17.0742C72.6153 16.661 72.6743 13.8862 72.6743 13.532C72.6743 11.2296 82.6515 9.16331 86.5479 10.8163C87.9058 11.3477 89.0275 12.1151 89.854 12.9417C90.6805 13.8272 91.3299 14.8308 91.7431 15.8935C92.1564 16.9561 92.3925 18.0778 92.3925 19.1995V28.4683C92.3925 30.1803 92.7468 31.4201 93.4552 32.1285H85.8985C83.7142 32.1285 84.8949 29.708 83.6551 29.708C82.4154 29.708 82.0021 32.6008 76.925 32.6008C71.8478 32.6008 71.4346 30.2984 71.4346 27.2875C71.4346 25.7526 71.6707 24.3357 72.3201 22.9779ZM80.0539 19.967C79.1684 21.1477 78.6961 22.6236 78.6961 24.3947C78.6961 27.2285 79.6997 28.6454 81.6479 28.6454C83.5961 28.6454 83.0648 28.2912 83.5371 27.6418C83.9503 26.9924 84.1865 26.1658 84.1865 25.1032V20.0851C84.1274 18.9634 84.1865 18.1959 83.0648 18.1959C81.9431 18.2549 80.9985 18.8453 80.0539 19.967Z" fill="#223A46"/>
<path d="M49.0005 29.5309C46.639 26.5791 46.1077 21.4429 47.1704 17.5465C47.8788 14.8898 49.0595 12.4103 51.48 10.9934C54.1367 9.39942 57.915 9.57652 59.9813 11.997C60.5716 12.5874 61.103 12.5284 61.103 11.5838V7.33314C61.103 6.03433 60.6307 5.26686 59.8042 4.91264C59.2728 4.73553 59.2138 4.38131 59.6861 4.08612C59.8042 4.02709 67.8331 0.957186 68.4235 0.72104C69.0139 0.484893 69.3681 0.839113 69.3091 1.37044C69.3091 2.01984 69.3681 28.5863 69.3681 28.5863C69.3681 30.2984 69.7223 31.5381 70.4308 32.2466H62.8741C61.3982 32.2466 61.162 31.1249 61.162 29.708C61.162 28.2911 60.6307 29.5309 60.6307 29.5309C59.3319 31.7743 57.6198 32.7189 55.4945 32.7189C52.7198 32.6598 50.5945 31.5972 49.0005 29.5309ZM54.8451 20.9115C54.8451 23.1549 54.8451 28.7634 58.4463 28.7634C62.0476 28.7634 61.162 27.1694 61.162 23.8634V17.8416C61.162 16.4838 61.162 13.2958 58.9777 13.2958C56.7933 13.2958 54.8451 15.8934 54.8451 20.9115Z" fill="#223A46"/>
<path d="M117.424 13.4729C118.014 12.5874 118.782 11.8789 119.844 11.4066C120.848 10.9343 121.911 10.5801 122.973 10.344C124.095 10.1078 125.276 9.98975 126.515 9.98975C129.172 9.98975 131.474 10.344 133.482 11.1705C135.489 11.938 136.434 12.7645 136.434 13.709C136.434 14.6536 136.197 15.7753 135.43 16.5428C133.777 18.1958 132.065 16.0115 131.238 14.7127C128.936 11.1705 122.206 10.344 120.966 13.65C118.959 19.1404 136.906 14.8307 136.965 25.0441C137.024 36.7333 122.501 33.073 120.198 32.5417C117.896 32.0104 116.715 31.361 116.715 30.5935C116.715 29.826 117.07 28.6453 117.778 27.1103C118.486 25.5754 119.077 24.8079 119.667 24.8079C119.667 24.8079 120.139 24.6898 120.494 25.4573C124.744 34.7261 134.544 29.826 131.77 26.2838C129.467 23.4501 116.597 26.52 116.597 17.7235C116.538 16.5428 116.833 14.4175 117.424 13.4729Z" fill="#223A46"/>
<path d="M0 32.2466C0.708439 31.5381 1.06266 30.3574 1.06266 28.6453V10.6982C0.944587 5.44396 4.07352 1.3114 9.62296 1.42947C11.1579 1.42947 15.1724 2.01984 15.1724 3.7319C15.1724 5.44396 13.4013 8.63193 12.988 9.04519C12.2206 9.81266 8.79645 6.50661 7.2615 5.73914C1.1217 2.84635 3.60123 10.9934 7.96994 10.9934H11.8663V12.5283H8.97356V28.6453C8.97356 30.2983 9.32778 31.5381 10.0362 32.2466H0Z" fill="#223A46"/>
<path d="M15.1134 28.6453V14.5946C15.1134 12.9415 14.7592 11.7018 14.0508 10.9933H21.4894C23.2014 10.9933 23.1424 13.1777 23.1424 13.5319C23.1424 13.8861 22.9653 14.7717 23.3786 14.7717C23.7918 14.7717 24.3822 13.8861 24.7954 13.2958C25.9171 11.6427 27.8063 10.5801 29.9316 10.5801C32.0569 10.5801 33.71 10.9933 33.71 12.4102C33.71 13.8271 31.5256 17.1331 30.7581 18.3729C29.8135 19.8488 29.1641 18.8452 28.6328 17.7825C28.2196 16.897 27.393 16.4247 26.0352 16.4247C24.087 16.4247 23.1424 17.7235 23.1424 20.3801V28.6453C23.1424 30.2983 23.4966 31.5381 24.2051 32.2465H14.0508C14.7592 31.5381 15.1134 30.2983 15.1134 28.6453Z" fill="#223A46"/>
<path d="M35.0082 13.8271C35.0082 13.8271 44.0998 8.98611 44.1589 11.1114C44.1589 11.3476 44.1589 28.5862 44.1589 28.5862C44.1589 30.2393 44.5131 31.479 45.2215 32.1875H35.0082C35.7166 31.479 36.0708 30.2983 36.0708 28.5862V17.0151C36.0708 16.1886 36.0708 15.0078 35.0672 14.6536C34.5359 14.4765 34.4769 14.1223 34.9492 13.8271H35.0082Z" fill="#223A46"/>
<path d="M40.0859 8.9861C42.5313 8.9861 44.5137 7.00373 44.5137 4.55836C44.5137 2.11298 42.5313 0.130615 40.0859 0.130615C37.6406 0.130615 35.6582 2.11298 35.6582 4.55836C35.6582 7.00373 37.6406 8.9861 40.0859 8.9861Z" fill="#223A46"/>
</svg>
