<svg width="430" height="134" viewBox="0 0 430 134" fill="none" xmlns="http://www.w3.org/2000/svg">
<path d="M0 103.145C2.2118 100.933 3.38275 97.03 3.38275 91.6957V33.9287C3.38275 29.8954 3.90318 26.1223 4.94403 22.7396C5.98487 19.3568 7.54613 16.2343 9.62783 13.3719C11.7095 10.6397 14.5719 8.42793 18.2148 6.73655C21.8578 5.17528 26.0212 4.26453 30.8351 4.26453C34.8684 4.26453 38.9016 5.04518 42.8048 6.47634C46.708 7.90751 48.7897 9.59887 48.7897 11.5505C48.7897 14.0225 47.6188 17.6654 45.2768 22.4793C45.1467 22.8697 44.7564 23.5202 44.4962 24.3008C44.1059 25.0815 43.8457 25.732 43.7156 25.9922L42.9349 27.1632C42.6747 27.6836 42.2844 27.9438 42.0242 28.0739C41.764 28.204 41.3737 28.3341 40.9834 28.3341C39.6823 28.3341 37.8608 27.6836 35.9092 26.3825C33.8275 25.0815 31.8759 23.6503 30.0545 22.089C28.233 20.5278 26.0212 19.0966 23.5492 17.7955C21.0772 16.4945 18.7352 15.844 16.5234 15.844C15.3525 15.844 14.1815 16.2343 13.2708 17.0149C12.3601 17.7955 11.8396 18.9665 11.8396 20.2676C11.8396 23.6503 13.1407 26.903 15.8729 30.0255C18.6051 33.0179 21.9879 34.5792 25.8911 34.5792H38.3812V39.3931H29.2738V91.1752C29.2738 96.5096 30.4448 100.413 32.6566 102.625H0V103.145Z" fill="white"/>
<path d="M46.9687 91.6957V46.5489C46.9687 41.2146 45.7977 37.3114 43.5859 35.0996H67.3953C69.3469 35.0996 70.7781 35.7501 71.5587 37.1813C72.3393 38.4824 72.7296 40.5641 72.7296 43.1662V44.8576C72.7296 46.4188 72.9899 47.1995 73.3802 47.1995C73.9006 47.1995 74.6812 46.679 75.3318 45.7683C76.1124 44.8576 76.893 43.6866 77.8038 42.3855C78.7145 41.0845 79.8855 39.7834 81.1865 38.4824C82.4876 37.1813 84.3091 36.0104 86.651 35.0996C88.8628 34.1889 91.4649 33.6685 94.3272 33.6685C97.1896 33.6685 100.052 34.1889 102.654 35.2297C105.256 36.2706 106.557 37.7017 106.557 39.5232C106.557 39.9135 104.866 43.5565 101.353 50.5822C101.093 51.1026 100.702 51.8833 100.182 52.9241C99.6616 53.8349 99.2713 54.6155 99.011 55.1359C98.7508 55.6563 98.4906 56.3069 98.1003 57.0875C97.71 57.8681 97.4498 58.3886 97.1896 58.7789C96.9293 59.1692 96.6691 59.5595 96.2788 59.9498C96.0186 60.3402 95.6283 60.6004 95.3681 60.8606C95.1079 61.1208 94.8476 61.1208 94.5874 61.1208C93.6767 61.1208 92.8961 60.7305 92.1154 59.8197C91.4649 58.909 90.8144 57.9983 90.2939 56.8273C89.7735 55.7865 88.8628 54.7456 87.4316 53.8349C86.0004 52.9241 84.179 52.5338 82.0973 52.5338C75.8522 52.5338 72.7296 56.8273 72.7296 65.2842V91.6957C72.7296 97.03 73.9006 100.933 76.1124 103.145H43.5859C45.9278 100.933 46.9687 97.1601 46.9687 91.6957Z" fill="white"/>
<path d="M109.551 44.207C109.681 44.207 110.461 43.8167 111.893 43.0361C113.194 42.3855 114.495 41.735 115.535 41.2146C116.576 40.6942 118.008 40.0436 119.699 39.263C121.39 38.4824 122.952 37.7017 124.383 37.1813C125.814 36.5308 127.245 36.0104 128.806 35.4899C130.368 34.9695 131.669 34.4491 132.97 34.1889C134.141 33.9287 135.181 33.6685 135.962 33.6685C136.873 33.6685 137.523 33.9287 138.044 34.319C138.434 34.7093 138.694 35.0996 138.824 35.62C138.955 36.0104 138.955 36.6609 138.955 37.5716V91.8258C138.955 97.1601 140.125 101.063 142.337 103.275H109.681C111.893 101.063 113.063 97.1601 113.063 91.8258V54.4854V53.8349V52.9241C113.063 52.6639 113.063 52.4037 113.063 51.8833C113.063 51.493 112.933 51.1026 112.933 50.7123C112.803 50.4521 112.803 50.0618 112.543 49.5414C112.413 49.151 112.153 48.7607 112.023 48.3704C111.762 48.1102 111.502 47.85 111.112 47.4597C110.722 47.1995 110.331 46.9393 109.941 46.8092C109.03 46.5489 108.51 46.0285 108.51 45.5081C108.51 44.9877 108.9 44.5974 109.551 44.207ZM136.092 4.00431C138.694 6.60643 139.995 9.98919 139.995 14.2827C139.995 18.5762 138.694 21.9589 136.092 24.561C133.49 27.1632 130.107 28.4642 125.814 28.4642C121.52 28.4642 118.138 27.1632 115.535 24.561C112.933 21.9589 111.632 18.5762 111.632 14.2827C111.632 9.98919 112.933 6.60643 115.535 4.00431C118.138 1.40219 121.52 0.101135 125.814 0.101135C130.107 0.101135 133.62 1.40219 136.092 4.00431Z" fill="white"/>
<path d="M153.525 94.9483C148.581 88.443 146.109 80.3765 146.109 70.4884C146.109 65.9347 146.63 61.5111 147.801 57.3477C148.842 53.0542 150.533 49.1511 152.615 45.5081C154.696 41.8651 157.689 39.0028 161.332 36.791C164.975 34.5792 169.138 33.5383 173.692 33.5383C176.164 33.5383 178.376 33.9287 180.457 34.7093C182.539 35.4899 184.1 36.4007 185.141 37.3114C186.182 38.2222 187.223 39.1329 188.003 39.9135C188.914 40.6942 189.565 41.0845 189.955 41.0845C190.996 41.0845 191.516 40.3039 191.516 38.6125V25.2116C191.516 21.1783 190.085 18.7063 187.353 17.6654C186.442 17.4052 185.922 16.8848 185.922 16.3644C185.922 15.9741 186.312 15.4536 186.963 15.0633C187.353 14.9332 189.044 14.1526 192.037 12.7214C194.899 11.4203 197.631 10.1193 200.103 9.07845C202.575 7.9075 205.308 6.86664 208.17 5.9559C211.032 5.04516 213.114 4.52475 214.415 4.52475C215.326 4.52475 215.976 4.78496 216.497 5.17528C216.887 5.5656 217.147 5.95591 217.277 6.47634C217.407 6.86666 217.407 7.51718 217.407 8.42793V91.9559C217.407 97.2902 218.578 101.193 220.79 103.405H196.981C195.029 103.405 193.598 102.755 192.817 101.454C192.037 100.153 191.646 98.0709 191.646 95.4687V94.558C191.646 93.6473 191.256 93.5171 190.475 94.1677L189.955 94.9483C185.922 101.584 180.457 104.966 173.822 104.966C165.235 104.706 158.469 101.454 153.525 94.9483ZM171.87 67.7562C171.87 71.3991 172 74.2615 172.131 76.6034C172.261 78.8152 172.651 81.4173 173.432 84.1495C174.082 86.8818 175.253 89.0936 176.944 90.3946C178.506 91.8258 180.587 92.4763 183.19 92.4763C188.914 92.4763 191.777 87.4022 191.777 77.1238V58.1284C191.777 56.6972 191.646 55.1359 191.516 53.7047C191.386 52.2736 190.996 50.7123 190.606 49.151C190.215 47.5898 189.435 46.2887 188.524 45.2479C187.483 44.3371 186.312 43.8167 184.881 43.8167C176.164 43.8167 171.87 51.8833 171.87 67.7562Z" fill="white"/>
<path d="M226.904 74.3916C228.985 70.3584 231.848 66.8455 235.36 64.1133C239.003 61.381 242.776 59.0391 246.94 57.3478C251.103 55.5263 255.657 54.0951 260.471 53.0543C262.813 52.664 263.984 51.2328 263.984 48.7608C263.984 47.5898 263.854 46.4189 263.593 45.378C263.333 44.3372 262.943 43.2963 262.422 42.2555C261.902 41.2147 260.991 40.434 259.82 39.7835C258.649 39.2631 257.218 38.8727 255.527 38.8727C253.315 38.8727 251.103 39.6534 248.891 40.9544C246.68 42.2555 244.858 43.9469 243.297 46.0286C241.736 47.9802 240.174 49.9317 238.743 51.8833C237.312 53.8349 235.881 55.5263 234.58 56.8274C233.279 58.1284 231.978 58.909 230.937 58.909C230.156 58.909 229.506 58.6488 228.855 57.9983C228.205 57.3478 227.944 56.6972 227.944 55.7865V50.4522C227.944 50.1919 227.944 49.5414 227.944 48.5006C227.944 47.4597 227.944 46.8092 227.944 46.4189C227.944 46.0286 228.075 45.378 228.075 44.7275C228.205 43.9469 228.335 43.2963 228.725 42.7759C229.115 42.2555 229.376 41.7351 229.896 41.3447C235.36 36.1405 244.338 33.5384 257.088 33.5384C262.422 33.5384 267.366 34.4491 271.66 36.1405C275.953 37.8319 279.466 40.1738 282.068 42.906C284.671 45.7684 286.622 48.8909 288.053 52.2736C289.354 55.6564 290.135 59.1693 290.135 62.6821V91.5656C290.135 96.9 291.306 100.803 293.518 103.015H269.708C266.846 103.015 265.155 101.584 264.634 98.8516C264.244 96.6398 263.463 95.4688 262.162 95.4688C261.382 95.4688 260.341 95.9892 259.04 96.9C257.869 97.8107 256.568 98.8515 255.397 100.022C254.226 101.193 252.274 102.234 249.802 103.145C247.33 104.056 244.468 104.576 241.345 104.576C236.662 104.576 232.498 103.015 229.115 99.7623C225.733 96.5096 224.041 92.6065 224.041 87.9226C223.781 82.9786 224.822 78.555 226.904 74.3916ZM251.233 64.8939C248.371 68.5369 246.94 73.2207 246.94 78.8152C246.94 87.7925 250.062 92.2161 256.177 92.2161C258.649 92.2161 260.601 91.1753 262.032 89.0936C263.333 87.0119 264.114 84.4098 264.114 81.027C264.114 78.9453 264.114 76.3432 264.114 73.0906C264.114 69.8379 264.114 67.2358 264.114 65.2842C264.114 63.0724 263.854 61.5112 263.333 60.6004C262.813 59.6897 261.902 59.2994 260.601 59.2994C257.088 59.4295 254.096 61.2509 251.233 64.8939Z" fill="white"/>
<path d="M295.212 51.2328C294.821 49.6715 294.431 48.5005 294.171 47.7199C293.911 46.9393 293.65 46.0285 293.26 44.7275C292.87 43.4264 292.48 42.5157 292.089 41.735C291.829 40.9544 291.439 40.1738 290.918 39.263C290.528 38.3523 290.007 37.5716 289.487 36.9211C288.967 36.2706 288.446 35.7501 287.926 35.2297H322.014C321.363 36.9211 320.973 39.0028 321.103 41.3447C321.103 43.6866 321.363 45.7683 321.623 47.3296C321.883 48.8908 322.534 51.3629 323.445 54.7456C323.835 56.1768 324.486 58.7789 325.396 62.2917C326.307 65.8046 327.088 68.5368 327.608 70.6185C328.128 72.5701 328.909 75.1722 329.69 78.2948C330.601 81.4173 331.381 83.8893 332.032 85.8409C332.682 87.6624 333.463 89.614 334.243 91.4355C335.024 93.2569 335.805 94.6881 336.585 95.5989C337.236 96.5096 338.017 96.8999 338.667 96.8999C340.358 96.8999 341.92 94.558 343.481 89.8742C344.912 85.1904 345.693 80.1163 345.693 74.6518C345.693 70.7486 345.302 67.3659 344.392 64.3735C343.481 61.381 342.44 59.0391 341.139 57.4778C339.838 55.9166 338.407 54.4854 336.846 53.3145C335.284 52.1435 333.853 51.2328 332.552 50.7123C331.251 50.1919 330.21 49.5414 329.299 48.8908C328.389 48.2403 327.998 47.5898 327.998 46.8092C327.998 43.8167 330.47 40.8243 335.414 37.962C340.358 35.0996 345.433 33.6685 350.507 33.6685C354.02 33.6685 356.752 34.8394 358.443 37.3114C360.135 39.6533 361.045 42.6458 361.045 46.1586C361.045 48.6306 360.395 52.4037 359.094 57.4778C357.793 62.552 356.361 67.1057 354.8 71.3992C353.369 75.6927 351.157 81.6775 348.425 89.4839C345.693 97.2902 343.741 102.885 342.57 106.268L341.66 108.349C338.147 117.066 335.154 122.921 332.942 125.914C329.039 131.248 323.835 133.85 317.59 133.85C314.598 133.85 311.605 133.199 308.483 132.029C305.36 130.858 303.799 129.556 303.799 128.125C303.799 127.345 304.579 124.222 306.271 119.018C306.791 117.327 307.181 116.156 307.442 115.375C307.702 114.594 308.092 113.684 308.613 112.513C309.003 111.342 309.523 110.561 309.914 110.041C310.304 109.52 310.824 109.26 311.215 109.26C311.865 109.26 313.687 109.911 316.419 111.212C319.151 112.513 321.883 113.163 324.355 113.163C328.259 113.163 331.381 112.252 333.593 110.431C335.805 108.609 336.976 106.918 336.976 105.357C336.976 104.056 335.805 103.275 333.333 103.275H316.809C315.768 103.275 314.728 103.015 313.687 102.494C312.776 101.974 311.865 101.324 311.215 100.283C310.434 99.2418 309.784 98.3311 309.263 97.2902C308.743 96.2494 308.222 94.9483 307.572 93.257C307.051 91.5656 306.531 90.1344 306.271 88.9635C306.011 87.7925 305.49 86.2312 305.1 84.2796C304.579 82.328 304.189 80.8969 303.929 79.9862C303.018 76.6034 301.717 72.3099 300.026 67.1057C298.464 61.9014 297.163 57.738 296.122 54.4854C295.992 53.965 295.602 52.794 295.212 51.2328Z" fill="white"/>
<path d="M368.588 44.4672C370.409 41.6049 372.881 39.5232 376.134 37.962C379.256 36.4007 382.639 35.3598 386.022 34.7093C389.535 34.0588 393.178 33.6685 397.211 33.6685C405.538 33.6685 412.824 34.8394 419.069 37.3114C425.314 39.7834 428.436 42.3855 428.436 45.378C428.436 48.5005 427.786 51.8833 425.314 54.3553C420.11 59.5595 414.645 52.6639 412.043 48.6306C404.887 37.5716 383.68 34.8394 379.777 45.2479C373.402 62.4218 429.868 49.0209 429.998 81.1571C430.258 117.847 384.461 106.398 377.305 104.706C370.149 103.015 366.376 100.933 366.376 98.5913C366.376 96.1193 367.417 92.4763 369.629 87.6624C371.84 82.8485 373.792 80.3765 375.613 80.3765C375.613 80.3765 377.175 79.9861 378.216 82.328C391.616 111.472 422.452 95.9892 413.604 84.9302C406.448 76.083 365.855 85.7108 365.855 57.9982C365.855 54.0951 366.766 47.3296 368.588 44.4672Z" fill="white"/>
</svg>
