<svg width="30" height="30" viewBox="0 0 30 30" fill="none" xmlns="http://www.w3.org/2000/svg">
<g clip-path="url(#clip0_1478_14)">
<path d="M14.9271 2.89947C18.8703 2.89947 19.3372 2.91677 20.888 2.98594C22.3292 3.04936 23.1075 3.29148 23.6263 3.49326C24.3123 3.75844 24.8081 4.08128 25.3212 4.59435C25.84 5.11319 26.1571 5.60321 26.4223 6.28923C26.6241 6.80807 26.8662 7.5921 26.9296 9.02756C26.9988 10.5841 27.0161 11.051 27.0161 14.9885C27.0161 18.9317 26.9988 19.3986 26.9296 20.9494C26.8662 22.3906 26.6241 23.1689 26.4223 23.6877C26.1571 24.3737 25.8343 24.8695 25.3212 25.3826C24.8024 25.9014 24.3123 26.2185 23.6263 26.4837C23.1075 26.6855 22.3235 26.9276 20.888 26.991C19.3315 27.0602 18.8645 27.0775 14.9271 27.0775C10.9839 27.0775 10.5169 27.0602 8.96618 26.991C7.52496 26.9276 6.7467 26.6855 6.22786 26.4837C5.54183 26.2185 5.04605 25.8957 4.53298 25.3826C4.01413 24.8637 3.69706 24.3737 3.43188 23.6877C3.23011 23.1689 2.98798 22.3848 2.92457 20.9494C2.85539 19.3929 2.83809 18.9259 2.83809 14.9885C2.83809 11.0453 2.85539 10.5783 2.92457 9.02756C2.98798 7.58633 3.23011 6.80807 3.43188 6.28923C3.69706 5.60321 4.0199 5.10743 4.53298 4.59435C5.05182 4.07551 5.54183 3.75844 6.22786 3.49326C6.7467 3.29148 7.53072 3.04936 8.96618 2.98594C10.5169 2.91677 10.9839 2.89947 14.9271 2.89947ZM14.9271 0.241852C10.9205 0.241852 10.4189 0.259147 8.84512 0.328325C7.27707 0.397504 6.19903 0.65116 5.26512 1.01435C4.29085 1.39483 3.46647 1.89638 2.64785 2.72076C1.82347 3.53937 1.32193 4.36376 0.941442 5.33226C0.578253 6.27194 0.324598 7.34421 0.255419 8.91226C0.18624 10.4918 0.168945 10.9934 0.168945 15C0.168945 19.0066 0.18624 19.5081 0.255419 21.082C0.324598 22.65 0.578253 23.7281 0.941442 24.662C1.32193 25.6362 1.82347 26.4606 2.64785 27.2792C3.46647 28.0979 4.29085 28.6052 5.25935 28.9799C6.19903 29.3431 7.2713 29.5967 8.83936 29.6659C10.4132 29.7351 10.9147 29.7524 14.9213 29.7524C18.9279 29.7524 19.4295 29.7351 21.0033 29.6659C22.5714 29.5967 23.6494 29.3431 24.5833 28.9799C25.5518 28.6052 26.3762 28.0979 27.1948 27.2792C28.0134 26.4606 28.5207 25.6362 28.8954 24.6677C29.2586 23.7281 29.5123 22.6558 29.5815 21.0877C29.6506 19.5139 29.6679 19.0124 29.6679 15.0058C29.6679 10.9992 29.6506 10.4976 29.5815 8.92379C29.5123 7.35574 29.2586 6.2777 28.8954 5.34379C28.5323 4.36376 28.0307 3.53937 27.2063 2.72076C26.3877 1.90214 25.5633 1.39483 24.5948 1.02011C23.6552 0.656925 22.5829 0.403269 21.0148 0.33409C19.4352 0.259147 18.9337 0.241852 14.9271 0.241852Z" fill="#4C5647"/>
<path d="M14.9275 7.41895C10.7422 7.41895 7.34668 10.8145 7.34668 14.9998C7.34668 19.1851 10.7422 22.5806 14.9275 22.5806C19.1128 22.5806 22.5084 19.1851 22.5084 14.9998C22.5084 10.8145 19.1128 7.41895 14.9275 7.41895ZM14.9275 19.9172C12.2123 19.9172 10.0101 17.7151 10.0101 14.9998C10.0101 12.2845 12.2123 10.0823 14.9275 10.0823C17.6428 10.0823 19.845 12.2845 19.845 14.9998C19.845 17.7151 17.6428 19.9172 14.9275 19.9172Z" fill="#4C5647"/>
<path d="M24.5777 7.11953C24.5777 8.09956 23.7822 8.88935 22.8079 8.88935C21.8279 8.88935 21.0381 8.0938 21.0381 7.11953C21.0381 6.13949 21.8336 5.3497 22.8079 5.3497C23.7822 5.3497 24.5777 6.14526 24.5777 7.11953Z" fill="#4C5647"/>
</g>
<defs>
<clipPath id="clip0_1478_14">
<rect width="29.5163" height="29.5163" fill="white" transform="translate(0.168945 0.241852)"/>
</clipPath>
</defs>
</svg>
