<svg width="24" height="25" viewBox="0 0 24 25" fill="none" xmlns="http://www.w3.org/2000/svg">
<path fill-rule="evenodd" clip-rule="evenodd" d="M8.88692 4.79067C6.9373 6.6337 4.75 9.80827 4.75 14.004C4.75 17.6845 7.94921 20.75 12 20.75C16.0508 20.75 19.25 17.6845 19.25 14.004C19.25 10.7368 17.571 8.11506 16.2748 6.72564C15.8821 7.55683 15.3158 8.52557 14.6004 9.32749C13.823 10.1989 12.7657 10.9863 11.4773 11.0057C10.6041 11.1042 9.51304 10.7586 8.92606 9.54898C8.42964 8.52598 8.35251 6.99242 8.88692 4.79067ZM10.0973 2.98174C10.5013 3.2761 10.7142 3.81074 10.555 4.35809C9.81189 6.91339 9.96504 8.25422 10.2756 8.89413C10.5457 9.45089 10.9793 9.55949 11.3291 9.51267L11.3786 9.50604H11.4286C12.1073 9.50604 12.806 9.08561 13.4811 8.32892C14.143 7.58691 14.681 6.63116 15.0352 5.82966C15.3609 5.09278 16.3992 4.72569 17.0905 5.41217C18.5794 6.8908 20.75 9.99532 20.75 14.004C20.75 18.6034 16.7858 22.25 12 22.25C7.21423 22.25 3.25 18.6034 3.25 14.004C3.25 8.70875 6.32627 4.90864 8.61092 3.03539C9.08007 2.65071 9.67925 2.67718 10.0973 2.98174Z" fill="#E78186"/>
</svg>
