<svg width="446" height="444" viewBox="0 0 446 444" fill="none" xmlns="http://www.w3.org/2000/svg">
<g opacity="0.32">
<path d="M157.197 444L301.599 444C381.522 444 446 379.563 446 299.692C446 219.82 381.522 155.383 301.599 155.383L157.197 155.383L157.197 444Z" fill="#606D5B"/>
<path d="M157.197 -156.001L157.197 -11.6922C157.197 68.1792 221.676 132.617 301.599 132.617C381.522 132.617 446 68.1792 446 -11.6922L446 -156L157.197 -156.001Z" fill="#606D5B"/>
<path d="M134.804 -155.614L-9.59796 -155.614C-89.5208 -155.614 -153.999 -91.1769 -153.999 -11.3055C-153.999 68.5659 -89.5208 133.003 -9.59797 133.003L134.804 133.003L134.804 -155.614Z" fill="#606D5B"/>
<path d="M134.804 444L134.804 299.692C134.804 219.82 70.3248 155.383 -9.59796 155.383C-89.5208 155.383 -153.999 219.82 -153.999 299.692L-153.999 444L134.804 444Z" fill="#606D5B"/>
</g>
</svg>
