<svg width="30" height="30" viewBox="0 0 30 30" fill="none" xmlns="http://www.w3.org/2000/svg">
<g clip-path="url(#clip0_1478_18)">
<path d="M21.3338 0.241852H16.3594V20.3471C16.3594 22.7427 14.4462 24.7104 12.0653 24.7104C9.68442 24.7104 7.77122 22.7427 7.77122 20.3471C7.77122 17.9944 9.64191 16.0694 11.9378 15.9839V10.9362C6.87839 11.0217 2.79688 15.1711 2.79688 20.3471C2.79688 25.566 6.96341 29.7581 12.1078 29.7581C17.2522 29.7581 21.4187 25.5232 21.4187 20.3471V10.0378C23.2895 11.4067 25.5853 12.2195 28.0087 12.2623V7.21454C24.2674 7.08621 21.3338 4.00624 21.3338 0.241852Z" fill="#4C5647"/>
</g>
<defs>
<clipPath id="clip0_1478_18">
<rect width="29.5163" height="29.5163" fill="white" transform="translate(0.336914 0.241852)"/>
</clipPath>
</defs>
</svg>
