<svg width="30" height="30" viewBox="0 0 30 30" fill="none" xmlns="http://www.w3.org/2000/svg">
<g clip-path="url(#clip0_1478_12)">
<path d="M14.7581 0.241852C6.60752 0.241852 0 6.84937 0 15C0 21.921 4.76511 27.7286 11.1932 29.3237V19.5101H8.15004V15H11.1932V13.0566C11.1932 8.03356 13.4665 5.70532 18.3981 5.70532C19.3332 5.70532 20.9465 5.88891 21.6065 6.07191V10.1599C21.2582 10.1233 20.6531 10.105 19.9017 10.105C17.4819 10.105 16.5468 11.0218 16.5468 13.4049V15H21.3674L20.5392 19.5101H16.5468V29.6501C23.8545 28.7676 29.5169 22.5455 29.5169 15C29.5163 6.84937 22.9088 0.241852 14.7581 0.241852Z" fill="#4C5647"/>
</g>
<defs>
<clipPath id="clip0_1478_12">
<rect width="29.5163" height="29.5163" fill="white" transform="translate(0 0.241852)"/>
</clipPath>
</defs>
</svg>
