<svg width="32" height="31" viewBox="0 0 32 31" fill="none" xmlns="http://www.w3.org/2000/svg">
<g clip-path="url(#clip0_4864_3397)">
<path d="M16.4648 2.79121C20.6063 2.79121 21.0967 2.80937 22.7254 2.88203C24.2391 2.94863 25.0564 3.20293 25.6014 3.41484C26.3219 3.69336 26.8426 4.03242 27.3814 4.57129C27.9264 5.11621 28.2594 5.63086 28.5379 6.35137C28.7498 6.89629 29.0041 7.71973 29.0707 9.22734C29.1434 10.8621 29.1615 11.3525 29.1615 15.4879C29.1615 19.6293 29.1434 20.1197 29.0707 21.7484C29.0041 23.2621 28.7498 24.0795 28.5379 24.6244C28.2594 25.3449 27.9203 25.8656 27.3814 26.4045C26.8365 26.9494 26.3219 27.2824 25.6014 27.5609C25.0564 27.7729 24.233 28.0271 22.7254 28.0938C21.0906 28.1664 20.6002 28.1846 16.4648 28.1846C12.3234 28.1846 11.833 28.1664 10.2043 28.0938C8.69063 28.0271 7.87324 27.7729 7.32832 27.5609C6.60781 27.2824 6.08711 26.9434 5.54824 26.4045C5.00332 25.8596 4.67031 25.3449 4.3918 24.6244C4.17988 24.0795 3.92559 23.2561 3.85898 21.7484C3.78633 20.1137 3.76816 19.6232 3.76816 15.4879C3.76816 11.3465 3.78633 10.8561 3.85898 9.22734C3.92559 7.71367 4.17988 6.89629 4.3918 6.35137C4.67031 5.63086 5.00938 5.11016 5.54824 4.57129C6.09316 4.02637 6.60781 3.69336 7.32832 3.41484C7.87324 3.20293 8.69668 2.94863 10.2043 2.88203C11.833 2.80937 12.3234 2.79121 16.4648 2.79121ZM16.4648 0C12.2568 0 11.7301 0.0181641 10.0771 0.0908203C8.43027 0.163477 7.29805 0.429883 6.31719 0.811328C5.29395 1.21094 4.42813 1.7377 3.56836 2.60352C2.70254 3.46328 2.17578 4.3291 1.77617 5.34629C1.39473 6.3332 1.12832 7.45937 1.05566 9.10625C0.983008 10.7652 0.964844 11.292 0.964844 15.5C0.964844 19.708 0.983008 20.2348 1.05566 21.8877C1.12832 23.5346 1.39473 24.6668 1.77617 25.6477C2.17578 26.6709 2.70254 27.5367 3.56836 28.3965C4.42813 29.2562 5.29395 29.7891 6.31113 30.1826C7.29805 30.5641 8.42422 30.8305 10.0711 30.9031C11.724 30.9758 12.2508 30.9939 16.4588 30.9939C20.6668 30.9939 21.1936 30.9758 22.8465 30.9031C24.4934 30.8305 25.6256 30.5641 26.6064 30.1826C27.6236 29.7891 28.4895 29.2562 29.3492 28.3965C30.209 27.5367 30.7418 26.6709 31.1354 25.6537C31.5168 24.6668 31.7832 23.5406 31.8559 21.8938C31.9285 20.2408 31.9467 19.7141 31.9467 15.5061C31.9467 11.298 31.9285 10.7713 31.8559 9.11836C31.7832 7.47148 31.5168 6.33926 31.1354 5.3584C30.7539 4.3291 30.2271 3.46328 29.3613 2.60352C28.5016 1.74375 27.6357 1.21094 26.6186 0.817383C25.6316 0.435937 24.5055 0.169531 22.8586 0.096875C21.1996 0.0181641 20.6729 0 16.4648 0Z" fill="#4C5647"/>
<path d="M16.4648 7.53906C12.0691 7.53906 8.50293 11.1053 8.50293 15.501C8.50293 19.8967 12.0691 23.4629 16.4648 23.4629C20.8605 23.4629 24.4268 19.8967 24.4268 15.501C24.4268 11.1053 20.8605 7.53906 16.4648 7.53906ZM16.4648 20.6656C13.6131 20.6656 11.3002 18.3527 11.3002 15.501C11.3002 12.6492 13.6131 10.3363 16.4648 10.3363C19.3166 10.3363 21.6295 12.6492 21.6295 15.501C21.6295 18.3527 19.3166 20.6656 16.4648 20.6656Z" fill="#4C5647"/>
<path d="M26.6004 7.22207C26.6004 8.25137 25.7648 9.08086 24.7416 9.08086C23.7123 9.08086 22.8828 8.24532 22.8828 7.22207C22.8828 6.19277 23.7184 5.36328 24.7416 5.36328C25.7648 5.36328 26.6004 6.19883 26.6004 7.22207Z" fill="#4C5647"/>
</g>
<defs>
<clipPath id="clip0_4864_3397">
<rect width="31" height="31" fill="white" transform="translate(0.964844)"/>
</clipPath>
</defs>
</svg>
