<svg width="296" height="422" viewBox="0 0 296 422" fill="none" xmlns="http://www.w3.org/2000/svg">
<rect width="296" height="422" fill="#8C6955"/>
<path d="M188.302 207.9C208.958 207.9 225.702 191.156 225.702 170.5C225.702 149.845 208.958 133.1 188.302 133.1C167.647 133.1 150.902 149.845 150.902 170.5C150.902 191.156 167.647 207.9 188.302 207.9Z" fill="#E3B79E"/>
<path d="M188.302 288.9C208.958 288.9 225.702 272.156 225.702 251.5C225.702 230.845 208.958 214.1 188.302 214.1C167.647 214.1 150.902 230.845 150.902 251.5C150.902 272.156 167.647 288.9 188.302 288.9Z" fill="#D3DECE"/>
<path d="M107.701 288.9C128.356 288.9 145.101 272.156 145.101 251.5C145.101 230.845 128.356 214.1 107.701 214.1C87.0453 214.1 70.3008 230.845 70.3008 251.5C70.3008 272.156 87.0453 288.9 107.701 288.9Z" fill="#E3B79E"/>
</svg>
