<svg width="29" height="15" viewBox="0 0 29 15" fill="none" xmlns="http://www.w3.org/2000/svg">
<path d="M1 6.5C0.447715 6.5 -4.82823e-08 6.94772 0 7.5C4.82823e-08 8.05228 0.447715 8.5 1 8.5L1 6.5ZM28.7071 8.2071C29.0976 7.81658 29.0976 7.18342 28.7071 6.79289L22.3431 0.42893C21.9526 0.038406 21.3195 0.038406 20.9289 0.42893C20.5384 0.819455 20.5384 1.45262 20.9289 1.84314L26.5858 7.5L20.9289 13.1569C20.5384 13.5474 20.5384 14.1805 20.9289 14.5711C21.3195 14.9616 21.9526 14.9616 22.3431 14.5711L28.7071 8.2071ZM1 7.5L1 8.5L28 8.5L28 7.5L28 6.5L1 6.5L1 7.5Z" fill="#4C5647"/>
</svg>
