<svg width="406" height="310" viewBox="0 0 406 310" fill="none" xmlns="http://www.w3.org/2000/svg">
<g clip-path="url(#clip0_595_13301)">
<path d="M355.023 -26.9914V92.7227C355.023 114.292 372.515 131.784 394.085 131.784C415.655 131.784 433.147 114.292 433.147 92.7227V-26.9914H355.023Z" fill="#BAC7B6"/>
<path d="M311.294 55.2975C290.176 55.2975 273.051 71.6421 273.051 91.7971V93.5409C273.051 114.662 290.173 131.784 311.294 131.784V131.784C332.415 131.784 349.538 114.662 349.538 93.5409V91.7971C349.538 71.6421 332.412 55.2975 311.294 55.2975Z" fill="#BAC7B6"/>
<path d="M273.051 14.1532C273.051 34.1121 289.236 50.2976 309.195 50.2976H349.539V-21.9911H309.195C289.236 -21.9911 273.051 -5.80564 273.051 14.1532Z" fill="#BAC7B6"/>
</g>
<defs>
<clipPath id="clip0_595_13301">
<rect width="405.333" height="310" fill="white" transform="translate(0.496094)"/>
</clipPath>
</defs>
</svg>
