<svg width="31" height="30" viewBox="0 0 31 30" fill="none" xmlns="http://www.w3.org/2000/svg">
<g clip-path="url(#clip0_6631_4176)">
<path d="M15.3486 0C7.06348 0 0.348633 6.71484 0.348633 15C0.348633 21.3574 4.30371 26.7832 9.88184 28.9688C9.75293 27.7793 9.62988 25.9629 9.93457 24.668C10.21 23.4961 11.6924 17.2148 11.6924 17.2148C11.6924 17.2148 11.2412 16.3184 11.2412 14.9883C11.2412 12.9023 12.4482 11.3438 13.9541 11.3438C15.2314 11.3438 15.8525 12.3047 15.8525 13.459C15.8525 14.748 15.0322 16.6699 14.6104 18.4512C14.2588 19.9453 15.3604 21.1641 16.8311 21.1641C19.4971 21.1641 21.5479 18.3516 21.5479 14.2969C21.5479 10.7051 18.9697 8.19141 15.2842 8.19141C11.0186 8.19141 8.51074 11.3906 8.51074 14.7012C8.51074 15.9902 9.00879 17.373 9.62988 18.123C9.75293 18.2695 9.77051 18.4043 9.73535 18.5508C9.62402 19.0254 9.36621 20.0449 9.31934 20.25C9.25488 20.5254 9.10254 20.584 8.81543 20.4492C6.94043 19.5762 5.76856 16.8398 5.76856 14.6367C5.76856 9.90234 9.20801 5.56055 15.6768 5.56055C20.8799 5.56055 24.9229 9.26953 24.9229 14.2266C24.9229 19.3945 21.665 23.5547 17.1416 23.5547C15.624 23.5547 14.1943 22.7637 13.7021 21.832C13.7021 21.832 12.9521 24.6973 12.7705 25.4004C12.4307 26.7012 11.5166 28.3359 10.9072 29.332C12.3135 29.7656 13.8018 30 15.3486 30C23.6338 30 30.3486 23.2852 30.3486 15C30.3486 6.71484 23.6338 0 15.3486 0Z" fill="#223A46"/>
</g>
<defs>
<clipPath id="clip0_6631_4176">
<rect width="30" height="30" fill="white" transform="translate(0.348633)"/>
</clipPath>
</defs>
</svg>
