<svg width="30" height="30" viewBox="0 0 30 30" fill="none" xmlns="http://www.w3.org/2000/svg">
<g clip-path="url(#clip0_6775_4174)">
<path d="M21.1765 0.241943H16.2021V20.3472C16.2021 22.7428 14.289 24.7105 11.9081 24.7105C9.52719 24.7105 7.61399 22.7428 7.61399 20.3472C7.61399 17.9945 9.48468 16.0695 11.7806 15.984V10.9363C6.72116 11.0218 2.63965 15.1712 2.63965 20.3472C2.63965 25.5661 6.80619 29.7582 11.9506 29.7582C17.095 29.7582 21.2615 25.5233 21.2615 20.3472V10.0379C23.1322 11.4068 25.4281 12.2196 27.8515 12.2624V7.21463C24.1101 7.0863 21.1765 4.00634 21.1765 0.241943Z" fill="#223A46"/>
</g>
<defs>
<clipPath id="clip0_6775_4174">
<rect width="29.5163" height="29.5163" fill="white" transform="translate(0.179688 0.241943)"/>
</clipPath>
</defs>
</svg>
