<svg width="95" height="31" viewBox="0 0 95 31" fill="none" xmlns="http://www.w3.org/2000/svg">
<g clip-path="url(#clip0_484_3512)">
<g clip-path="url(#clip1_484_3512)">
<mask id="mask0_484_3512" style="mask-type:luminance" maskUnits="userSpaceOnUse" x="0" y="0" width="95" height="31">
<path d="M94.6772 0.349487H0.0292969V30.3495H94.6772V0.349487Z" fill="white"/>
</mask>
<g mask="url(#mask0_484_3512)">
<path d="M48.0606 23.2127C48.0158 23.162 47.9568 23.1202 47.9368 23.0528C47.9055 22.9482 47.8172 22.8658 47.8231 22.7458C47.8246 22.716 47.8026 22.6808 47.7821 22.6552C47.7542 22.6203 47.7386 22.5836 47.7331 22.5401C47.7278 22.498 47.7268 22.4532 47.7107 22.415C47.66 22.2952 47.6391 22.1703 47.6309 22.0421C47.6292 22.0167 47.6298 21.9882 47.6184 21.9669C47.5597 21.8562 47.5639 21.7355 47.5618 21.6168C47.5567 21.3438 47.5544 21.0705 47.5542 20.7973C47.5537 17.8173 47.554 14.8373 47.554 11.8573C47.554 8.6468 47.554 5.43627 47.554 2.22575C47.554 2.1403 47.5559 2.05486 47.5523 1.96967C47.5504 1.92791 47.5487 1.87936 47.5275 1.84669C47.4828 1.7779 47.4775 1.70309 47.469 1.62699C47.4671 1.6106 47.4625 1.59138 47.4521 1.57947C47.3856 1.50286 47.3287 1.41434 47.2373 1.36426C47.0826 1.27958 46.9168 1.25588 46.7431 1.28944C46.6597 1.34107 46.5633 1.34081 46.4712 1.35093C46.3263 1.36694 46.1938 1.43112 46.0506 1.45213C46.0269 1.45559 46.0028 1.47109 45.9836 1.48672C45.9487 1.51516 45.9097 1.52695 45.8664 1.52989C45.8237 1.53284 45.7812 1.53732 45.7387 1.54065C45.687 1.54475 45.6426 1.56205 45.5972 1.59049C45.5171 1.64045 45.1421 1.77688 45.0504 1.79379C44.9822 1.80647 44.9226 1.83452 44.8601 1.86283C44.7916 1.89383 44.7135 1.90293 44.6404 1.92381C44.6249 1.92816 44.6131 1.94405 44.5983 1.95199C44.5168 1.99593 44.4359 2.04128 44.3524 2.0815C44.2916 2.11084 44.2292 2.14325 44.1642 2.15606C43.9683 2.19488 43.8099 2.31824 43.6263 2.38332C43.5409 2.45826 43.4309 2.48554 43.3288 2.52039C43.2073 2.56189 43.0899 2.60839 42.9766 2.66822C42.8871 2.71548 42.7998 2.76942 42.706 2.80605C42.6035 2.84602 42.515 2.91301 42.4092 2.94517C42.3278 2.96978 42.2469 2.99655 42.1685 3.02896C42.098 3.05803 42.0312 3.09608 41.963 3.13041C41.9028 3.16064 41.8333 3.18075 41.7849 3.22432C41.724 3.27914 41.6433 3.27416 41.5791 3.32078C41.4986 3.37932 41.4033 3.42056 41.303 3.44196C41.2273 3.45811 41.1574 3.48808 41.0896 3.52548C41.0156 3.56608 40.9413 3.60901 40.8621 3.63578C40.749 3.67396 40.6797 3.75813 40.613 3.84599C40.5684 3.90454 40.5999 4.00523 40.6696 4.04059C40.7602 4.08671 40.8521 4.13104 40.9436 4.17561C41.0423 4.22366 41.1468 4.26158 41.2178 4.35266C41.2455 4.38813 41.2859 4.40222 41.3266 4.4158C41.3602 4.42708 41.3896 4.44642 41.3991 4.48166C41.4177 4.55108 41.4631 4.60206 41.5115 4.64972C41.5493 4.68688 41.57 4.73133 41.5933 4.77705C41.6361 4.86071 41.6833 4.94013 41.6868 5.03851C41.6881 5.06951 41.7073 5.10437 41.728 5.12921C41.7635 5.17174 41.7745 5.21978 41.7762 5.27127C41.7794 5.3822 41.7796 5.49329 41.7828 5.6041C41.7838 5.6465 41.7781 5.69427 41.795 5.73014C41.8531 5.85211 41.8419 5.9802 41.8421 6.10753C41.8423 7.00413 41.8425 7.9006 41.8421 8.7972C41.8421 8.92428 41.8556 9.05289 41.7933 9.17342C41.7787 9.20161 41.7842 9.24044 41.7809 9.27424C41.7764 9.31664 41.7726 9.35919 41.768 9.40159C41.764 9.43719 41.742 9.46218 41.72 9.48882C41.6737 9.54428 41.6216 9.58106 41.5453 9.57798C41.4859 9.57568 41.4261 9.58081 41.3666 9.57889C41.3416 9.57811 41.3127 9.57401 41.293 9.56042C41.1959 9.49368 41.0761 9.4632 40.9954 9.36827C40.9406 9.30359 40.8771 9.24568 40.8145 9.18779C40.7587 9.13603 40.7053 9.07569 40.6392 9.04212C40.5606 9.0023 40.4985 8.94707 40.4364 8.88929C40.3738 8.8314 40.3138 8.77119 40.25 8.71444C40.2255 8.69241 40.1968 8.67037 40.1659 8.66076C40.1154 8.64513 40.0734 8.6217 40.0368 8.58299C39.949 8.4904 39.8585 8.40008 39.728 8.36868C39.6762 8.30336 39.5856 8.31282 39.5262 8.26428C39.4554 8.20626 39.369 8.20381 39.2862 8.18615C39.2702 8.18268 39.2541 8.17423 39.2404 8.16449C39.1903 8.12887 39.133 8.11544 39.0747 8.10094C39.0092 8.08468 38.9469 8.05356 38.8808 8.04215C38.8043 8.02896 38.7318 8.01692 38.6678 7.96618C38.6442 7.94735 38.6036 7.94556 38.5704 7.94363C38.4682 7.93774 38.3657 7.93493 38.2635 7.93225C38.1787 7.93007 38.093 7.93865 38.0228 7.87229C38.0066 7.85691 37.9751 7.8523 37.9504 7.85205C37.7714 7.85038 37.5923 7.84975 37.4131 7.85243C37.3808 7.85294 37.3434 7.86255 37.3178 7.88112C37.2583 7.9243 37.1932 7.93096 37.1239 7.93199C37.0301 7.93326 36.9365 7.93814 36.8427 7.94082C36.7656 7.943 36.6923 7.9494 36.6257 7.99987C36.5951 8.02307 36.5454 8.02679 36.504 8.02909C36.368 8.03663 36.2349 8.04675 36.1071 8.10697C36.0158 8.15015 35.9152 8.17666 35.8163 8.19997C35.749 8.21585 35.6875 8.23662 35.6283 8.27376C35.5645 8.31373 35.4792 8.31424 35.4274 8.37868C35.3416 8.39507 35.2776 8.45796 35.1992 8.48693C35.1329 8.51139 35.0771 8.54342 35.0292 8.59466C35.0068 8.61849 34.9776 8.64333 34.9474 8.65064C34.8864 8.66537 34.839 8.69509 34.7964 8.73967C34.7613 8.7763 34.7241 8.82384 34.6797 8.83626C34.5644 8.86854 34.4978 8.95744 34.4169 9.03124C34.3859 9.0598 34.3535 9.10182 34.3174 9.10734C34.2314 9.12027 34.1837 9.18354 34.13 9.23363C33.9809 9.37316 33.8393 9.52073 33.6965 9.66675C33.6735 9.6902 33.6492 9.71993 33.643 9.75029C33.6302 9.81369 33.5909 9.85584 33.5492 9.89887C33.484 9.96614 33.4187 10.0335 33.3544 10.1017C33.3312 10.1263 33.2966 10.1513 33.2919 10.1801C33.2775 10.2735 33.2019 10.3223 33.1546 10.3912C33.1307 10.426 33.1062 10.4609 33.0859 10.4979C33.0329 10.5943 32.9915 10.6988 32.9275 10.787C32.8723 10.8632 32.8307 10.9441 32.7853 11.0249C32.731 11.1216 32.6944 11.2255 32.6412 11.3217C32.5873 11.419 32.548 11.5208 32.5142 11.627C32.4914 11.6982 32.453 11.766 32.4299 11.8389C32.3651 11.8909 32.3729 11.9812 32.3256 12.0406C32.2685 12.1122 32.2734 12.2017 32.244 12.2807C32.1821 12.4479 32.1135 12.6126 32.0877 12.7909C32.0854 12.8072 32.0797 12.8264 32.0687 12.8374C32.0013 12.9046 32.0053 12.9919 31.9971 13.0762C31.9922 13.1268 31.9966 13.1814 31.9639 13.2239C31.9195 13.2815 31.91 13.347 31.9039 13.4158C31.8994 13.4666 31.9001 13.5228 31.8777 13.566C31.8289 13.6608 31.8318 13.7645 31.8088 13.8635C31.7974 13.9133 31.8035 13.9692 31.7833 14.0141C31.7427 14.1032 31.7442 14.1956 31.7366 14.2891C31.726 14.4163 31.7051 14.5426 31.6886 14.6693C31.6373 14.7452 31.6436 14.8316 31.6425 14.9168C31.6385 15.1985 31.6345 15.4802 31.6305 15.7619C31.6295 15.8471 31.6216 15.9252 31.5735 16.0051C31.5249 16.0855 31.5259 16.1907 31.5792 16.2737C31.6193 16.3359 31.6299 16.3974 31.6307 16.4665C31.6341 16.7568 31.639 17.0469 31.6425 17.3372C31.6436 17.4311 31.6542 17.5203 31.6854 17.6122C31.7207 17.7154 31.7226 17.8298 31.7376 17.9396C31.7435 17.9817 31.7338 18.0293 31.7503 18.0658C31.8014 18.1781 31.797 18.2993 31.8196 18.4158C31.8276 18.4576 31.8291 18.5037 31.8487 18.5394C31.8961 18.6255 31.8997 18.7188 31.9104 18.8118C31.9142 18.845 31.9176 18.884 31.9364 18.9085C31.9808 18.9662 31.9956 19.03 32.0011 19.099C32.0044 19.142 32.0182 19.1816 32.0461 19.2165C32.0617 19.2361 32.0826 19.2593 32.0833 19.2814C32.0868 19.4132 32.1566 19.5251 32.1897 19.6477C32.214 19.7373 32.2421 19.832 32.2943 19.9063C32.3539 19.991 32.3587 20.1017 32.4371 20.1735C32.5064 20.3844 32.6328 20.5678 32.7221 20.769C32.7597 20.8536 32.8142 20.9291 32.8546 21.0129C32.8827 21.0714 32.9454 21.1129 32.9906 21.1638C33.0187 21.1954 33.0566 21.2271 33.0665 21.2648C33.0918 21.3619 33.1552 21.4282 33.223 21.4934C33.2486 21.5179 33.2655 21.5465 33.2729 21.5807C33.282 21.6234 33.3021 21.6576 33.3348 21.6889C33.3961 21.7478 33.4495 21.8146 33.5099 21.8746C33.7273 22.0901 33.9485 22.3015 34.1634 22.5196C34.2416 22.599 34.3109 22.6824 34.4245 22.716C34.4623 22.7274 34.4932 22.7653 34.5249 22.7936C34.5631 22.8274 34.5992 22.8635 34.6352 22.8994C34.6597 22.9237 34.6863 22.9423 34.7188 22.9556C34.9381 23.0465 35.1354 23.1827 35.3585 23.2658C35.4107 23.3302 35.503 23.315 35.5607 23.3682C35.6224 23.4253 35.7035 23.4174 35.7775 23.4337C35.7937 23.4373 35.8113 23.4426 35.8244 23.4525C35.8884 23.5007 35.9659 23.5074 36.0392 23.5288C36.1123 23.5499 36.1791 23.589 36.259 23.5909C36.3008 23.592 36.3452 23.6025 36.3828 23.6203C36.5023 23.6763 36.6276 23.6855 36.7565 23.6841C36.8332 23.6832 36.9101 23.6885 36.9866 23.6951C37.0197 23.698 37.059 23.7018 37.0831 23.721C37.1488 23.7734 37.2228 23.777 37.3003 23.7766C37.5392 23.776 37.7782 23.776 38.0169 23.7766C38.1109 23.777 38.2041 23.7802 38.2829 23.7128C38.3 23.698 38.3306 23.6961 38.3558 23.694C38.4236 23.6881 38.4921 23.6872 38.5601 23.6807C38.6019 23.6767 38.645 23.6712 38.6845 23.6577C38.7889 23.6217 38.8895 23.5723 38.9957 23.5446C39.1117 23.5146 39.2171 23.4601 39.3293 23.4242C39.3975 23.4024 39.4371 23.3384 39.5059 23.3264C39.5594 23.3169 39.5966 23.2833 39.6361 23.2501C39.6749 23.2176 39.7161 23.1857 39.7616 23.1639C39.8076 23.142 39.8568 23.1274 39.894 23.0898C39.9538 23.0291 40.0094 22.9641 40.1021 22.9501C40.1235 22.9467 40.1423 22.9208 40.1602 22.9032C40.3489 22.719 40.538 22.535 40.7252 22.3493C40.7609 22.3138 40.7995 22.2772 40.8086 22.2234C40.8177 22.1691 40.8551 22.1329 40.8885 22.0949C40.9278 22.0501 40.9694 22.0072 41.0123 21.966C41.044 21.9354 41.0642 21.901 41.0778 21.8589C41.0877 21.8281 41.1082 21.7993 41.1283 21.7731C41.1644 21.7258 41.2166 21.6865 41.2392 21.6339C41.3023 21.4873 41.4185 21.3876 41.5254 21.2786C41.6125 21.1897 41.7783 21.2018 41.8275 21.3603C41.8349 21.3844 41.8392 21.4102 41.8398 21.4355C41.8419 21.5122 41.8411 21.5891 41.8423 21.666C41.8438 21.7683 41.8364 21.872 41.8502 21.9728C41.8677 22.1002 41.8753 22.2274 41.8785 22.3554C41.8793 22.3894 41.8785 22.4255 41.8899 22.4566C41.9454 22.6079 41.9847 22.7651 42.0509 22.9123C42.0716 22.9581 42.1206 22.9848 42.1347 23.0382C42.1603 23.135 42.2332 23.1874 42.3177 23.236C42.4062 23.2869 42.5021 23.3194 42.5904 23.367C42.6371 23.3919 42.6802 23.4128 42.7322 23.4143C42.8856 23.4189 43.0392 23.4265 43.1925 23.4267C43.8069 23.4282 44.4211 23.4276 45.0354 23.4276C45.957 23.4276 46.8783 23.4276 47.7997 23.4272C47.8764 23.4272 47.953 23.4236 48.0295 23.4196C48.0707 23.4174 48.1056 23.3716 48.1026 23.33C48.0997 23.2867 48.0906 23.2453 48.061 23.2117L48.0606 23.2127ZM41.7967 14.9236C41.7978 15.1371 41.7969 15.3506 41.7969 15.5641C41.7969 16.2217 41.7988 16.8792 41.7961 17.5368C41.7946 17.8611 41.7849 18.1854 41.7779 18.5096C41.7766 18.5607 41.7756 18.6127 41.7654 18.6626C41.7295 18.8378 41.712 19.0166 41.6752 19.1908C41.6083 19.507 41.5333 19.8227 41.3792 20.112C41.3516 20.1643 41.3393 20.2262 41.3061 20.2738C41.2476 20.3572 41.1904 20.441 41.1337 20.5257C41.0685 20.6234 40.9812 20.7079 40.8798 20.774C40.8228 20.8112 40.7666 20.8502 40.7125 20.8919C40.6713 20.9237 40.6278 20.946 40.5787 20.9639C40.1883 21.1057 40.2832 21.1037 39.7573 21.1141C39.4785 21.1196 39.215 21.0642 38.9585 20.9669C38.7344 20.8818 38.525 20.7695 38.3606 20.5877C38.3492 20.5751 38.3344 20.5656 38.3228 20.5532C38.2294 20.4541 38.1206 20.3679 38.0488 20.2501C37.9827 20.1415 37.9174 20.0312 37.8644 19.9158C37.8109 19.8 37.7666 19.6791 37.73 19.5567C37.6715 19.361 37.5984 19.1687 37.5747 18.9636C37.5709 18.9298 37.5711 18.8926 37.5566 18.8634C37.4938 18.7372 37.4932 18.5995 37.4731 18.4649C37.4541 18.3386 37.4292 18.213 37.4051 18.0876C37.389 18.0037 37.3734 17.9201 37.3753 17.8339C37.3761 17.8 37.3749 17.7644 37.3658 17.7323C37.3229 17.582 37.3271 17.4279 37.3252 17.2744C37.3223 17.0098 37.3221 16.745 37.3206 16.4802C37.3202 16.3949 37.3199 16.3102 37.2969 16.2261C37.2836 16.1776 37.2819 16.125 37.2817 16.0741C37.2802 15.8093 37.2806 15.5446 37.2817 15.2799C37.2817 15.2373 37.2809 15.1928 37.2925 15.1528C37.3248 15.044 37.3199 14.9332 37.3208 14.8224C37.3221 14.6601 37.3227 14.4979 37.325 14.3356C37.3267 14.2076 37.3265 14.0794 37.3616 13.9542C37.3706 13.9217 37.3742 13.8869 37.3747 13.8529C37.377 13.6469 37.4118 13.4459 37.4587 13.2461C37.4702 13.1968 37.4708 13.1448 37.4744 13.0939C37.4818 12.9913 37.4949 12.8907 37.5386 12.7954C37.5559 12.7574 37.5667 12.7146 37.5722 12.6728C37.6026 12.4425 37.6854 12.227 37.7581 12.009C37.7877 11.9203 37.8333 11.8371 37.85 11.7438C37.9333 11.6633 37.9339 11.5413 37.9979 11.4498C38.0414 11.3873 38.0752 11.3174 38.1094 11.249C38.1441 11.1797 38.1844 11.1159 38.2398 11.0607C38.2759 11.0248 38.3099 10.9852 38.3372 10.9423C38.4492 10.766 38.6017 10.635 38.7724 10.5172C38.8702 10.4499 38.971 10.3886 39.0726 10.3285C39.2433 10.2276 39.4278 10.1631 39.6255 10.1416C39.702 10.1333 39.7768 10.1213 39.8513 10.1003C40.0527 10.0435 40.2547 10.0406 40.4558 10.1071C40.4961 10.1205 40.5375 10.1314 40.5794 10.1398C40.7437 10.1734 40.8821 10.2554 40.9968 10.374C41.0913 10.4718 41.1847 10.5728 41.263 10.6834C41.3264 10.7727 41.3778 10.8745 41.4141 10.9779C41.4452 11.0661 41.4859 11.1506 41.514 11.239C41.5453 11.3358 41.5603 11.4379 41.581 11.5381C41.5983 11.6215 41.6135 11.7054 41.6304 11.7889C41.674 12.0061 41.723 12.2223 41.7597 12.4406C41.7781 12.5492 41.7756 12.6616 41.78 12.7724C41.809 13.4892 41.7931 14.2065 41.7967 14.9236Z" fill="#4B5647"/>
<path d="M79.6739 10.3373C79.6342 10.2755 79.6291 10.2105 79.627 10.1417C79.6245 10.0563 79.6207 9.97103 79.6133 9.88597C79.6103 9.85306 79.605 9.81321 79.5852 9.79027C79.5288 9.72558 79.5305 9.6491 79.5258 9.57289C79.5212 9.49538 79.4984 9.42697 79.4616 9.35601C79.3606 9.1609 79.2717 8.95977 79.1667 8.76621C79.1424 8.72125 79.1236 8.67617 79.086 8.63913C79.0131 8.56753 78.9474 8.4885 78.8726 8.41906C78.8117 8.36256 78.7587 8.29109 78.6619 8.28659C78.6271 8.28494 78.6072 8.24983 78.5848 8.22408C78.5335 8.16528 78.4714 8.12544 78.397 8.09662C78.3256 8.06894 78.2584 8.03296 78.1794 8.02912C78.1547 8.02796 78.1245 8.02322 78.1074 8.00822C78.0227 7.93379 77.9206 7.93354 77.8179 7.93137C77.7744 7.93048 77.7326 7.92023 77.6988 7.89192C77.6561 7.85656 77.6065 7.85091 77.5547 7.85079C77.4011 7.85041 77.2475 7.85028 77.0941 7.85028C77.0337 7.85028 76.9765 7.85668 76.9262 7.89832C76.8848 7.93278 76.8307 7.93035 76.7796 7.93187C76.6346 7.93637 76.4897 7.94072 76.3448 7.94571C76.3021 7.94725 76.2586 7.94867 76.2239 7.97852C76.1762 8.02001 76.1191 8.03322 76.0581 8.03501C75.9638 8.03782 75.8719 8.0487 75.7851 8.0911C75.7557 8.10547 75.7186 8.10482 75.6848 8.1097C75.5741 8.12558 75.4703 8.16553 75.3708 8.21294C75.2867 8.25317 75.2096 8.30658 75.1105 8.30582C75.0869 8.30569 75.0579 8.3167 75.0406 8.33258C74.9863 8.3823 74.9206 8.39191 74.8526 8.40087C74.8196 8.40522 74.7835 8.41496 74.7579 8.43431C74.7161 8.46594 74.6707 8.48425 74.6225 8.5031C74.4879 8.55562 74.3679 8.63875 74.2348 8.69575C74.182 8.71832 74.1419 8.76955 74.095 8.80618C74.0751 8.82169 74.054 8.84013 74.0308 8.84552C73.9287 8.86882 73.848 8.93584 73.758 8.98181C73.6699 9.02679 73.6118 9.12209 73.5034 9.14387C73.4751 9.14951 73.4557 9.1905 73.4289 9.21112C73.342 9.27786 73.2763 9.37278 73.161 9.40225C73.1314 9.40982 73.1073 9.4426 73.0828 9.46593C73.0025 9.54213 72.9222 9.61823 72.8441 9.69663C72.7549 9.78644 72.652 9.8674 72.6279 10.0037C72.6265 10.0114 72.6203 10.0206 72.6136 10.0245C72.5373 10.0685 72.5582 10.1671 72.5037 10.2213C72.4395 10.2851 72.4329 10.3748 72.3962 10.4505C72.3265 10.5941 72.3396 10.7495 72.3812 10.9012C72.3879 10.9254 72.3974 10.9508 72.4124 10.9705C72.4953 11.0794 72.5931 11.1738 72.7004 11.2583C72.7881 11.2774 72.8508 11.3346 72.9127 11.3945C72.9303 11.4114 72.9556 11.4223 72.9793 11.4305C73.0917 11.4692 73.1884 11.5394 73.2964 11.5869C73.3661 11.6177 73.4305 11.6616 73.5017 11.6876C73.5674 11.7116 73.6186 11.7615 73.6819 11.7822C73.7567 11.8064 73.8134 11.8655 73.8831 11.8858C73.9714 11.9114 74.0318 11.9649 74.0914 12.0245C74.1579 12.0911 74.2241 12.154 74.3168 12.187C74.3627 12.2032 74.403 12.2418 74.4391 12.2773C74.6876 12.5228 74.9352 12.7695 75.1805 13.0181C75.2339 13.0722 75.2876 13.129 75.3066 13.2079C75.3104 13.2241 75.3182 13.241 75.329 13.2534C75.3955 13.3303 75.4741 13.3991 75.4959 13.5058C75.5417 13.5559 75.5916 13.6029 75.6322 13.6569C75.675 13.7141 75.6537 13.7904 75.678 13.854C75.6871 13.8775 75.7031 13.8983 75.7139 13.9212C75.7642 14.0287 75.8189 14.1331 75.8458 14.2519C75.8698 14.3579 75.9385 14.4518 75.9434 14.5657C75.944 14.5815 75.9531 14.5995 75.9638 14.6117C76.0127 14.6667 76.0209 14.7333 76.0253 14.8024C76.0338 14.938 76.026 15.0767 76.1016 15.1997C76.1103 15.2135 76.1145 15.2325 76.1143 15.2489C76.11 15.4225 76.1736 15.5826 76.21 15.7482C76.2227 15.8059 76.2224 15.867 76.2231 15.9266C76.2252 16.0803 76.2239 16.234 76.2252 16.3876C76.226 16.4894 76.2161 16.5923 76.2681 16.6883C76.2833 16.7162 76.2833 16.7546 76.2835 16.7882C76.2848 17.0528 76.2852 17.3176 76.2835 17.5823C76.2831 17.6239 76.2778 17.6694 76.2607 17.7063C76.2305 17.771 76.2252 17.8371 76.225 17.9058C76.225 18.0082 76.2296 18.1111 76.2227 18.2131C76.2119 18.3659 76.1929 18.5182 76.1772 18.6708C76.1246 18.7647 76.1333 18.8682 76.1269 18.9702C76.1221 19.0463 76.1191 19.1282 76.0891 19.1958C76.0384 19.3094 76.0329 19.4258 76.0285 19.5448C76.0272 19.5789 76.0249 19.6134 76.0184 19.6467C76.0135 19.6711 76.0067 19.6996 75.9907 19.7165C75.9453 19.764 75.9406 19.8219 75.9341 19.8817C75.9269 19.9491 75.9362 20.0223 75.8975 20.0811C75.8529 20.1486 75.8407 20.2226 75.8322 20.2991C75.8255 20.3585 75.8134 20.4152 75.791 20.472C75.7446 20.5904 75.6991 20.7108 75.671 20.8344C75.652 20.9185 75.6351 20.9983 75.5772 21.0641C75.5584 21.1668 75.4838 21.2432 75.45 21.3407C75.4173 21.4359 75.3484 21.5184 75.3115 21.6126C75.2789 21.6956 75.2238 21.7573 75.1682 21.8216C75.1405 21.8535 75.1091 21.8824 75.0789 21.9124C74.8982 22.0922 74.8634 22.1059 74.6035 22.0964C74.5779 22.0956 74.5524 22.0909 74.527 22.0907C74.4634 22.0901 74.4106 22.0639 74.3675 22.0201C74.2718 21.9228 74.178 21.8239 74.084 21.7252C74.0724 21.7132 74.057 21.6986 74.0555 21.684C74.0453 21.5904 73.9682 21.5408 73.9215 21.471C73.9029 21.4431 73.8873 21.4123 73.8755 21.3809C73.8455 21.3011 73.7806 21.2384 73.7648 21.1519C73.7027 21.0989 73.6889 21.0214 73.6623 20.9504C73.5869 20.8898 73.5941 20.799 73.5763 20.7168C73.571 20.6924 73.5573 20.6698 73.5478 20.6464C73.529 20.5994 73.5015 20.5536 73.4935 20.5047C73.4819 20.4357 73.455 20.3751 73.4255 20.3132C73.3781 20.2144 73.3112 20.1223 73.312 20.0052C73.312 19.9891 73.3067 19.9681 73.296 19.9576C73.2267 19.8898 73.2385 19.7781 73.1622 19.7141C73.1504 19.7041 73.1392 19.6846 73.1394 19.6697C73.1409 19.5553 73.0792 19.458 73.056 19.3501C73.0274 19.2171 72.9558 19.0971 72.9341 18.9616C72.8646 18.8859 72.8675 18.7898 72.8595 18.6968C72.8544 18.6367 72.8462 18.5793 72.8007 18.5323C72.7697 18.5003 72.7724 18.4539 72.7648 18.412C72.7572 18.3708 72.7534 18.3227 72.7298 18.2918C72.685 18.2334 72.6715 18.1704 72.6681 18.1011C72.6641 18.0155 72.6554 17.932 72.6123 17.854C72.5922 17.8176 72.5918 17.7711 72.576 17.7318C72.531 17.6208 72.4938 17.5089 72.4917 17.3873C72.4912 17.3625 72.4883 17.3317 72.4739 17.3139C72.4046 17.2277 72.4038 17.1248 72.3958 17.0234C72.3917 16.9712 72.3807 16.9228 72.3436 16.8826C72.3326 16.8705 72.3224 16.8533 72.3212 16.8375C72.3096 16.6998 72.2371 16.5772 72.2196 16.4432C72.2039 16.3228 72.1498 16.2159 72.1262 16.099C72.1131 16.0338 72.0698 15.9751 72.0535 15.9102C72.037 15.8446 72.0406 15.7742 72.0292 15.7071C72.0237 15.6751 72.0068 15.6433 71.9891 15.6154C71.9652 15.5782 71.9527 15.5388 71.9485 15.4957C71.939 15.3947 71.94 15.2921 71.8691 15.2058C71.85 15.1827 71.8534 15.1408 71.8469 15.1074C71.8403 15.074 71.841 15.0371 71.8264 15.0078C71.7801 14.9143 71.7725 14.811 71.7436 14.7137C71.7068 14.5908 71.6789 14.4676 71.662 14.3409C71.6586 14.3162 71.6506 14.2882 71.6354 14.2698C71.5874 14.2124 71.5893 14.1432 71.5817 14.076C71.5731 14.0004 71.576 13.9224 71.5162 13.8609C71.5002 13.8446 71.4953 13.8145 71.4924 13.7898C71.485 13.7306 71.4877 13.6694 71.4748 13.6116C71.46 13.5459 71.4298 13.4839 71.4117 13.4187C71.3979 13.3696 71.3927 13.3184 71.3834 13.268C71.3772 13.2346 71.377 13.1986 71.3637 13.1684C71.3181 13.0655 71.3134 12.9517 71.2788 12.8484C71.2429 12.7415 71.2236 12.6348 71.2089 12.5251C71.2057 12.5003 71.2015 12.4711 71.1865 12.453C71.1273 12.3814 71.1231 12.296 71.1197 12.2108C71.1167 12.1406 71.1041 12.0769 71.0559 12.0216C71.0407 12.0039 71.0348 11.9749 71.032 11.9502C71.0248 11.8909 71.0286 11.8297 71.0158 11.772C71.001 11.7063 70.9707 11.6443 70.9513 11.5795C70.9391 11.5389 70.9346 11.496 70.926 11.4543C70.9173 11.413 70.915 11.3681 70.897 11.3312C70.8696 11.2756 70.8617 11.2176 70.8546 11.1584C70.8453 11.0821 70.836 11.0071 70.7912 10.9396C70.7738 10.9132 70.7713 10.8751 70.7679 10.8417C70.7612 10.7738 70.7576 10.7056 70.7544 10.6373C70.7502 10.5443 70.7561 10.4518 70.6912 10.3701C70.6684 10.3414 70.6714 10.2889 70.6701 10.247C70.6536 9.77746 70.652 9.30796 70.6689 8.83834C70.672 8.74546 70.6615 8.65105 70.7331 8.57252C70.7536 8.55036 70.7569 8.50912 70.7603 8.4758C70.7667 8.41508 70.7855 8.36115 70.8163 8.30799C70.8442 8.25995 70.8055 8.205 70.7462 8.20244C70.661 8.19885 70.5757 8.19731 70.4905 8.19731C69.3814 8.19706 68.272 8.19706 67.1631 8.19706C66.0624 8.19706 64.9617 8.19706 63.861 8.19706C63.7843 8.19706 63.7074 8.1968 63.6307 8.19847C63.6053 8.19898 63.5802 8.20475 63.5548 8.20872C63.5272 8.21307 63.505 8.26931 63.521 8.29185C63.5891 8.38741 63.6924 8.4589 63.7188 8.58355C63.7217 8.59777 63.7403 8.6089 63.7522 8.62107C63.8062 8.67706 63.8424 8.74354 63.8772 8.81271C63.9421 8.94133 64.0173 9.06469 64.0672 9.20049C64.1244 9.25608 64.1411 9.33281 64.1709 9.40251C64.2512 9.46117 64.2343 9.55496 64.2567 9.63501C64.2655 9.66703 64.2888 9.69484 64.3002 9.72648C64.3317 9.81448 64.3929 9.8907 64.4062 9.98512C64.4162 10.0539 64.4424 10.113 64.4745 10.1747C64.5087 10.2404 64.5146 10.3206 64.5353 10.3939C64.5398 10.4094 64.5554 10.4213 64.5636 10.436C64.5759 10.4582 64.5953 10.4814 64.5958 10.5045C64.5979 10.6452 64.6765 10.7636 64.7058 10.8963C64.7166 10.9454 64.7534 10.9894 64.7603 11.0383C64.7808 11.1825 64.8241 11.3196 64.8668 11.4581C64.8869 11.5235 64.908 11.585 64.9393 11.6466C64.9691 11.7052 64.9701 11.7781 64.986 11.844C64.9898 11.8598 65.0003 11.876 65.0124 11.8872C65.0536 11.9258 65.0586 11.9755 65.0629 12.0272C65.069 12.1033 65.0688 12.1793 65.0977 12.2534C65.1624 12.4197 65.2186 12.5884 65.2477 12.7661C65.2686 12.8913 65.3447 13.0022 65.3536 13.132C65.4186 13.1974 65.4233 13.2835 65.4366 13.3674C65.4404 13.3915 65.4518 13.417 65.4668 13.4363C65.4996 13.4784 65.5171 13.524 65.5213 13.5769C65.5241 13.6107 65.5258 13.6471 65.5391 13.6772C65.5743 13.7556 65.6071 13.8356 65.6136 13.9205C65.621 14.0168 65.6707 14.0984 65.6897 14.1895C65.7038 14.2563 65.7199 14.3187 65.7552 14.3805C65.7873 14.4368 65.7858 14.5115 65.807 14.5756C65.8279 14.639 65.8849 14.6865 65.8849 14.7615C65.8849 14.821 65.906 14.8764 65.9299 14.9327C65.9758 15.042 66.0188 15.1544 66.045 15.2695C66.0715 15.3857 66.0953 15.5007 66.1357 15.6141C66.1667 15.7013 66.1771 15.796 66.2331 15.8743C66.2489 15.9747 66.2588 16.0772 66.3279 16.16C66.3355 16.2896 66.3945 16.4057 66.4262 16.529C66.4473 16.6111 66.4505 16.6965 66.4889 16.776C66.5217 16.8439 66.5202 16.9308 66.5599 16.9925C66.6098 17.0705 66.5973 17.1578 66.6275 17.2363C66.6305 17.2442 66.6319 17.2541 66.6377 17.2596C66.6985 17.3187 66.7012 17.3963 66.708 17.473C66.7146 17.5495 66.7167 17.6253 66.776 17.6879C66.7963 17.7094 66.7955 17.7514 66.8035 17.7843C66.8155 17.8338 66.8196 17.8865 66.84 17.932C66.8722 18.0032 66.8842 18.0786 66.9015 18.153C66.911 18.1942 66.9108 18.2402 66.9294 18.2766C66.9619 18.3398 66.9715 18.4061 66.9774 18.474C66.9841 18.5509 66.9919 18.6251 67.0429 18.6904C67.0617 18.7146 67.0644 18.7543 67.0676 18.7876C67.0769 18.8889 67.0733 18.9932 67.1477 19.0765C67.1529 19.0822 67.155 19.0924 67.1553 19.1007C67.1593 19.2224 67.2184 19.3296 67.245 19.4454C67.2831 19.6111 67.3198 19.7772 67.3644 19.9412C67.3908 20.0392 67.4329 20.133 67.4445 20.2354C67.4462 20.2516 67.4542 20.27 67.4654 20.2814C67.5108 20.3274 67.5207 20.3839 67.5254 20.445C67.5326 20.5376 67.5284 20.6328 67.5991 20.7106C67.619 20.7325 67.6165 20.7749 67.6247 20.8078C67.6372 20.8571 67.6397 20.9121 67.6642 20.9543C67.7253 21.0595 67.7196 21.1872 67.785 21.2896C67.7836 21.4063 67.856 21.4968 67.8958 21.5989C67.9139 21.6451 67.9562 21.6823 67.9722 21.729C67.9915 21.7852 68.0058 21.8416 68.035 21.8951C68.1043 22.0216 68.1645 22.1526 68.2361 22.2781C68.2653 22.329 68.2824 22.3848 68.3257 22.4296C68.384 22.4894 68.4453 22.547 68.4586 22.6402C68.4639 22.677 68.5029 22.7116 68.5325 22.7414C68.6586 22.868 68.789 22.9903 68.9132 23.1183C68.9679 23.1747 69.0286 23.2117 69.1 23.2455C69.1834 23.2848 69.2705 23.3194 69.3493 23.3676C69.3953 23.3959 69.4401 23.412 69.4921 23.4135C69.6626 23.4183 69.8331 23.4276 70.0038 23.4276C71.1641 23.4289 72.3243 23.4282 73.4848 23.4285C73.5615 23.4285 73.6384 23.4285 73.7151 23.4301C73.7403 23.4306 73.7703 23.4291 73.7899 23.4418C73.8873 23.5051 73.9999 23.5049 74.1081 23.5254C74.14 23.5313 74.1753 23.5455 74.1991 23.567C74.4011 23.7494 74.3876 23.7257 74.3914 23.9541C74.3916 23.9628 74.3918 23.9712 74.3914 23.9799C74.3882 24.0566 74.3946 24.1351 74.3787 24.2091C74.3667 24.2644 74.313 24.3109 74.3014 24.3663C74.2809 24.462 74.204 24.5237 74.175 24.6149C74.1465 24.7056 74.0546 24.7558 73.9912 24.8245C73.8932 24.9306 73.7865 25.0288 73.6826 25.1296C73.6585 25.153 73.6331 25.1862 73.604 25.1915C73.5036 25.2103 73.446 25.2878 73.3739 25.3449C73.3395 25.3719 73.3012 25.3865 73.2641 25.4061C73.165 25.4585 73.0477 25.4651 72.9539 25.5215C72.8422 25.5887 72.6972 25.5585 72.5996 25.6554C72.5318 25.6624 72.4642 25.6719 72.3962 25.6755C72.3112 25.6801 72.2274 25.6789 72.156 25.741C72.1342 25.7602 72.0917 25.7609 72.0586 25.7613C71.7769 25.764 71.4955 25.7663 71.2141 25.7653C71.1047 25.7649 70.9912 25.7778 70.8974 25.6964C70.8805 25.682 70.8489 25.6829 70.8235 25.681C70.7555 25.6759 70.6872 25.6747 70.6192 25.6692C70.5856 25.6662 70.545 25.6668 70.5203 25.6487C70.4327 25.5834 70.3323 25.5741 70.23 25.5659C70.1867 25.5625 70.1487 25.5458 70.1105 25.5249C70.0063 25.4674 69.8981 25.4201 69.7815 25.3903C69.675 25.3632 69.5757 25.3144 69.4798 25.2604C69.3841 25.2065 69.2895 25.1414 69.1824 25.122C69.0619 25.1 68.958 25.0453 68.85 24.9971C68.7026 24.931 68.5604 24.9179 68.4115 24.9986C68.3358 25.0394 68.249 25.0586 68.2405 25.1647C68.2097 25.2052 68.1831 25.2502 68.1469 25.2853C68.0834 25.347 68.0692 25.4351 68.0198 25.505C67.9927 25.5432 67.9902 25.6013 67.9843 25.6514C67.9779 25.7042 67.9541 25.7442 67.9262 25.7885C67.8767 25.8669 67.844 25.9556 67.8043 26.0399C67.8011 26.154 67.7333 26.2485 67.7077 26.3556C67.6803 26.4709 67.6097 26.5744 67.6148 26.6982C67.5556 26.7931 67.5195 26.8956 67.5096 27.0075C67.5083 27.0225 67.4939 27.038 67.4825 27.05C67.4445 27.0895 67.4369 27.1402 67.4276 27.1905C67.4215 27.2239 67.4227 27.2617 67.4069 27.2896C67.3593 27.3726 67.3494 27.4685 67.3118 27.5532C67.2761 27.6331 67.2818 27.7256 67.2389 27.7968C67.1781 27.898 67.1681 28.0047 67.1618 28.1156C67.1593 28.1589 67.1529 28.2004 67.1208 28.2331C67.0822 28.2722 67.0758 28.3229 67.0665 28.3734C67.0591 28.4148 67.0549 28.4606 67.0338 28.4949C66.9964 28.5553 66.9805 28.6191 66.974 28.688C66.9674 28.7558 66.952 28.8209 66.9326 28.887C66.8766 29.0771 66.8819 29.2571 67.0558 29.3959C67.1223 29.4489 67.1821 29.5102 67.2429 29.57C67.2742 29.6006 67.3103 29.6178 67.3503 29.6351C67.4037 29.6581 67.4481 29.7033 67.5024 29.7223C67.559 29.742 67.6167 29.7538 67.6577 29.8022C67.8239 29.8637 67.9676 29.9809 68.1512 30.0001C68.1757 30.0027 68.2034 30.0116 68.222 30.027C68.2777 30.073 68.3426 30.0868 68.4115 30.0946C68.4448 30.0982 68.4854 30.1009 68.5082 30.1208C68.5798 30.1827 68.6658 30.1791 68.7497 30.1884C68.8002 30.1941 68.8543 30.189 68.8976 30.2205C68.9565 30.2634 69.0235 30.2685 69.0917 30.274C69.1938 30.2824 69.2954 30.2928 69.3972 30.3025C69.4997 30.3589 69.6121 30.3485 69.7224 30.3487C69.8591 30.3494 69.9955 30.3494 70.132 30.3487C70.2341 30.3485 70.3357 30.3549 70.4329 30.3067C70.4688 30.2889 70.5159 30.293 70.5584 30.2896C70.6433 30.2826 70.7286 30.2788 70.8134 30.2704C70.8467 30.267 70.8841 30.2625 70.9108 30.245C70.9703 30.2055 71.0346 30.1903 71.1032 30.1837C71.1463 30.1797 71.185 30.1637 71.2198 30.1366C71.2395 30.1212 71.2638 30.103 71.2864 30.1028C71.3933 30.1011 71.478 30.0451 71.5703 30.0025C71.6779 29.9526 71.7911 29.915 71.8877 29.8434C71.9867 29.8286 72.0533 29.7616 72.1217 29.6976C72.1403 29.6803 72.1589 29.6549 72.1807 29.6509C72.2715 29.6342 72.3281 29.5698 72.3888 29.5115C72.4564 29.4471 72.5141 29.3693 72.6169 29.3581C72.7695 29.2347 72.9057 29.0953 73.0331 28.9466C73.0655 28.8141 73.1686 28.7325 73.2571 28.6419C73.3287 28.5686 73.4033 28.5006 73.4337 28.396C73.4449 28.3578 73.4812 28.3265 73.5074 28.2931C73.5284 28.2663 73.5651 28.2439 73.5708 28.2149C73.5905 28.1146 73.6663 28.0573 73.7257 27.9868C73.7419 27.9673 73.7578 27.9468 73.769 27.9247C73.8224 27.8188 73.8782 27.7138 73.9255 27.605C73.9593 27.5277 73.9834 27.4461 74.0405 27.3809C74.0451 27.2854 74.1281 27.2391 74.1736 27.1694C74.2293 27.0834 74.2773 26.9934 74.3092 26.896C74.3329 26.8233 74.35 26.75 74.3872 26.6805C74.4224 26.6144 74.4309 26.5341 74.4894 26.4787C74.4996 26.3991 74.565 26.3473 74.5921 26.278C74.6476 26.1352 74.7391 26.0091 74.7793 25.8599C74.8329 25.782 74.8746 25.7 74.8754 25.6013C74.8756 25.5783 74.8919 25.5542 74.9046 25.5327C74.9888 25.3907 75.1095 25.1304 75.1543 25.0062C75.1942 24.8953 75.2164 24.7768 75.2916 24.6804C75.3017 24.6673 75.307 24.6502 75.3127 24.6342C75.3374 24.563 75.3226 24.4835 75.3734 24.4155C75.4181 24.3557 75.4448 24.2824 75.4786 24.2148C75.49 24.192 75.5048 24.1687 75.5081 24.1442C75.5255 24.0145 75.5831 23.9004 75.6457 23.7893C75.6812 23.7263 75.6776 23.6579 75.6936 23.5924C75.7118 23.5185 75.7855 23.4694 75.7839 23.3845C75.7828 23.3243 75.8037 23.2694 75.8394 23.2174C75.8622 23.1838 75.8696 23.139 75.881 23.0985C75.8924 23.0579 75.8935 23.0133 75.9104 22.9753C75.9765 22.8272 76.0184 22.6713 76.0695 22.5181C76.1016 22.422 76.14 22.3271 76.1855 22.2367C76.2087 22.1906 76.2341 22.1475 76.2396 22.0956C76.245 22.044 76.2586 21.9959 76.2873 21.9513C76.3053 21.9232 76.3224 21.8911 76.3276 21.8587C76.341 21.7738 76.3769 21.6969 76.4012 21.6162C76.44 21.4863 76.5091 21.3648 76.5163 21.225C76.5176 21.2008 76.5269 21.1722 76.5425 21.1546C76.5911 21.0997 76.6046 21.0345 76.6093 20.9656C76.6124 20.9214 76.6357 20.8885 76.657 20.851C76.7115 20.7554 76.755 20.6539 76.7888 20.5484C76.8355 20.4033 76.8672 20.2529 76.9367 20.1153C76.9517 20.0855 76.9596 20.0507 76.964 20.0174C76.9727 19.9491 76.9891 19.8879 77.0295 19.8274C77.0599 19.7812 77.054 19.7124 77.0738 19.6569C77.0962 19.5939 77.145 19.5368 77.1539 19.4732C77.1706 19.351 77.2272 19.2471 77.2786 19.1404C77.2974 19.1017 77.3202 19.0655 77.3225 19.0222C77.3261 18.9512 77.3637 18.8951 77.3916 18.833C77.4222 18.7647 77.4286 18.6854 77.4461 18.6111C77.448 18.6033 77.4535 18.5955 77.4594 18.5894C77.5097 18.5364 77.5186 18.4691 77.5274 18.4006C77.5317 18.3677 77.5388 18.3308 77.5574 18.3049C77.6043 18.2395 77.613 18.1638 77.6329 18.0897C77.6525 18.0162 77.6981 17.9485 77.7108 17.8746C77.7254 17.7879 77.7799 17.7187 77.7947 17.6343C77.8534 17.5583 77.887 17.4742 77.8925 17.3765C77.8942 17.3454 77.9196 17.3154 77.9343 17.2851C77.9455 17.2623 77.9656 17.2403 77.9671 17.2171C77.9738 17.1036 78.0294 17.0059 78.0634 16.9016C78.0926 16.8126 78.1283 16.7255 78.1507 16.6351C78.1714 16.5516 78.2196 16.4774 78.2346 16.395C78.2517 16.3019 78.2713 16.214 78.3279 16.136C78.3417 16.1172 78.3429 16.0871 78.3446 16.0618C78.3486 16.0007 78.3662 15.9462 78.4008 15.8947C78.419 15.8674 78.4308 15.8326 78.4359 15.7999C78.446 15.732 78.4528 15.6641 78.4961 15.6068C78.5265 15.4656 78.6062 15.3386 78.6144 15.1906C78.6157 15.1664 78.6252 15.1382 78.6404 15.12C78.6871 15.0647 78.7012 15.0004 78.7086 14.9312C78.712 14.8984 78.7192 14.8594 78.7395 14.8364C78.7889 14.7803 78.7963 14.7148 78.8027 14.6464C78.8084 14.5875 78.7976 14.5236 78.8322 14.4718C78.8711 14.4134 78.8908 14.3506 78.9053 14.2829C78.9195 14.2168 78.9558 14.1543 78.9628 14.0881C78.9801 13.9254 79.0691 13.7817 79.0788 13.6179C79.0796 13.6019 79.0872 13.5832 79.0982 13.5715C79.1553 13.51 79.1586 13.4332 79.1633 13.3563C79.1679 13.2793 79.1755 13.2051 79.2294 13.1412C79.2493 13.1178 79.2529 13.0777 79.2562 13.0444C79.2672 12.943 79.266 12.8398 79.3249 12.7488C79.338 12.7284 79.342 12.7003 79.3446 12.675C79.36 12.522 79.4225 12.3795 79.4453 12.2278C79.4527 12.1781 79.4768 12.131 79.4903 12.0819C79.5015 12.0412 79.5121 11.9997 79.5167 11.9579C79.5235 11.8986 79.525 11.8387 79.5275 11.7789C79.5303 11.7184 79.54 11.6617 79.5824 11.6129C79.6116 11.5796 79.6122 11.5344 79.6139 11.4914C79.6177 11.389 79.6243 11.2867 79.626 11.1843C79.6274 11.0982 79.6308 11.0156 79.6862 10.9414C79.7043 10.9171 79.7052 10.8763 79.7056 10.8429C79.7077 10.7148 79.7088 10.5867 79.7052 10.4587C79.7039 10.4176 79.6961 10.3707 79.6746 10.3373H79.6739Z" fill="#4B5647"/>
<path d="M64.3299 23.0258C64.2881 22.9909 64.2712 22.9438 64.2678 22.8906C64.2642 22.8304 64.2575 22.7708 64.2084 22.727C64.1563 22.5931 64.0766 22.468 64.0739 22.3178C64.073 22.2743 64.0599 22.2342 64.0371 22.197C64.0092 22.1518 64.0039 22.1006 64.0018 22.0493C63.9997 21.9982 63.9989 21.9468 63.9972 21.8957C63.994 21.803 64.0082 21.7079 63.9285 21.6323C63.9084 21.6132 63.9074 21.5687 63.9063 21.5357C63.9027 21.4162 63.9019 21.2966 63.9019 21.1771C63.9017 20.0159 63.9019 18.8547 63.9019 17.6935H63.901C63.901 17.147 63.901 16.6006 63.901 16.0541C63.901 15.3455 63.9008 14.6368 63.9002 13.9281C63.9002 13.8351 63.9097 13.7411 63.8349 13.6636C63.8148 13.6428 63.8132 13.5999 63.8113 13.5668C63.8066 13.4902 63.8062 13.4131 63.8058 13.3363C63.8053 13.2587 63.8009 13.1842 63.7496 13.118C63.7301 13.0929 63.7208 13.0546 63.7196 13.0218C63.7158 12.9098 63.6879 12.8052 63.6541 12.6986C63.6283 12.6175 63.6067 12.5378 63.5649 12.462C63.5417 12.42 63.5527 12.3604 63.5368 12.3126C63.521 12.2654 63.487 12.2246 63.4679 12.178C63.4555 12.1472 63.454 12.1115 63.4504 12.0777C63.4447 12.0257 63.424 11.981 63.3984 11.9354C63.2915 11.7432 63.2159 11.5348 63.0991 11.3475C63.091 11.2751 63.0403 11.2268 63.0002 11.1724C62.9951 11.0872 62.926 11.0413 62.8819 10.9801C62.8669 10.9595 62.8453 10.9404 62.8392 10.9173C62.8137 10.822 62.7509 10.7537 62.6844 10.6867C62.6666 10.6691 62.6457 10.6473 62.6417 10.6246C62.6284 10.5525 62.5806 10.5065 62.5356 10.4549C62.4636 10.3724 62.3753 10.3008 62.3446 10.1871C62.3385 10.165 62.3136 10.1475 62.2965 10.1288C62.216 10.0412 62.1408 9.94783 62.0535 9.86763C61.8606 9.69008 61.6979 9.47666 61.4565 9.35548C61.4341 9.34422 61.4151 9.32537 61.3963 9.30822C61.3088 9.22906 61.231 9.13682 61.111 9.10198C61.0958 9.0976 61.0819 9.08391 61.0707 9.0716C60.976 8.96746 60.8421 8.928 60.7253 8.86075C60.7035 8.8482 60.6748 8.84641 60.6556 8.83166C60.615 8.80092 60.5806 8.75981 60.5263 8.75455C60.4612 8.74827 60.4297 8.68576 60.3727 8.66706C60.2271 8.61915 60.098 8.53548 59.959 8.47297C59.8813 8.43788 59.8101 8.39484 59.7218 8.38933C59.6896 8.38728 59.6497 8.37653 59.6288 8.35475C59.577 8.30106 59.4972 8.31336 59.4458 8.26942C59.3818 8.21472 59.3053 8.21292 59.2301 8.20075C59.2134 8.19807 59.1946 8.19501 59.1815 8.18565C59.1228 8.14375 59.0556 8.13877 58.9874 8.1307C58.9371 8.12468 58.8826 8.11775 58.8393 8.09404C58.7611 8.05101 58.6796 8.03909 58.5934 8.03947C58.5239 8.03975 58.4605 8.02872 58.4062 7.97556C58.3851 7.95492 58.3437 7.95057 58.3107 7.94776C58.2513 7.94263 58.1915 7.94366 58.1318 7.94288C58.0629 7.94199 57.9978 7.93827 57.9448 7.88115C57.9152 7.84925 57.8668 7.85091 57.8239 7.85066C57.679 7.8495 57.5339 7.84963 57.3889 7.84732C57.2879 7.84565 57.1865 7.85668 57.0976 7.78263C57.0515 7.7442 56.9829 7.75779 56.9235 7.75766C56.5481 7.75713 56.1727 7.75713 55.7972 7.75766C55.7463 7.75766 55.6948 7.75791 55.6441 7.76394C55.6025 7.76892 55.5536 7.77175 55.5222 7.7948C55.4539 7.84477 55.3796 7.84745 55.3027 7.84796C55.1066 7.84925 54.9103 7.84988 54.7141 7.85053C54.6532 7.85079 54.5987 7.86258 54.547 7.90126C54.5153 7.92496 54.4686 7.93648 54.428 7.93865C54.3089 7.94508 54.1893 7.9448 54.0699 7.94571C54.0082 7.94622 53.9527 7.95659 53.9079 8.00541C53.8844 8.03089 53.8481 8.03691 53.8132 8.03782C53.745 8.03947 53.677 8.04205 53.6087 8.04217C53.5472 8.04217 53.491 8.05369 53.4425 8.09546C53.4013 8.1307 53.3487 8.13209 53.2973 8.13568C53.2382 8.13978 53.176 8.12953 53.1222 8.16093C53.0689 8.1918 53.0125 8.20472 52.9525 8.21165C52.9194 8.2155 52.8796 8.22048 52.8566 8.24072C52.8004 8.29031 52.7345 8.29517 52.6665 8.30311C52.6335 8.30696 52.5957 8.31389 52.571 8.33347C52.5146 8.37845 52.4525 8.39573 52.3827 8.40137C52.3496 8.40406 52.3149 8.41443 52.2858 8.43032C52.1658 8.49541 52.0434 8.55329 51.9082 8.57996C51.892 8.58315 51.874 8.58929 51.8615 8.59967C51.7882 8.66013 51.6839 8.6618 51.6158 8.73163C51.5104 8.75108 51.4367 8.8227 51.3577 8.88676C51.3384 8.90252 51.3137 8.91173 51.2911 8.92339C51.1479 8.99719 50.9994 9.06264 50.8865 9.1842C50.8753 9.19625 50.8593 9.20816 50.8439 9.21099C50.7528 9.22713 50.6994 9.29772 50.6383 9.35446C50.5386 9.44721 50.4465 9.54815 50.3476 9.64179C50.2608 9.72403 50.1767 9.80679 50.1437 9.92696C50.0632 9.9901 50.0685 10.0951 50.0248 10.1771C49.981 10.2591 49.9791 10.3582 49.9781 10.4527C49.9777 10.4954 49.9768 10.538 49.9768 10.5808C49.9764 10.6493 49.9722 10.7161 49.9418 10.7804C49.9037 10.8611 49.9153 10.9472 49.9272 11.0321C49.9927 11.1418 49.9762 11.2633 49.9764 11.3818C49.9772 11.8173 49.9764 12.2527 49.977 12.6882C49.977 12.7651 49.9775 12.8419 49.9825 12.9185C49.9872 12.988 50.0096 13.0519 50.0598 13.1035C50.1545 13.201 50.2487 13.299 50.3438 13.396C50.3554 13.4078 50.371 13.419 50.3869 13.4228C50.486 13.4463 50.5844 13.4816 50.6884 13.4662C50.8141 13.4476 50.9451 13.4384 51.0313 13.3223C51.0408 13.3096 51.0583 13.298 51.0737 13.2954C51.1741 13.2784 51.2343 13.2028 51.3006 13.1388C51.4229 13.0207 51.5425 12.8992 51.6598 12.776C51.7413 12.6903 51.8275 12.6089 51.8774 12.4957C51.9004 12.4438 51.952 12.404 51.9925 12.3607C52.039 12.311 52.0891 12.2647 52.1349 12.2146C52.1634 12.1834 52.2019 12.1513 52.211 12.1137C52.2389 11.9962 52.3318 11.931 52.4041 11.8491C52.4765 11.767 52.5716 11.7025 52.5993 11.5867C52.6031 11.5712 52.6156 11.5569 52.6265 11.544C52.7191 11.4347 52.8338 11.342 52.8794 11.1984C52.9208 11.1556 52.9637 11.1142 53.0032 11.0699C53.0713 10.9938 53.1374 10.9159 53.2041 10.8388C53.2369 10.7263 53.3246 10.658 53.4044 10.5819C53.4908 10.4998 53.5711 10.4112 53.6554 10.3266C53.8352 10.146 54.0165 9.96668 54.1956 9.78541C54.2383 9.74235 54.281 9.70764 54.3437 9.69355C54.382 9.68497 54.4172 9.65294 54.4485 9.62552C54.4933 9.58633 54.5324 9.54034 54.5761 9.50011C54.6006 9.47782 54.6277 9.45131 54.6579 9.44362C54.7584 9.41774 54.8246 9.3236 54.9308 9.31156C54.9955 9.23508 55.0994 9.23584 55.1782 9.18446C55.2638 9.12862 55.3783 9.1441 55.4643 9.08032C55.4827 9.06674 55.5135 9.06803 55.5389 9.06661C55.59 9.0638 55.6411 9.06264 55.6925 9.06277C55.7617 9.06302 55.8258 9.05687 55.8801 9.00179C55.9006 8.9809 55.9424 8.97361 55.9749 8.97298C56.1114 8.97027 56.2477 8.9704 56.3841 8.97425C56.416 8.97515 56.4545 8.98667 56.4777 9.00718C56.5344 9.05765 56.6011 9.06917 56.6687 9.0611C56.8377 9.04099 56.9791 9.14193 57.1388 9.16039C57.2032 9.20214 57.2672 9.24378 57.3439 9.26146C57.3587 9.26491 57.3725 9.28003 57.3834 9.29246C57.4844 9.40506 57.6234 9.48513 57.6741 9.64191C57.6862 9.67946 57.724 9.70982 57.7529 9.74056C57.806 9.79667 57.8565 9.85341 57.8615 9.93579C57.9215 10.0221 57.9253 10.131 57.9695 10.2206C58.0219 10.3268 58.0088 10.4369 58.0291 10.5444C58.0481 10.6443 58.0451 10.7483 58.0948 10.8425C58.1096 10.8708 58.1094 10.9089 58.1102 10.9426C58.1125 11.0279 58.1129 11.1133 58.1106 11.1986C58.1096 11.2321 58.1068 11.2692 58.0916 11.2977C58.0584 11.3603 58.0487 11.4264 58.0443 11.4948C58.0365 11.6184 57.9659 11.7191 57.9165 11.8258C57.8767 11.911 57.7922 11.9644 57.7204 12.0241C57.7082 12.0344 57.6898 12.0386 57.6733 12.0422C57.6078 12.0564 57.5394 12.055 57.4848 12.1087C57.4251 12.1676 57.3368 12.1361 57.2658 12.1642C57.2503 12.1703 57.2351 12.1796 57.2231 12.191C57.1832 12.2287 57.1348 12.2401 57.0822 12.2419C57.0566 12.2428 57.031 12.2451 57.0055 12.245C56.936 12.2446 56.8715 12.2545 56.8145 12.3024C56.7906 12.3225 56.7517 12.3333 56.7196 12.3335C56.607 12.3344 56.5018 12.3603 56.3985 12.4032C56.3522 12.4224 56.2903 12.4128 56.2519 12.4396C56.1767 12.4921 56.0968 12.5049 56.0106 12.5066C55.9411 12.508 55.8788 12.5259 55.8196 12.5669C55.7871 12.5895 55.7398 12.591 55.6988 12.6007C55.6658 12.6085 55.6303 12.6097 55.5995 12.6225C55.5606 12.6385 55.527 12.6772 55.4882 12.6818C55.376 12.695 55.2796 12.7548 55.1719 12.7774C55.0789 12.7969 54.9925 12.8352 54.9099 12.8767C54.8265 12.9184 54.7502 12.9706 54.652 12.9721C54.6285 12.9725 54.6034 12.987 54.5818 12.9994C54.4568 13.0715 54.3281 13.1347 54.1857 13.1658C54.1614 13.1712 54.1379 13.1829 54.1153 13.1944C54.0471 13.2288 53.9789 13.2631 53.9121 13.2999C53.8456 13.3365 53.7615 13.3389 53.7099 13.4043C53.6229 13.4172 53.5654 13.4959 53.4849 13.5137C53.4055 13.5313 53.3531 13.5928 53.28 13.6139C53.2284 13.6287 53.191 13.6631 53.1496 13.6925C53.1019 13.7265 53.0653 13.7721 53.002 13.7891C52.9472 13.8039 52.9027 13.8545 52.8482 13.8736C52.7903 13.8938 52.7398 13.9175 52.6965 13.9617C52.6671 13.9917 52.6322 14.0242 52.5938 14.0357C52.4987 14.0643 52.4311 14.1246 52.3692 14.1971C52.3538 14.2152 52.3284 14.2306 52.3054 14.2348C52.2437 14.2461 52.1972 14.2762 52.1529 14.3204C52.0992 14.3741 52.0401 14.4226 51.964 14.4482C51.9256 14.4612 51.8913 14.4918 51.8601 14.5201C51.8157 14.5602 51.7741 14.6 51.713 14.6171C51.6826 14.6255 51.6562 14.6528 51.6308 14.6747C51.5795 14.7192 51.5279 14.7639 51.4802 14.812C51.1916 15.1014 50.9039 15.3917 50.6163 15.6821C50.5565 15.7426 50.4974 15.8041 50.4397 15.8667C50.4169 15.8914 50.3905 15.9177 50.3803 15.9482C50.3522 16.0326 50.2944 16.0949 50.2367 16.1573C50.2071 16.1893 50.1832 16.2221 50.1729 16.2654C50.1672 16.2895 50.1583 16.3189 50.1408 16.333C50.0294 16.4222 49.9794 16.5523 49.9175 16.6718C49.8818 16.7405 49.8515 16.8138 49.7951 16.8636C49.7193 16.9308 49.7195 17.0334 49.6612 17.1076C49.6367 17.1388 49.628 17.1859 49.6221 17.2272C49.6134 17.2876 49.5948 17.3408 49.561 17.3927C49.5241 17.4493 49.4958 17.5123 49.4689 17.5748C49.4459 17.629 49.4377 17.6878 49.3948 17.7352C49.3451 17.7899 49.3696 17.8665 49.3523 17.9316C49.3479 17.9479 49.3441 17.968 49.3329 17.9781C49.2678 18.0363 49.2718 18.1148 49.2627 18.1908C49.2568 18.241 49.2543 18.2981 49.2285 18.3378C49.1833 18.4071 49.1772 18.4804 49.1702 18.5572C49.1662 18.5992 49.1639 18.6461 49.144 18.6809C49.0939 18.7679 49.0967 18.8607 49.0958 18.9545C49.0952 19.0142 49.0939 19.074 49.0912 19.1337C49.0893 19.177 49.0785 19.2193 49.0496 19.2524C49.0065 19.3014 49.0012 19.3596 49.0012 19.4201C49.0012 19.7445 49.001 20.0689 49.001 20.3934C49.001 20.4708 49.0027 20.5456 49.0639 20.608C49.0846 20.6288 49.0882 20.6708 49.0908 20.7039C49.0963 20.7719 49.0937 20.8404 49.0984 20.9086C49.1005 20.942 49.1026 20.9804 49.1195 21.0069C49.1582 21.0672 49.1691 21.1323 49.1778 21.2006C49.182 21.2332 49.1926 21.2695 49.212 21.295C49.2444 21.3372 49.2568 21.385 49.2746 21.4329C49.2921 21.4797 49.3413 21.5192 49.3464 21.5655C49.3561 21.65 49.4406 21.6882 49.452 21.7668C49.4609 21.8294 49.4962 21.8763 49.5378 21.9204C49.5608 21.9451 49.5902 21.9709 49.5984 22.0011C49.6272 22.1063 49.7034 22.1739 49.7753 22.2464C49.8475 22.3189 49.9175 22.3935 49.9903 22.4653C50.0332 22.5075 50.0732 22.5492 50.0884 22.6109C50.0968 22.6447 50.1243 22.6696 50.1579 22.6808C50.2508 22.7112 50.3197 22.7731 50.3814 22.8456C50.4422 22.9172 50.5113 22.9823 50.5893 23.0332C50.6529 23.0744 50.7283 23.0982 50.7767 23.162C50.8322 23.2351 50.9372 23.2187 50.9972 23.285C51.0338 23.3256 51.0921 23.3205 51.1367 23.3442C51.1813 23.3678 51.2203 23.4084 51.267 23.4194C51.337 23.4358 51.3824 23.4944 51.4491 23.5096C51.5322 23.5286 51.6125 23.5556 51.6938 23.5785C51.7838 23.6038 51.8755 23.618 51.957 23.6687C51.9771 23.6813 52.0063 23.6809 52.0316 23.6828C52.0825 23.6866 52.1339 23.6856 52.185 23.6904C52.2095 23.693 52.2408 23.6974 52.256 23.7135C52.3158 23.7764 52.391 23.7781 52.4685 23.7781C52.801 23.7781 53.1338 23.7785 53.4665 23.7787C53.5519 23.7787 53.6389 23.7844 53.7025 23.7101C53.7439 23.7025 53.7851 23.6906 53.8265 23.6881C53.9533 23.6807 54.0826 23.6959 54.1986 23.6222C54.2256 23.6049 54.2641 23.6006 54.2977 23.5996C54.3936 23.5968 54.481 23.5658 54.567 23.5282C54.675 23.5313 54.7584 23.4639 54.8539 23.431C54.9051 23.4135 54.9378 23.3716 54.9834 23.3543C55.0377 23.3334 55.0994 23.3321 55.1569 23.3188C55.1812 23.3131 55.2065 23.3028 55.2258 23.2873C55.2663 23.2542 55.3168 23.2417 55.3599 23.217C55.4765 23.1496 55.6134 23.113 55.7022 23.0009C55.7119 22.9886 55.7305 22.9772 55.7457 22.9761C55.842 22.9694 55.8896 22.8887 55.9544 22.8371C56.014 22.7898 56.0603 22.7243 56.133 22.6943C56.2063 22.6641 56.2614 22.6104 56.317 22.5587C56.4414 22.4427 56.5618 22.3223 56.6844 22.2039C56.7025 22.1866 56.7217 22.16 56.7425 22.1579C56.8379 22.1484 56.8922 22.0818 56.9487 22.0185C57.012 21.947 57.0828 21.8889 57.177 21.8625C57.2007 21.8558 57.2201 21.8349 57.2429 21.8241C57.2734 21.8101 57.3044 21.7937 57.337 21.7884C57.4724 21.7666 57.6086 21.7637 57.7449 21.7804C57.7696 21.7835 57.7982 21.7886 57.8168 21.8036C57.8894 21.8617 57.9746 21.9139 58.0086 22.0037C58.0475 22.1057 58.133 22.1902 58.1239 22.3113C58.122 22.3347 58.1317 22.3656 58.1476 22.3825C58.2051 22.4448 58.208 22.5211 58.2135 22.5978C58.2188 22.6751 58.231 22.7473 58.2853 22.8116C58.3162 22.8483 58.3126 22.9151 58.3447 22.9501C58.4535 23.0697 58.5714 23.1813 58.6861 23.2954C58.692 23.3013 58.7001 23.3057 58.7081 23.308C58.8365 23.3446 58.9441 23.4397 59.0922 23.4253C59.2189 23.4128 59.3478 23.4253 59.4758 23.4253C60.6788 23.4255 61.8818 23.4255 63.0847 23.4255C63.4941 23.4255 63.9036 23.4259 64.3132 23.4251C64.3728 23.4251 64.4322 23.4206 64.4915 23.4168C64.5256 23.4147 64.5556 23.3685 64.5393 23.3431C64.471 23.2368 64.4326 23.1107 64.3312 23.0262L64.3299 23.0258ZM58.0736 14.8985C58.0652 15.5383 58.0709 16.178 58.0709 16.8179H58.0713C58.0713 17.5003 58.0707 18.1828 58.0722 18.8652C58.0724 18.9856 58.0593 19.1026 58.0291 19.2193C58.0012 19.3263 57.9714 19.4336 57.9693 19.5458C57.9691 19.571 57.9644 19.5975 57.9553 19.6209C57.9032 19.7558 57.8556 19.8933 57.7933 20.0234C57.7382 20.1381 57.6754 20.2518 57.5987 20.3526C57.4958 20.4875 57.3839 20.617 57.247 20.7204C57.2132 20.7459 57.1762 20.7681 57.1384 20.7872C57.0395 20.837 56.9398 20.8848 56.8396 20.9321C56.8168 20.9428 56.7923 20.9523 56.7676 20.9561C56.5149 20.9949 56.2622 21.0426 56.0072 20.9728C55.8218 20.9839 55.6635 20.8839 55.4903 20.8447C55.4662 20.8392 55.444 20.8234 55.422 20.8107C55.3409 20.764 55.2591 20.7183 55.1797 20.6688C55.1366 20.642 55.0939 20.6126 55.058 20.5772C54.9615 20.4815 54.8685 20.3824 54.7749 20.2836C54.7578 20.2653 54.7426 20.2437 54.731 20.2213C54.6606 20.0849 54.5839 19.9512 54.5248 19.81C54.4726 19.685 54.4341 19.5529 54.4029 19.4208C54.3851 19.3465 54.3682 19.2721 54.3494 19.1979C54.3325 19.1325 54.3281 19.0635 54.3232 18.9956C54.3175 18.9192 54.3207 18.8419 54.3137 18.7656C54.3099 18.7245 54.2996 18.6806 54.2799 18.6449C54.2497 18.5904 54.2364 18.5346 54.2364 18.4739C54.2364 18.1924 54.2364 17.911 54.2368 17.6294C54.2368 17.5689 54.2484 17.5131 54.2801 17.4588C54.3006 17.4237 54.3093 17.3786 54.3125 17.3372C54.3186 17.2609 54.3171 17.1839 54.3184 17.107C54.3207 16.9872 54.3264 16.8685 54.3706 16.7546C54.3828 16.7234 54.3898 16.6888 54.3921 16.6552C54.3982 16.569 54.4187 16.4873 54.4534 16.4082C54.4669 16.3773 54.4834 16.3435 54.483 16.3112C54.4813 16.1952 54.5375 16.0986 54.5763 15.9953C54.6211 15.8765 54.6908 15.7682 54.7151 15.6401C54.7259 15.5836 54.7606 15.5298 54.792 15.4795C54.8681 15.3569 54.9368 15.2302 55.021 15.1118C55.1043 14.9947 55.185 14.8755 55.2676 14.7576C55.4153 14.5466 55.5881 14.3607 55.7844 14.1964C55.9147 14.0872 56.0529 13.9863 56.2046 13.909C56.2946 13.8632 56.3649 13.7799 56.4718 13.7666C56.6396 13.6759 56.8268 13.6481 57.0087 13.6077C57.2487 13.5543 57.4838 13.5926 57.705 13.6988C57.7496 13.7201 57.7889 13.7587 57.8212 13.797C57.8882 13.8752 57.9391 13.9673 57.9636 14.0652C58.032 14.3382 58.0768 14.6137 58.0732 14.8989L58.0736 14.8985Z" fill="#4B5647"/>
<path d="M94.6113 10.0695C94.5777 9.99916 94.5433 9.93356 94.4894 9.8772C94.4666 9.85311 94.4374 9.82379 94.4342 9.79419C94.426 9.71758 94.3749 9.6725 94.3267 9.62575C94.2477 9.54914 94.1801 9.45639 94.0753 9.41258C94.0022 9.38209 93.9458 9.33175 93.8862 9.28383C93.8602 9.26283 93.8338 9.23503 93.8034 9.2281C93.7411 9.21375 93.7007 9.17135 93.654 9.13472C93.6075 9.09821 93.5568 9.06631 93.5072 9.03403C93.4142 8.97382 93.3023 8.9514 93.2118 8.88479C93.1863 8.86596 93.148 8.85969 93.1149 8.85686C93.0449 8.85097 92.9868 8.82906 92.9281 8.7864C92.8681 8.74299 92.7834 8.73773 92.7302 8.67701C92.6537 8.66253 92.5897 8.61796 92.5189 8.59041C92.4166 8.55069 92.3097 8.51944 92.2022 8.49715C92.1329 8.48281 92.0773 8.44552 92.0148 8.42093C91.9525 8.39647 91.8823 8.39224 91.8158 8.3784C91.808 8.37673 91.7999 8.37147 91.794 8.36572C91.7414 8.31447 91.6751 8.30319 91.606 8.29962C91.5627 8.29744 91.5225 8.28642 91.4877 8.25798C91.4461 8.22403 91.3956 8.21712 91.344 8.21224C91.2849 8.20675 91.2177 8.21277 91.1689 8.18623C91.0806 8.13821 90.9893 8.13846 90.8959 8.13513C90.8273 8.1327 90.7567 8.12961 90.6992 8.08951C90.6388 8.04751 90.5733 8.042 90.5044 8.04124C90.4189 8.04033 90.3346 8.04162 90.2666 7.97078C90.2471 7.95054 90.2032 7.94849 90.1702 7.94771C90.0166 7.94412 89.863 7.94387 89.7094 7.94273C89.648 7.94232 89.593 7.93043 89.5472 7.88277C89.5161 7.85061 89.4699 7.85099 89.427 7.85074C89.2649 7.84998 89.1027 7.84985 88.9406 7.84894C88.7957 7.84818 88.6506 7.84702 88.5056 7.84575C88.4625 7.84535 88.4173 7.84318 88.3846 7.81347C88.3288 7.76285 88.2623 7.75787 88.1934 7.75774C87.8862 7.75723 87.5792 7.75749 87.2721 7.75774C87.2549 7.75774 87.2378 7.75875 87.2209 7.76004C87.178 7.76351 87.1354 7.77016 87.1022 7.80014C87.0612 7.83728 87.0118 7.8451 86.9598 7.84561C86.832 7.84689 86.704 7.84818 86.5759 7.84882C86.431 7.84958 86.2861 7.84958 86.1409 7.85036C86.0983 7.85061 86.0499 7.84626 86.0194 7.87789C85.9586 7.94118 85.8828 7.94131 85.8059 7.94285C85.6949 7.9449 85.584 7.94528 85.4731 7.9467C85.4298 7.9472 85.3871 7.95335 85.3559 7.98665C85.3246 8.02022 85.2868 8.03469 85.2426 8.03674C85.1999 8.03866 85.1575 8.03932 85.1148 8.04071C85.0218 8.04367 84.9253 8.03213 84.8509 8.10861C84.8454 8.11438 84.8361 8.11873 84.8281 8.11937C84.717 8.12847 84.6156 8.1792 84.5076 8.19675C84.3984 8.21442 84.2864 8.21365 84.1941 8.28796C84.1882 8.29282 84.178 8.29461 84.1698 8.29449C84.072 8.29269 83.9955 8.34599 83.9106 8.3843C83.8193 8.42554 83.7297 8.47818 83.6254 8.49215C83.5763 8.49868 83.532 8.53533 83.4828 8.54416C83.4035 8.55851 83.3503 8.63038 83.2776 8.64126C83.1642 8.65818 83.0748 8.72581 82.9711 8.75847C82.9033 8.77987 82.8627 8.84494 82.7932 8.85405C82.7085 8.86518 82.6654 8.93488 82.6039 8.97857C82.5902 8.98842 82.5764 9.002 82.5608 9.00534C82.4623 9.02608 82.4034 9.10218 82.3333 9.1629C82.3142 9.1793 82.2956 9.20442 82.2739 9.20811C82.182 9.22362 82.1258 9.29101 82.0654 9.3489C81.8809 9.52582 81.6997 9.7058 81.519 9.88681C81.4658 9.94037 81.4054 9.9916 81.3988 10.0769C81.3978 10.0923 81.3872 10.1106 81.3752 10.121C81.2911 10.1948 81.2148 10.2733 81.1863 10.387C81.1825 10.4022 81.1666 10.4146 81.1552 10.4273C81.0978 10.491 81.065 10.5681 81.0257 10.6431C80.9856 10.72 80.9484 10.7925 80.9414 10.8804C80.9389 10.9122 80.9205 10.9453 80.9019 10.9727C80.8421 11.06 80.8605 11.1728 80.8033 11.2614C80.7861 11.2877 80.7868 11.327 80.7838 11.3606C80.7796 11.4124 80.7747 11.4634 80.7384 11.504C80.7012 11.5452 80.6951 11.5953 80.694 11.6471C80.6913 11.7836 80.6885 11.9202 80.6868 12.0569C80.686 12.1341 80.6864 12.2097 80.6254 12.2711C80.6095 12.2868 80.604 12.3184 80.6036 12.3428C80.6013 12.4623 80.6004 12.5818 80.6038 12.7013C80.6049 12.7335 80.614 12.7732 80.6344 12.7959C80.679 12.8452 80.6858 12.9011 80.6864 12.9617C80.6873 13.0726 80.6873 13.1837 80.6911 13.2946C80.6944 13.3956 80.6816 13.4997 80.7595 13.5859C80.7792 13.6077 80.7752 13.6506 80.7825 13.6837C80.7916 13.725 80.7954 13.7685 80.8115 13.8069C80.8316 13.8548 80.8476 13.902 80.851 13.954C80.8571 14.0491 80.8873 14.1366 80.9313 14.2216C80.9581 14.2738 80.9721 14.331 81.0135 14.3779C81.0612 14.4319 81.0302 14.5145 81.0648 14.5725C81.1123 14.6526 81.1337 14.75 81.193 14.8183C81.2841 14.9233 81.3375 15.0476 81.4003 15.1665C81.4284 15.2199 81.4569 15.2681 81.4983 15.312C81.5619 15.38 81.6202 15.4534 81.6809 15.5245C81.7136 15.6364 81.8 15.7086 81.8765 15.7879C81.965 15.88 82.054 15.972 82.1459 16.0607C82.212 16.1248 82.2686 16.204 82.3736 16.2143C82.3943 16.2164 82.4133 16.2433 82.4317 16.2603C82.561 16.3808 82.6658 16.5317 82.8466 16.5876C82.8684 16.5944 82.884 16.6213 82.9024 16.6389C82.9582 16.6923 83.0218 16.7303 83.0928 16.7637C83.2149 16.8208 83.3444 16.8695 83.4394 16.9739C83.4555 16.9915 83.4817 17.0086 83.5045 17.0101C83.5797 17.0153 83.618 17.0825 83.6814 17.1072C83.7528 17.135 83.8221 17.168 83.8909 17.2014C83.967 17.2384 84.0375 17.2873 84.1278 17.2882C84.1516 17.2885 84.1804 17.2993 84.1981 17.315C84.2581 17.3688 84.3481 17.3623 84.4039 17.4112C84.4761 17.4744 84.5625 17.4653 84.6426 17.4879C84.6667 17.4947 84.6874 17.512 84.7106 17.5228C84.7413 17.537 84.7719 17.5569 84.804 17.5614C84.931 17.5789 85.0531 17.6053 85.1727 17.6565C85.249 17.6892 85.3324 17.7117 85.4133 17.7354C85.4936 17.7589 85.5813 17.7521 85.651 17.8141C85.6732 17.8337 85.715 17.834 85.7484 17.8372C85.808 17.8428 85.8678 17.8451 85.9273 17.8465C85.9884 17.8479 86.0435 17.8592 86.0923 17.9019C86.1327 17.9368 86.1878 17.9331 86.2387 17.9385C86.2977 17.9448 86.3638 17.9402 86.4135 17.966C86.5168 18.02 86.6249 18.0271 86.7361 18.0311C86.8043 18.0335 86.8725 18.0327 86.9408 18.0378C86.9826 18.041 87.028 18.0439 87.0644 18.0622C87.1284 18.0946 87.1941 18.1007 87.2628 18.1013C87.5102 18.1034 87.7575 18.1059 88.0049 18.1076C88.0742 18.1081 88.1397 18.1119 88.1945 18.1652C88.2261 18.1961 88.273 18.195 88.3157 18.195C88.6571 18.1952 88.9983 18.195 89.3397 18.1955C89.4014 18.1955 89.4568 18.183 89.5052 18.1413C89.5466 18.1055 89.6004 18.1086 89.6516 18.1082C89.9245 18.1055 90.1975 18.1032 90.4706 18.101C90.5475 18.1004 90.6225 18.0977 90.6948 18.0617C90.7311 18.0437 90.7768 18.0399 90.8184 18.0378C90.9122 18.0329 91.0064 18.0368 91.0998 18.0301C91.2435 18.02 91.3897 18.0261 91.5255 17.9617C91.5549 17.9477 91.5916 17.9457 91.6252 17.9453C92.0175 17.9412 92.4101 17.9375 92.8024 17.9361C92.8791 17.9358 92.9579 17.9355 93.0314 17.9535C93.0954 17.9691 93.1512 18.0151 93.214 18.0392C93.3088 18.0758 93.3593 18.14 93.3946 18.2368C93.4358 18.3495 93.4842 18.4578 93.4835 18.5796C93.4829 18.682 93.4797 18.7846 93.473 18.8867C93.4709 18.9194 93.462 18.9578 93.4419 18.9818C93.4005 19.0311 93.3847 19.0872 93.3821 19.1469C93.3794 19.2118 93.3468 19.2554 93.3048 19.3009C93.2539 19.356 93.1873 19.4027 93.177 19.4875C93.1751 19.5031 93.1641 19.5203 93.1523 19.5315C93.0369 19.6398 92.9651 19.7993 92.791 19.8392C92.7756 19.8428 92.7599 19.8549 92.7492 19.8672C92.6395 19.9901 92.4735 20.0367 92.3611 20.1561C92.3452 20.1729 92.3148 20.1754 92.2916 20.1858C92.2611 20.1995 92.2269 20.2095 92.2018 20.2303C92.1602 20.2646 92.1145 20.2816 92.0623 20.2862C92.0201 20.2901 91.977 20.2912 91.9402 20.3176C91.8126 20.4088 91.669 20.4528 91.5137 20.4669C91.4729 20.4706 91.4302 20.4865 91.3949 20.5072C91.3491 20.5341 91.3024 20.5487 91.25 20.5504C91.1904 20.5523 91.1309 20.5551 91.0711 20.5564C91.01 20.5578 90.9544 20.569 90.9073 20.6143C90.875 20.6453 90.8287 20.644 90.7861 20.6442C90.4875 20.6449 90.1888 20.6454 89.8903 20.6452C89.7973 20.6452 89.7037 20.6515 89.6256 20.58C89.604 20.5605 89.5614 20.5603 89.5282 20.559C89.4088 20.5544 89.2892 20.555 89.1699 20.5495C89.1282 20.5476 89.0778 20.5459 89.0478 20.5226C88.9732 20.4643 88.8893 20.4665 88.8046 20.4615C88.7368 20.4575 88.6645 20.468 88.6041 20.4324C88.5337 20.3909 88.459 20.3858 88.3821 20.3856C88.3121 20.3856 88.2473 20.3749 88.193 20.3238C88.1759 20.3076 88.1478 20.2967 88.1239 20.295C88.0387 20.2887 87.9559 20.286 87.8887 20.2175C87.8693 20.1975 87.8247 20.1958 87.792 20.1958C87.687 20.1958 87.5892 20.1776 87.5074 20.1061C87.4149 20.0897 87.3422 20.0183 87.2431 20.0155C87.2032 20.0144 87.1635 19.988 87.1244 19.9719C87.0933 19.9589 87.0642 19.937 87.0321 19.9315C86.9473 19.9168 86.8643 19.9012 86.7982 19.8406C86.7293 19.8284 86.6704 19.7961 86.6186 19.7497C86.5159 19.7301 86.4378 19.658 86.3423 19.621C86.248 19.5846 86.1665 19.5131 86.071 19.4825C85.9723 19.4507 85.9018 19.3682 85.798 19.3507C85.7752 19.3469 85.7514 19.3279 85.7355 19.3095C85.6212 19.1784 85.4368 19.1466 85.3225 19.0166C85.2282 19.0085 85.1771 18.9328 85.1129 18.8793C85.0797 18.8516 85.0491 18.8237 85.0071 18.8114C84.9564 18.7968 84.9175 18.764 84.8788 18.7296C84.8473 18.7017 84.8137 18.6628 84.7768 18.6566C84.6872 18.6419 84.6401 18.5538 84.5518 18.5408C84.459 18.5273 84.4212 18.435 84.3483 18.3926C84.3192 18.3756 84.2866 18.3643 84.2568 18.3483C84.1747 18.3041 84.0893 18.2641 84.012 18.2124C83.9279 18.1563 83.8584 18.0775 83.7521 18.0598C83.6355 17.9724 83.4988 17.9241 83.3695 17.8616C83.3393 17.847 83.3068 17.8311 83.2742 17.8284C83.1961 17.8223 83.1236 17.8096 83.063 17.753C83.0465 17.7377 83.0156 17.7333 82.9911 17.7323C82.9231 17.7294 82.8544 17.7274 82.7866 17.7324C82.7543 17.7347 82.7226 17.7522 82.692 17.7657C82.6535 17.7826 82.6155 17.8012 82.5787 17.8215C82.5418 17.842 82.5008 17.8597 82.4718 17.8888C82.3273 18.0332 82.1871 18.1814 82.0438 18.3269C82.0068 18.3643 81.9815 18.4048 81.9654 18.4555C81.9373 18.5439 81.8613 18.6092 81.8412 18.7026C81.7463 18.782 81.718 18.9038 81.6509 19.0001C81.6149 19.0517 81.6245 19.1236 81.5795 19.1607C81.5131 19.2155 81.5306 19.3088 81.4736 19.3616C81.409 19.4214 81.4227 19.5026 81.4024 19.5746C81.3978 19.5909 81.3908 19.6068 81.383 19.6219C81.3139 19.7583 81.2427 19.894 81.2093 20.0453C81.2076 20.0533 81.2034 20.0615 81.1983 20.0682C81.1546 20.1253 81.148 20.1931 81.1392 20.2613C81.1349 20.2939 81.1284 20.3349 81.1068 20.3553C81.0411 20.4179 81.0468 20.5125 80.993 20.5815C80.9383 20.6513 80.952 20.7445 80.9429 20.829C80.9412 20.8458 80.9404 20.8651 80.9313 20.8782C80.8666 20.973 80.8666 21.0893 80.8256 21.1919C80.81 21.2309 80.7927 21.2726 80.7916 21.3134C80.7868 21.5181 80.7861 21.7231 80.7853 21.928C80.7853 21.9808 80.8077 22.025 80.839 22.0683C80.8829 22.1293 80.9562 22.1726 80.9604 22.259C81.0095 22.3169 81.0494 22.386 81.1314 22.404C81.184 22.4156 81.2216 22.4473 81.2596 22.4828C81.3217 22.5409 81.3889 22.5884 81.4744 22.6146C81.5543 22.6389 81.6257 22.69 81.702 22.7274C81.7318 22.7422 81.7637 22.7585 81.796 22.7621C81.8655 22.7701 81.923 22.7963 81.9838 22.832C82.0394 22.8647 82.1182 22.855 82.1794 22.8808C82.2407 22.9068 82.2893 22.959 82.363 22.9624C82.4047 22.9645 82.4541 22.9689 82.4852 22.9921C82.5589 23.0475 82.6421 23.0562 82.7271 23.0621C82.7964 23.0669 82.8578 23.09 82.9223 23.1147C83.0568 23.1662 83.206 23.1662 83.341 23.2214C83.356 23.2277 83.3746 23.2258 83.3917 23.2271C83.5109 23.2349 83.6287 23.2438 83.7382 23.3025C83.7737 23.3215 83.8208 23.3217 83.8628 23.3247C83.9478 23.3306 84.0318 23.3289 84.103 23.3914C84.1254 23.4109 84.1671 23.4115 84.2002 23.4149C84.2598 23.421 84.3196 23.4236 84.3792 23.4255C84.4396 23.4274 84.4952 23.4394 84.549 23.4717C84.5837 23.4926 84.6291 23.5011 84.6705 23.5047C84.7725 23.5129 84.8752 23.5136 84.9773 23.5203C85.0278 23.5237 85.0831 23.5228 85.1273 23.5436C85.208 23.5818 85.2912 23.5858 85.3766 23.5875C85.4448 23.589 85.513 23.5909 85.5813 23.593C85.6248 23.5945 85.6668 23.6031 85.7 23.6329C85.7412 23.6699 85.7902 23.6783 85.8422 23.679C85.9702 23.6805 86.0983 23.6813 86.2261 23.6828C86.3454 23.6843 86.465 23.6855 86.5844 23.6878C86.6273 23.6887 86.6727 23.6904 86.7042 23.7225C86.7509 23.77 86.8081 23.7766 86.8685 23.7766C87.1844 23.7766 87.5 23.7766 87.8156 23.7766V23.7772C88.1313 23.7772 88.4471 23.7772 88.7628 23.7772C88.8314 23.7772 88.8971 23.7745 88.9523 23.72C88.9734 23.699 89.014 23.6916 89.0465 23.6897C89.1487 23.684 89.2514 23.6862 89.3535 23.6802C89.3951 23.6777 89.4435 23.6737 89.4752 23.6513C89.5504 23.5981 89.6328 23.5854 89.7183 23.5911C89.8842 23.6023 90.0291 23.5017 90.1935 23.5083C90.2097 23.5089 90.2273 23.5026 90.2427 23.4958C90.2661 23.4859 90.2877 23.4719 90.3109 23.4612C90.3337 23.4504 90.3568 23.4358 90.3811 23.4326C90.466 23.4216 90.5511 23.4136 90.6158 23.3475C90.6659 23.3384 90.718 23.3355 90.7652 23.3188C90.8203 23.2991 90.871 23.2672 90.9236 23.2412C90.9312 23.2376 90.9403 23.2357 90.9485 23.2362C91.0658 23.2395 91.1611 23.1776 91.2587 23.1274C91.3197 23.0959 91.3768 23.0612 91.4478 23.0578C91.5002 23.0551 91.5452 23.0325 91.5878 23.0008C91.6554 22.9507 91.7518 22.9503 91.8069 22.8774C91.8633 22.8599 91.9187 22.8472 91.9687 22.8073C92.0201 22.7663 92.0864 22.7428 92.1477 22.7152C92.2489 22.6693 92.3452 22.6186 92.4289 22.5424C92.4707 22.5041 92.5345 22.4912 92.5831 22.4589C92.6325 22.4264 92.6748 22.3833 92.7215 22.3463C92.7346 22.3359 92.7515 22.3292 92.7675 22.3245C92.836 22.3049 92.8859 22.2593 92.9344 22.2105C93.1265 22.0174 93.3202 21.8257 93.5116 21.632C93.5769 21.5657 93.6536 21.5033 93.6861 21.4151C93.7204 21.322 93.7968 21.2653 93.8482 21.1881C93.8528 21.1812 93.856 21.1726 93.8573 21.1644C93.8672 21.0921 93.9099 21.0414 93.961 20.9934C93.9916 20.9647 94.0248 20.9311 94.0381 20.8931C94.0892 20.7477 94.1849 20.6251 94.2382 20.4799C94.2697 20.3938 94.3337 20.3203 94.3316 20.2205C94.3311 20.1972 94.3434 20.169 94.359 20.151C94.4004 20.1032 94.4148 20.0478 94.4233 19.9872C94.4292 19.9459 94.4366 19.8996 94.4594 19.867C94.5018 19.8068 94.5078 19.7413 94.5133 19.673C94.5192 19.5967 94.5276 19.5204 94.535 19.4442C94.5961 19.3342 94.5857 19.2135 94.5876 19.0945C94.5891 19.0092 94.5908 18.9239 94.5937 18.8385C94.5986 18.7107 94.6106 18.5829 94.6087 18.4551C94.6052 18.2248 94.594 17.9947 94.5845 17.7645C94.5832 17.7308 94.5834 17.692 94.5671 17.665C94.5204 17.587 94.5209 17.5024 94.5175 17.4171C94.5141 17.3232 94.5135 17.2285 94.4478 17.1504C94.4374 17.1382 94.4302 17.1191 94.4304 17.1032C94.4306 16.9967 94.3723 16.9114 94.3362 16.8171C94.2997 16.7225 94.2424 16.6354 94.2274 16.5319C94.2226 16.4995 94.2012 16.4697 94.1892 16.438C94.1465 16.3267 94.073 16.23 94.0366 16.1158C93.957 16.017 93.9354 15.8814 93.833 15.7962C93.8078 15.7753 93.7875 15.7438 93.7751 15.7132C93.7425 15.6317 93.6857 15.5697 93.6266 15.5081C93.5558 15.4343 93.4863 15.3595 93.4183 15.2833C93.3899 15.2518 93.3629 15.2178 93.3433 15.1808C93.2725 15.0496 93.1732 14.9498 93.0394 14.8827C93.0018 14.8639 92.967 14.8369 92.9359 14.8083C92.8671 14.7449 92.8007 14.6788 92.7346 14.6124C92.667 14.5445 92.5717 14.5195 92.4999 14.46C92.4344 14.4057 92.3763 14.3436 92.2865 14.3274C92.2643 14.3234 92.243 14.3016 92.2263 14.2833C92.1557 14.2057 92.0674 14.1594 91.9717 14.1196C91.8857 14.0839 91.8092 14.0243 91.7226 13.9919C91.6569 13.9674 91.6075 13.9155 91.543 13.8973C91.4759 13.8784 91.4211 13.8439 91.3626 13.809C91.2836 13.7617 91.197 13.7171 91.108 13.6993C90.9883 13.6753 90.882 13.6269 90.7791 13.568C90.733 13.5416 90.6866 13.5284 90.6352 13.5218C90.5938 13.5164 90.545 13.5125 90.5148 13.4886C90.4576 13.4428 90.3952 13.4287 90.3268 13.4205C90.294 13.4166 90.2571 13.4075 90.2323 13.3877C90.1907 13.3546 90.1421 13.3425 90.0961 13.3215C90.0105 13.2823 89.9228 13.2531 89.8311 13.2335C89.7447 13.1668 89.6425 13.1624 89.5396 13.1583C89.4967 13.1566 89.4532 13.1484 89.42 13.1196C89.3714 13.0774 89.3142 13.0695 89.254 13.0633C89.2206 13.0598 89.179 13.0581 89.1568 13.0383C89.0868 12.9759 89.003 12.9705 88.918 12.9637C88.8494 12.9582 88.7845 12.9468 88.726 12.903C88.7011 12.8842 88.6624 12.881 88.6292 12.8761C88.5787 12.8687 88.5276 12.8639 88.4765 12.8616C88.4078 12.8586 88.3425 12.8493 88.2781 12.82C88.1459 12.7598 87.9918 12.7773 87.8604 12.7098C87.7924 12.7051 87.7244 12.6991 87.6564 12.6959C87.5879 12.6925 87.5214 12.6896 87.463 12.6435C87.4383 12.6239 87.4018 12.614 87.3692 12.6102C87.3016 12.6022 87.2332 12.5998 87.1649 12.5977C87.1037 12.5959 87.0492 12.5811 86.9978 12.5445C86.9718 12.5259 86.9351 12.5169 86.9028 12.5143C86.8092 12.507 86.7154 12.5046 86.6214 12.5013C86.5611 12.4991 86.5052 12.4898 86.4517 12.4549C86.4179 12.4327 86.3729 12.4211 86.3317 12.4174C86.2379 12.4089 86.1464 12.3987 86.0598 12.356C86.0311 12.3418 85.9935 12.3443 85.9594 12.3424C85.9083 12.3394 85.8572 12.3385 85.8059 12.3376C85.7448 12.3365 85.6899 12.3248 85.6406 12.2822C85.6172 12.2619 85.5796 12.2533 85.5468 12.2487C85.4966 12.2413 85.4446 12.2449 85.3939 12.238C85.3611 12.2335 85.3229 12.2269 85.299 12.2069C85.2424 12.1592 85.1786 12.149 85.1091 12.1471C85.032 12.1449 84.9551 12.1405 84.8932 12.0833C84.8814 12.0722 84.863 12.0624 84.8475 12.0621C84.7333 12.0607 84.6384 11.9944 84.5313 11.9693C84.406 11.9399 84.2932 11.8819 84.1808 11.8214C84.1516 11.8057 84.1182 11.788 84.0868 11.788C83.9942 11.788 83.9275 11.7403 83.862 11.6842C83.817 11.6457 83.7714 11.6084 83.7147 11.5843C83.6767 11.568 83.6421 11.5402 83.6108 11.5121C83.5349 11.4437 83.4616 11.3724 83.3883 11.3013C83.3209 11.2359 83.2757 11.1584 83.2381 11.0705C83.1965 10.9743 83.1661 10.8795 83.1656 10.7756C83.1646 10.6134 83.1576 10.4506 83.1673 10.2889C83.1809 10.0633 83.2444 9.85544 83.4215 9.69696C83.491 9.63458 83.5546 9.56503 83.6199 9.49776C83.697 9.41822 83.7726 9.33827 83.8886 9.31394C83.9112 9.3092 83.9285 9.28254 83.9507 9.27037C84.1016 9.18724 84.2571 9.12088 84.4354 9.13869C84.4438 9.13958 84.4525 9.13844 84.4611 9.13869C84.5302 9.14023 84.5957 9.13216 84.6572 9.09399C84.6844 9.07706 84.721 9.07284 84.7542 9.06823C84.7878 9.0635 84.8222 9.06451 84.8564 9.06464C84.9752 9.06517 85.0949 9.05556 85.2046 9.12154C85.2314 9.13768 85.2705 9.13601 85.3041 9.1374C85.3723 9.14036 85.4406 9.13715 85.5088 9.14137C85.5509 9.14408 85.6001 9.1442 85.6326 9.16571C85.7224 9.22504 85.8244 9.23093 85.9237 9.25231C86.0323 9.27576 86.1287 9.33301 86.2335 9.36749C86.2905 9.43858 86.3873 9.4332 86.4566 9.48585C86.5301 9.5417 86.6222 9.56938 86.7033 9.61575C86.7703 9.65406 86.8362 9.69018 86.8918 9.74488C86.915 9.76755 86.9469 9.78728 86.978 9.79444C87.0306 9.80661 87.0673 9.83237 87.1052 9.87092C87.1878 9.95547 87.2645 10.0481 87.3849 10.0882C87.4307 10.1034 87.4713 10.1428 87.5072 10.1784C87.5858 10.2568 87.6623 10.3339 87.7725 10.3704C87.8104 10.383 87.8414 10.4197 87.8718 10.4492C87.9515 10.5262 88.0284 10.6057 88.107 10.6836C88.1615 10.7375 88.2145 10.7935 88.2927 10.8151C88.3354 10.8268 88.3618 10.8623 88.3924 10.892C88.558 11.0518 88.7245 11.2104 88.8914 11.3686C88.9159 11.3918 88.9415 11.4242 88.9709 11.43C89.0725 11.4497 89.1251 11.5299 89.1908 11.594C89.3186 11.7188 89.443 11.8474 89.5742 11.9689C89.6232 12.0142 89.6752 12.0587 89.7399 12.0865C89.8563 12.1367 89.9262 12.2639 90.0616 12.2849C90.0688 12.2861 90.0758 12.2943 90.0815 12.3004C90.1518 12.3756 90.2252 12.444 90.3299 12.4716C90.3602 12.4795 90.3847 12.5108 90.4109 12.5325C90.4561 12.5705 90.4968 12.6109 90.5558 12.634C90.6095 12.6553 90.6583 12.695 90.7014 12.7352C90.7466 12.7775 90.8006 12.7956 90.8533 12.8226C90.9815 12.8883 91.1061 12.9606 91.2437 13.006C91.2944 13.0549 91.3662 13.0636 91.4222 13.0972C91.4972 13.142 91.5697 13.1752 91.6567 13.183C91.688 13.1859 91.7178 13.2097 91.7475 13.225C91.7625 13.2327 91.7754 13.2484 91.7906 13.2507C91.8661 13.2625 91.9425 13.2695 92.0182 13.2809C92.1016 13.2935 92.1724 13.3479 92.263 13.3452C92.356 13.3425 92.45 13.3556 92.5428 13.3673C92.6729 13.3836 92.7971 13.3514 92.922 13.327C92.971 13.3174 93.0156 13.2863 93.0637 13.2703C93.1366 13.2461 93.1789 13.1661 93.2638 13.1632C93.2782 13.1627 93.2934 13.1474 93.3056 13.136C93.343 13.1012 93.3787 13.0645 93.4159 13.0296C93.4531 12.9945 93.493 12.9622 93.5285 12.9257C93.658 12.793 93.8142 12.6822 93.8803 12.497C93.8858 12.4821 93.9004 12.47 93.912 12.4576C93.9811 12.3834 94.0613 12.3182 94.0831 12.2101C94.0875 12.1881 94.1116 12.1682 94.13 12.1509C94.1873 12.097 94.2185 12.0288 94.2549 11.9603C94.2946 11.885 94.3096 11.7958 94.362 11.7319C94.4175 11.6639 94.4186 11.571 94.4833 11.51C94.4999 11.4943 94.5086 11.4644 94.5114 11.4401C94.5283 11.2872 94.6071 11.1488 94.6136 10.9934C94.6147 10.9684 94.6206 10.941 94.6328 10.9197C94.6736 10.8495 94.6742 10.7733 94.6745 10.6962C94.6745 10.5766 94.6717 10.457 94.6764 10.3376C94.6802 10.2406 94.6527 10.1563 94.6113 10.0695Z" fill="#4B5647"/>
<path d="M9.1817 6.58515C9.21396 6.57604 9.24814 6.56478 9.27451 6.5453C9.35694 6.48446 9.42554 6.41324 9.47291 6.31779C9.58594 6.09066 9.68295 5.85573 9.80929 5.63499C9.85114 5.56173 9.88737 5.48218 9.90888 5.40095C9.95726 5.21816 10.0618 5.06098 10.1285 4.887C10.1975 4.83718 10.1816 4.7429 10.2322 4.68562C10.2875 4.62298 10.2935 4.54741 10.3054 4.47182C10.308 4.4553 10.3149 4.43916 10.3222 4.42392C10.3513 4.36242 10.3774 4.29928 10.4118 4.24086C10.4433 4.18756 10.4648 4.13119 10.4622 4.07164C10.4588 3.99399 10.5201 3.95096 10.5441 3.88895C10.5532 3.86552 10.5575 3.83924 10.5594 3.81402C10.564 3.7533 10.5785 3.69822 10.616 3.64735C10.6349 3.62174 10.6431 3.58509 10.6472 3.5523C10.6599 3.4511 10.6604 3.34811 10.7222 3.25883C10.7355 3.2396 10.7363 3.20962 10.7371 3.18452C10.741 3.06511 10.7424 2.9456 10.746 2.82621C10.7489 2.72641 10.7148 2.64404 10.6427 2.57411C10.5206 2.45561 10.4013 2.33429 10.2806 2.21426C10.22 2.15405 10.1596 2.09333 10.0689 2.08129C10.0018 2.02838 9.91566 2.00827 9.8477 1.9601C9.75592 1.89516 9.64391 1.87748 9.55163 1.81714C9.32623 1.77294 9.12411 1.65035 8.89448 1.62012C8.87834 1.61794 8.86017 1.61064 8.8484 1.59988C8.79425 1.54966 8.72768 1.54146 8.6587 1.53749C8.57384 1.53262 8.48986 1.52878 8.41767 1.47024C8.39411 1.45115 8.35342 1.45217 8.32 1.44654C8.25307 1.43526 8.18048 1.43808 8.1198 1.41246C8.04582 1.38121 7.97249 1.37429 7.89569 1.37224C7.74182 1.36827 7.59028 1.347 7.44396 1.29858C7.38548 1.27923 7.32685 1.27821 7.26734 1.27821C6.96871 1.27783 6.67021 1.27731 6.37158 1.27821C6.24461 1.27859 6.11494 1.26207 5.99604 1.32727C5.98898 1.33112 5.97951 1.33124 5.97106 1.33201C5.82706 1.34559 5.68319 1.3616 5.53881 1.37147C5.45382 1.37723 5.37292 1.38389 5.28985 1.41528C5.20435 1.44769 5.1063 1.44679 5.01413 1.46242C4.99839 1.46511 4.9829 1.47613 4.96984 1.48663C4.93528 1.51443 4.89624 1.52776 4.85259 1.53121C4.79308 1.53583 4.73113 1.53326 4.67494 1.54966C4.6112 1.56824 4.55333 1.60641 4.49126 1.63229C4.40511 1.66816 4.31923 1.70351 4.2291 1.73041C4.14041 1.7568 4.04927 1.79088 3.97412 1.84314C3.90322 1.89246 3.8163 1.89772 3.74821 1.95703C3.68715 2.01019 3.59012 2.01442 3.52663 2.07501C3.44561 2.08308 3.39225 2.14752 3.32234 2.17596C3.24068 2.20901 3.17451 2.25846 3.11511 2.32084C3.10385 2.33276 3.08798 2.34416 3.07237 2.34749C2.97419 2.3685 2.9121 2.43844 2.84722 2.50646C2.78834 2.56796 2.72331 2.62367 2.6657 2.68618C2.6012 2.75639 2.52835 2.81121 2.43711 2.84018C2.38896 2.91833 2.36363 3.0094 2.28453 3.06999C2.22423 3.11611 2.17534 3.17759 2.12196 3.23269C2.0458 3.31122 1.95377 3.37654 1.92765 3.49479C1.92125 3.52399 1.88477 3.5459 1.86391 3.57266C1.81693 3.63287 1.77341 3.69425 1.73501 3.76162C1.68868 3.84283 1.65668 3.93161 1.60509 4.00874C1.54877 4.09276 1.49271 4.17488 1.44586 4.26596C1.39543 4.36409 1.35715 4.46797 1.3025 4.56317C1.24669 4.6604 1.21981 4.76774 1.17706 4.86881C1.14122 4.95361 1.12688 5.04982 1.06339 5.12349C1.04778 5.14156 1.03818 5.16883 1.03511 5.19304C1.02397 5.2781 1.00874 5.36035 0.958304 5.43336C0.944736 5.45309 0.941153 5.48178 0.939104 5.5069C0.925408 5.67767 0.857312 5.83637 0.830048 6.00408C0.82736 6.02085 0.825824 6.03917 0.817887 6.05364C0.770912 6.13908 0.764639 6.23157 0.763617 6.32624C0.762848 6.39452 0.759136 6.4628 0.752481 6.53071C0.74928 6.56387 0.745184 6.60334 0.725984 6.6273C0.67312 6.69313 0.671455 6.76743 0.67056 6.84482C0.666974 7.15213 0.661855 7.45931 0.657759 7.76664C0.656863 7.8353 0.655712 7.90128 0.606176 7.95919C0.586462 7.98237 0.580703 8.02247 0.579167 8.05525C0.575071 8.14044 0.576351 8.2259 0.576351 8.31133C0.576351 12.5375 0.576351 16.7635 0.576351 20.9896C0.576351 21.1944 0.576607 21.3994 0.57456 21.6042C0.573791 21.6895 0.569054 21.7749 0.562783 21.86C0.559712 21.9023 0.559198 21.9494 0.539743 21.9845C0.500318 22.0555 0.496606 22.1321 0.488157 22.2076C0.468957 22.3785 0.40675 22.5376 0.35939 22.7009C0.338269 22.7733 0.313181 22.8511 0.267357 22.9086C0.217693 22.9711 0.219613 23.0569 0.160093 23.1093C0.0987805 23.1633 0.106077 23.2527 0.0509083 23.3093C0.0396441 23.3207 0.0265882 23.3414 0.0297881 23.3537C0.0356761 23.3759 0.0515482 23.4112 0.0662683 23.4126C0.159069 23.4224 0.252636 23.4281 0.346078 23.4281C2.41904 23.4289 4.49202 23.4287 6.56498 23.4285C6.63322 23.4285 6.70144 23.4289 6.76965 23.4272C6.79501 23.4266 6.82021 23.4211 6.84531 23.4171C6.88359 23.4112 6.91596 23.3643 6.9097 23.3205C6.90611 23.2958 6.90318 23.2671 6.88921 23.2483C6.85376 23.2007 6.81166 23.1585 6.77325 23.1128C6.75713 23.0938 6.7337 23.0738 6.73089 23.0516C6.71834 22.9557 6.65523 22.8809 6.62988 22.79C6.59354 22.6593 6.54989 22.5302 6.49932 22.4045C6.47642 22.3474 6.4622 22.2921 6.45837 22.2323C6.45466 22.1725 6.45185 22.1127 6.44492 22.0536C6.44109 22.0202 6.43968 21.9794 6.42009 21.9566C6.36455 21.8917 6.3621 21.8163 6.36083 21.7398C6.35635 21.4581 6.35096 21.1764 6.35084 20.8947C6.34995 19.1103 6.35046 17.326 6.35033 15.5416C6.35033 13.5438 6.35033 11.5461 6.35033 9.5483C6.35033 9.46299 6.35097 9.37754 6.35392 9.29235C6.35635 9.21985 6.39373 9.18129 6.46361 9.17833C6.5317 9.1754 6.60007 9.17464 6.66829 9.17464C7.05216 9.17423 7.43604 9.17449 7.81991 9.17449C7.93076 9.17449 8.04174 9.17527 8.15257 9.17385C8.19495 9.17335 8.23744 9.16861 8.27969 9.16399C8.31757 9.15989 8.3579 9.1166 8.36071 9.07713C8.36365 9.03461 8.36608 8.99195 8.3662 8.9493C8.36686 8.79556 8.3657 8.64197 8.36673 8.48825C8.36866 8.19835 8.36851 8.19655 8.06489 8.19721C7.38239 8.19835 6.70002 8.19759 6.01752 8.19759C5.88108 8.19759 5.7445 8.19835 5.60806 8.1968C5.56568 8.1963 5.5173 8.2013 5.48223 8.18324C5.38573 8.13353 5.28421 8.13712 5.18232 8.13839C5.04434 8.14006 4.9098 8.1293 4.78513 8.06178C4.76337 8.05001 4.73663 8.04475 4.71155 8.0422C4.63448 8.03425 4.55999 8.02388 4.49956 7.9661C4.48332 7.95059 4.45093 7.94252 4.4275 7.94535C4.29476 7.96097 4.22244 7.82966 4.10316 7.81544C4.02315 7.72308 3.91423 7.67364 3.81041 7.61611C3.78839 7.60394 3.76932 7.58537 3.75127 7.56744C3.55237 7.36901 3.35371 7.17057 3.15594 6.97111C3.13213 6.94716 3.10283 6.92052 3.09527 6.89028C3.0712 6.79407 3.00989 6.72478 2.94244 6.65996C2.91005 6.62882 2.89777 6.59014 2.87857 6.55249C2.81713 6.43232 2.77068 6.30256 2.67121 6.20455C2.6538 6.18737 2.63396 6.16395 2.63166 6.14166C2.62192 6.04686 2.59927 5.95859 2.54103 5.88019C2.52734 5.86175 2.52772 5.83126 2.52554 5.80589C2.51722 5.70418 2.51428 5.60271 2.44528 5.51599C2.42686 5.49268 2.42787 5.45066 2.42711 5.41709C2.42238 5.21227 2.4197 5.00742 2.41649 4.80258C2.41456 4.68218 2.41611 4.56252 2.50046 4.46337C2.51658 4.35499 2.59224 4.28658 2.66327 4.21306C2.77784 4.09456 2.91736 4.01578 3.06366 3.94583C3.11703 3.92035 3.16695 3.88306 3.22302 3.86922C3.28818 3.85308 3.35832 3.85348 3.42628 3.85257C3.56274 3.85078 3.69918 3.85156 3.83551 3.85399C3.92025 3.85553 4.00471 3.85525 4.07665 3.91701C4.09919 3.93636 4.14066 3.93636 4.17394 3.94008C4.2332 3.94648 4.29299 3.95109 4.35263 3.95263C4.42289 3.95442 4.48215 3.97978 4.54387 4.01335C4.61785 4.05357 4.69004 4.10199 4.7758 4.11839C4.97035 4.15553 5.12792 4.27954 5.30969 4.34679C5.39595 4.42853 5.52806 4.44237 5.60166 4.54395C5.61062 4.55624 5.63058 4.56585 5.6462 4.56702C5.73683 4.57392 5.78597 4.66295 5.87225 4.67846C5.96377 4.69498 6.00601 4.77928 6.07283 4.82975C6.08627 4.83999 6.10046 4.85333 6.1161 4.85614C6.19763 4.87086 6.2455 4.93133 6.30271 4.98245C6.3772 5.04894 6.43649 5.14052 6.55245 5.14935C6.57292 5.1509 6.59251 5.17832 6.61042 5.196C6.68314 5.26773 6.75634 5.33909 6.82689 5.41287C6.86925 5.45732 6.91608 5.48871 6.97676 5.50447C7.00723 5.51242 7.03539 5.53663 7.05996 5.55866C7.10439 5.59823 7.14649 5.64064 7.18771 5.68369C7.28882 5.78924 7.44871 5.81064 7.53998 5.93066C7.54906 5.94258 7.56928 5.94911 7.5854 5.95181C7.63892 5.9609 7.67667 5.99242 7.71417 6.02892C7.77485 6.08785 7.83284 6.15011 7.92411 6.16675C7.95341 6.17214 7.98015 6.20339 8.00346 6.22735C8.04596 6.27104 8.09101 6.30716 8.15335 6.31895C8.17767 6.32356 8.20915 6.33087 8.22195 6.34828C8.27278 6.41734 8.36557 6.4031 8.42228 6.45499C8.48437 6.51186 8.56271 6.50918 8.6372 6.52418C8.66959 6.53071 8.69889 6.5512 8.73037 6.56337C8.87846 6.62062 9.0294 6.62844 9.1821 6.58528L9.1817 6.58515Z" fill="#4B5647"/>
<path d="M22.923 8.74813C22.8395 8.66305 22.7618 8.57223 22.6768 8.48884C22.5866 8.40032 22.5017 8.30206 22.3669 8.27684C22.3519 8.274 22.3403 8.25622 22.3261 8.24686C22.2053 8.16729 22.0547 8.14872 21.9391 8.05828C21.8888 8.05021 21.8385 8.04292 21.7885 8.03381C21.772 8.03088 21.7517 8.02741 21.7413 8.01653C21.6685 7.9394 21.5736 7.94415 21.4802 7.94236C21.4192 7.9412 21.3642 7.92736 21.3148 7.88599C21.2909 7.866 21.2535 7.85589 21.2212 7.85346C21.1447 7.84794 21.0678 7.84974 20.9911 7.84858C20.906 7.84718 20.823 7.84731 20.7494 7.78735C20.7202 7.76365 20.6692 7.7598 20.6278 7.75929C20.4146 7.75686 20.2013 7.75801 19.9879 7.75866C19.9451 7.75866 19.9019 7.7639 19.8675 7.79274C19.8187 7.8336 19.7616 7.84488 19.7006 7.84589C19.6068 7.84743 19.5129 7.8491 19.4191 7.85141C19.3757 7.85242 19.335 7.86203 19.3025 7.89444C19.2632 7.93378 19.212 7.93735 19.1605 7.94081C19.0684 7.94722 18.9703 7.93133 18.8979 8.01307C18.888 8.0242 18.8665 8.03151 18.851 8.0305C18.7328 8.02268 18.64 8.08942 18.5424 8.13772C18.4515 8.18267 18.3494 8.20612 18.2704 8.27491C18.1601 8.29553 18.081 8.3856 17.9717 8.41006C17.9489 8.41517 17.9293 8.43683 17.9097 8.45272C17.8766 8.47948 17.8489 8.52112 17.8116 8.53304C17.6736 8.57686 17.5881 8.68574 17.4915 8.77963C17.3451 8.92209 17.2042 9.07017 17.0606 9.21546C16.9767 9.30026 16.8926 9.38481 16.8073 9.46807C16.7762 9.49843 16.7466 9.52929 16.74 9.57362C16.7321 9.62781 16.7009 9.66265 16.6625 9.69993C16.5778 9.78218 16.4824 9.85674 16.4462 9.97972C16.4349 10.018 16.4004 10.0508 16.3723 10.0825C16.2941 10.1711 16.1968 10.2454 16.1669 10.3691C16.1632 10.3843 16.1486 10.3978 16.1368 10.4099C16.0354 10.513 15.9349 10.6169 15.8309 10.7172C15.8077 10.7395 15.7736 10.7565 15.742 10.7628C15.6581 10.7794 15.5729 10.7816 15.4885 10.7613C15.4615 10.7547 15.4237 10.72 15.4211 10.6916C15.4133 10.6069 15.4028 10.522 15.4018 10.437C15.3985 10.1553 15.3989 9.87351 15.3976 9.59168C15.3972 9.52315 15.3964 9.45499 15.3502 9.39698C15.3226 9.36212 15.318 9.31896 15.3159 9.27592C15.3129 9.20764 15.3104 9.13936 15.307 9.0712C15.3048 9.02804 15.2942 8.98845 15.2677 8.95207C15.2481 8.92517 15.232 8.89378 15.2222 8.86201C15.1772 8.71431 15.0975 8.58351 15.0231 8.45054C14.981 8.37535 14.9253 8.31271 14.8316 8.2949C14.8005 8.28901 14.7736 8.26211 14.7441 8.24595C14.616 8.17536 14.4844 8.12107 14.3325 8.13554C14.2649 8.14194 14.196 8.13605 14.1278 8.13605C12.4897 8.13605 10.8516 8.13605 9.21349 8.13605C9.15373 8.13605 9.09406 8.13579 9.0343 8.13759C9.00907 8.13835 8.98387 8.14361 8.95877 8.1472C8.92742 8.15168 8.90975 8.20215 8.93151 8.22829C8.97491 8.28055 9.01573 8.33601 9.06489 8.38226C9.1162 8.43055 9.14259 8.48935 9.17432 8.55007C9.21772 8.63297 9.26994 8.70712 9.2702 8.8068C9.2702 8.83678 9.29977 8.8661 9.31346 8.89672C9.37235 9.02817 9.44555 9.15484 9.43712 9.30755C9.43532 9.33932 9.44671 9.37839 9.46592 9.4035C9.5107 9.46192 9.51994 9.52724 9.52184 9.59616C9.52505 9.7071 9.52761 9.81803 9.53094 9.92899C9.53221 9.97165 9.5312 10.017 9.56217 10.0498C9.61427 10.105 9.6167 10.1722 9.61695 10.241C9.61784 10.4887 9.61938 10.7363 9.61951 10.9839C9.61963 14.2371 9.61963 17.4904 9.61951 20.7436C9.61951 20.8973 9.61862 21.051 9.61784 21.2046C9.61758 21.2559 9.61938 21.3074 9.61452 21.3582C9.61131 21.3911 9.60723 21.4322 9.58674 21.4537C9.53401 21.5097 9.53082 21.5748 9.52978 21.6436C9.52837 21.7376 9.52581 21.8314 9.523 21.9253C9.5207 22.0026 9.51392 22.0763 9.46207 22.1429C9.43877 22.1729 9.4375 22.2231 9.43416 22.2648C9.42738 22.3497 9.43032 22.4355 9.37619 22.51C9.36223 22.5293 9.35916 22.558 9.3557 22.5829C9.33894 22.7034 9.25714 22.7984 9.22784 22.914C9.15782 23.008 9.12966 23.1303 9.03045 23.2049C9.01714 23.215 9.00715 23.2296 8.99667 23.2427C8.99141 23.2493 8.98873 23.2579 8.98425 23.2651C8.94495 23.3289 8.9845 23.4168 9.05656 23.42C9.14168 23.424 9.22706 23.4246 9.3123 23.4246C10.3702 23.4248 11.4282 23.4248 12.4862 23.4248C13.5443 23.4248 14.6192 23.4248 15.6857 23.4248C15.7625 23.4248 15.8393 23.425 15.916 23.4223C15.9406 23.4212 15.9649 23.4109 15.9893 23.4048C16.0103 23.3995 16.0281 23.3615 16.0165 23.3424C15.9989 23.3137 15.9708 23.289 15.9614 23.2581C15.9361 23.1743 15.8877 23.1073 15.8323 23.0418C15.8058 23.0105 15.7774 22.9687 15.7761 22.9305C15.7712 22.7961 15.6652 22.7036 15.6407 22.5789C15.5806 22.52 15.5726 22.4441 15.5719 22.3662C15.5714 22.2973 15.5681 22.2303 15.5178 22.1743C15.4882 22.1414 15.4841 22.0972 15.4807 22.0541C15.4702 21.928 15.4901 21.7981 15.4195 21.6795C15.3998 21.6466 15.4071 21.5963 15.406 21.5536C15.4035 21.4342 15.4021 21.3147 15.4019 21.1952C15.4009 19.1545 15.4001 17.1137 15.3996 15.073C15.3996 14.8424 15.4001 14.6119 15.4031 14.3813C15.4045 14.2712 15.3972 14.1595 15.4579 14.0575C15.474 14.0305 15.4726 13.9915 15.4744 13.9577C15.478 13.8896 15.4755 13.821 15.4809 13.753C15.4835 13.7201 15.4885 13.6786 15.5092 13.6577C15.5631 13.6036 15.5694 13.5392 15.5755 13.4704C15.5785 13.4378 15.5868 13.3988 15.6074 13.376C15.6577 13.3206 15.6651 13.2557 15.6732 13.1873C15.677 13.1548 15.6871 13.1172 15.7079 13.0937C15.7431 13.0536 15.7589 13.0065 15.7806 12.9604C15.8165 12.8835 15.8499 12.8031 15.8999 12.7356C16.0015 12.5979 16.1356 12.4907 16.2628 12.3773C16.2689 12.3718 16.2773 12.3663 16.2851 12.3658C16.3704 12.3599 16.4149 12.2893 16.4773 12.2469C16.5051 12.2279 16.5335 12.2076 16.5647 12.1963C16.8565 12.0909 17.0037 12.0653 17.3145 12.0637C17.434 12.063 17.5534 12.0647 17.6728 12.0633C17.8267 12.0614 17.9791 12.073 18.1321 12.09C18.2448 12.1025 18.3425 12.1564 18.4502 12.1819C18.5317 12.2013 18.6116 12.2344 18.6862 12.2733C18.7375 12.3 18.7819 12.3436 18.823 12.3859C18.8601 12.424 18.9001 12.4515 18.9515 12.4639C18.9678 12.4677 18.9869 12.4736 18.9972 12.4853C19.1081 12.6093 19.2754 12.6868 19.315 12.8701C19.3184 12.8852 19.3357 12.8968 19.345 12.9111C19.4091 13.0096 19.4429 13.1275 19.5364 13.2082C19.5531 13.2227 19.5508 13.2571 19.564 13.2781C19.6135 13.357 19.6473 13.4453 19.6966 13.5227C19.7462 13.6002 19.8205 13.6619 19.8854 13.7292C19.9209 13.7659 19.9615 13.7981 19.9961 13.8356C20.0402 13.8831 20.0953 13.8992 20.1568 13.9022C20.1824 13.9035 20.208 13.9044 20.2334 13.9045C20.5159 13.9056 20.4752 13.9138 20.674 13.7109C20.7151 13.669 20.7594 13.6232 20.7808 13.5707C20.8073 13.5055 20.8394 13.4501 20.8896 13.4011C20.9192 13.3721 20.9378 13.3318 20.9599 13.2955C21.0301 13.1797 21.0607 13.0434 21.1449 12.9348C21.1413 12.8479 21.2233 12.8064 21.2504 12.7344C21.2831 12.6475 21.3264 12.5643 21.368 12.4808C21.4099 12.3971 21.4684 12.3193 21.4948 12.2314C21.5225 12.1393 21.5949 12.0752 21.6194 11.9827C21.6429 11.8933 21.7061 11.8203 21.7458 11.7364C21.7927 11.6372 21.8368 11.5357 21.8901 11.4396C21.9473 11.3365 21.9794 11.2199 22.0578 11.1283C22.0724 11.0148 22.1698 10.9388 22.1935 10.8294C22.2799 10.6834 22.3282 10.5181 22.4233 10.3766C22.4233 10.2831 22.5129 10.2357 22.5374 10.1518C22.5611 10.0714 22.6105 9.99892 22.6441 9.92105C22.7278 9.72708 22.8425 9.54865 22.9225 9.35303C22.9813 9.29358 22.9914 9.21723 22.9923 9.13974C22.9931 9.05455 22.9891 8.96922 22.9842 8.88417C22.9813 8.8319 22.9606 8.78682 22.9223 8.74788L22.923 8.74813Z" fill="#4B5647"/>
<path d="M30.5341 23.1343C30.4724 23.0695 30.4756 22.9729 30.4078 22.9157C30.3677 22.8225 30.3153 22.7325 30.2899 22.6353C30.2491 22.48 30.1902 22.3271 30.197 22.1616C30.1986 22.119 30.1923 22.074 30.1627 22.0412C30.1122 21.9852 30.108 21.918 30.1072 21.8494C30.1051 21.6871 30.1032 21.5249 30.1032 21.3627C30.1029 19.3133 30.1032 17.2639 30.1032 15.2145V8.83573C30.1032 8.7759 30.1032 8.71621 30.1032 8.65638C30.1027 8.56995 30.077 8.46605 30.0258 8.3447C30.0195 8.24618 29.9515 8.17395 29.9113 8.09092C29.8651 7.99613 29.7843 7.93349 29.6673 7.93566C29.4286 7.94001 29.1898 7.94221 28.9509 7.94439C28.8892 7.94502 28.8358 7.96104 28.7867 8.00215C28.7627 8.02226 28.7253 8.03342 28.6929 8.03547C28.615 8.04045 28.5459 8.07018 28.4728 8.09259C28.3196 8.13947 28.1739 8.21929 28.0065 8.21557C27.9822 8.21506 27.9486 8.22018 27.9347 8.23606C27.8624 8.31755 27.7363 8.29218 27.667 8.37584C27.5282 8.41184 27.4067 8.50522 27.2551 8.50137C27.2305 8.50074 27.2018 8.50765 27.1822 8.52149C27.0567 8.61128 26.9008 8.64037 26.774 8.72811C26.7539 8.74207 26.7275 8.75219 26.7032 8.75399C26.6162 8.76039 26.5348 8.77769 26.4736 8.84673C26.4064 8.86108 26.3472 8.88992 26.2864 8.92321C26.1011 9.02468 25.9025 9.10063 25.7206 9.20965C25.6285 9.21132 25.5763 9.2942 25.4935 9.3197C25.413 9.34442 25.3355 9.38451 25.2636 9.42935C25.2102 9.46279 25.1561 9.47777 25.0959 9.48187C25.0433 9.48546 24.9979 9.50403 24.959 9.54208C24.8793 9.6201 24.7942 9.68787 24.6725 9.6853C24.6491 9.68479 24.6246 9.70118 24.602 9.71247C24.5413 9.74295 24.4815 9.77485 24.4213 9.80623C24.3461 9.84556 24.2743 9.895 24.1946 9.92166C24.1194 9.94676 24.0677 10.0135 23.9971 10.0306C23.9073 10.0521 23.8532 10.1178 23.7812 10.1601C23.7451 10.1812 23.7047 10.1995 23.6641 10.2073C23.5579 10.2278 23.4786 10.2868 23.4083 10.3648C23.3362 10.4448 23.3314 10.4848 23.402 10.5619C23.4647 10.6304 23.5255 10.7 23.6234 10.7264C23.6791 10.7414 23.7265 10.7858 23.7812 10.8075C23.8389 10.8302 23.8843 10.8671 23.9276 10.9078C23.9709 10.9485 24.0117 10.992 24.0529 11.0349C24.1 11.0839 24.1427 11.1324 24.1642 11.2026C24.1887 11.2829 24.2303 11.3595 24.2741 11.4319C24.3022 11.4784 24.3146 11.5246 24.3155 11.5762C24.3201 11.8067 24.3282 12.0371 24.3282 12.2676C24.3292 15.0428 24.3288 17.8181 24.3286 20.5933C24.3286 20.858 24.3279 21.1228 24.3252 21.3874C24.3237 21.5496 24.3197 21.7119 24.3132 21.8739C24.3115 21.9155 24.3055 21.962 24.2851 21.9962C24.2483 22.0575 24.2301 22.1209 24.2291 22.19C24.2272 22.3285 24.1492 22.4498 24.141 22.5869C24.1401 22.6023 24.1293 22.6201 24.1179 22.6315C24.0729 22.6773 24.0607 22.7346 24.055 22.795C24.0512 22.8375 24.0518 22.8848 24.0191 22.9148C23.9593 22.97 23.9635 23.0547 23.9128 23.1161C23.8602 23.1802 23.8283 23.2611 23.7875 23.3348C23.7736 23.3604 23.7968 23.4134 23.8247 23.4157C23.8754 23.4202 23.9265 23.4252 23.9772 23.4252C26.0251 23.4252 28.0729 23.425 30.1205 23.4248C30.2485 23.4248 30.3765 23.4261 30.5046 23.4254C30.5384 23.4252 30.5722 23.42 30.606 23.4157C30.6334 23.4123 30.6603 23.3566 30.6412 23.335C30.5893 23.2754 30.5853 23.188 30.5341 23.1343Z" fill="#4B5647"/>
<path d="M24.0893 4.19932C24.1474 4.28182 24.1527 4.37304 24.1595 4.46718C24.1622 4.50844 24.174 4.55097 24.1905 4.58915C24.2178 4.65141 24.2552 4.70904 24.2824 4.77105C24.32 4.85598 24.3551 4.94194 24.4104 5.01764C24.4706 5.20839 24.5695 5.37327 24.7295 5.49766C24.758 5.51982 24.7683 5.55158 24.7774 5.58502C24.7842 5.60923 24.7903 5.63779 24.807 5.65419C24.8735 5.71991 24.9439 5.78152 25.013 5.84469C25.1256 5.87644 25.1953 5.96304 25.2711 6.04337C25.3117 6.08629 25.3588 6.12164 25.4173 6.14342C25.5606 6.1967 25.6871 6.28689 25.8321 6.33724C25.8906 6.3954 25.9639 6.40886 26.0429 6.41218C26.0754 6.41359 26.1156 6.42115 26.1378 6.44165C26.1929 6.4925 26.2569 6.50249 26.3262 6.5057C26.4029 6.50927 26.4783 6.51747 26.548 6.55719C26.5759 6.57295 26.6137 6.57603 26.6471 6.57603C26.8007 6.57641 26.9537 6.58294 27.106 6.60498C27.1478 6.611 27.1918 6.60958 27.2336 6.60382C27.3606 6.58641 27.488 6.57563 27.6162 6.57641C27.6411 6.57654 27.6697 6.575 27.691 6.56372C27.777 6.51787 27.8712 6.51734 27.9642 6.50722C27.9893 6.50454 28.0206 6.50441 28.0377 6.48982C28.1218 6.41845 28.2249 6.41526 28.325 6.39707C28.3483 6.39284 28.3671 6.36889 28.3899 6.35839C28.4822 6.31584 28.572 6.26218 28.6692 6.23718C28.7642 6.21272 28.8428 6.17302 28.9113 6.1055C28.929 6.08794 28.9516 6.06861 28.9747 6.06439C29.075 6.04594 29.1333 5.96754 29.1999 5.90541C29.3368 5.77767 29.4663 5.64202 29.5971 5.50791C29.6678 5.43553 29.7433 5.36621 29.7711 5.26208C29.7773 5.23901 29.798 5.21877 29.8151 5.20007C29.8734 5.13639 29.922 5.0694 29.9245 4.97729C29.9256 4.93336 29.9503 4.89737 29.9792 4.86455C30.0075 4.83267 30.0346 4.79974 30.0599 4.76566C30.0747 4.74568 30.094 4.72326 30.0963 4.70046C30.106 4.6063 30.1242 4.51778 30.1797 4.43657C30.2013 4.40492 30.1968 4.35445 30.2019 4.3123C30.2112 4.23622 30.203 4.15347 30.2309 4.08519C30.2748 3.97744 30.2744 3.86921 30.2748 3.75865C30.2752 3.54523 30.2752 3.33181 30.2742 3.11826C30.274 3.06715 30.2841 3.00834 30.2628 2.96659C30.2095 2.86193 30.2167 2.75112 30.2074 2.64145C30.2017 2.57266 30.1901 2.50683 30.1455 2.44982C30.1305 2.4306 30.1178 2.40344 30.1178 2.37974C30.1172 2.28187 30.0809 2.19797 30.027 2.11957C30.0293 2.03451 29.9511 1.98903 29.9277 1.91601C29.8717 1.74217 29.7743 1.59473 29.6399 1.47124C29.6091 1.44292 29.5749 1.41654 29.5622 1.37234C29.5248 1.24014 29.4111 1.17263 29.3186 1.08731C29.224 1.07911 29.1703 1.00712 29.1135 0.946526C29.0478 0.876582 28.9842 0.809711 28.8821 0.800358C28.8266 0.744379 28.7587 0.711328 28.6827 0.693649C28.6297 0.631646 28.546 0.627163 28.4826 0.587196C28.3263 0.48894 28.1596 0.43962 27.9747 0.4491C27.9137 0.452175 27.8587 0.433984 27.8089 0.394016C27.7844 0.374544 27.747 0.364424 27.7147 0.36263C27.3226 0.341493 26.9302 0.350076 26.5379 0.361862C26.4942 0.363143 26.4538 0.3748 26.4219 0.406698C26.3896 0.438852 26.3492 0.447819 26.3057 0.450765C26.2379 0.455377 26.1637 0.446154 26.1035 0.470493C25.9696 0.524681 25.8215 0.539285 25.6973 0.618453C25.633 0.625243 25.603 0.694289 25.5452 0.706843C25.4742 0.722217 25.423 0.763465 25.3717 0.808942C25.34 0.836996 25.3085 0.87197 25.2705 0.885037C25.1689 0.920008 25.0992 0.994693 25.025 1.06412C24.9504 1.13381 24.8759 1.20414 24.8074 1.27959C24.7168 1.37939 24.5991 1.45971 24.5651 1.60267C24.5634 1.61036 24.556 1.61702 24.5505 1.62355C24.5173 1.66262 24.4791 1.69824 24.4523 1.74115C24.4256 1.78355 24.4195 1.84043 24.3887 1.87809C24.3171 1.9652 24.2883 2.07332 24.2345 2.16876C24.1802 2.26484 24.147 2.37065 24.1533 2.48594C24.1554 2.52669 24.1379 2.56844 24.1295 2.60982C24.0564 2.67464 24.0633 2.76238 24.0616 2.84771C24.058 3.03551 24.0542 3.2233 24.0498 3.44287C24.0536 3.6331 24.0566 3.85512 24.0629 4.07699C24.0642 4.11861 24.0671 4.16782 24.0893 4.19932Z" fill="#4B5647"/>
</g>
</g>
</g>
<defs>
<clipPath id="clip0_484_3512">
<rect width="94.5" height="30" fill="white" transform="translate(0 0.284302)"/>
</clipPath>
<clipPath id="clip1_484_3512">
<rect width="94.8591" height="30" fill="white" transform="translate(-0.0263672 0.349487)"/>
</clipPath>
</defs>
</svg>
