<svg width="24" height="25" viewBox="0 0 24 25" fill="none" xmlns="http://www.w3.org/2000/svg">
<path fill-rule="evenodd" clip-rule="evenodd" d="M12 3.25C8.27208 3.25 5.25 6.27208 5.25 10C5.25 11.9985 6.11758 13.7934 7.49907 15.0304L7.50342 15.0343C8.06008 15.5328 8.48295 15.9114 8.78527 16.1886C9.06989 16.4495 9.29537 16.6628 9.41353 16.8086L9.42636 16.8244C9.64763 17.0974 9.84045 17.3353 9.9676 17.6199C10.0948 17.9044 10.1434 18.2067 10.1992 18.5537L10.2024 18.5738C10.231 18.7517 10.2425 18.9701 10.247 19.25H13.753C13.7575 18.9701 13.769 18.7517 13.7976 18.5738L13.8008 18.5537C13.8566 18.2067 13.9052 17.9044 14.0324 17.6199C14.1596 17.3353 14.3524 17.0974 14.5736 16.8244L14.5865 16.8086C14.7046 16.6628 14.9301 16.4495 15.2147 16.1886C15.5171 15.9114 15.94 15.5327 16.4966 15.0343L16.5009 15.0304C17.8824 13.7934 18.75 11.9985 18.75 10C18.75 6.27208 15.7279 3.25 12 3.25ZM13.7436 20.75H10.2564C10.2597 20.8542 10.2646 20.9453 10.2721 21.0273C10.2925 21.2524 10.3269 21.3341 10.3505 21.375C10.4163 21.489 10.511 21.5837 10.625 21.6495C10.6659 21.6731 10.7476 21.7075 10.9727 21.7279C11.2082 21.7493 11.5189 21.75 12 21.75C12.4811 21.75 12.7918 21.7493 13.0273 21.7279C13.2524 21.7075 13.3341 21.6731 13.375 21.6495C13.489 21.5837 13.5837 21.489 13.6495 21.375C13.6731 21.3341 13.7075 21.2524 13.7279 21.0273C13.7354 20.9453 13.7403 20.8542 13.7436 20.75ZM3.75 10C3.75 5.44365 7.44365 1.75 12 1.75C16.5563 1.75 20.25 5.44365 20.25 10C20.25 12.4428 19.1874 14.6384 17.5016 16.1479C16.9397 16.651 16.5234 17.0238 16.2284 17.2942C16.0809 17.4295 15.9681 17.5351 15.8849 17.6162C15.8434 17.6566 15.8117 17.6886 15.788 17.7134C15.7763 17.7256 15.7675 17.7352 15.7611 17.7423C15.7546 17.7496 15.7519 17.7529 15.7519 17.7529C15.4917 18.074 15.4354 18.1568 15.4019 18.2319C15.3683 18.3069 15.3442 18.4041 15.2786 18.8121C15.2527 18.9732 15.25 19.2491 15.25 20V20.0322C15.25 20.472 15.25 20.8514 15.2218 21.1627C15.192 21.4918 15.1259 21.8178 14.9486 22.125C14.7511 22.467 14.467 22.7511 14.125 22.9486C13.8178 23.1259 13.4918 23.192 13.1627 23.2218C12.8514 23.25 12.472 23.25 12.0322 23.25H11.9678C11.528 23.25 11.1486 23.25 10.8374 23.2218C10.5082 23.192 10.1822 23.1259 9.875 22.9486C9.53296 22.7511 9.24892 22.467 9.05144 22.125C8.87407 21.8178 8.80802 21.4918 8.77818 21.1627C8.74997 20.8514 8.74998 20.472 8.75 20.0322L8.75 20C8.75 19.2491 8.74735 18.9732 8.72144 18.8121C8.6558 18.4041 8.63166 18.3069 8.59812 18.2319C8.56459 18.1568 8.50828 18.074 8.24812 17.7529C8.24812 17.7529 8.24514 17.7493 8.23888 17.7423C8.23249 17.7352 8.22369 17.7256 8.21199 17.7134C8.18835 17.6886 8.15661 17.6566 8.11513 17.6162C8.03189 17.5351 7.91912 17.4295 7.77161 17.2942C7.4766 17.0238 7.06034 16.651 6.49845 16.1479C4.81263 14.6384 3.75 12.4428 3.75 10Z" fill="#E78186"/>
<path fill-rule="evenodd" clip-rule="evenodd" d="M13.2215 8.3897C13.5586 8.63046 13.6366 9.09887 13.3959 9.43593L12.1001 11.25H13.6427C13.9237 11.25 14.181 11.407 14.3096 11.6568C14.4382 11.9066 14.4163 12.2073 14.253 12.4359L12.1102 15.4359C11.8694 15.773 11.401 15.8511 11.0639 15.6103C10.7269 15.3695 10.6488 14.9011 10.8896 14.5641L12.1853 12.75H10.6427C10.3618 12.75 10.1044 12.593 9.97585 12.3432C9.84729 12.0934 9.86913 11.7927 10.0324 11.5641L12.1753 8.56407C12.416 8.22701 12.8844 8.14894 13.2215 8.3897Z" fill="#E78186"/>
</svg>
