<svg width="461" height="445" viewBox="0 0 461 445" fill="none" xmlns="http://www.w3.org/2000/svg">
<g opacity="0.32">
<path d="M600.4 311.197L455.999 311.197C376.076 311.197 311.597 375.676 311.597 455.598C311.597 535.521 376.076 600 455.999 600L600.4 600L600.4 311.197Z" fill="#606D5B"/>
<path d="M600.4 288.803L600.4 144.402C600.4 64.4789 535.922 3.12865e-05 455.999 3.22395e-05C376.076 3.31926e-05 311.597 64.4789 311.597 144.402L311.597 288.803L600.4 288.803Z" fill="#606D5B"/>
<path d="M0.40052 288.803L144.802 288.803C224.725 288.803 289.204 224.324 289.204 144.402C289.204 64.4789 224.725 3.51012e-05 144.802 3.60542e-05L0.400517 3.77762e-05L0.40052 288.803Z" fill="#606D5B"/>
<path d="M0.400517 311.197L0.400519 455.598C0.40052 535.521 64.8792 600 144.802 600C224.725 600 289.204 535.521 289.204 455.598L289.204 311.197L0.400517 311.197Z" fill="#606D5B"/>
</g>
</svg>
