<svg width="156" height="157" viewBox="0 0 156 157" fill="none" xmlns="http://www.w3.org/2000/svg">
<path d="M118.564 75.65C139.219 75.65 155.964 58.9054 155.964 38.25C155.964 17.5946 139.219 0.849976 118.564 0.849976C97.9085 0.849976 81.1641 17.5946 81.1641 38.25C81.1641 58.9054 97.9085 75.65 118.564 75.65Z" fill="#8B6956"/>
<path d="M0.564453 38.25C0.564453 58.95 17.3645 75.65 37.9645 75.65V0.849976C17.2645 0.849976 0.564453 17.55 0.564453 38.25Z" fill="#4C5647"/>
<path d="M40.8643 38.25C40.8643 58.95 57.6643 75.65 78.2643 75.65V0.849976C57.5643 0.849976 40.8643 17.55 40.8643 38.25Z" fill="#4C5647"/>
<path d="M37.9645 156.25C58.6199 156.25 75.3645 139.505 75.3645 118.85C75.3645 98.1945 58.6199 81.45 37.9645 81.45C17.309 81.45 0.564453 98.1945 0.564453 118.85C0.564453 139.505 17.309 156.25 37.9645 156.25Z" fill="#8B6956"/>
<path d="M155.964 118.85C155.964 98.15 139.164 81.45 118.564 81.45V156.25C139.264 156.25 155.964 139.55 155.964 118.85Z" fill="#768372"/>
<path d="M115.665 118.85C115.665 98.15 98.8646 81.45 78.2646 81.45V156.25C98.9646 156.25 115.665 139.55 115.665 118.85Z" fill="#768372"/>
</svg>
